<?xml version="1.0" encoding="UTF-8" standalone="no"?>
<!DOCTYPE svg PUBLIC "-//W3C//DTD SVG 1.1//EN" "http://www.w3.org/Graphics/SVG/1.1/DTD/svg11.dtd">
<svg width="100%" height="100%" viewBox="0 0 1442 1291" version="1.1" xmlns="http://www.w3.org/2000/svg" xmlns:xlink="http://www.w3.org/1999/xlink" xml:space="preserve" xmlns:serif="http://www.serif.com/" style="fill-rule:evenodd;clip-rule:evenodd;stroke-miterlimit:10;">
    <g transform="matrix(1,0,0,1,0,-3096.68)">
        <g id="Page-13" serif:id="Page 13" transform="matrix(2.66667,0,0,2.66667,0,3096.68)">
            <rect x="0" y="0" width="540.71" height="483.793" style="fill:none;"/>
            <g id="Layer-1" serif:id="Layer 1">
                <g transform="matrix(1,0,0,1,249.047,413.791)">
                    <path d="M0,-118.225C12.518,-117.032 15.35,-117.032 19.523,-117.627C26.825,-118.523 36.959,-121.504 39.343,-122.399C40.387,-119.119 41.728,-115.244 42.473,-113.603C43.964,-110.173 42.919,-102.124 43.964,-95.564C45.603,-84.681 45.453,-69.326 45.304,-62.319C45.155,-55.311 47.986,-28.923 47.986,-19.829L47.986,-14.015C49.477,-13.569 51.415,-14.462 52.458,-12.673C53.799,-10.287 53.053,-7.008 52.458,-5.517L46.646,-4.325L46.646,-0.746C44.112,0.596 40.237,1.192 37.257,-0.298L36.064,-7.604C35.319,-10.735 34.128,-13.716 34.128,-15.804C34.128,-17.891 34.723,-20.425 34.574,-23.705C34.425,-28.923 34.425,-32.352 33.531,-36.526C31.445,-46.515 30.252,-54.566 28.315,-62.319C25.782,-73.052 22.652,-78.27 19.523,-91.836C17.883,-82.444 14.754,-69.326 14.456,-63.661C14.009,-55.908 12.221,-42.787 12.071,-34.44C11.922,-18.338 9.091,-10.139 8.196,-7.455L7.601,4.174L0.149,4.174L-1.788,0.149C-3.427,-0.15 -6.109,-1.044 -6.855,-2.685C-7.601,-4.325 -7.75,-5.666 -7.601,-7.455L-2.533,-10.139C-4.172,-24.898 -4.024,-46.664 -3.725,-48.901C-3.427,-51.137 -2.98,-58.59 -3.13,-61.274C-3.279,-63.958 -4.024,-68.282 -4.172,-70.666C-4.321,-73.052 -3.725,-89.6 -4.024,-96.607C-4.321,-104.508 -5.216,-110.472 0,-118.225Z" style="fill:none;fill-rule:nonzero;stroke:#000;stroke-width:1px;"/>
                </g>
                <g transform="matrix(1,0,0,1,288.542,220.378)">
                    <path d="M0,67.231C-0.149,60.97 -0.447,50.834 -0.447,48.449C-0.447,46.064 1.491,33.839 1.641,30.56C1.789,27.282 5.516,21.915 7.9,20.126C10.286,18.337 24.149,3.58 24.746,0.896C25.342,-1.788 24.149,-4.47 21.466,-5.514C18.783,-6.557 3.132,-8.644 -5.962,-8.943C-7.453,-10.134 -9.689,-10.732 -12.969,-10.433C-16.695,-10.134 -21.317,-10.285 -21.317,-9.687C-21.317,-8.345 -18.186,-8.345 -15.354,-7.749C-18.484,-6.707 -24.596,-5.215 -24.596,-4.47C-24.297,-3.278 -18.931,-4.47 -15.951,-4.768C-18.782,-3.128 -24.596,-2.234 -24.297,-0.892C-24,0.3 -18.484,-1.638 -15.055,-2.234C-17.888,-0.892 -23.255,0.747 -22.807,1.94C-22.36,3.134 -16.099,0.3 -13.714,-0.296C-15.801,1.194 -20.721,2.386 -20.273,3.281C-19.975,4.027 -11.926,1.642 -9.391,-0.892L-7.602,-2.681C-5.367,-2.532 -2.684,-2.084 -0.895,-1.788C0.895,-1.49 9.243,0.598 13.118,1.642C10.436,3.728 5.367,7.157 -0.895,10.287C-4.621,9.542 -8.497,8.201 -10.733,8.052C-12.969,7.903 -14.31,6.71 -15.055,5.815C-15.801,4.921 -23.553,7.305 -29.216,8.201C-31.304,9.542 -33.689,10.884 -37.416,11.928C-38.459,12.225 -45.317,12.97 -47.702,15.356C-50.236,17.89 -62.012,38.46 -64.994,45.616C-66.485,49.343 -61.268,56.498 -60.224,58.884C-58.435,62.908 -56.05,68.126 -51.578,74.834C-50.236,76.174 -49.788,77.963 -47.254,77.666C-44.72,77.368 -43.23,76.622 -42.484,75.877C-41.739,75.131 -38.013,72.15 -37.416,71.851C-36.82,71.554 -33.689,71.107 -33.242,70.362C-32.795,69.616 -37.863,69.468 -39.354,69.468C-40.845,69.468 -42.932,70.212 -45.019,70.958C-48.299,66.933 -50.236,56.201 -53.068,50.983C-51.727,45.616 -44.273,36.821 -42.932,33.542C-42.037,38.163 -40.397,45.169 -39.801,48.896C-39.354,51.877 -41.292,59.032 -41.739,61.12C-42.186,63.504 -41.292,67.827 -41.292,68.423" style="fill:none;fill-rule:nonzero;stroke:#000;stroke-width:1px;"/>
                </g>
                <g transform="matrix(1,0,0,1,269.439,220.812)">
                    <path d="M0,-11.767C-1.636,-14.598 -5.056,-18.471 -11.6,-15.641C-17.251,-13.256 -17.399,-7.597 -14.573,-1.042C-15.317,-0.744 -15.913,-0.447 -15.615,0.745C-15.317,1.937 -13.235,4.321 -11.6,3.576C-10.856,4.468 -10.262,5.661 -10.112,6.704" style="fill:none;fill-rule:nonzero;stroke:#000;stroke-width:1px;"/>
                </g>
                <g transform="matrix(1,0,0,1,248.892,266.766)">
                    <path d="M0,16.068C3.426,14.133 5.66,11.307 10.129,10.116C14.598,8.926 21.449,1.488 22.939,0" style="fill:none;fill-rule:nonzero;stroke:#000;stroke-width:1px;"/>
                </g>
                <g transform="matrix(1,0,0,1,256.049,264.524)">
                    <path d="M0,22.038L16.533,13.699C17.725,11.018 19.66,5.808 20.107,5.658L23.533,0" style="fill:none;fill-rule:nonzero;stroke:#000;stroke-width:1px;"/>
                </g>
                <g transform="matrix(0.949694,0.313179,0.313179,-0.949694,243.996,234.407)">
                    <path d="M-0.319,-1.989C3.914,-1.988 4.107,-1.149 12.382,-1.989" style="fill:none;fill-rule:nonzero;stroke:#000;stroke-width:1px;"/>
                </g>
                <g transform="matrix(1,0,0,1,259.022,235.418)">
                    <path d="M0,-5.039L5.057,-5.336C6.246,-3.409 8.03,-2.074 8.774,0.297" style="fill:none;fill-rule:nonzero;stroke:#000;stroke-width:1px;"/>
                </g>
                <g transform="matrix(0.842448,0.538778,0.538778,-0.842448,227.835,267.414)">
                    <path d="M-0.932,-3.187C1.029,-4.043 5.166,-5.268 10.897,-3.187" style="fill:none;fill-rule:nonzero;stroke:#000;stroke-width:1px;"/>
                </g>
                <g transform="matrix(-0.0125575,-0.999921,-0.999921,0.0125575,242.294,284.123)">
                    <path d="M-4.639,4.815C-1.506,4.776 0.28,4.519 4.758,4.815" style="fill:none;fill-rule:nonzero;stroke:#000;stroke-width:1px;"/>
                </g>
                <g transform="matrix(-0.788787,0.614666,0.614666,0.788787,267.034,297.554)">
                    <path d="M-25.339,-8.707C-15.384,-3.445 -5.405,-3.486 2.992,-8.707" style="fill:none;fill-rule:nonzero;stroke:#000;stroke-width:1px;"/>
                </g>
                <g transform="matrix(0.989004,-0.147887,-0.147887,-0.989004,277.861,323.654)">
                    <path d="M-0.065,0.869C3.853,0.869 10.127,0.517 11.688,0.869" style="fill:none;fill-rule:nonzero;stroke:#000;stroke-width:1px;"/>
                </g>
                <g transform="matrix(0.958906,0.283724,0.283724,-0.958906,249.98,348.331)">
                    <path d="M-0.169,-1.168C2.775,-1.666 4.207,-2.309 8.064,-1.168" style="fill:none;fill-rule:nonzero;stroke:#000;stroke-width:1px;"/>
                </g>
                <g transform="matrix(1,0,0,1,250.074,327.153)">
                    <path d="M0,-0.877L15.466,-2.046C12.667,-1.023 10.899,0.731 7.07,1.169" style="fill:none;fill-rule:nonzero;stroke:#000;stroke-width:1px;"/>
                </g>
                <g transform="matrix(0,-1,-1,0,455.352,193.119)">
                    <path d="M-177.616,33.824L103.856,33.824L65.422,177.616L-247.647,177.616L-177.616,33.824Z" style="fill:none;fill-rule:nonzero;stroke:#000;stroke-width:1px;"/>
                </g>
                <g transform="matrix(1,0,0,1,273.825,411.906)">
                    <path d="M0,-284.583L-171.356,-313.817L-171.356,-28.88L2.235,29.234" style="fill:none;fill-rule:nonzero;stroke:#000;stroke-width:1px;"/>
                </g>
                <g transform="matrix(1,0,0,1,417.989,69.9189)">
                    <path d="M0,17.295L-170.426,-7.894L-311.051,25.189" style="fill:none;fill-rule:nonzero;stroke:#000;stroke-width:1px;"/>
                </g>
                <g transform="matrix(0.94319,-0.332255,-0.332255,-0.94319,118.078,401.059)">
                    <path d="M-4.053,23.705L138.641,23.706" style="fill:none;fill-rule:nonzero;stroke:#000;stroke-width:1px;"/>
                </g>
                <g transform="matrix(0.962618,0.270864,0.270864,-0.962618,305.677,319.913)">
                    <path d="M-2.327,-16.864L122.192,-16.864" style="fill:none;fill-rule:nonzero;stroke:#000;stroke-width:1px;"/>
                </g>
                <g transform="matrix(0,-1,-1,0,330.438,148.624)">
                    <path d="M-82.876,82.876L82.876,82.876" style="fill:none;fill-rule:nonzero;stroke:#000;stroke-width:1px;"/>
                </g>
                <g transform="matrix(-0.717578,-0.696478,-0.696478,0.717578,342.254,384.093)">
                    <path d="M-5.535,2.245C-4.054,3.572 -1.913,4.269 0.91,2.245" style="fill:none;fill-rule:nonzero;stroke:#000;stroke-width:1.74px;stroke-linecap:round;stroke-linejoin:round;stroke-miterlimit:4;stroke-dasharray:0,4.71;"/>
                </g>
                <g transform="matrix(0,-1,-1,0,413.655,303.739)">
                    <path d="M-73.808,73.808L73.808,73.808" style="fill:none;fill-rule:nonzero;stroke:#000;stroke-width:1.74px;stroke-linecap:round;stroke-linejoin:round;stroke-miterlimit:4;stroke-dasharray:0,5.18;"/>
                </g>
                <g transform="matrix(0.668352,-0.743845,-0.743845,-0.668352,344.606,222.629)">
                    <path d="M-1.465,3.286C0.946,4.095 4.02,4.468 7.37,3.286" style="fill:none;fill-rule:nonzero;stroke:#000;stroke-width:1.74px;stroke-linecap:round;stroke-linejoin:round;stroke-miterlimit:4;stroke-dasharray:0,6;"/>
                </g>
                <g transform="matrix(0.955741,-0.294208,-0.294208,-0.955741,356.999,217.327)">
                    <path d="M-0.824,5.481L36.431,5.481" style="fill:none;fill-rule:nonzero;stroke:#000;stroke-width:1.74px;stroke-linecap:round;stroke-linejoin:round;stroke-miterlimit:4;stroke-dasharray:0,4.97;"/>
                </g>
                <g transform="matrix(0.684097,0.729391,0.729391,-0.684097,400.176,199.455)">
                    <path d="M-1.112,-2.569C0.619,-1.357 3.003,-0.744 5.93,-2.568" style="fill:none;fill-rule:nonzero;stroke:#000;stroke-width:1.74px;stroke-linecap:round;stroke-linejoin:round;stroke-miterlimit:4;stroke-dasharray:0,5.01;"/>
                </g>
                <g transform="matrix(0,1,1,0,470.323,281.08)">
                    <path d="M-67.738,-67.738L67.738,-67.738" style="fill:none;fill-rule:nonzero;stroke:#000;stroke-width:1.74px;stroke-linecap:round;stroke-linejoin:round;stroke-miterlimit:4;stroke-dasharray:0,5.31;"/>
                </g>
                <g transform="matrix(-0.575712,0.817653,0.817653,0.575712,400.452,366.135)">
                    <path d="M-9.017,-4.679C-6.116,-3.693 -1.994,-3.031 2.428,-4.679" style="fill:none;fill-rule:nonzero;stroke:#000;stroke-width:1.74px;stroke-linecap:round;stroke-linejoin:round;stroke-miterlimit:4;stroke-dasharray:0,4.67;"/>
                </g>
                <g transform="matrix(-0.895095,0.445875,0.445875,0.895095,357.657,394.524)">
                    <path d="M-38.814,-9.132L2.149,-9.132" style="fill:none;fill-rule:nonzero;stroke:#000;stroke-width:1.74px;stroke-linecap:round;stroke-linejoin:round;stroke-miterlimit:4;stroke-dasharray:0,5.46;"/>
                </g>
                <g transform="matrix(1,0,0,1,339.847,394.327)">
                    <path d="M9.37,-5.8L9.37,-5.8" style="fill:none;fill-rule:nonzero;stroke:#000;stroke-width:1.74px;stroke-linecap:round;stroke-linejoin:round;stroke-miterlimit:4;"/>
                </g>
            </g>
        </g>
    </g>
</svg>
