<?xml version="1.0" encoding="UTF-8" standalone="no"?><!DOCTYPE svg PUBLIC "-//W3C//DTD SVG 1.1//EN" "http://www.w3.org/Graphics/SVG/1.1/DTD/svg11.dtd"><svg width="100%" height="100%" viewBox="0 0 541 484" version="1.1" xmlns="http://www.w3.org/2000/svg" xmlns:xlink="http://www.w3.org/1999/xlink" xml:space="preserve" xmlns:serif="http://www.serif.com/" style="fill-rule:evenodd;clip-rule:evenodd;stroke-miterlimit:1;"><rect id="Page-13" serif:id="Page 13" x="0" y="0" width="540.71" height="483.793" style="fill:none;"/><g id="Layer-1" serif:id="Layer 1"><path d="M249.18,295.812c12.445,1.186 15.261,1.186 19.408,0.594c7.259,-0.891 17.335,-3.855 19.704,-4.746c1.039,3.261 2.371,7.113 3.112,8.745c1.482,3.41 0.443,11.411 1.482,17.934c1.631,10.819 1.481,26.084 1.334,33.051c-0.149,6.966 2.667,33.199 2.667,42.242l0,5.778c1.479,0.445 3.407,-0.444 4.445,1.338c1.334,2.366 0.59,5.629 0,7.111l-5.778,1.186l0,3.557c-2.52,1.335 -6.374,1.928 -9.334,0.446l-1.185,-7.264c-0.742,-3.113 -1.925,-6.077 -1.925,-8.151c0,-2.075 0.591,-4.594 0.444,-7.857c-0.149,-5.187 -0.149,-8.595 -1.039,-12.745c-2.074,-9.931 -3.26,-17.934 -5.185,-25.641c-2.519,-10.669 -5.63,-15.858 -8.742,-29.346c-1.628,9.338 -4.741,22.379 -5.036,28.012c-0.447,7.707 -2.221,20.752 -2.372,29.051c-0.146,16.007 -2.963,24.155 -3.851,26.824l-0.593,11.565l-7.409,-0l-1.925,-4.004c-1.63,-0.297 -4.297,-1.187 -5.036,-2.817c-0.741,-1.63 -0.891,-2.963 -0.741,-4.744l5.037,-2.669c-1.629,-14.671 -1.481,-36.31 -1.186,-38.534c0.296,-2.223 0.74,-9.632 0.591,-12.299c-0.146,-2.671 -0.886,-6.967 -1.034,-9.338c-0.149,-2.37 0.443,-18.823 0.148,-25.788c-0.297,-7.857 -1.187,-13.785 3.999,-21.491" style="fill:#fff;fill-rule:nonzero;"/><path d="M249.047,295.566c12.518,1.193 15.35,1.193 19.523,0.598c7.302,-0.896 17.436,-3.877 19.82,-4.772c1.044,3.28 2.385,7.155 3.13,8.796c1.491,3.43 0.446,11.479 1.491,18.039c1.639,10.883 1.489,26.238 1.34,33.245c-0.149,7.008 2.682,33.396 2.682,42.49l0,5.814c1.491,0.446 3.429,-0.447 4.472,1.342c1.341,2.386 0.595,5.665 0,7.156l-5.812,1.192l0,3.579c-2.534,1.342 -6.409,1.938 -9.389,0.448l-1.193,-7.306c-0.745,-3.131 -1.936,-6.112 -1.936,-8.2c0,-2.087 0.595,-4.621 0.446,-7.901c-0.149,-5.218 -0.149,-8.647 -1.043,-12.821c-2.086,-9.989 -3.279,-18.04 -5.216,-25.793c-2.533,-10.733 -5.663,-15.951 -8.792,-29.517c-1.64,9.392 -4.769,22.51 -5.067,28.175c-0.447,7.753 -2.235,20.874 -2.385,29.221c-0.149,16.102 -2.98,24.301 -3.875,26.985l-0.595,11.629l-7.452,0l-1.937,-4.025c-1.639,-0.299 -4.321,-1.193 -5.067,-2.834c-0.746,-1.64 -0.895,-2.981 -0.746,-4.77l5.068,-2.684c-1.639,-14.759 -1.491,-36.525 -1.192,-38.762c0.298,-2.236 0.745,-9.689 0.595,-12.373c-0.149,-2.684 -0.894,-7.008 -1.042,-9.392c-0.149,-2.386 0.447,-18.934 0.148,-25.941c-0.297,-7.901 -1.192,-13.865 4.024,-21.618Z" style="fill:none;fill-rule:nonzero;stroke:#000;stroke-width:1px;"/><path d="M288.542,287.609c-0.149,-6.261 -0.447,-16.397 -0.447,-18.782c0,-2.385 1.938,-14.61 2.088,-17.889c0.148,-3.278 3.875,-8.645 6.259,-10.434c2.386,-1.789 16.249,-16.546 16.846,-19.23c0.596,-2.684 -0.597,-5.366 -3.28,-6.41c-2.683,-1.043 -18.334,-3.13 -27.428,-3.429c-1.491,-1.191 -3.727,-1.789 -7.007,-1.49c-3.726,0.299 -8.348,0.148 -8.348,0.746c-0,1.342 3.131,1.342 5.963,1.938c-3.13,1.042 -9.242,2.534 -9.242,3.279c0.299,1.192 5.665,0 8.645,-0.298c-2.831,1.64 -8.645,2.534 -8.346,3.876c0.297,1.192 5.813,-0.746 9.242,-1.342c-2.833,1.342 -8.2,2.981 -7.752,4.174c0.447,1.194 6.708,-1.64 9.093,-2.236c-2.087,1.49 -7.007,2.682 -6.559,3.577c0.298,0.746 8.347,-1.639 10.882,-4.173l1.789,-1.789c2.235,0.149 4.918,0.597 6.707,0.893c1.79,0.298 10.138,2.386 14.013,3.43c-2.682,2.086 -7.751,5.515 -14.013,8.645c-3.726,-0.745 -7.602,-2.086 -9.838,-2.235c-2.236,-0.149 -3.577,-1.342 -4.322,-2.237c-0.746,-0.894 -8.498,1.49 -14.161,2.386c-2.088,1.341 -4.473,2.683 -8.2,3.727c-1.043,0.297 -7.901,1.042 -10.286,3.428c-2.534,2.534 -14.31,23.104 -17.292,30.26c-1.491,3.727 3.726,10.882 4.77,13.268c1.789,4.024 4.174,9.242 8.646,15.95c1.342,1.34 1.79,3.129 4.324,2.832c2.534,-0.298 4.024,-1.044 4.77,-1.789c0.745,-0.746 4.471,-3.727 5.068,-4.026c0.596,-0.297 3.727,-0.744 4.174,-1.489c0.447,-0.746 -4.621,-0.894 -6.112,-0.894c-1.491,0 -3.578,0.744 -5.665,1.49c-3.28,-4.025 -5.217,-14.757 -8.049,-19.975c1.341,-5.367 8.795,-14.162 10.136,-17.441c0.895,4.621 2.535,11.627 3.131,15.354c0.447,2.981 -1.491,10.136 -1.938,12.224c-0.447,2.384 0.447,6.707 0.447,7.303" style="fill:none;fill-rule:nonzero;stroke:#000;stroke-width:1px;"/><path d="M269.439,209.045c-1.636,-2.831 -5.056,-6.704 -11.6,-3.874c-5.651,2.385 -5.799,8.044 -2.973,14.599c-0.744,0.298 -1.34,0.595 -1.042,1.787c0.298,1.192 2.38,3.576 4.015,2.831c0.744,0.892 1.338,2.085 1.488,3.128" style="fill:none;fill-rule:nonzero;stroke:#000;stroke-width:1px;"/><path d="M248.892,282.834c3.426,-1.935 5.66,-4.761 10.129,-5.952c4.469,-1.19 11.32,-8.628 12.81,-10.116" style="fill:none;fill-rule:nonzero;stroke:#000;stroke-width:1px;stroke-miterlimit:10;"/><path d="M256.049,286.562l16.533,-8.339c1.192,-2.681 3.127,-7.891 3.574,-8.041l3.426,-5.658" style="fill:none;fill-rule:nonzero;stroke:#000;stroke-width:1px;stroke-miterlimit:10;"/><path d="M243.07,236.196c4.021,1.325 4.467,0.589 12.063,3.978" style="fill:none;fill-rule:nonzero;stroke:#000;stroke-width:1px;stroke-miterlimit:10;"/><path d="M259.022,230.379l5.058,-0.297c1.188,1.927 2.972,3.262 3.716,5.633" style="fill:none;fill-rule:nonzero;stroke:#000;stroke-width:1px;stroke-miterlimit:10;"/><path d="M225.333,269.597c1.19,1.778 4.016,5.039 9.965,6.373" style="fill:none;fill-rule:nonzero;stroke:#000;stroke-width:1px;stroke-miterlimit:10;"/><path d="M237.538,288.822c-0,-3.133 0.234,-4.922 -0.118,-9.396" style="fill:none;fill-rule:nonzero;stroke:#000;stroke-width:1px;stroke-miterlimit:10;"/><path d="M281.669,275.111c-4.618,10.27 -12.514,16.371 -22.347,17.414" style="fill:none;fill-rule:nonzero;stroke:#000;stroke-width:1px;stroke-miterlimit:10;"/><path d="M277.669,322.804c3.875,-0.579 10.132,-1.159 11.623,-1.738" style="fill:none;fill-rule:nonzero;stroke:#000;stroke-width:1px;stroke-miterlimit:10;"/><path d="M249.486,349.403c2.682,1.313 3.873,2.336 7.895,2.336" style="fill:none;fill-rule:nonzero;stroke:#000;stroke-width:1px;stroke-miterlimit:10;"/><path d="M250.074,326.276l15.466,-1.169c-2.799,1.023 -4.567,2.777 -8.396,3.215" style="fill:none;fill-rule:nonzero;stroke:#000;stroke-width:1px;stroke-miterlimit:10;"/><path d="M421.528,370.734l-0,-281.472l-143.791,38.435l-0,313.069l143.791,-70.032Z" style="fill:none;fill-rule:nonzero;stroke:#000;stroke-width:1px;stroke-miterlimit:10;"/><path d="M273.825,127.323l-171.356,-29.234l-0,284.937l173.591,58.114" style="fill:none;fill-rule:nonzero;stroke:#000;stroke-width:1px;stroke-miterlimit:10;"/><path d="M417.989,87.214l-170.426,-25.189l-140.625,33.083" style="fill:none;fill-rule:nonzero;stroke:#000;stroke-width:1px;stroke-miterlimit:10;"/><path d="M106.379,380.047l134.588,-47.411" style="fill:none;fill-rule:nonzero;stroke:#000;stroke-width:1px;stroke-miterlimit:10;"/><path d="M298.869,335.517l119.865,33.728" style="fill:none;fill-rule:nonzero;stroke:#000;stroke-width:1px;stroke-miterlimit:10;"/><path d="M247.563,231.5l-0,-165.751" style="fill:none;fill-rule:nonzero;stroke:#000;stroke-width:1px;stroke-miterlimit:10;"/><path d="M344.663,389.559c-1.988,-0.079 -4.009,-1.07 -4.625,-4.489" style="fill:none;fill-rule:nonzero;stroke:#000;stroke-width:1.75px;stroke-linecap:round;stroke-linejoin:round;stroke-miterlimit:4;stroke-dasharray:0,4.71;"/><path d="M339.847,377.547l0,-147.616" style="fill:none;fill-rule:nonzero;stroke:#000;stroke-width:1.75px;stroke-linecap:round;stroke-linejoin:round;stroke-miterlimit:4;stroke-dasharray:0,5.18;"/><path d="M341.182,221.523c1.01,-2.334 2.787,-4.87 5.905,-6.572" style="fill:none;fill-rule:nonzero;stroke:#000;stroke-width:1.75px;stroke-linecap:round;stroke-linejoin:round;stroke-miterlimit:4;stroke-dasharray:0,6;"/><path d="M354.599,212.332l35.607,-10.961" style="fill:none;fill-rule:nonzero;stroke:#000;stroke-width:1.75px;stroke-linecap:round;stroke-linejoin:round;stroke-miterlimit:4;stroke-dasharray:0,4.97;"/><path d="M397.542,200.4c2.068,0.434 4.146,1.754 4.818,5.137" style="fill:none;fill-rule:nonzero;stroke:#000;stroke-width:1.75px;stroke-linecap:round;stroke-linejoin:round;stroke-miterlimit:4;stroke-dasharray:0,5.01;"/><path d="M402.585,213.342l0,135.476" style="fill:none;fill-rule:nonzero;stroke:#000;stroke-width:1.75px;stroke-linecap:round;stroke-linejoin:round;stroke-miterlimit:4;stroke-dasharray:0,5.31;"/><path d="M401.817,356.068c-0.864,2.94 -2.696,6.691 -6.589,9.358" style="fill:none;fill-rule:nonzero;stroke:#000;stroke-width:1.75px;stroke-linecap:round;stroke-linejoin:round;stroke-miterlimit:4;stroke-dasharray:0,4.67;"/><path d="M388.327,369.044l-36.665,18.264" style="fill:none;fill-rule:nonzero;stroke:#000;stroke-width:1.75px;stroke-linecap:round;stroke-linejoin:round;stroke-miterlimit:4;stroke-dasharray:0,5.46;"/><path d="M349.217,388.527l0,-0" style="fill:none;fill-rule:nonzero;stroke:#000;stroke-width:1.75px;stroke-linecap:round;stroke-linejoin:round;stroke-miterlimit:4;"/></g></svg>