<?xml version="1.0" encoding="UTF-8"?>
<svg xmlns="http://www.w3.org/2000/svg" xmlns:xlink="http://www.w3.org/1999/xlink" width="540.71pt" height="483.793pt" viewBox="0 0 540.71 483.793" version="1.1">
<defs>
<clipPath id="clip1">
  <path d="M 64 61 L 293 61 L 293 483.792969 L 64 483.792969 Z M 64 61 "/>
</clipPath>
</defs>
<g id="surface1">
<path style=" stroke:none;fill-rule:nonzero;fill:rgb(94.099426%,37.298584%,0%);fill-opacity:1;" d="M 0 481.890625 L 538.582031 481.890625 L 538.582031 0 L 0 0 Z M 0 481.890625 "/>
<path style=" stroke:none;fill-rule:nonzero;fill:rgb(100%,100%,100%);fill-opacity:1;" d="M 247.152344 302.003906 C 261.503906 303.371094 264.75 303.371094 269.53125 302.6875 C 277.902344 301.660156 289.519531 298.242188 292.253906 297.21875 C 293.449219 300.980469 294.984375 305.421875 295.839844 307.300781 C 297.550781 311.234375 296.351562 320.460938 297.550781 327.980469 C 299.429688 340.457031 299.257812 358.058594 299.085938 366.09375 C 298.917969 374.125 302.160156 404.375 302.160156 414.800781 L 302.160156 421.464844 C 303.871094 421.976562 306.089844 420.953125 307.289062 423.003906 C 308.824219 425.738281 307.96875 429.496094 307.289062 431.207031 L 300.625 432.574219 L 300.625 436.675781 C 297.71875 438.214844 293.277344 438.898438 289.859375 437.1875 L 288.496094 428.816406 C 287.640625 425.226562 286.273438 421.808594 286.273438 419.414062 C 286.273438 417.023438 286.957031 414.117188 286.785156 410.355469 C 286.617188 404.375 286.617188 400.445312 285.589844 395.660156 C 283.199219 384.207031 281.832031 374.980469 279.609375 366.09375 C 276.707031 353.785156 273.121094 347.804688 269.53125 332.253906 C 267.652344 343.023438 264.066406 358.058594 263.722656 364.554688 C 263.210938 373.441406 261.160156 388.480469 260.992188 398.050781 C 260.820312 416.507812 257.574219 425.90625 256.546875 428.984375 L 255.867188 442.316406 L 247.324219 442.316406 L 245.101562 437.699219 C 243.222656 437.359375 240.148438 436.332031 239.292969 434.453125 C 238.4375 432.574219 238.269531 431.035156 238.4375 428.984375 L 244.25 425.90625 C 242.371094 408.988281 242.539062 384.035156 242.882812 381.472656 C 243.222656 378.910156 243.734375 370.363281 243.5625 367.289062 C 243.394531 364.210938 242.539062 359.257812 242.371094 356.523438 C 242.199219 353.785156 242.882812 334.816406 242.539062 326.785156 C 242.199219 317.726562 241.171875 310.890625 247.152344 302.003906 "/>
<path style="fill:none;stroke-width:1;stroke-linecap:butt;stroke-linejoin:miter;stroke:rgb(0%,0%,0%);stroke-opacity:1;stroke-miterlimit:10;" d="M 0.00004375 -0.00000625 C 14.351606 -1.367194 17.5977 -1.367194 22.37895 -0.6836 C 30.750044 0.343744 42.367231 3.761712 45.101606 4.78515 C 46.296919 1.023431 47.832075 -3.417975 48.687544 -5.296881 C 50.398481 -9.230475 49.199262 -18.457038 50.398481 -25.976569 C 52.277387 -38.453131 52.105512 -56.054694 51.933637 -64.08985 C 51.765669 -72.1211 55.007856 -102.3711 55.007856 -112.796881 L 55.007856 -119.460944 C 56.718794 -119.972663 58.937544 -118.949225 60.136762 -121.000006 C 61.671919 -123.734381 60.81645 -127.492194 60.136762 -129.203131 L 53.4727 -130.570319 L 53.4727 -134.671881 C 50.56645 -136.210944 46.125044 -136.894538 42.707075 -135.1836 L 41.343794 -126.812506 C 40.488325 -123.222663 39.121137 -119.804694 39.121137 -117.410163 C 39.121137 -115.019538 39.804731 -112.113288 39.632856 -108.351569 C 39.464887 -102.3711 39.464887 -98.441413 38.437544 -93.656256 C 36.046919 -82.203131 34.679731 -72.976569 32.457075 -64.08985 C 29.554731 -51.781256 25.968794 -45.800788 22.37895 -30.250006 C 20.500044 -41.019538 16.914106 -56.054694 16.570356 -62.550788 C 16.058637 -71.437506 14.007856 -86.476569 13.839887 -96.046881 C 13.668012 -114.503913 10.421919 -123.90235 9.394575 -126.980475 L 8.714887 -140.312506 L 0.171919 -140.312506 L -2.050738 -135.695319 C -3.929644 -135.355475 -7.003863 -134.328131 -7.859331 -132.449225 C -8.7148 -130.570319 -8.882769 -129.031256 -8.7148 -126.980475 L -2.9023 -123.90235 C -4.781206 -106.984381 -4.613238 -82.031256 -4.269488 -79.468756 C -3.929644 -76.906256 -3.417925 -68.359381 -3.5898 -65.285163 C -3.757769 -62.207038 -4.613238 -57.253913 -4.781206 -54.519538 C -4.953081 -51.781256 -4.269488 -32.812506 -4.613238 -24.781256 C -4.953081 -15.722663 -5.980425 -8.886725 0.00004375 -0.00000625 Z M 0.00004375 -0.00000625 " transform="matrix(1,0,0,-1,247.1523,302.0039)"/>
<path style="fill:none;stroke-width:1;stroke-linecap:butt;stroke-linejoin:miter;stroke:rgb(0%,0%,0%);stroke-opacity:1;stroke-miterlimit:10;" d="M -0.00101875 -0.0009125 C -0.172894 7.178775 -0.512737 18.795962 -0.512737 21.530337 C -0.512737 24.264712 1.709919 38.276431 1.881794 42.03815 C 2.049763 45.795962 6.3232 51.948306 9.057575 53.999087 C 11.79195 56.049869 27.682575 72.967837 28.366169 76.042056 C 29.049763 79.120181 27.682575 82.1944 24.608356 83.389712 C 21.530231 84.588931 3.588825 86.979556 -6.83305 87.3194 C -8.543987 88.686587 -11.106487 89.370181 -14.868206 89.030337 C -19.137737 88.686587 -24.438519 88.858462 -24.438519 88.174869 C -24.438519 86.635806 -20.848675 86.635806 -17.602581 85.952212 C -21.188519 84.7569 -28.196331 83.049869 -28.196331 82.1944 C -27.852581 80.827212 -21.700237 82.1944 -18.286175 82.534244 C -21.532269 80.655337 -28.196331 79.6319 -27.852581 78.092837 C -27.512737 76.72565 -21.188519 78.948306 -17.258831 79.6319 C -20.504925 78.092837 -26.657269 76.213931 -26.14555 74.846744 C -25.633831 73.479556 -18.454144 76.72565 -15.719769 77.409244 C -18.1143 75.702212 -23.754925 74.335025 -23.2393 73.307681 C -22.899456 72.452212 -13.672894 75.186587 -10.766644 78.092837 L -8.715862 80.143619 C -6.153362 79.971744 -3.075237 79.460025 -1.024456 79.120181 C 1.026325 78.776431 10.596638 76.385806 15.038044 75.186587 C 11.963825 72.795962 6.151325 68.866275 -1.024456 65.276431 C -5.297894 66.1319 -9.7393 67.667056 -12.305706 67.838931 C -14.868206 68.010806 -16.403362 69.377994 -17.258831 70.405337 C -18.1143 71.428775 -27.001019 68.6944 -33.493206 67.667056 C -35.887737 66.1319 -38.618206 64.592837 -42.891644 63.397525 C -44.086956 63.057681 -51.950237 62.202212 -54.684612 59.467837 C -57.586956 56.561587 -71.086956 32.979556 -74.504925 24.776431 C -76.215862 20.5069 -70.235394 12.303775 -69.036175 9.5694 C -66.985394 4.956119 -64.254925 -1.02435 -59.126019 -8.715756 C -57.586956 -10.254819 -57.075237 -12.3056 -54.168987 -11.96185 C -51.266644 -11.6181 -49.555706 -10.766538 -48.700237 -9.911069 C -47.848675 -9.0556 -43.575237 -5.637631 -42.891644 -5.297788 C -42.20805 -4.957944 -38.618206 -4.442319 -38.106487 -3.590756 C -37.594769 -2.735288 -43.403362 -2.563413 -45.1143 -2.563413 C -46.821331 -2.563413 -49.215862 -3.418881 -51.606487 -4.270444 C -55.368206 0.342837 -57.586956 12.643619 -60.83305 18.624087 C -59.297894 24.776431 -50.754925 34.858462 -49.215862 38.620181 C -48.188519 33.323306 -46.309612 25.292056 -45.626019 21.018619 C -45.1143 17.60065 -47.33305 9.397525 -47.848675 7.0069 C -48.360394 4.272525 -47.33305 -0.684506 -47.33305 -1.3681 " transform="matrix(1,0,0,-1,292.4268,292.8819)"/>
<path style="fill:none;stroke-width:1;stroke-linecap:butt;stroke-linejoin:miter;stroke:rgb(0%,0%,0%);stroke-opacity:1;stroke-miterlimit:10;" d="M -0.00095625 -0.0009125 C -1.875956 3.245181 -5.797831 7.686587 -13.297831 4.440494 C -19.774394 1.706119 -19.946269 -4.778256 -16.704081 -12.293881 C -17.55955 -12.637631 -18.239237 -12.977475 -17.899394 -14.344663 C -17.55955 -15.71185 -15.172831 -18.442319 -13.297831 -17.590756 C -12.446269 -18.610288 -11.762675 -19.977475 -11.5908 -21.176694 " transform="matrix(1,0,0,-1,270.5283,202.8194)"/>
<path style="fill:none;stroke-width:1;stroke-linecap:butt;stroke-linejoin:miter;stroke:rgb(0%,0%,0%);stroke-opacity:1;stroke-miterlimit:10;" d="M -0.00094375 0.00105 C 3.928744 2.215894 6.487338 5.458081 11.612338 6.821362 C 16.733431 8.18855 24.5889 16.711987 26.295931 18.419019 " transform="matrix(1,0,0,-1,246.9736,287.4073)"/>
<path style="fill:none;stroke-width:1;stroke-linecap:butt;stroke-linejoin:miter;stroke:rgb(0%,0%,0%);stroke-opacity:1;stroke-miterlimit:10;" d="M 0.0009875 0.0010125 L 18.954113 9.559606 C 20.317394 12.633825 22.536144 18.606481 23.051769 18.77445 L 26.97755 25.262731 " transform="matrix(1,0,0,-1,255.1787,291.6807)"/>
<path style="fill:none;stroke-width:1;stroke-linecap:butt;stroke-linejoin:miter;stroke:rgb(0%,0%,0%);stroke-opacity:1;stroke-miterlimit:10;" d="M 0.00098125 -0.0009125 C 4.610356 -1.520444 5.122075 -0.676694 13.829106 -4.559506 " transform="matrix(1,0,0,-1,240.2998,233.9444)"/>
<path style="fill:none;stroke-width:1;stroke-linecap:butt;stroke-linejoin:miter;stroke:rgb(0%,0%,0%);stroke-opacity:1;stroke-miterlimit:10;" d="M -0.0009625 -0.00194375 L 5.795913 0.341806 C 7.159194 -1.869131 9.206069 -3.400381 10.057631 -6.115225 " transform="matrix(1,0,0,-1,258.5869,227.2754)"/>
<path style="fill:none;stroke-width:1;stroke-linecap:butt;stroke-linejoin:miter;stroke:rgb(0%,0%,0%);stroke-opacity:1;stroke-miterlimit:10;" d="M 0.00095 -0.001875 C 1.364231 -2.040938 4.602512 -5.775313 11.422825 -7.306563 " transform="matrix(1,0,0,-1,219.9678,272.2325)"/>
<path style="fill:none;stroke-width:1;stroke-linecap:butt;stroke-linejoin:miter;stroke:rgb(0%,0%,0%);stroke-opacity:1;stroke-miterlimit:10;" d="M -0.00096875 -0.0009375 C -0.00096875 3.592812 0.268562 5.643594 -0.133781 10.7725 " transform="matrix(1,0,0,-1,233.958,294.2725)"/>
<path style="fill:none;stroke-width:1;stroke-linecap:butt;stroke-linejoin:miter;stroke:rgb(0%,0%,0%);stroke-opacity:1;stroke-miterlimit:10;" d="M -0.001025 0.0000125 C -5.293994 -11.773425 -14.344775 -18.769519 -25.618213 -19.964831 " transform="matrix(1,0,0,-1,284.5479,278.5547)"/>
<path style="fill:none;stroke-width:1;stroke-linecap:butt;stroke-linejoin:miter;stroke:rgb(0%,0%,0%);stroke-opacity:1;stroke-miterlimit:10;" d="M -0.0009625 0.0010375 C 4.440444 0.6651 11.616225 1.329162 13.323256 1.993225 " transform="matrix(1,0,0,-1,279.9619,333.2276)"/>
<path style="fill:none;stroke-width:1;stroke-linecap:butt;stroke-linejoin:miter;stroke:rgb(0%,0%,0%);stroke-opacity:1;stroke-miterlimit:10;" d="M 0.00095 0.00105 C 3.075169 -1.506763 4.43845 -2.678638 9.051731 -2.678638 " transform="matrix(1,0,0,-1,247.6553,363.7198)"/>
<path style="fill:none;stroke-width:1;stroke-linecap:butt;stroke-linejoin:miter;stroke:rgb(0%,0%,0%);stroke-opacity:1;stroke-miterlimit:10;" d="M -0.000975 0.00096875 L 17.729494 1.340812 C 14.522462 0.168937 12.495119 -1.842781 8.104494 -2.346688 " transform="matrix(1,0,0,-1,248.3291,337.208)"/>
<path style="fill:none;stroke-width:1;stroke-linecap:butt;stroke-linejoin:miter;stroke:rgb(0%,0%,0%);stroke-opacity:1;stroke-miterlimit:10;" d="M 0 0.000025 L 0 322.664087 L -164.835938 278.605494 L -164.835938 -80.281225 Z M 0 0.000025 " transform="matrix(1,0,0,-1,444.875,388.1719)"/>
<g clip-path="url(#clip1)" clip-rule="nonzero">
<path style="fill:none;stroke-width:1;stroke-linecap:butt;stroke-linejoin:miter;stroke:rgb(0%,0%,0%);stroke-opacity:1;stroke-miterlimit:10;" d="M -0.0010125 -0.001925 L -196.434606 33.5137 L -196.434606 -293.126925 L 2.561487 -359.744113 " transform="matrix(1,0,0,-1,275.5557,109.1387)"/>
</g>
<path style="fill:none;stroke-width:1;stroke-linecap:butt;stroke-linejoin:miter;stroke:rgb(0%,0%,0%);stroke-opacity:1;stroke-miterlimit:10;" d="M 0.0019125 -0.00095625 L -195.369181 28.87795 L -356.572306 -9.047831 " transform="matrix(1,0,0,-1,440.8184,63.1592)"/>
<path style="fill:none;stroke-width:1;stroke-linecap:butt;stroke-linejoin:miter;stroke:rgb(0%,0%,0%);stroke-opacity:1;stroke-miterlimit:10;" d="M 0.00096875 0.00004375 L 154.286125 54.351606 " transform="matrix(1,0,0,-1,83.6045,398.8477)"/>
<path style="fill:none;stroke-width:1;stroke-linecap:butt;stroke-linejoin:miter;stroke:rgb(0%,0%,0%);stroke-opacity:1;stroke-miterlimit:10;" d="M 0.001025 0.00001875 L 137.407275 -38.664044 " transform="matrix(1,0,0,-1,304.2646,347.8008)"/>
<path style="fill:none;stroke-width:1;stroke-linecap:butt;stroke-linejoin:miter;stroke:rgb(0%,0%,0%);stroke-opacity:1;stroke-miterlimit:10;" d="M -0.00098125 -0.0019 L -0.00098125 190.009819 " transform="matrix(1,0,0,-1,245.4502,228.5606)"/>
<path style="fill:none;stroke-width:2;stroke-linecap:round;stroke-linejoin:round;stroke:rgb(0%,0%,0%);stroke-opacity:1;stroke-dasharray:0,5.4;stroke-miterlimit:4;" d="M 0.00101875 0.001 C -2.280231 0.0908437 -4.596637 1.227562 -5.303669 5.145531 " transform="matrix(1,0,0,-1,356.7607,409.751)"/>
<path style="fill:none;stroke-width:2;stroke-linecap:round;stroke-linejoin:round;stroke:rgb(0%,0%,0%);stroke-opacity:1;stroke-dasharray:0,5.938;stroke-miterlimit:4;" d="M -0.00191875 0.00103125 L -0.00191875 169.219781 " transform="matrix(1,0,0,-1,351.2402,395.9815)"/>
<path style="fill:none;stroke-width:2;stroke-linecap:round;stroke-linejoin:round;stroke:rgb(0%,0%,0%);stroke-opacity:1;stroke-dasharray:0,6.882;stroke-miterlimit:4;" d="M -0.00096875 -0.0019 C 1.159188 2.677787 3.194344 5.580131 6.768563 7.533256 " transform="matrix(1,0,0,-1,352.7705,217.1231)"/>
<path style="fill:none;stroke-width:2;stroke-linecap:round;stroke-linejoin:round;stroke:rgb(0%,0%,0%);stroke-opacity:1;stroke-dasharray:0,5.694;stroke-miterlimit:4;" d="M 0.00094375 -0.00194375 L 40.81735 12.564462 " transform="matrix(1,0,0,-1,368.1514,206.5879)"/>
<path style="fill:none;stroke-width:2;stroke-linecap:round;stroke-linejoin:round;stroke:rgb(0%,0%,0%);stroke-opacity:1;stroke-dasharray:0,5.745;stroke-miterlimit:4;" d="M 0.00000625 0.00004375 C 2.3711 -0.49605 4.753913 -2.011675 5.523444 -5.890581 " transform="matrix(1,0,0,-1,417.3789,192.9102)"/>
<path style="fill:none;stroke-width:2;stroke-linecap:round;stroke-linejoin:round;stroke:rgb(0%,0%,0%);stroke-opacity:1;stroke-dasharray:0,6.09;stroke-miterlimit:4;" d="M -0.00004375 -0.00099375 L -0.00004375 -155.301775 " transform="matrix(1,0,0,-1,423.1602,207.7451)"/>
<path style="fill:none;stroke-width:2;stroke-linecap:round;stroke-linejoin:round;stroke:rgb(0%,0%,0%);stroke-opacity:1;stroke-dasharray:0,5.355;stroke-miterlimit:4;" d="M 0.00195 0.000025 C -0.990237 -3.371069 -3.0918 -7.67185 -7.552737 -10.730444 " transform="matrix(1,0,0,-1,422.2793,371.3594)"/>
<path style="fill:none;stroke-width:2;stroke-linecap:round;stroke-linejoin:round;stroke:rgb(0%,0%,0%);stroke-opacity:1;stroke-dasharray:0,6.261;stroke-miterlimit:4;" d="M 0.00100625 0.000025 L -42.030244 -20.937475 " transform="matrix(1,0,0,-1,406.8154,386.2344)"/>
<path style="fill:none;stroke-width:2;stroke-linecap:round;stroke-linejoin:round;stroke:rgb(0%,0%,0%);stroke-opacity:1;stroke-miterlimit:4;" d="M -0.00191875 0.00103125 L -0.00191875 0.00103125 M -0.00191875 178.126031 L -0.00191875 178.126031 M 11.470737 193.657281 L 11.470737 193.657281 M 60.451206 208.7315 L 60.451206 208.7315 M 71.919956 200.266656 L 71.919956 200.266656 M 71.919956 35.82525 L 71.919956 35.82525 M 61.177769 18.477594 L 61.177769 18.477594 M 10.740269 -6.647406 L 10.740269 -6.647406 " transform="matrix(1,0,0,-1,351.2402,401.919)"/>
</g>
</svg>
