<?xml version="1.0" encoding="UTF-8"?>
<svg xmlns="http://www.w3.org/2000/svg" xmlns:xlink="http://www.w3.org/1999/xlink" width="540.71pt" height="483.793pt" viewBox="0 0 540.71 483.793" version="1.1">
<defs>
<clipPath id="clip1">
  <path d="M 86 68 L 475 68 L 475 481.890625 L 86 481.890625 Z M 86 68 "/>
</clipPath>
</defs>
<g id="surface1">
<path style=" stroke:none;fill-rule:nonzero;fill:rgb(94.099426%,37.298584%,0%);fill-opacity:1;" d="M 0 481.890625 L 538.582031 481.890625 L 538.582031 0 L 0 0 Z M 0 481.890625 "/>
<g clip-path="url(#clip1)" clip-rule="nonzero">
<path style="fill:none;stroke-width:1;stroke-linecap:butt;stroke-linejoin:miter;stroke:rgb(0%,0%,0%);stroke-opacity:1;stroke-miterlimit:10;" d="M 0.00005 -0.001925 C -6.785106 13.771512 -15.31245 33.166044 -22.683544 54.697294 C -25.007762 70.599637 -18.99995 138.29495 -22.683544 163.896512 C -27.335887 196.478544 -33.539012 213.935575 -37.804637 223.052762 C -43.425731 235.080106 -58.355419 234.10745 -61.261669 225.380887 M -175.449169 134.412137 C -180.300731 140.814481 -193.0937 158.658231 -198.132762 158.466825 C -205.503856 177.084012 -240.011669 202.880887 -255.132762 193.376981 C -260.753856 189.884794 -261.335887 184.841825 -260.171825 183.099637 C -258.429637 180.5762 -251.06245 173.98245 -245.242137 166.416044 C -234.191356 151.869169 -234.9687 138.873075 -224.308544 133.443387 C -204.339794 107.455106 -190.765575 83.209012 -174.867137 67.884794 C -162.6562 56.052762 -151.605419 44.224637 -136.679637 37.04495 C -120.003856 22.8887 -104.882762 -15.904269 -100.425731 -31.228488 M -86.851512 200.748075 C -95.769481 208.115262 -96.546825 229.259794 -99.8437 251.369169 C -101.7812 264.173856 -103.140575 274.4512 -122.136669 275.615262 C -142.300731 276.779325 -147.144481 254.474637 -148.503856 231.587919 M -43.425731 179.994169 C -55.058544 186.783231 -57.578075 197.060575 -61.261669 223.052762 C -63.589794 239.150419 -66.304637 264.755887 -83.558544 263.396512 C -91.31245 262.814481 -95.769481 259.904325 -98.87495 254.474637 M -187.667919 252.533231 L -167.308544 259.130887 M -197.554637 309.560575 L -181.460887 313.244169 M -243.109325 165.447294 L -235.742137 171.267606 C -235.742137 181.935575 -244.081981 191.244169 -259.394481 186.587919 M -183.398387 245.748075 L -165.56245 252.923856 M -208.019481 343.306669 C -206.277294 333.60745 -203.56245 325.0762 -193.675731 327.209012 C -182.042919 329.728544 -186.503856 339.814481 -188.828075 348.931669 M -141.136669 247.685575 C -139.390575 232.361356 -138.617137 227.709012 -136.679637 218.783231 C -134.351512 208.115262 -132.023387 200.748075 -136.679637 199.584012 C -142.300731 198.228544 -146.56245 218.783231 -148.308544 225.380887 C -150.828075 235.271512 -168.859325 291.716825 -170.023387 295.98245 C -178.359325 326.626981 -179.910106 358.240262 -200.070262 353.587919 C -215.9687 349.900419 -210.152294 335.935575 -202.398387 286.283231 C -200.265575 272.705106 -186.503856 211.998075 -184.56245 202.880887 C -168.472606 127.236356 -177.390575 122.970731 -174.0937 100.85745 M -126.402294 151.095731 L -89.37495 64.779325 M -74.640575 138.29495 L -59.9062 66.916044 M -359.046825 239.541044 C -320.660106 299.279325 -240.980419 379.5762 -106.046825 397.810575 " transform="matrix(1,0,0,-1,460.0312,480.5762)"/>
</g>
</g>
</svg>
