<?xml version="1.0" encoding="UTF-8"?>
<svg xmlns="http://www.w3.org/2000/svg" xmlns:xlink="http://www.w3.org/1999/xlink" width="540.71pt" height="483.793pt" viewBox="0 0 540.71 483.793" version="1.1">
<g id="surface1">
<path style=" stroke:none;fill-rule:nonzero;fill:rgb(94.099426%,37.298584%,0%);fill-opacity:1;" d="M 0 481.890625 L 538.582031 481.890625 L 538.582031 0 L 0 0 Z M 0 481.890625 "/>
<path style="fill:none;stroke-width:1;stroke-linecap:butt;stroke-linejoin:miter;stroke:rgb(0%,0%,0%);stroke-opacity:1;stroke-miterlimit:10;" d="M -0.00093125 -0.00195 C 30.534225 23.876956 67.752975 37.244144 79.682663 68.763675 C 87.315475 72.103519 99.241256 76.880862 106.401413 84.99805 C 127.870163 89.294925 139.79985 100.275394 144.092819 100.275394 C 158.885787 98.845706 175.104537 103.142581 187.510787 109.826175 " transform="matrix(1,0,0,-1,4.5439,375.4043)"/>
<path style="fill:none;stroke-width:1;stroke-linecap:butt;stroke-linejoin:miter;stroke:rgb(0%,0%,0%);stroke-opacity:1;stroke-miterlimit:10;" d="M 0.00099375 0.000075 C 10.497087 4.777419 17.176775 5.257887 27.672869 10.988356 C 41.028337 18.156325 64.883806 32.968825 76.333025 39.660231 C 80.625994 42.050856 105.91115 59.730544 122.610369 63.074294 C 139.309587 66.418044 151.235369 67.851637 155.051775 69.761794 L 180.813494 83.1407 " transform="matrix(1,0,0,-1,-6.8799,264.3282)"/>
<path style="fill:none;stroke-width:1;stroke-linecap:butt;stroke-linejoin:miter;stroke:rgb(0%,0%,0%);stroke-opacity:1;stroke-miterlimit:10;" d="M 0.000975 -0.00090625 L -14.506838 -71.075125 " transform="matrix(1,0,0,-1,101.9834,310.9405)"/>
<path style="fill:none;stroke-width:1;stroke-linecap:butt;stroke-linejoin:miter;stroke:rgb(0%,0%,0%);stroke-opacity:1;stroke-miterlimit:10;" d="M -0.0009375 0.00194375 C -8.297812 -31.9629 -7.809531 -64.876963 2.92875 -95.408213 " transform="matrix(1,0,0,-1,131.4775,290.9121)"/>
<path style="fill:none;stroke-width:1;stroke-linecap:butt;stroke-linejoin:miter;stroke:rgb(0%,0%,0%);stroke-opacity:1;stroke-miterlimit:10;" d="M -0.0009375 -0.000925 C 40.077188 12.881887 104.963906 33.393606 119.752969 50.092825 C 135.018594 55.815481 150.764688 61.538137 157.444375 72.034231 C 183.682656 86.823294 199.42875 100.182669 203.721719 103.042044 C 217.081094 113.061575 225.190469 115.924856 231.870156 125.940481 C 239.502969 133.573294 246.182656 139.299856 246.182656 143.592825 C 246.659219 158.85845 250.956094 165.538137 251.909219 172.694387 C 252.862344 179.850637 252.862344 183.186575 252.385781 187.006887 " transform="matrix(1,0,0,-1,24.6025,464.5772)"/>
<path style="fill:none;stroke-width:1;stroke-linecap:butt;stroke-linejoin:miter;stroke:rgb(0%,0%,0%);stroke-opacity:1;stroke-miterlimit:10;" d="M 0.000975 -0.00000625 C 3.833006 3.820306 6.227537 8.59765 10.055662 10.984369 C 19.633787 16.714837 24.899412 23.402337 30.168944 28.656244 C 36.395506 35.339837 39.747069 40.593744 41.184569 50.624994 " transform="matrix(1,0,0,-1,272.0459,320.5664)"/>
<path style="fill:none;stroke-width:1;stroke-linecap:butt;stroke-linejoin:miter;stroke:rgb(0%,0%,0%);stroke-opacity:1;stroke-miterlimit:10;" d="M 0.001 -0.000000000000056843 C -3.346656 -7.632813 -5.260719 -11.925781 -10.522437 -22.421875 C -12.4365 -26.714844 -42.088844 -43.414063 -54.041969 -48.183594 C -65.999 -52.953125 -69.823219 -73.46875 -62.174781 -103.523438 " transform="matrix(1,0,0,-1,243.124,282.3125)"/>
<path style="fill:none;stroke-width:1;stroke-linecap:butt;stroke-linejoin:miter;stroke:rgb(0%,0%,0%);stroke-opacity:1;stroke-miterlimit:10;" d="M 0.0009875 -0.0009 C -1.452137 14.319412 0.0009875 23.866287 4.356456 32.932694 L 12.106456 48.206131 " transform="matrix(1,0,0,-1,189.0537,325.7491)"/>
<path style="fill-rule:nonzero;fill:rgb(100%,100%,100%);fill-opacity:1;stroke-width:1;stroke-linecap:butt;stroke-linejoin:miter;stroke:rgb(0%,0%,0%);stroke-opacity:1;stroke-miterlimit:10;" d="M -0.00096875 -0.00094375 C -52.500969 -10.977506 -74.458 -2.864225 -85.911125 -0.954069 C -87.821281 0.952181 -103.571281 26.24515 -103.571281 43.9014 C -103.571281 73.491244 -79.708 91.147494 -57.274406 94.010775 C -29.11425 97.354525 -7.637687 84.467806 -2.86425 67.764681 C 1.909188 51.061556 5.725594 54.4014 11.456063 57.741244 C 17.182625 61.084994 28.159188 67.764681 31.499031 63.471712 C 34.842781 59.174837 30.545906 46.768587 20.522469 35.311556 C 26.7295 31.975619 31.499031 30.065462 34.362313 21.952181 C 37.2295 13.8389 17.182625 7.155306 8.112313 5.249056 C 1.909188 3.815462 5.249031 0.475619 12.88575 -1.434538 C 20.522469 -3.340788 58.706063 -13.840788 58.706063 -48.676725 C 58.706063 -76.356413 38.182625 -85.899381 23.38575 -92.579069 C 8.592781 -99.262663 -50.11425 -113.579069 -66.340812 -116.918913 C -72.071281 -117.872038 -120.754875 -128.372038 -142.708 -120.258756 C -153.684562 -116.44235 -158.458 -110.235319 -161.797844 -107.852506 C -151.774406 -103.079069 -144.618156 -96.399381 -142.231437 -90.672819 C -136.024406 -75.87985 -134.11425 -62.516569 -140.797844 -52.016569 L -144.618156 -43.426725 L -179.458 -55.356413 C -178.024406 -39.610319 -181.844719 -8.590788 -170.391594 -0.477506 C -158.934562 7.635775 -136.981437 -12.407194 -121.708 -10.977506 C -106.434562 -9.543913 -91.637687 -6.680631 -86.387687 -1.434538 " transform="matrix(1,0,0,-1,353.708,157.9014)"/>
<path style="fill:none;stroke-width:1;stroke-linecap:butt;stroke-linejoin:miter;stroke:rgb(0%,0%,0%);stroke-opacity:1;stroke-miterlimit:10;" d="M -0.001025 -0.0019 C -4.790087 -8.669869 -15.809619 -13.966744 -22.512744 -14.931588 " transform="matrix(1,0,0,-1,373.2979,123.0606)"/>
<path style="fill:none;stroke-width:1;stroke-linecap:butt;stroke-linejoin:miter;stroke:rgb(0%,0%,0%);stroke-opacity:1;stroke-miterlimit:10;" d="M -0.001025 -0.00195 C -8.758838 -22.931638 -11.680713 -34.396481 1.459912 -49.205075 " transform="matrix(1,0,0,-1,357.0479,103.5293)"/>
<path style="fill:none;stroke-width:1;stroke-linecap:butt;stroke-linejoin:miter;stroke:rgb(0%,0%,0%);stroke-opacity:1;stroke-miterlimit:10;" d="M -0.00193125 -0.0009875 C -35.310525 2.901356 -63.462869 10.635731 -76.82615 13.538075 C -86.845681 15.471669 -96.865213 15.471669 -105.931619 7.252919 " transform="matrix(1,0,0,-1,318.8574,208.5537)"/>
<path style="fill:none;stroke-width:1;stroke-linecap:butt;stroke-linejoin:miter;stroke:rgb(0%,0%,0%);stroke-opacity:1;stroke-miterlimit:10;" d="M 0.0010125 -0.00098125 C 11.458044 -11.04395 37.235388 -25.926763 66.352575 -25.446294 " transform="matrix(1,0,0,-1,19.3193,277.9873)"/>
<path style="fill:none;stroke-width:1;stroke-linecap:butt;stroke-linejoin:miter;stroke:rgb(0%,0%,0%);stroke-opacity:1;stroke-miterlimit:10;" d="M 0.00190625 0.0010375 C 0.00190625 9.075256 1.951125 18.629944 8.294875 27.704162 " transform="matrix(1,0,0,-1,142.3145,245.1651)"/>
<path style="fill:none;stroke-width:1;stroke-linecap:butt;stroke-linejoin:miter;stroke:rgb(0%,0%,0%);stroke-opacity:1;stroke-miterlimit:10;" d="M -0.00190625 -0.00090625 C -2.876906 -7.65325 -6.228469 -15.782156 -0.00190625 -22.957938 C 3.834031 -27.739188 20.127 -20.09075 26.357469 -18.176688 C 38.8145 -14.348563 38.337938 2.870187 37.377 10.999094 " transform="matrix(1,0,0,-1,172.373,215.628)"/>
<path style="fill:none;stroke-width:1;stroke-linecap:butt;stroke-linejoin:miter;stroke:rgb(0%,0%,0%);stroke-opacity:1;stroke-miterlimit:10;" d="M -0.0009375 -0.0009125 C 6.733437 -0.0009125 12.0225 5.28815 12.0225 12.022525 C 12.0225 18.752994 6.733437 24.042056 -0.0009375 24.042056 C -6.731406 24.042056 -12.024375 18.752994 -12.024375 12.022525 C -12.024375 5.28815 -6.731406 -0.0009125 -0.0009375 -0.0009125 Z M -0.0009375 -0.0009125 " transform="matrix(1,0,0,-1,322.665,118.4444)"/>
<path style="fill:none;stroke-width:1;stroke-linecap:butt;stroke-linejoin:miter;stroke:rgb(0%,0%,0%);stroke-opacity:1;stroke-miterlimit:10;" d="M 0.00095625 -0.0009125 C -12.897481 4.397525 -17.655294 -5.114194 -24.342794 -6.579038 C -29.120137 -7.559506 -37.717794 -7.067319 -44.405294 -3.157163 " transform="matrix(1,0,0,-1,334.5967,106.1319)"/>
<path style="fill:none;stroke-width:1;stroke-linecap:butt;stroke-linejoin:miter;stroke:rgb(0%,0%,0%);stroke-opacity:1;stroke-miterlimit:10;" d="M -0.001 -0.000000000000056843 C -5.278344 -0.503906 -10.204125 0.777344 -12.126 3.289062 " transform="matrix(1,0,0,-1,310.876,108.6875)"/>
<path style="fill:none;stroke-width:1;stroke-linecap:butt;stroke-linejoin:miter;stroke:rgb(0%,0%,0%);stroke-opacity:1;stroke-miterlimit:10;" d="M -0.0010125 0.0019375 C 9.081019 -10.111344 22.940394 -15.888688 38.229456 -17.334 " transform="matrix(1,0,0,-1,55.5557,280.8535)"/>
<path style="fill:none;stroke-width:1;stroke-linecap:butt;stroke-linejoin:miter;stroke:rgb(0%,0%,0%);stroke-opacity:1;stroke-miterlimit:10;" d="M 0.0000375 0.0000375 C 9.082069 -6.296838 15.773475 -8.234338 31.07035 -11.628869 " transform="matrix(1,0,0,-1,74.6484,277.9766)"/>
<path style="fill:none;stroke-width:1;stroke-linecap:butt;stroke-linejoin:miter;stroke:rgb(0%,0%,0%);stroke-opacity:1;stroke-miterlimit:10;" d="M 0.00095 0.00005625 C 11.461887 4.828181 16.235325 7.730525 45.360325 14.972712 " transform="matrix(1,0,0,-1,213.9053,162.7774)"/>
<path style="fill:none;stroke-width:1;stroke-linecap:butt;stroke-linejoin:miter;stroke:rgb(0%,0%,0%);stroke-opacity:1;stroke-miterlimit:10;" d="M 0.000975 0.00103125 C 16.731444 12.079156 39.200194 4.348687 47.805662 12.079156 " transform="matrix(1,0,0,-1,193.8584,294.3565)"/>
<path style="fill:none;stroke-width:1;stroke-linecap:butt;stroke-linejoin:miter;stroke:rgb(0%,0%,0%);stroke-opacity:1;stroke-miterlimit:10;" d="M 0.00094375 0.00099375 C 0.00094375 -12.420881 3.395475 -19.108381 10.676725 -29.139631 " transform="matrix(1,0,0,-1,210.0264,326.6924)"/>
<path style="fill:none;stroke-width:1;stroke-linecap:butt;stroke-linejoin:miter;stroke:rgb(0%,0%,0%);stroke-opacity:1;stroke-miterlimit:10;" d="M 0.00100625 -0.00099375 C -10.97165 -1.438494 -21.467744 0.479475 -31.010713 -3.836931 C -62.495088 -18.22365 -80.147431 -20.622088 -89.209931 -21.102556 C -98.272431 -21.579119 -117.834931 -23.500994 -135.006806 -32.610369 " transform="matrix(1,0,0,-1,174.3779,213.1201)"/>
<path style=" stroke:none;fill-rule:nonzero;fill:rgb(0%,0%,0%);fill-opacity:1;" d="M 322.734375 111.859375 C 325.519531 111.859375 327.777344 109.597656 327.777344 106.816406 C 327.777344 104.03125 325.519531 101.773438 322.734375 101.773438 C 319.949219 101.773438 317.691406 104.03125 317.691406 106.816406 C 317.691406 109.597656 319.949219 111.859375 322.734375 111.859375 "/>
</g>
</svg>
