<?xml version="1.0" encoding="UTF-8" standalone="no"?><!DOCTYPE svg PUBLIC "-//W3C//DTD SVG 1.1//EN" "http://www.w3.org/Graphics/SVG/1.1/DTD/svg11.dtd"><svg width="100%" height="100%" viewBox="0 0 605 605" version="1.1" xmlns="http://www.w3.org/2000/svg" xmlns:xlink="http://www.w3.org/1999/xlink" xml:space="preserve" xmlns:serif="http://www.serif.com/" style="fill-rule:evenodd;clip-rule:evenodd;stroke-linejoin:round;stroke-miterlimit:2;"><rect id="Artboard6" x="0" y="0" width="604.167" height="604.167" style="fill:none;"/><clipPath id="_clip1"><rect id="Artboard61" serif:id="Artboard6" x="0" y="0" width="604.167" height="604.167"/></clipPath><g clip-path="url(#_clip1)"><path d="M87.792,518.581c12.517,-29.33 39.678,-65.844 60.802,-74.992c11.364,-4.935 22.724,-9.379 35.566,-14.318c-0,-34.085 -0.982,-66.684 -0,-99.283c1.481,-43.967 4.939,-87.926 20.252,-128.927c6.916,-18.271 16.3,-35.565 26.674,-51.37c11.364,-17.29 28.65,-27.659 50.875,-26.673c13.336,0.491 26.673,-3.458 39.519,-1.973c24.201,2.963 41.986,19.263 55.319,39.024c25.691,38.521 34.58,82.488 37.047,127.437c2.472,46.431 3.953,93.353 5.93,141.765c8.892,4.44 20.744,8.892 32.104,14.318c19.155,9.209 56.431,46.702 68.63,70.716c-54.999,57.958 -132.527,94.062 -218.431,94.062c-83.764,-0 -159.568,-34.332 -214.287,-89.786Zm169.472,-179.209c-0.986,8.393 -2.463,17.29 -1.972,26.178c0.986,19.262 -6.421,34.571 -23.711,43.963c-8.397,4.44 -7.906,10.37 -5.926,17.777c10.374,38.528 45.445,62.738 86.437,59.28c34.58,-2.967 65.697,-36.061 68.66,-73.599c-3.953,-2.967 -8.393,-5.439 -11.851,-8.897c-8.893,-8.888 -16.799,-10.86 -29.141,-8.393c-42.981,8.393 -72.617,-21.243 -80.519,-51.865l13.336,10.374c21.738,16.79 48.412,12.841 68.169,-9.879c9.384,-10.869 17.777,-33.094 25.192,-46.431c6.916,0 12.346,-7.906 11.851,-17.29l-31.608,-67.174c-24.701,-14.327 -49.893,-27.664 -77.062,-42.482c-7.407,9.384 -18.276,19.262 -25.192,31.613c-6.916,12.841 -9.878,27.655 -14.814,41.982c-5.929,-5.43 -11.859,-5.925 -11.859,3.463c-0,11.36 1.485,22.72 2.963,34.08c0.99,7.902 3.458,15.808 13.336,15.808c1.486,0 2.476,3.458 3.458,5.431c5.93,12.346 13.337,23.71 20.253,36.061Z" style="fill-rule:nonzero;"/><path d="M299.996,604.167c165.689,-0 300.004,-135.247 300.004,-302.086c0,-166.835 -134.315,-302.081 -300.004,-302.081c-165.685,0 -299.996,135.246 -299.996,302.081c0,166.839 134.311,302.086 299.996,302.086Zm0,-11.111c-159.569,-0 -288.884,-130.294 -288.884,-290.975c-0,-160.677 129.315,-290.97 288.884,-290.97c159.574,0 288.893,130.293 288.893,290.97c0,160.682 -129.319,290.975 -288.893,290.975Z"/></g></svg>