<?xml version="1.0" encoding="UTF-8" standalone="no"?><!DOCTYPE svg PUBLIC "-//W3C//DTD SVG 1.1//EN" "http://www.w3.org/Graphics/SVG/1.1/DTD/svg11.dtd"><svg width="100%" height="100%" viewBox="0 0 145 145" version="1.1" xmlns="http://www.w3.org/2000/svg" xmlns:xlink="http://www.w3.org/1999/xlink" xml:space="preserve" xmlns:serif="http://www.serif.com/" style="fill-rule:evenodd;clip-rule:evenodd;stroke-linejoin:round;stroke-miterlimit:2;"><rect id="Artboard1" x="0" y="0" width="145" height="145" style="fill:none;"/><g id="Artboard11" serif:id="Artboard1"><path d="M22.818,123.973c11.038,-10.721 18.623,-12.867 30.039,-17.568c4.003,11.892 10.007,17.424 19.073,17.66c8.829,0.234 14.362,-4.71 19.66,-17.542c10.426,4.517 17.661,7.439 29.329,18.635c-12.784,11.705 -29.774,18.842 -48.419,18.842c-19.265,0 -36.763,-7.619 -49.682,-20.027Zm58.765,-33.108c0.707,3.296 1.413,6.828 2.237,10.36c-8.123,3.885 -19.426,-1.412 -20.838,-9.771c3.061,1.06 6.239,2.943 9.418,2.825c3.062,-0.118 6.005,-2.119 9.183,-3.414Zm-21.544,-51.213c-2.826,-5.178 -2.237,-8.24 2.354,-11.654c4.71,-3.532 12.48,-4.003 17.541,-0.824c4.239,2.708 5.063,6.122 2.12,12.008c8.948,5.651 9.889,14.716 9.065,24.017c-0.117,1.413 -1.884,2.589 -3.297,4.002c0,-7.18 -2.354,-13.068 -8.24,-17.54c-3.885,4.943 -9.654,7.534 -15.188,10.477c-2.001,1.06 -7.77,4.356 -10.948,6.475c-2.825,-9.536 -0.471,-19.779 6.593,-26.961Z" style="fill-rule:nonzero;"/><path d="M72.5,145c39.764,-0 71.997,-32.46 71.997,-72.501c0,-40.039 -32.233,-72.499 -71.997,-72.499c-39.764,0 -71.998,32.46 -71.998,72.499c0,40.041 32.234,72.501 71.998,72.501Zm-0,-2.667c-38.296,0 -69.331,-31.271 -69.331,-69.834c-0,-38.561 31.035,-69.832 69.331,-69.832c38.296,-0 69.331,31.271 69.331,69.832c-0,38.563 -31.035,69.834 -69.331,69.834Z"/></g></svg>