<?xml version="1.0" encoding="UTF-8" standalone="no"?><!DOCTYPE svg PUBLIC "-//W3C//DTD SVG 1.1//EN" "http://www.w3.org/Graphics/SVG/1.1/DTD/svg11.dtd"><svg width="100%" height="100%" viewBox="0 0 605 605" version="1.1" xmlns="http://www.w3.org/2000/svg" xmlns:xlink="http://www.w3.org/1999/xlink" xml:space="preserve" xmlns:serif="http://www.serif.com/" style="fill-rule:evenodd;clip-rule:evenodd;"><rect id="Artboard5" x="0" y="0" width="604.167" height="604.167" style="fill:none;"/><clipPath id="_clip1"><rect id="Artboard51" serif:id="Artboard5" x="0" y="0" width="604.167" height="604.167"/></clipPath><g clip-path="url(#_clip1)"><clipPath id="_clip2"><path d="M-0,302.083c-0,166.839 134.313,302.077 299.994,302.077c165.678,0 299.991,-135.238 299.991,-302.077c-0,-166.834 -134.313,-302.081 -299.991,-302.081c-165.681,0 -299.994,135.247 -299.994,302.081Z" clip-rule="nonzero"/></clipPath><g clip-path="url(#_clip2)"><path d="M529.201,507.28c-146.181,143.727 -290.887,156.479 -463.557,25.51c41.205,-78.975 79.959,-95.162 160.897,-115.766c14.715,36.791 43.167,55.428 81.917,54.936c35.812,-0.487 61.809,-19.62 75.053,-55.428c43.66,20.6 91.24,30.411 145.69,90.748m-280.585,-227.118l-26.001,-26.977c-1.471,-1.475 -3.434,-3.926 -3.922,-6.38c-4.417,-21.092 -3.926,-42.676 1.471,-63.768c6.377,-24.039 21.092,-40.709 45.127,-48.565c38.754,-12.752 75.545,-8.339 109.881,14.716c16.679,11.286 25.51,27.96 25.997,48.564c0.492,24.039 -8.517,57.594 -8.517,57.594l-20.914,23.344c6.376,-21.583 3.926,-25.017 -18.15,-25.017c-4.413,-0 -8.831,-0 -12.752,0.491c-20.605,2.451 -23.055,6.377 -19.621,26.489c-3.434,-4.413 -6.376,-8.339 -10.794,-13.244c-3.434,4.413 -6.376,8.831 -9.319,13.244c0.98,-22.563 -10.108,-26.175 -28.452,-26.98c-25.972,-1.137 -27.96,0.983 -24.034,26.489m134.404,-27.469c-5.885,-39.733 -5.393,-46.109 -41.693,-46.109c-0.983,-0 -1.962,-0.492 -2.946,-0.492c-24.526,-0 -49.052,-6.377 -73.578,-9.811c-6.868,-0.979 -15.207,-1.471 -17.662,7.848c-3.922,15.699 -7.356,31.394 -10.79,48.564c25.018,-3.434 46.602,-5.888 67.694,3.434c4.413,1.963 10.794,0.98 15.699,-0.983c20.6,-8.339 41.204,-6.377 63.276,-2.451m-17.167,90.257c5.393,-6.868 9.319,-11.773 13.245,-17.166c-1.471,26.976 -17.17,52.486 -6.376,80.938c-16.679,4.909 -30.907,1.963 -44.639,-2.943c-16.679,-5.888 -32.869,-12.756 -48.564,-20.604c-25.51,-12.753 -36.3,-36.299 -40.226,-65.243c6.377,7.852 12.265,14.72 18.642,23.055c16.187,-14.716 30.415,-25.505 53.469,-25.505c26.977,-0 37.771,8.339 54.449,27.468m-22.567,-1.963c-22.563,-15.695 -45.126,-15.203 -62.788,0.983c17.662,29.923 44.639,30.415 62.788,-0.983m-116.745,-77.012l2.942,42.188c-8.831,-10.794 -23.547,-42.68 -2.942,-42.188m162.367,-0c20.601,-0.492 5.885,31.394 -2.942,42.188l2.942,-42.188Z" style="fill-rule:nonzero;"/></g><path d="M299.994,604.167c165.681,-0 299.99,-135.247 299.99,-302.086c-0,-166.835 -134.309,-302.081 -299.99,-302.081c-165.682,0 -299.991,135.246 -299.991,302.081c0,166.839 134.309,302.086 299.991,302.086Z" style="fill:none;fill-rule:nonzero;stroke:#000;stroke-width:11.11px;"/></g></svg>