<?xml version="1.0" encoding="UTF-8" standalone="no"?><!DOCTYPE svg PUBLIC "-//W3C//DTD SVG 1.1//EN" "http://www.w3.org/Graphics/SVG/1.1/DTD/svg11.dtd"><svg width="100%" height="100%" viewBox="0 0 605 605" version="1.1" xmlns="http://www.w3.org/2000/svg" xmlns:xlink="http://www.w3.org/1999/xlink" xml:space="preserve" xmlns:serif="http://www.serif.com/" style="fill-rule:evenodd;clip-rule:evenodd;"><rect id="Artboard4" x="0" y="0" width="604.167" height="604.167" style="fill:none;"/><clipPath id="_clip1"><rect id="Artboard41" serif:id="Artboard4" x="0" y="0" width="604.167" height="604.167"/></clipPath><g clip-path="url(#_clip1)"><clipPath id="_clip2"><path d="M0.002,302.084c0,166.837 134.312,302.081 299.99,302.081c165.679,0 299.994,-135.244 299.994,-302.081c0,-166.832 -134.315,-302.081 -299.994,-302.081c-165.678,-0 -299.99,135.249 -299.99,302.081Z" clip-rule="nonzero"/></clipPath><g clip-path="url(#_clip2)"><path d="M227.027,415.079c9.319,42.677 34.829,69.166 69.657,73.09c42.677,4.907 65.238,-13.246 90.748,-71.619c45.617,19.128 77.988,28.451 138.331,111.351c-93.201,156.972 -353.185,108.901 -449.331,12.259c42.185,-90.256 78.976,-94.176 150.595,-125.081m38.261,-65.733l-59.356,26.002c-1.962,-12.759 -5.394,-25.019 -6.373,-37.774c-3.924,-52.486 -0.491,-104.481 19.62,-154.027c5.395,-13.247 14.226,-25.998 23.053,-37.278c9.814,-12.759 24.039,-19.133 40.714,-19.133c6.869,0 13.738,-1.966 21.095,-2.453c36.79,-2.458 62.296,13.734 79.463,44.147c24.04,42.676 29.926,89.273 25.51,137.348c-1.962,21.095 -6.865,41.698 -10.789,63.771l-51.016,-12.755l7.844,36.299c-39.244,17.663 -81.425,-8.831 -90.261,-44.634c7.857,4.899 15.705,11.772 24.044,13.73c50.033,11.776 66.217,-21.091 84.862,-65.242c21.582,-8.827 19.128,-31.879 19.128,-46.105c0,-5.886 -9.322,-6.377 -13.734,-7.365c-50.033,-3.919 -98.595,-3.919 -145.687,-0.483c-10.302,-0.491 -13.739,5.395 -12.755,12.264c2.453,16.67 -3.433,36.295 17.658,45.126c1.962,0.491 2.453,3.436 3.436,5.394l23.544,43.168Z" style="fill-rule:nonzero;"/></g><path d="M299.994,604.167c165.675,-0 299.99,-135.249 299.99,-302.086c0,-166.832 -134.315,-302.081 -299.99,-302.081c-165.682,0 -299.994,135.249 -299.994,302.081c0,166.837 134.312,302.086 299.994,302.086Z" style="fill:none;fill-rule:nonzero;stroke:#000;stroke-width:11.11px;"/></g></svg>