<?xml version="1.0" encoding="UTF-8" standalone="no"?><!DOCTYPE svg PUBLIC "-//W3C//DTD SVG 1.1//EN" "http://www.w3.org/Graphics/SVG/1.1/DTD/svg11.dtd"><svg width="100%" height="100%" viewBox="0 0 605 605" version="1.1" xmlns="http://www.w3.org/2000/svg" xmlns:xlink="http://www.w3.org/1999/xlink" xml:space="preserve" xmlns:serif="http://www.serif.com/" style="fill-rule:evenodd;clip-rule:evenodd;stroke-linejoin:round;stroke-miterlimit:2;"><rect id="Artboard4" x="0" y="0" width="604.167" height="604.167" style="fill:none;"/><g id="Artboard41" serif:id="Artboard4"><path d="M266.274,349.346l-59.356,26.002c-1.962,-12.759 -5.394,-25.019 -6.373,-37.774c-3.924,-52.486 -0.492,-104.481 19.62,-154.027c5.394,-13.247 14.225,-25.998 23.052,-37.278c9.814,-12.759 24.04,-19.133 40.715,-19.133c6.869,0 13.738,-1.966 21.094,-2.453c36.791,-2.458 62.297,13.734 79.463,44.147c24.04,42.676 29.926,89.273 25.511,137.348c-1.962,21.095 -6.865,41.698 -10.789,63.771l-51.017,-12.755l7.844,36.299c-39.244,17.663 -81.425,-8.831 -90.26,-44.634c7.856,4.899 15.704,11.772 24.044,13.73c50.033,11.776 66.216,-21.091 84.862,-65.242c21.582,-8.827 19.128,-31.879 19.128,-46.105c0,-5.886 -9.323,-6.377 -13.734,-7.365c-50.033,-3.919 -98.596,-3.919 -145.688,-0.483c-10.301,-0.491 -13.738,5.395 -12.755,12.264c2.454,16.67 -3.432,36.295 17.658,45.126c1.962,0.491 2.454,3.436 3.437,5.394l23.544,43.168Z" style="fill-rule:nonzero;"/><path d="M88.527,516.349c37.515,-67.453 73.792,-73.347 138.5,-101.27c9.319,42.677 34.829,69.166 69.657,73.09c42.677,4.907 65.238,-13.246 90.748,-71.619c42.744,17.923 73.857,27.237 127.244,96.532c-54.478,56.195 -130.536,91.083 -214.684,91.083c-82.508,0 -157.237,-33.541 -211.465,-87.816Z" style="fill-rule:nonzero;"/><path d="M299.994,604.167c165.675,-0 299.99,-135.249 299.99,-302.086c0,-166.832 -134.315,-302.081 -299.99,-302.081c-165.682,0 -299.994,135.249 -299.994,302.081c-0,166.837 134.312,302.086 299.994,302.086Zm0,-11.111c-159.567,-0 -288.883,-130.296 -288.883,-290.975c0,-160.675 129.316,-290.97 288.883,-290.97c159.56,0 288.879,130.295 288.879,290.97c0,160.679 -129.319,290.975 -288.879,290.975Z"/></g></svg>