<?xml version="1.0" encoding="UTF-8" standalone="no"?><!DOCTYPE svg PUBLIC "-//W3C//DTD SVG 1.1//EN" "http://www.w3.org/Graphics/SVG/1.1/DTD/svg11.dtd"><svg width="100%" height="100%" viewBox="0 0 605 605" version="1.1" xmlns="http://www.w3.org/2000/svg" xmlns:xlink="http://www.w3.org/1999/xlink" xml:space="preserve" xmlns:serif="http://www.serif.com/" style="fill-rule:evenodd;clip-rule:evenodd;stroke-linejoin:round;stroke-miterlimit:2;"><rect id="Artboard3" x="0" y="0" width="604.167" height="604.167" style="fill:none;"/><g id="Artboard31" serif:id="Artboard3"><path d="M88.518,516.342c52.137,-64.861 85.826,-70.678 147.233,-95.429c7.356,41.694 30.413,68.183 72.598,72.107c51.016,4.907 73.09,-29.43 86.824,-71.615c52.505,22.37 92.258,36.242 132.314,77.601c-55.003,64.382 -136.521,105.159 -227.497,105.159c-82.508,0 -157.237,-33.541 -211.472,-87.823Zm268.885,-143.013l6.378,25.511c-38.753,13.242 -66.221,2.941 -92.71,-43.169c-1.475,2.946 -2.945,5.399 -4.907,8.34c-17.166,-6.378 -30.413,-17.166 -36.791,-34.829c-16.679,-45.621 -18.149,-91.73 0.492,-136.856c12.263,-29.93 33.354,-51.016 68.182,-51.016c13.247,-0 26.49,-2.454 39.245,-0.492c33.358,4.903 53.957,27.468 63.279,57.885c14.717,47.58 10.789,95.163 -9.322,140.289c-5.395,12.26 -19.62,20.603 -33.846,34.337Zm-67.695,-166.29c-0.979,-0.488 -1.962,-0.979 -2.449,-1.471c-26.489,25.51 -33.85,30.905 -45.622,43.168c-7.357,0 -9.319,1.962 -10.302,3.433c-7.356,11.284 -2.453,51.016 14.717,51.016c5.886,17.166 17.658,36.299 23.544,43.168c29.435,34.337 57.394,31.392 83.392,5.886c15.7,-15.209 22.073,-34.337 30.413,-49.054c20.603,-5.886 17.662,-34.829 16.679,-49.054c-0.492,-5.886 -7.357,-5.395 -15.205,-4.42c-22.565,-25.993 -18.153,-23.048 -36.303,-52.482c-10.789,21.582 -25.506,36.299 -50.525,44.147c3.924,-8.827 6.378,-13.243 8.34,-18.637c2.454,-4.416 3.924,-8.831 6.869,-14.717c-14.717,12.755 -26.489,23.544 -38.752,34.337c-0.984,-0.492 -1.471,-1.471 -2.454,-2.454c5.886,-10.789 11.772,-21.582 17.658,-32.866Zm24.527,45.13l-15.696,-0.979c-19.133,-4.907 -34.829,-4.907 -54.449,1.962l0.979,10.785c7.361,2.945 11.777,7.856 12.755,7.856c3.924,11.768 10.302,15.696 22.566,15.696c7.356,-0 18.641,1.958 26.98,-11.285l6.865,-10.789l6.869,10.789c8.34,13.243 19.62,11.285 26.981,11.285c12.263,-0 18.637,-3.928 22.565,-15.696c0.979,-0 5.394,-4.911 12.751,-7.856l0.983,-10.785c-19.624,-6.869 -35.32,-6.869 -54.449,-1.962l-15.7,0.979Zm-12.264,24.527c-4.902,7.356 -33.845,11.772 -40.71,-4.42c-3.437,-18.637 -1.966,-19.62 16.675,-19.62l9.81,0c21.586,2.458 26.981,4.911 14.225,24.04Zm24.528,-0c-12.751,-18.641 -7.357,-21.582 14.225,-24.04l9.81,0c18.641,0 20.116,0.983 16.679,19.62c-6.865,16.192 -36.299,10.797 -40.714,4.42Z" style="fill-rule:nonzero;"/><path d="M299.992,604.167c165.683,-0 299.99,-135.249 299.99,-302.086c0,-166.832 -134.307,-302.081 -299.99,-302.081c-165.678,0 -299.99,135.249 -299.99,302.081c0,166.837 134.312,302.086 299.99,302.086Zm0,-11.111c-159.563,-0 -288.878,-130.296 -288.878,-290.975c-0,-160.674 129.315,-290.969 288.878,-290.969c159.568,-0 288.879,130.295 288.879,290.969c0,160.679 -129.311,290.975 -288.879,290.975Z"/></g></svg>