<?xml version="1.0" encoding="UTF-8" standalone="no"?><!DOCTYPE svg PUBLIC "-//W3C//DTD SVG 1.1//EN" "http://www.w3.org/Graphics/SVG/1.1/DTD/svg11.dtd"><svg width="100%" height="100%" viewBox="0 0 605 605" version="1.1" xmlns="http://www.w3.org/2000/svg" xmlns:xlink="http://www.w3.org/1999/xlink" xml:space="preserve" xmlns:serif="http://www.serif.com/" style="fill-rule:evenodd;clip-rule:evenodd;"><rect id="Artboard2" x="0" y="0" width="604.167" height="604.167" style="fill:none;"/><clipPath id="_clip1"><rect id="Artboard21" serif:id="Artboard2" x="0" y="0" width="604.167" height="604.167"/></clipPath><g clip-path="url(#_clip1)"><clipPath id="_clip2"><path d="M2.092,302.081c-0,166.837 134.311,302.086 299.99,302.086c165.687,-0 299.994,-135.249 299.994,-302.086c-0,-166.828 -134.307,-302.081 -299.994,-302.081c-165.679,0 -299.99,135.253 -299.99,302.081Z" clip-rule="nonzero"/></clipPath><g clip-path="url(#_clip2)"><path d="M227.023,452.781c8.339,58.864 15.696,113.804 25.019,177.084c-14.718,-4.415 -28.943,-7.361 -42.19,-12.755c-39.24,-16.188 -73.577,-38.753 -102.028,-70.145c-4.415,-4.907 -8.339,-11.284 -12.755,-17.17c-6.377,-8.34 -12.755,-16.679 -18.641,-23.544c-0.979,-0.492 0.492,0.487 1.475,-0c31.879,-15.7 68.182,-18.641 101.54,-31.392c16.675,-6.378 32.371,-13.247 47.58,-22.078m296.774,60.335c-11.284,13.734 -22.073,28.942 -34.828,41.206c-13.734,12.755 -27.473,25.506 -42.677,35.807c-14.226,9.81 -29.434,17.663 -45.13,24.036c-16.679,6.873 -34.337,11.285 -51.016,16.679c10.301,-63.28 19.128,-118.707 28.451,-181.008c17.17,16.679 53.961,37.774 81.429,42.677c21.095,3.924 42.185,9.818 63.28,15.208c0.491,1.471 0.491,3.433 0.491,5.395m-300.698,-209.947c-25.019,-15.7 -15.696,-40.714 -17.171,-61.809c-0.491,-6.373 1.962,-13.242 3.437,-19.62c4.899,-20.111 17.166,-35.807 36.791,-43.655c41.693,-16.68 81.425,-13.734 119.198,11.772c14.717,9.81 23.053,25.506 24.527,43.164c1.471,17.658 0.492,35.324 -0.987,52.978c-0.487,5.886 -6.861,11.284 -12.751,19.624c-4.411,-16.679 -7.356,-30.413 -11.772,-43.66c-1.47,-4.415 -5.886,-9.81 -9.81,-10.297c-33.358,-3.928 -66.22,-10.797 -99.579,-14.717c-16.187,-1.962 -18.641,0.487 -22.565,16.675c-3.924,15.696 -6.373,32.375 -9.318,49.545m92.705,209.947c-5.39,6.869 -5.39,13.734 -2.449,24.035c4.903,19.624 13.734,57.394 19.128,77.014c1.475,5.399 1.475,10.793 2.946,18.149l-71.615,0c9.314,-33.354 17.658,-63.767 26.484,-94.18c2.458,-8.831 3.437,-17.17 -3.432,-24.523c-15.204,-16.191 1.475,-26.493 16.192,-26.493c13.734,0 25.997,8.831 12.746,25.998m-59.838,-103.499c28.446,28.939 73.577,20.599 104.481,-18.154c-2.458,16.68 -4.415,30.414 -7.356,44.148c-1.962,9.322 -8.34,12.755 -18.15,12.755c-32.866,-0 -58.868,-13.243 -78.975,-38.749m120.177,-49.546l6.378,-51.999c16.679,2.945 9.81,28.943 -6.378,51.999" style="fill-rule:nonzero;"/></g><path d="M302.085,604.167c165.674,-0 299.99,-135.249 299.99,-302.086c0,-166.832 -134.316,-302.081 -299.99,-302.081c-165.679,0 -299.994,135.249 -299.994,302.081c-0,166.837 134.315,302.086 299.994,302.086Z" style="fill:none;fill-rule:nonzero;stroke:#000;stroke-width:11.11px;"/></g></svg>