<?xml version="1.0" encoding="UTF-8" standalone="no"?><!DOCTYPE svg PUBLIC "-//W3C//DTD SVG 1.1//EN" "http://www.w3.org/Graphics/SVG/1.1/DTD/svg11.dtd"><svg width="100%" height="100%" viewBox="0 0 605 605" version="1.1" xmlns="http://www.w3.org/2000/svg" xmlns:xlink="http://www.w3.org/1999/xlink" xml:space="preserve" xmlns:serif="http://www.serif.com/" style="fill-rule:evenodd;clip-rule:evenodd;stroke-linejoin:round;stroke-miterlimit:2;"><rect id="Artboard2" x="0" y="0" width="604.167" height="604.167" style="fill:none;"/><g id="Artboard21" serif:id="Artboard2"><path d="M272.635,600.635c5.966,-21.437 11.704,-41.969 17.663,-62.501c2.458,-8.831 3.437,-17.17 -3.432,-24.523c-15.204,-16.191 1.475,-26.493 16.192,-26.493c13.734,0 25.997,8.831 12.746,25.998c-5.39,6.869 -5.39,13.734 -2.449,24.035c3.946,15.796 10.438,43.347 15.634,63.725c-8.87,0.8 -17.841,1.207 -26.907,1.207c-9.938,0 -19.762,-0.49 -29.447,-1.448Zm82.957,-3.379c8.058,-49.925 15.365,-96.364 23.005,-147.42c17.17,16.679 53.961,37.774 81.429,42.677c19.936,3.708 39.869,9.177 59.805,14.316c-42.812,46.152 -99.926,78.681 -164.239,90.427Zm-273.57,-92.952c30.862,-14.023 65.491,-17.24 97.421,-29.445c16.675,-6.378 32.371,-13.247 47.58,-22.078c6.865,48.457 13.064,94.255 20.243,144.234c-64.94,-12.161 -122.478,-45.538 -165.244,-92.711Zm173.944,-94.687c28.446,28.939 73.577,20.599 104.481,-18.154c-2.458,16.68 -4.415,30.414 -7.356,44.148c-1.962,9.322 -8.34,12.755 -18.15,12.755c-32.866,-0 -58.868,-13.243 -78.975,-38.749Zm120.177,-49.546l6.378,-51.999c16.679,2.945 9.81,28.943 -6.378,51.999Zm-153.044,-56.902c-25.019,-15.7 -15.696,-40.714 -17.171,-61.809c-0.491,-6.373 1.962,-13.242 3.437,-19.62c4.899,-20.111 17.166,-35.807 36.791,-43.655c41.693,-16.68 81.425,-13.734 119.198,11.772c14.717,9.81 23.053,25.506 24.527,43.164c1.471,17.658 0.492,35.324 -0.987,52.978c-0.487,5.886 -6.861,11.284 -12.751,19.624c-4.411,-16.679 -7.356,-30.413 -11.772,-43.66c-1.47,-4.415 -5.886,-9.81 -9.81,-10.297c-33.358,-3.928 -66.22,-10.797 -99.579,-14.717c-16.187,-1.962 -18.641,0.487 -22.565,16.675c-3.924,15.696 -6.373,32.375 -9.318,49.545Z" style="fill-rule:nonzero;"/><path d="M302.085,604.167c165.674,-0 299.99,-135.249 299.99,-302.086c0,-166.832 -134.316,-302.081 -299.99,-302.081c-165.679,0 -299.994,135.249 -299.994,302.081c-0,166.837 134.315,302.086 299.994,302.086Zm-0,-11.111c-159.564,-0 -288.883,-130.296 -288.883,-290.975c-0,-160.675 129.319,-290.97 288.883,-290.97c159.559,0 288.879,130.295 288.879,290.97c0,160.679 -129.319,290.975 -288.879,290.975Z"/></g></svg>