<?xml version="1.0" encoding="UTF-8" standalone="no"?><!DOCTYPE svg PUBLIC "-//W3C//DTD SVG 1.1//EN" "http://www.w3.org/Graphics/SVG/1.1/DTD/svg11.dtd"><svg width="100%" height="100%" viewBox="0 0 605 605" version="1.1" xmlns="http://www.w3.org/2000/svg" xmlns:xlink="http://www.w3.org/1999/xlink" xml:space="preserve" xmlns:serif="http://www.serif.com/" style="fill-rule:evenodd;clip-rule:evenodd;"><rect id="Artboard1" x="0" y="0" width="604.167" height="604.167" style="fill:none;"/><clipPath id="_clip1"><rect id="Artboard11" serif:id="Artboard1" x="0" y="0" width="604.167" height="604.167"/></clipPath><g clip-path="url(#_clip1)"><clipPath id="_clip2"><path d="M2.094,302.086c0,166.836 134.308,302.081 299.99,302.081c165.683,-0 299.99,-135.245 299.99,-302.081c0,-166.837 -134.307,-302.086 -299.99,-302.086c-165.682,0 -299.99,135.249 -299.99,302.086Z" clip-rule="nonzero"/></clipPath><g clip-path="url(#_clip2)"><path d="M220.239,447.521c16.679,49.55 41.694,72.598 79.467,73.581c36.791,0.979 59.843,-19.624 81.917,-73.09c44.151,19.129 74.564,31.392 124.597,79.955c-114.295,161.879 -336.997,142.255 -418.426,-0c50.037,-51.016 82.412,-59.843 132.445,-80.446m29.922,-278.137c-11.772,-21.574 -9.319,-34.333 9.81,-48.559c19.624,-14.717 51.999,-16.679 73.089,-3.432c17.663,11.28 21.095,25.506 8.831,50.033c37.283,23.544 41.207,61.318 37.77,100.07c-0.487,5.886 -7.848,10.789 -13.734,16.675c-0,-29.917 -9.81,-54.449 -34.337,-73.085c-16.188,20.598 -40.223,31.392 -63.28,43.655c-8.339,4.416 -32.375,18.15 -45.617,26.981c-11.772,-39.736 -1.962,-82.413 27.468,-112.338m89.768,213.387c2.946,13.734 5.886,28.451 9.319,43.168c-33.846,16.187 -80.938,-5.886 -86.824,-40.715c12.755,4.416 25.998,12.264 39.244,11.772c12.756,-0.491 25.019,-8.831 38.261,-14.225" style="fill-rule:nonzero;"/></g><path d="M302.083,604.166c165.682,0 299.989,-135.248 299.989,-302.085c0,-166.832 -134.307,-302.081 -299.989,-302.081c-165.683,-0 -299.99,135.249 -299.99,302.081c-0,166.837 134.307,302.085 299.99,302.085Z" style="fill:none;fill-rule:nonzero;stroke:#000;stroke-width:11.11px;"/></g></svg>