<?xml version="1.0" encoding="UTF-8" standalone="no"?><!DOCTYPE svg PUBLIC "-//W3C//DTD SVG 1.1//EN" "http://www.w3.org/Graphics/SVG/1.1/DTD/svg11.dtd"><svg width="100%" height="100%" viewBox="0 0 605 605" version="1.1" xmlns="http://www.w3.org/2000/svg" xmlns:xlink="http://www.w3.org/1999/xlink" xml:space="preserve" xmlns:serif="http://www.serif.com/" style="fill-rule:evenodd;clip-rule:evenodd;stroke-linejoin:round;stroke-miterlimit:2;"><rect id="Artboard1" x="0" y="0" width="604.167" height="604.167" style="fill:none;"/><g id="Artboard11" serif:id="Artboard1"><path d="M95.074,516.554c45.992,-44.669 77.599,-53.612 125.165,-73.2c16.679,49.55 41.694,72.598 79.467,73.581c36.791,0.979 59.843,-19.624 81.917,-73.089c43.445,18.822 73.588,30.998 122.205,77.646c-53.265,48.772 -124.055,78.508 -201.744,78.508c-80.273,0 -153.181,-31.747 -207.01,-83.446Zm244.855,-137.95c2.946,13.734 5.886,28.451 9.319,43.168c-33.846,16.188 -80.938,-5.886 -86.824,-40.714c12.755,4.415 25.998,12.263 39.244,11.772c12.756,-0.492 25.019,-8.831 38.261,-14.226Zm-89.768,-213.387c-11.772,-21.574 -9.319,-34.333 9.81,-48.558c19.624,-14.717 51.999,-16.679 73.089,-3.433c17.663,11.281 21.095,25.506 8.831,50.033c37.283,23.544 41.207,61.318 37.77,100.07c-0.487,5.886 -7.848,10.789 -13.734,16.675c-0,-29.917 -9.81,-54.448 -34.337,-73.085c-16.188,20.599 -40.223,31.392 -63.28,43.655c-8.339,4.416 -32.375,18.15 -45.617,26.981c-11.772,-39.736 -1.962,-82.412 27.468,-112.338Z" style="fill-rule:nonzero;"/><path d="M302.083,604.166c165.682,0 299.989,-135.248 299.989,-302.085c0,-166.832 -134.307,-302.081 -299.989,-302.081c-165.683,-0 -299.99,135.249 -299.99,302.081c-0,166.837 134.307,302.085 299.99,302.085Zm-0,-11.111c-159.568,0 -288.879,-130.295 -288.879,-290.974c-0,-160.675 129.311,-290.97 288.879,-290.97c159.567,0 288.878,130.295 288.878,290.97c0,160.679 -129.311,290.974 -288.878,290.974Z"/></g></svg>