<?xml version="1.0" encoding="UTF-8" standalone="no"?>
<!DOCTYPE svg PUBLIC "-//W3C//DTD SVG 1.1//EN" "http://www.w3.org/Graphics/SVG/1.1/DTD/svg11.dtd">
<svg width="100%" height="100%" viewBox="0 0 2183 1148" version="1.1" xmlns="http://www.w3.org/2000/svg" xmlns:xlink="http://www.w3.org/1999/xlink" xml:space="preserve" xmlns:serif="http://www.serif.com/" style="fill-rule:evenodd;clip-rule:evenodd;">
    <g transform="matrix(1,0,0,1,-4911.02,-1645.3)">
        <g id="Page-9" serif:id="Page 9" transform="matrix(2.66667,0,0,2.66667,4911.02,1645.3)">
            <rect x="0" y="0" width="818.504" height="430.233" style="fill:none;"/>
            <g id="Layer-1" serif:id="Layer 1">
                <rect x="0" y="0" width="818.504" height="430.233" style="fill:rgb(240,95,0);"/>
                <g transform="matrix(1,0,0,1,129.412,20.2819)">
                    <path d="M0,145.037C39.774,145.037 72.016,112.569 72.016,72.518C72.016,32.468 39.774,0 0,0C-39.774,0 -72.016,32.468 -72.016,72.518C-72.016,112.569 -39.774,145.037 0,145.037" style="fill:rgb(240,95,0);fill-rule:nonzero;"/>
                </g>
                <g transform="matrix(1,0,0,1,109.764,103.456)">
                    <clipPath id="_clip1">
                        <path d="M-52.368,-10.655C-52.368,29.396 -20.126,61.863 19.648,61.863C59.422,61.863 91.664,29.396 91.664,-10.655C91.664,-50.706 59.422,-83.174 19.648,-83.174C-20.126,-83.174 -52.368,-50.706 -52.368,-10.655Z" clip-rule="nonzero"/>
                    </clipPath>
                    <g clip-path="url(#_clip1)">
                        <path d="M0,24.258C4.004,36.153 10.009,41.686 19.077,41.922C27.909,42.157 33.443,37.211 38.742,24.376C49.341,28.968 56.642,31.912 68.653,43.57C41.215,82.431 -12.247,77.72 -31.795,43.57C-19.783,31.323 -12.011,29.204 0,24.258M7.183,-42.512C4.357,-47.691 4.946,-50.754 9.538,-54.169C14.249,-57.702 22.021,-58.173 27.084,-54.993C31.324,-52.285 32.148,-48.87 29.204,-42.982C38.154,-37.33 39.096,-28.262 38.271,-18.959C38.154,-17.546 36.387,-16.369 34.974,-14.956C34.974,-22.138 32.619,-28.027 26.731,-32.501C22.845,-27.556 17.075,-24.965 11.54,-22.021C9.538,-20.961 3.768,-17.664 0.589,-15.544C-2.237,-25.083 0.118,-35.328 7.183,-42.512M28.733,8.714C29.44,12.011 30.146,15.544 30.97,19.077C22.845,22.963 11.54,17.664 10.127,9.303C13.189,10.363 16.368,12.247 19.548,12.129C22.61,12.011 25.554,10.009 28.733,8.714" style="fill-rule:nonzero;"/>
                    </g>
                </g>
                <g transform="matrix(1,0,0,1,129.412,20.2819)">
                    <path d="M0,145.037C39.774,145.037 72.016,112.569 72.016,72.518C72.016,32.468 39.774,0 0,0C-39.774,0 -72.016,32.468 -72.016,72.518C-72.016,112.569 -39.774,145.037 0,145.037Z" style="fill:none;fill-rule:nonzero;stroke:black;stroke-width:1px;"/>
                </g>
                <g transform="matrix(1,0,0,1,501.967,19.239)">
                    <path d="M0,145.037C39.772,145.037 72.016,112.569 72.016,72.518C72.016,32.468 39.772,0 0,0C-39.773,0 -72.017,32.468 -72.017,72.518C-72.017,112.569 -39.773,145.037 0,145.037" style="fill:rgb(240,95,0);fill-rule:nonzero;"/>
                </g>
                <g transform="matrix(1,0,0,1,483.947,101.085)">
                    <clipPath id="_clip2">
                        <path d="M-53.997,-9.328C-53.997,30.723 -21.754,63.191 18.019,63.191C57.794,63.191 90.036,30.723 90.036,-9.328C90.036,-49.377 57.794,-81.846 18.019,-81.846C-21.754,-81.846 -53.997,-49.377 -53.997,-9.328Z" clip-rule="nonzero"/>
                    </clipPath>
                    <g clip-path="url(#_clip2)">
                        <path d="M0,26.849C2.002,40.98 3.768,54.169 6.006,69.36C2.473,68.3 -0.942,67.593 -4.122,66.298C-13.542,62.412 -21.785,56.995 -28.615,49.459C-29.675,48.281 -30.617,46.75 -31.677,45.337C-33.208,43.335 -34.739,41.333 -36.152,39.685C-36.387,39.567 -36.034,39.802 -35.798,39.685C-28.145,35.916 -19.43,35.21 -11.422,32.149C-7.419,30.618 -3.651,28.969 0,26.849M71.244,41.333C68.535,44.63 65.945,48.281 62.883,51.225C59.586,54.287 56.288,57.348 52.638,59.821C49.223,62.176 45.572,64.061 41.804,65.591C37.8,67.241 33.561,68.3 29.557,69.595C32.03,54.404 34.149,41.098 36.387,26.142C40.509,30.146 49.341,35.21 55.935,36.387C60.999,37.329 66.062,38.744 71.126,40.038C71.244,40.391 71.244,40.862 71.244,41.333M-0.942,-9.067C-6.948,-12.836 -4.71,-18.841 -5.064,-23.905C-5.182,-25.435 -4.593,-27.084 -4.239,-28.615C-3.063,-33.443 -0.118,-37.211 4.593,-39.095C14.602,-43.099 24.14,-42.392 33.208,-36.269C36.741,-33.914 38.742,-30.146 39.096,-25.907C39.449,-21.668 39.214,-17.427 38.859,-13.189C38.742,-11.776 37.212,-10.48 35.798,-8.478C34.739,-12.482 34.032,-15.779 32.972,-18.959C32.619,-20.019 31.559,-21.314 30.617,-21.431C22.609,-22.374 14.72,-24.023 6.712,-24.964C2.826,-25.435 2.237,-24.847 1.295,-20.961C0.353,-17.193 -0.235,-13.189 -0.942,-9.067M21.313,41.333C20.019,42.982 20.019,44.63 20.725,47.103C21.902,51.814 24.022,60.881 25.317,65.591C25.671,66.887 25.671,68.182 26.024,69.948L8.832,69.948C11.068,61.941 13.071,54.64 15.19,47.339C15.78,45.219 16.015,43.217 14.366,41.452C10.716,37.565 14.72,35.092 18.253,35.092C21.55,35.092 24.494,37.212 21.313,41.333M6.948,16.487C13.777,23.434 24.611,21.432 32.03,12.129C31.44,16.133 30.97,19.43 30.264,22.727C29.793,24.965 28.262,25.789 25.907,25.789C18.017,25.789 11.775,22.61 6.948,16.487M35.798,4.593L37.329,-7.89C41.333,-7.183 39.684,-0.942 35.798,4.593" style="fill-rule:nonzero;"/>
                    </g>
                </g>
                <g transform="matrix(1,0,0,1,501.967,19.239)">
                    <path d="M0,145.037C39.772,145.037 72.016,112.569 72.016,72.518C72.016,32.468 39.772,0 0,0C-39.773,0 -72.017,32.468 -72.017,72.518C-72.017,112.569 -39.773,145.037 0,145.037Z" style="fill:none;fill-rule:nonzero;stroke:black;stroke-width:1px;"/>
                </g>
                <g transform="matrix(1,0,0,1,687.395,142.598)">
                    <path d="M0,145.037C39.772,145.037 72.016,112.569 72.016,72.518C72.016,32.468 39.772,0 0,0C-39.774,0 -72.017,32.468 -72.017,72.518C-72.017,112.569 -39.774,145.037 0,145.037" style="fill:rgb(240,95,0);fill-rule:nonzero;"/>
                </g>
                <g transform="matrix(1,0,0,1,669.879,236.707)">
                    <clipPath id="_clip3">
                        <path d="M-54.5,-21.59C-54.5,18.461 -22.257,50.928 17.516,50.928C57.289,50.928 89.533,18.461 89.533,-21.59C89.533,-61.64 57.289,-94.108 17.516,-94.108C-22.257,-94.108 -54.5,-61.64 -54.5,-21.59Z" clip-rule="nonzero"/>
                    </clipPath>
                    <g clip-path="url(#_clip3)">
                        <path d="M0,5.536C2.237,15.781 8.361,22.14 16.722,23.082C26.967,24.26 32.383,19.902 38.507,5.889C49.458,10.481 57.229,12.719 71.715,32.62C49.341,70.303 -13.071,58.763 -36.152,35.563C-26.025,13.896 -17.193,12.955 0,5.536M9.185,-10.244L-5.064,-4.002C-5.535,-7.065 -6.359,-10.008 -6.594,-13.07C-7.536,-25.67 -6.712,-38.152 -1.884,-50.046C-0.589,-53.226 1.531,-56.287 3.65,-58.995C6.006,-62.058 9.421,-63.588 13.424,-63.588C15.073,-63.588 16.722,-64.06 18.488,-64.177C27.32,-64.767 33.443,-60.88 37.564,-53.579C43.335,-43.334 44.748,-32.148 43.688,-20.607C43.217,-15.543 42.04,-10.597 41.098,-5.298L28.851,-8.36L30.734,0.354C21.313,4.594 11.187,-1.766 9.066,-10.361C10.952,-9.185 12.836,-7.535 14.838,-7.065C26.849,-4.238 30.734,-12.128 35.21,-22.727C40.391,-24.846 39.802,-30.38 39.802,-33.795C39.802,-35.208 37.564,-35.326 36.505,-35.563C24.494,-36.504 12.836,-36.504 1.531,-35.679C-0.942,-35.797 -1.767,-34.384 -1.531,-32.735C-0.942,-28.733 -2.355,-24.022 2.708,-21.902C3.179,-21.784 3.297,-21.077 3.533,-20.607L9.185,-10.244Z" style="fill-rule:nonzero;"/>
                    </g>
                </g>
                <g transform="matrix(1,0,0,1,687.395,142.598)">
                    <path d="M0,145.037C39.772,145.037 72.016,112.569 72.016,72.518C72.016,32.468 39.772,0 0,0C-39.774,0 -72.017,32.468 -72.017,72.518C-72.017,112.569 -39.774,145.037 0,145.037Z" style="fill:none;fill-rule:nonzero;stroke:black;stroke-width:1px;"/>
                </g>
                <g transform="matrix(1,0,0,1,501.327,266.635)">
                    <path d="M0,146.201C40.094,146.201 72.596,113.473 72.596,73.1C72.596,32.728 40.094,0 0,0C-40.093,0 -72.594,32.728 -72.594,73.1C-72.594,113.473 -40.093,146.201 0,146.201" style="fill:rgb(240,95,0);fill-rule:nonzero;"/>
                </g>
                <g transform="matrix(1,0,0,1,472.989,349.139)">
                    <clipPath id="_clip4">
                        <path d="M-44.256,-9.404C-44.256,30.969 -11.753,63.695 28.338,63.695C68.431,63.695 100.933,30.969 100.933,-9.404C100.933,-49.776 68.431,-82.504 28.338,-82.504C-11.753,-82.504 -44.256,-49.776 -44.256,-9.404Z" clip-rule="nonzero"/>
                    </clipPath>
                    <g clip-path="url(#_clip4)">
                        <path d="M0,20.656C0,12.465 -0.236,4.631 0,-3.203C0.356,-13.769 1.187,-24.333 4.867,-34.186C6.529,-38.577 8.784,-42.733 11.277,-46.531C14.008,-50.686 18.162,-53.178 23.503,-52.941C26.708,-52.823 29.913,-53.772 33,-53.415C38.816,-52.703 43.09,-48.786 46.294,-44.037C52.468,-34.78 54.604,-24.214 55.197,-13.412C55.791,-2.254 56.147,9.022 56.622,20.656C58.759,21.723 61.607,22.793 64.337,24.097C70.511,27.065 84.518,42.26 81.313,45.465C56.267,70.511 1.068,74.428 -23.978,50.925C-28.014,47.127 -16.5,27.541 -8.547,24.097C-5.816,22.911 -3.086,21.843 0,20.656M17.568,-0.948C17.331,1.069 16.976,3.207 17.094,5.343C17.331,9.972 15.551,13.651 11.396,15.908C9.378,16.975 9.496,18.4 9.972,20.18C12.465,29.439 20.893,35.257 30.744,34.426C39.054,33.713 46.532,25.76 47.244,16.739C46.294,16.026 45.227,15.432 44.396,14.601C42.259,12.465 40.359,11.991 37.393,12.584C27.064,14.601 19.942,7.479 18.043,0.12L21.248,2.613C26.472,6.648 32.882,5.699 37.63,0.239C39.885,-2.373 41.902,-7.714 43.684,-10.919C45.346,-10.919 46.651,-12.819 46.532,-15.074L38.936,-31.217C33,-34.66 26.946,-37.865 20.417,-41.426C18.637,-39.171 16.025,-36.797 14.363,-33.829C12.701,-30.743 11.989,-27.183 10.803,-23.74C9.378,-25.045 7.953,-25.164 7.953,-22.908C7.953,-20.178 8.31,-17.448 8.665,-14.718C8.903,-12.819 9.496,-10.919 11.87,-10.919C12.227,-10.919 12.465,-10.088 12.701,-9.614C14.126,-6.647 15.906,-3.916 17.568,-0.948" style="fill-rule:nonzero;"/>
                    </g>
                </g>
                <g transform="matrix(1,0,0,1,501.327,266.635)">
                    <path d="M0,146.201C40.094,146.201 72.596,113.473 72.596,73.1C72.596,32.728 40.094,0 0,0C-40.093,0 -72.594,32.728 -72.594,73.1C-72.594,113.473 -40.093,146.201 0,146.201Z" style="fill:none;fill-rule:nonzero;stroke:black;stroke-width:1px;"/>
                </g>
                <g transform="matrix(1,0,0,1,130.051,266.635)">
                    <path d="M0,146.201C40.093,146.201 72.594,113.473 72.594,73.1C72.594,32.728 40.093,0 0,0C-40.093,0 -72.594,32.728 -72.594,73.1C-72.594,113.473 -40.093,146.201 0,146.201" style="fill:rgb(240,95,0);fill-rule:nonzero;"/>
                </g>
                <g transform="matrix(1,0,0,1,185.516,333.955)">
                    <clipPath id="_clip5">
                        <path d="M-128.06,5.78C-128.06,46.153 -95.558,78.879 -55.465,78.879C-15.373,78.879 17.129,46.153 17.129,5.78C17.129,-34.592 -15.373,-67.32 -55.465,-67.32C-95.558,-67.32 -128.06,-34.592 -128.06,5.78Z" clip-rule="nonzero"/>
                    </clipPath>
                    <g clip-path="url(#_clip5)">
                        <path d="M0,55.435C-35.374,90.215 -70.391,93.301 -112.175,61.608C-102.204,42.497 -92.826,38.58 -73.24,33.594C-69.679,42.497 -62.794,47.007 -53.417,46.888C-44.751,46.77 -38.46,42.14 -35.255,33.475C-24.69,38.46 -13.176,40.834 0,55.435M-67.898,0.475L-74.19,-6.053C-74.546,-6.41 -75.021,-7.003 -75.139,-7.597C-76.208,-12.701 -76.089,-17.924 -74.783,-23.028C-73.24,-28.845 -69.679,-32.879 -63.863,-34.78C-54.485,-37.866 -45.582,-36.798 -37.273,-31.219C-33.237,-28.488 -31.1,-24.453 -30.982,-19.467C-30.863,-13.65 -33.043,-5.53 -33.043,-5.53L-38.104,0.119C-36.561,-5.104 -37.154,-5.935 -42.496,-5.935C-43.564,-5.935 -44.633,-5.935 -45.582,-5.816C-50.568,-5.223 -51.161,-4.273 -50.33,0.594C-51.161,-0.474 -51.873,-1.424 -52.942,-2.611C-53.773,-1.543 -54.485,-0.474 -55.197,0.594C-54.96,-4.866 -57.643,-5.74 -62.082,-5.935C-68.367,-6.21 -68.848,-5.697 -67.898,0.475M-35.374,-6.172C-36.798,-15.787 -36.679,-17.33 -45.463,-17.33C-45.701,-17.33 -45.938,-17.449 -46.176,-17.449C-52.111,-17.449 -58.046,-18.992 -63.981,-19.823C-65.643,-20.06 -67.661,-20.179 -68.255,-17.924C-69.204,-14.125 -70.035,-10.327 -70.866,-6.172C-64.812,-7.003 -59.589,-7.597 -54.485,-5.341C-53.417,-4.866 -51.873,-5.104 -50.686,-5.579C-45.701,-7.597 -40.715,-7.122 -35.374,-6.172M-39.528,15.669C-38.223,14.007 -37.273,12.82 -36.323,11.515C-36.679,18.043 -40.478,24.216 -37.866,31.101C-41.902,32.289 -45.345,31.576 -48.668,30.389C-52.704,28.964 -56.622,27.302 -60.42,25.403C-66.593,22.317 -69.204,16.619 -70.154,9.615C-68.611,11.515 -67.186,13.177 -65.643,15.194C-61.726,11.633 -58.283,9.022 -52.704,9.022C-46.176,9.022 -43.564,11.04 -39.528,15.669M-44.989,15.194C-50.449,11.396 -55.909,11.515 -60.183,15.432C-55.909,22.673 -49.381,22.792 -44.989,15.194M-73.24,-3.442L-72.528,6.767C-74.665,4.155 -78.226,-3.561 -73.24,-3.442M-33.949,-3.442C-28.964,-3.561 -32.525,4.155 -34.661,6.767L-33.949,-3.442Z" style="fill-rule:nonzero;"/>
                    </g>
                </g>
                <g transform="matrix(1,0,0,1,130.051,266.635)">
                    <path d="M0,146.201C40.093,146.201 72.594,113.473 72.594,73.1C72.594,32.728 40.093,0 0,0C-40.093,0 -72.594,32.728 -72.594,73.1C-72.594,113.473 -40.093,146.201 0,146.201Z" style="fill:none;fill-rule:nonzero;stroke:black;stroke-width:1px;"/>
                </g>
                <g transform="matrix(1,0,0,1,316.538,142.598)">
                    <path d="M0,145.037C39.774,145.037 72.016,112.569 72.016,72.518C72.016,32.468 39.774,0 0,0C-39.773,0 -72.016,32.468 -72.016,72.518C-72.016,112.569 -39.773,145.037 0,145.037" style="fill:rgb(240,95,0);fill-rule:nonzero;"/>
                </g>
                <g transform="matrix(1,0,0,1,301.116,247.411)">
                    <clipPath id="_clip6">
                        <path d="M-56.595,-32.294C-56.595,7.757 -24.352,40.224 15.421,40.224C55.195,40.224 87.438,7.757 87.438,-32.294C87.438,-72.344 55.195,-104.812 15.421,-104.812C-24.352,-104.812 -56.595,-72.344 -56.595,-32.294Z" clip-rule="nonzero"/>
                    </clipPath>
                    <g clip-path="url(#_clip6)">
                        <path d="M0,-3.768C1.766,6.241 7.301,12.6 17.428,13.542C29.675,14.72 34.974,6.477 38.271,-3.65C51.814,2.12 61.823,5.535 72.186,17.311C51.696,50.165 -8.95,67.711 -36.505,20.608C-23.316,3.651 -15.191,2.355 0,-3.768M29.204,-15.191L30.735,-9.067C21.432,-5.888 14.838,-8.361 8.479,-19.43C8.125,-18.723 7.772,-18.134 7.301,-17.428C3.18,-18.959 0,-21.549 -1.531,-25.789C-5.535,-36.741 -5.888,-47.81 -1.413,-58.643C1.531,-65.828 6.594,-70.89 14.955,-70.89C18.135,-70.89 21.314,-71.479 24.376,-71.008C32.384,-69.831 37.329,-64.414 39.567,-57.112C43.1,-45.69 42.157,-34.267 37.329,-23.434C36.034,-20.491 32.619,-18.488 29.204,-15.191M12.953,-55.111C12.718,-55.228 12.482,-55.346 12.365,-55.464C6.006,-49.34 4.239,-48.045 1.413,-45.101C-0.353,-45.101 -0.824,-44.63 -1.06,-44.277C-2.826,-41.568 -1.649,-32.03 2.473,-32.03C3.886,-27.909 6.712,-23.316 8.125,-21.667C15.191,-13.424 21.903,-14.131 28.144,-20.254C31.913,-23.905 33.443,-28.497 35.445,-32.03C40.391,-33.443 39.685,-40.391 39.449,-43.806C39.331,-45.219 37.683,-45.101 35.799,-44.867C30.382,-51.107 31.441,-50.4 27.084,-57.466C24.494,-52.285 20.961,-48.752 14.955,-46.868C15.897,-48.987 16.486,-50.047 16.957,-51.342C17.546,-52.402 17.899,-53.462 18.606,-54.875C15.073,-51.813 12.247,-49.223 9.303,-46.632C9.067,-46.75 8.95,-46.985 8.714,-47.221C10.127,-49.811 11.54,-52.402 12.953,-55.111M15.897,-38.389C14.72,-36.623 7.772,-35.563 6.124,-39.45C5.299,-43.924 5.652,-44.16 10.127,-44.16L12.482,-44.16C17.664,-43.57 18.959,-42.981 15.897,-38.389M18.841,-44.277L15.073,-44.512C10.48,-45.69 6.712,-45.69 2.002,-44.041L2.237,-41.452C4.004,-40.745 5.064,-39.566 5.299,-39.566C6.241,-36.741 7.772,-35.798 10.716,-35.798C12.482,-35.798 15.191,-35.328 17.193,-38.507L18.841,-41.097L20.49,-38.507C22.492,-35.328 25.2,-35.798 26.967,-35.798C29.911,-35.798 31.441,-36.741 32.384,-39.566C32.619,-39.566 33.679,-40.745 35.445,-41.452L35.681,-44.041C30.97,-45.69 27.202,-45.69 22.61,-44.512L18.841,-44.277ZM21.785,-38.389C18.724,-42.864 20.019,-43.57 25.2,-44.16L27.555,-44.16C32.03,-44.16 32.384,-43.924 31.559,-39.45C29.911,-35.563 22.845,-36.858 21.785,-38.389" style="fill-rule:nonzero;"/>
                    </g>
                </g>
                <g transform="matrix(1,0,0,1,316.538,142.598)">
                    <path d="M0,145.037C39.774,145.037 72.016,112.569 72.016,72.518C72.016,32.468 39.774,0 0,0C-39.773,0 -72.016,32.468 -72.016,72.518C-72.016,112.569 -39.773,145.037 0,145.037Z" style="fill:none;fill-rule:nonzero;stroke:black;stroke-width:1px;"/>
                </g>
                <g transform="matrix(1,0,0,1,57.519,247.353)">
                    <path d="M0,-63.874C0,-63.874 -18.768,-63.874 -18.768,-45.107L-18.768,-18.768C-18.768,-18.768 -18.768,0 0,0L147.18,0C147.18,0 165.947,0 165.947,-18.768L165.947,-45.107C165.947,-45.107 165.947,-63.874 147.18,-63.874L0,-63.874Z" style="fill:rgb(240,95,0);fill-rule:nonzero;stroke:black;stroke-width:1px;"/>
                </g>
                <g transform="matrix(1,0,0,1,94.6279,221.152)">
                    <path d="M0,-11.936C0,-11.936 -0.132,-12.229 -0.264,-11.936L-1.89,-8.32C-1.89,-8.32 -2.022,-8.026 -2.341,-7.984L-6.113,-7.489C-6.113,-7.489 -6.431,-7.447 -6.202,-7.221L-3.419,-4.495C-3.419,-4.495 -3.19,-4.269 -3.248,-3.954L-3.967,-0.024C-3.967,-0.024 -4.025,0.293 -3.746,0.131L-0.411,-1.788C-0.411,-1.788 -0.132,-1.948 0.147,-1.788L3.483,0.131C3.483,0.131 3.761,0.293 3.704,-0.024L2.984,-3.954C2.984,-3.954 2.926,-4.269 3.156,-4.495L5.938,-7.221C5.938,-7.221 6.168,-7.447 5.849,-7.489L2.077,-7.984C2.077,-7.984 1.758,-8.026 1.626,-8.32L0,-11.936Z" style="fill:white;fill-rule:nonzero;"/>
                </g>
                <g transform="matrix(1,0,0,1,112.935,221.152)">
                    <path d="M0,-11.936C0,-11.936 -0.132,-12.229 -0.264,-11.936L-1.89,-8.32C-1.89,-8.32 -2.022,-8.026 -2.341,-7.984L-6.113,-7.489C-6.113,-7.489 -6.431,-7.447 -6.202,-7.221L-3.419,-4.495C-3.419,-4.495 -3.19,-4.269 -3.248,-3.954L-3.967,-0.024C-3.967,-0.024 -4.025,0.293 -3.746,0.131L-0.411,-1.788C-0.411,-1.788 -0.132,-1.948 0.147,-1.788L3.483,0.131C3.483,0.131 3.761,0.293 3.704,-0.024L2.984,-3.954C2.984,-3.954 2.926,-4.269 3.156,-4.495L5.938,-7.221C5.938,-7.221 6.168,-7.447 5.849,-7.489L2.077,-7.984C2.077,-7.984 1.758,-8.026 1.626,-8.32L0,-11.936Z" style="fill:white;fill-rule:nonzero;"/>
                </g>
                <g transform="matrix(1,0,0,1,131.242,221.152)">
                    <path d="M0,-11.936C0,-11.936 -0.132,-12.229 -0.264,-11.936L-1.89,-8.32C-1.89,-8.32 -2.022,-8.026 -2.341,-7.984L-6.113,-7.489C-6.113,-7.489 -6.431,-7.447 -6.202,-7.221L-3.419,-4.495C-3.419,-4.495 -3.19,-4.269 -3.248,-3.954L-3.967,-0.024C-3.967,-0.024 -4.025,0.293 -3.746,0.131L-0.411,-1.788C-0.411,-1.788 -0.132,-1.948 0.147,-1.788L3.483,0.131C3.483,0.131 3.761,0.293 3.704,-0.024L2.984,-3.954C2.984,-3.954 2.926,-4.269 3.156,-4.495L5.938,-7.221C5.938,-7.221 6.168,-7.447 5.849,-7.489L2.077,-7.984C2.077,-7.984 1.758,-8.026 1.626,-8.32L0,-11.936Z" style="fill:white;fill-rule:nonzero;"/>
                </g>
                <g transform="matrix(1,0,0,1,167.856,221.152)">
                    <path d="M0,-11.936C0,-11.936 -0.132,-12.229 -0.264,-11.936L-1.89,-8.32C-1.89,-8.32 -2.022,-8.026 -2.341,-7.984L-6.113,-7.489C-6.113,-7.489 -6.431,-7.447 -6.202,-7.221L-3.419,-4.495C-3.419,-4.495 -3.19,-4.269 -3.248,-3.954L-3.967,-0.024C-3.967,-0.024 -4.025,0.293 -3.746,0.131L-0.411,-1.788C-0.411,-1.788 -0.132,-1.948 0.147,-1.788L3.483,0.131C3.483,0.131 3.761,0.293 3.704,-0.024L2.984,-3.954C2.984,-3.954 2.926,-4.269 3.156,-4.495L5.938,-7.221C5.938,-7.221 6.168,-7.447 5.849,-7.489L2.077,-7.984C2.077,-7.984 1.758,-8.026 1.626,-8.32L0,-11.936Z" style="fill:white;fill-rule:nonzero;"/>
                </g>
                <g transform="matrix(1,0,0,1,149.549,221.152)">
                    <path d="M0,-11.936C0,-11.936 -0.132,-12.229 -0.264,-11.936L-1.89,-8.32C-1.89,-8.32 -2.022,-8.026 -2.341,-7.984L-6.113,-7.489C-6.113,-7.489 -6.431,-7.447 -6.202,-7.221L-3.419,-4.495C-3.419,-4.495 -3.19,-4.269 -3.248,-3.954L-3.967,-0.024C-3.967,-0.024 -4.025,0.293 -3.746,0.131L-0.411,-1.788C-0.411,-1.788 -0.132,-1.948 0.147,-1.788L3.483,0.131C3.483,0.131 3.761,0.293 3.704,-0.024L2.984,-3.954C2.984,-3.954 2.926,-4.269 3.156,-4.495L5.938,-7.221C5.938,-7.221 6.168,-7.447 5.849,-7.489L2.077,-7.984C2.077,-7.984 1.758,-8.026 1.626,-8.32L0,-11.936Z" style="fill:white;fill-rule:nonzero;"/>
                </g>
                <g transform="matrix(1,0,0,1,242.948,371.672)">
                    <path d="M0,-63.874C0,-63.874 -18.768,-63.874 -18.768,-45.106L-18.768,-18.768C-18.768,-18.768 -18.768,0 0,0L147.18,0C147.18,0 165.947,0 165.947,-18.768L165.947,-45.106C165.947,-45.106 165.947,-63.874 147.18,-63.874L0,-63.874Z" style="fill:rgb(240,95,0);fill-rule:nonzero;stroke:black;stroke-width:1px;"/>
                </g>
                <g transform="matrix(1,0,0,1,280.057,345.68)">
                    <path d="M0,-11.936C0,-11.936 -0.132,-12.229 -0.264,-11.936L-1.89,-8.319C-1.89,-8.319 -2.022,-8.026 -2.341,-7.984L-6.113,-7.488C-6.113,-7.488 -6.431,-7.446 -6.202,-7.221L-3.419,-4.495C-3.419,-4.495 -3.19,-4.269 -3.248,-3.954L-3.967,-0.024C-3.967,-0.024 -4.025,0.293 -3.746,0.131L-0.411,-1.788C-0.411,-1.788 -0.132,-1.947 0.147,-1.788L3.483,0.131C3.483,0.131 3.761,0.293 3.704,-0.024L2.984,-3.954C2.984,-3.954 2.926,-4.269 3.156,-4.495L5.938,-7.221C5.938,-7.221 6.168,-7.446 5.849,-7.488L2.077,-7.984C2.077,-7.984 1.758,-8.026 1.626,-8.319L0,-11.936Z" style="fill:white;fill-rule:nonzero;"/>
                </g>
                <g transform="matrix(1,0,0,1,298.364,345.68)">
                    <path d="M0,-11.936C0,-11.936 -0.132,-12.229 -0.264,-11.936L-1.89,-8.319C-1.89,-8.319 -2.022,-8.026 -2.341,-7.984L-6.113,-7.488C-6.113,-7.488 -6.431,-7.446 -6.202,-7.221L-3.419,-4.495C-3.419,-4.495 -3.19,-4.269 -3.248,-3.954L-3.967,-0.024C-3.967,-0.024 -4.025,0.293 -3.746,0.131L-0.411,-1.788C-0.411,-1.788 -0.132,-1.947 0.146,-1.788L3.483,0.131C3.483,0.131 3.761,0.293 3.704,-0.024L2.984,-3.954C2.984,-3.954 2.926,-4.269 3.156,-4.495L5.937,-7.221C5.937,-7.221 6.168,-7.446 5.849,-7.488L2.077,-7.984C2.077,-7.984 1.758,-8.026 1.626,-8.319L0,-11.936Z" style="fill:white;fill-rule:nonzero;"/>
                </g>
                <g transform="matrix(1,0,0,1,316.671,345.68)">
                    <path d="M0,-11.936C0,-11.936 -0.132,-12.229 -0.264,-11.936L-1.89,-8.319C-1.89,-8.319 -2.022,-8.026 -2.341,-7.984L-6.113,-7.488C-6.113,-7.488 -6.431,-7.446 -6.202,-7.221L-3.419,-4.495C-3.419,-4.495 -3.19,-4.269 -3.248,-3.954L-3.967,-0.024C-3.967,-0.024 -4.025,0.293 -3.746,0.131L-0.411,-1.788C-0.411,-1.788 -0.132,-1.947 0.147,-1.788L3.483,0.131C3.483,0.131 3.761,0.293 3.704,-0.024L2.984,-3.954C2.984,-3.954 2.926,-4.269 3.156,-4.495L5.938,-7.221C5.938,-7.221 6.168,-7.446 5.849,-7.488L2.077,-7.984C2.077,-7.984 1.758,-8.026 1.626,-8.319L0,-11.936Z" style="fill:white;fill-rule:nonzero;"/>
                </g>
                <g transform="matrix(1,0,0,1,353.285,345.68)">
                    <path d="M0,-11.936C0,-11.936 -0.132,-12.229 -0.264,-11.936L-1.89,-8.319C-1.89,-8.319 -2.022,-8.026 -2.341,-7.984L-6.113,-7.488C-6.113,-7.488 -6.431,-7.446 -6.202,-7.221L-3.419,-4.495C-3.419,-4.495 -3.19,-4.269 -3.248,-3.954L-3.967,-0.024C-3.967,-0.024 -4.025,0.293 -3.746,0.131L-0.411,-1.788C-0.411,-1.788 -0.132,-1.947 0.147,-1.788L3.483,0.131C3.483,0.131 3.761,0.293 3.704,-0.024L2.984,-3.954C2.984,-3.954 2.926,-4.269 3.156,-4.495L5.938,-7.221C5.938,-7.221 6.168,-7.446 5.849,-7.488L2.077,-7.984C2.077,-7.984 1.758,-8.026 1.626,-8.319L0,-11.936Z" style="fill:white;fill-rule:nonzero;"/>
                </g>
                <g transform="matrix(1,0,0,1,334.978,345.68)">
                    <path d="M0,-11.936C0,-11.936 -0.132,-12.229 -0.264,-11.936L-1.89,-8.319C-1.89,-8.319 -2.022,-8.026 -2.341,-7.984L-6.113,-7.488C-6.113,-7.488 -6.431,-7.446 -6.202,-7.221L-3.419,-4.495C-3.419,-4.495 -3.19,-4.269 -3.248,-3.954L-3.967,-0.024C-3.967,-0.024 -4.025,0.293 -3.746,0.131L-0.411,-1.788C-0.411,-1.788 -0.132,-1.947 0.147,-1.788L3.483,0.131C3.483,0.131 3.761,0.293 3.704,-0.024L2.984,-3.954C2.984,-3.954 2.926,-4.269 3.156,-4.495L5.938,-7.221C5.938,-7.221 6.168,-7.446 5.849,-7.488L2.077,-7.984C2.077,-7.984 1.758,-8.026 1.626,-8.319L0,-11.936Z" style="fill:white;fill-rule:nonzero;"/>
                </g>
                <g transform="matrix(1,0,0,1,242.948,115.855)">
                    <path d="M0,-63.875C0,-63.875 -18.768,-63.875 -18.768,-45.107L-18.768,-18.768C-18.768,-18.768 -18.768,0 0,0L147.18,0C147.18,0 165.947,0 165.947,-18.768L165.947,-45.107C165.947,-45.107 165.947,-63.875 147.18,-63.875L0,-63.875Z" style="fill:rgb(240,95,0);fill-rule:nonzero;stroke:black;stroke-width:1px;"/>
                </g>
                <g transform="matrix(1,0,0,1,280.057,89.8614)">
                    <path d="M0,-11.936C0,-11.936 -0.132,-12.229 -0.264,-11.936L-1.89,-8.319C-1.89,-8.319 -2.022,-8.026 -2.341,-7.983L-6.113,-7.488C-6.113,-7.488 -6.431,-7.446 -6.202,-7.221L-3.419,-4.494C-3.419,-4.494 -3.19,-4.268 -3.248,-3.953L-3.967,-0.024C-3.967,-0.024 -4.025,0.293 -3.746,0.132L-0.411,-1.787C-0.411,-1.787 -0.132,-1.947 0.147,-1.787L3.483,0.132C3.483,0.132 3.761,0.293 3.704,-0.024L2.984,-3.953C2.984,-3.953 2.926,-4.268 3.156,-4.494L5.938,-7.221C5.938,-7.221 6.168,-7.446 5.849,-7.488L2.077,-7.983C2.077,-7.983 1.758,-8.026 1.626,-8.319L0,-11.936Z" style="fill:white;fill-rule:nonzero;"/>
                </g>
                <g transform="matrix(1,0,0,1,298.364,89.8614)">
                    <path d="M0,-11.936C0,-11.936 -0.132,-12.229 -0.264,-11.936L-1.89,-8.319C-1.89,-8.319 -2.022,-8.026 -2.341,-7.983L-6.113,-7.488C-6.113,-7.488 -6.431,-7.446 -6.202,-7.221L-3.419,-4.494C-3.419,-4.494 -3.19,-4.268 -3.248,-3.953L-3.967,-0.024C-3.967,-0.024 -4.025,0.293 -3.746,0.132L-0.411,-1.787C-0.411,-1.787 -0.132,-1.947 0.146,-1.787L3.483,0.132C3.483,0.132 3.761,0.293 3.704,-0.024L2.984,-3.953C2.984,-3.953 2.926,-4.268 3.156,-4.494L5.937,-7.221C5.937,-7.221 6.168,-7.446 5.849,-7.488L2.077,-7.983C2.077,-7.983 1.758,-8.026 1.626,-8.319L0,-11.936Z" style="fill:white;fill-rule:nonzero;"/>
                </g>
                <g transform="matrix(1,0,0,1,316.671,89.8614)">
                    <path d="M0,-11.936C0,-11.936 -0.132,-12.229 -0.264,-11.936L-1.89,-8.319C-1.89,-8.319 -2.022,-8.026 -2.341,-7.983L-6.113,-7.488C-6.113,-7.488 -6.431,-7.446 -6.202,-7.221L-3.419,-4.494C-3.419,-4.494 -3.19,-4.268 -3.248,-3.953L-3.967,-0.024C-3.967,-0.024 -4.025,0.293 -3.746,0.132L-0.411,-1.787C-0.411,-1.787 -0.132,-1.947 0.147,-1.787L3.483,0.132C3.483,0.132 3.761,0.293 3.704,-0.024L2.984,-3.953C2.984,-3.953 2.926,-4.268 3.156,-4.494L5.938,-7.221C5.938,-7.221 6.168,-7.446 5.849,-7.488L2.077,-7.983C2.077,-7.983 1.758,-8.026 1.626,-8.319L0,-11.936Z" style="fill:white;fill-rule:nonzero;"/>
                </g>
                <g transform="matrix(1,0,0,1,353.285,89.8614)">
                    <path d="M0,-11.936C0,-11.936 -0.132,-12.229 -0.264,-11.936L-1.89,-8.319C-1.89,-8.319 -2.022,-8.026 -2.341,-7.983L-6.113,-7.488C-6.113,-7.488 -6.431,-7.446 -6.202,-7.221L-3.419,-4.494C-3.419,-4.494 -3.19,-4.268 -3.248,-3.953L-3.967,-0.024C-3.967,-0.024 -4.025,0.293 -3.746,0.132L-0.411,-1.787C-0.411,-1.787 -0.132,-1.947 0.147,-1.787L3.483,0.132C3.483,0.132 3.761,0.293 3.704,-0.024L2.984,-3.953C2.984,-3.953 2.926,-4.268 3.156,-4.494L5.938,-7.221C5.938,-7.221 6.168,-7.446 5.849,-7.488L2.077,-7.983C2.077,-7.983 1.758,-8.026 1.626,-8.319L0,-11.936Z" style="fill:white;fill-rule:nonzero;"/>
                </g>
                <g transform="matrix(1,0,0,1,334.978,89.8614)">
                    <path d="M0,-11.936C0,-11.936 -0.132,-12.229 -0.264,-11.936L-1.89,-8.319C-1.89,-8.319 -2.022,-8.026 -2.341,-7.983L-6.113,-7.488C-6.113,-7.488 -6.431,-7.446 -6.202,-7.221L-3.419,-4.494C-3.419,-4.494 -3.19,-4.268 -3.248,-3.953L-3.967,-0.024C-3.967,-0.024 -4.025,0.293 -3.746,0.132L-0.411,-1.787C-0.411,-1.787 -0.132,-1.947 0.147,-1.787L3.483,0.132C3.483,0.132 3.761,0.293 3.704,-0.024L2.984,-3.953C2.984,-3.953 2.926,-4.268 3.156,-4.494L5.938,-7.221C5.938,-7.221 6.168,-7.446 5.849,-7.488L2.077,-7.983C2.077,-7.983 1.758,-8.026 1.626,-8.319L0,-11.936Z" style="fill:white;fill-rule:nonzero;"/>
                </g>
                <g transform="matrix(1,0,0,1,613.806,371.672)">
                    <path d="M0,-63.874C0,-63.874 -18.769,-63.874 -18.769,-45.106L-18.769,-18.768C-18.769,-18.768 -18.769,0 0,0L147.18,0C147.18,0 165.946,0 165.946,-18.768L165.946,-45.106C165.946,-45.106 165.946,-63.874 147.18,-63.874L0,-63.874Z" style="fill:rgb(240,95,0);fill-rule:nonzero;stroke:black;stroke-width:1px;"/>
                </g>
                <g transform="matrix(1,0,0,1,650.915,344.965)">
                    <path d="M0,-11.936C0,-11.936 -0.133,-12.229 -0.265,-11.936L-1.891,-8.319C-1.891,-8.319 -2.022,-8.026 -2.342,-7.984L-6.113,-7.488C-6.113,-7.488 -6.432,-7.446 -6.202,-7.22L-3.419,-4.494C-3.419,-4.494 -3.19,-4.268 -3.248,-3.953L-3.968,-0.024C-3.968,-0.024 -4.025,0.293 -3.746,0.132L-0.411,-1.787C-0.411,-1.787 -0.133,-1.947 0.146,-1.787L3.482,0.132C3.482,0.132 3.761,0.293 3.703,-0.024L2.983,-3.953C2.983,-3.953 2.926,-4.268 3.155,-4.494L5.937,-7.22C5.937,-7.22 6.168,-7.446 5.849,-7.488L2.076,-7.984C2.076,-7.984 1.758,-8.026 1.626,-8.319L0,-11.936Z" style="fill:white;fill-rule:nonzero;"/>
                </g>
                <g transform="matrix(1,0,0,1,669.222,344.965)">
                    <path d="M0,-11.936C0,-11.936 -0.132,-12.229 -0.264,-11.936L-1.89,-8.319C-1.89,-8.319 -2.022,-8.026 -2.341,-7.984L-6.113,-7.488C-6.113,-7.488 -6.431,-7.446 -6.202,-7.22L-3.419,-4.494C-3.419,-4.494 -3.19,-4.268 -3.248,-3.953L-3.967,-0.024C-3.967,-0.024 -4.025,0.293 -3.746,0.132L-0.411,-1.787C-0.411,-1.787 -0.132,-1.947 0.146,-1.787L3.483,0.132C3.483,0.132 3.761,0.293 3.704,-0.024L2.983,-3.953C2.983,-3.953 2.926,-4.268 3.156,-4.494L5.937,-7.22C5.937,-7.22 6.168,-7.446 5.849,-7.488L2.077,-7.984C2.077,-7.984 1.758,-8.026 1.626,-8.319L0,-11.936Z" style="fill:white;fill-rule:nonzero;"/>
                </g>
                <g transform="matrix(1,0,0,1,687.528,344.965)">
                    <path d="M0,-11.936C0,-11.936 -0.132,-12.229 -0.264,-11.936L-1.89,-8.319C-1.89,-8.319 -2.021,-8.026 -2.341,-7.984L-6.112,-7.488C-6.112,-7.488 -6.431,-7.446 -6.202,-7.22L-3.419,-4.494C-3.419,-4.494 -3.189,-4.268 -3.248,-3.953L-3.967,-0.024C-3.967,-0.024 -4.024,0.293 -3.746,0.132L-0.411,-1.787C-0.411,-1.787 -0.132,-1.947 0.147,-1.787L3.483,0.132C3.483,0.132 3.762,0.293 3.704,-0.024L2.984,-3.953C2.984,-3.953 2.927,-4.268 3.156,-4.494L5.938,-7.22C5.938,-7.22 6.168,-7.446 5.85,-7.488L2.077,-7.984C2.077,-7.984 1.759,-8.026 1.626,-8.319L0,-11.936Z" style="fill:white;fill-rule:nonzero;"/>
                </g>
                <g transform="matrix(1,0,0,1,724.143,344.965)">
                    <path d="M0,-11.936C0,-11.936 -0.132,-12.229 -0.264,-11.936L-1.89,-8.319C-1.89,-8.319 -2.021,-8.026 -2.341,-7.984L-6.113,-7.488C-6.113,-7.488 -6.431,-7.446 -6.202,-7.22L-3.419,-4.494C-3.419,-4.494 -3.189,-4.268 -3.248,-3.953L-3.967,-0.024C-3.967,-0.024 -4.024,0.293 -3.746,0.132L-0.411,-1.787C-0.411,-1.787 -0.132,-1.947 0.147,-1.787L3.483,0.132C3.483,0.132 3.762,0.293 3.704,-0.024L2.984,-3.953C2.984,-3.953 2.926,-4.268 3.156,-4.494L5.938,-7.22C5.938,-7.22 6.168,-7.446 5.85,-7.488L2.077,-7.984C2.077,-7.984 1.758,-8.026 1.626,-8.319L0,-11.936Z" style="fill:white;fill-rule:nonzero;"/>
                </g>
                <g transform="matrix(1,0,0,1,705.836,344.965)">
                    <path d="M0,-11.936C0,-11.936 -0.132,-12.229 -0.264,-11.936L-1.891,-8.319C-1.891,-8.319 -2.022,-8.026 -2.341,-7.984L-6.113,-7.488C-6.113,-7.488 -6.432,-7.446 -6.202,-7.22L-3.419,-4.494C-3.419,-4.494 -3.19,-4.268 -3.248,-3.953L-3.967,-0.024C-3.967,-0.024 -4.025,0.293 -3.746,0.132L-0.411,-1.787C-0.411,-1.787 -0.132,-1.947 0.146,-1.787L3.482,0.132C3.482,0.132 3.761,0.293 3.704,-0.024L2.983,-3.953C2.983,-3.953 2.926,-4.268 3.156,-4.494L5.937,-7.22C5.937,-7.22 6.168,-7.446 5.849,-7.488L2.077,-7.984C2.077,-7.984 1.758,-8.026 1.626,-8.319L0,-11.936Z" style="fill:white;fill-rule:nonzero;"/>
                </g>
                <g transform="matrix(1,0,0,1,613.806,115.855)">
                    <path d="M0,-63.875C0,-63.875 -18.769,-63.875 -18.769,-45.107L-18.769,-18.768C-18.769,-18.768 -18.769,0 0,0L147.18,0C147.18,0 165.946,0 165.946,-18.768L165.946,-45.107C165.946,-45.107 165.946,-63.875 147.18,-63.875L0,-63.875Z" style="fill:rgb(240,95,0);fill-rule:nonzero;stroke:black;stroke-width:1px;"/>
                </g>
                <g transform="matrix(1,0,0,1,650.915,89.1475)">
                    <path d="M0,-11.936C0,-11.936 -0.133,-12.229 -0.265,-11.936L-1.891,-8.319C-1.891,-8.319 -2.022,-8.026 -2.342,-7.984L-6.113,-7.488C-6.113,-7.488 -6.432,-7.446 -6.202,-7.221L-3.419,-4.494C-3.419,-4.494 -3.19,-4.269 -3.248,-3.953L-3.968,-0.024C-3.968,-0.024 -4.025,0.293 -3.746,0.131L-0.411,-1.787C-0.411,-1.787 -0.133,-1.947 0.146,-1.787L3.482,0.131C3.482,0.131 3.761,0.293 3.703,-0.024L2.983,-3.953C2.983,-3.953 2.926,-4.269 3.155,-4.494L5.937,-7.221C5.937,-7.221 6.168,-7.446 5.849,-7.488L2.076,-7.984C2.076,-7.984 1.758,-8.026 1.626,-8.319L0,-11.936Z" style="fill:white;fill-rule:nonzero;"/>
                </g>
                <g transform="matrix(1,0,0,1,669.222,89.1475)">
                    <path d="M0,-11.936C0,-11.936 -0.132,-12.229 -0.264,-11.936L-1.89,-8.319C-1.89,-8.319 -2.022,-8.026 -2.341,-7.984L-6.113,-7.488C-6.113,-7.488 -6.431,-7.446 -6.202,-7.221L-3.419,-4.494C-3.419,-4.494 -3.19,-4.269 -3.248,-3.953L-3.967,-0.024C-3.967,-0.024 -4.025,0.293 -3.746,0.131L-0.411,-1.787C-0.411,-1.787 -0.132,-1.947 0.146,-1.787L3.483,0.131C3.483,0.131 3.761,0.293 3.704,-0.024L2.983,-3.953C2.983,-3.953 2.926,-4.269 3.156,-4.494L5.937,-7.221C5.937,-7.221 6.168,-7.446 5.849,-7.488L2.077,-7.984C2.077,-7.984 1.758,-8.026 1.626,-8.319L0,-11.936Z" style="fill:white;fill-rule:nonzero;"/>
                </g>
                <g transform="matrix(1,0,0,1,687.528,89.1475)">
                    <path d="M0,-11.936C0,-11.936 -0.132,-12.229 -0.264,-11.936L-1.89,-8.319C-1.89,-8.319 -2.021,-8.026 -2.341,-7.984L-6.112,-7.488C-6.112,-7.488 -6.431,-7.446 -6.202,-7.221L-3.419,-4.494C-3.419,-4.494 -3.189,-4.269 -3.248,-3.953L-3.967,-0.024C-3.967,-0.024 -4.024,0.293 -3.746,0.131L-0.411,-1.787C-0.411,-1.787 -0.132,-1.947 0.147,-1.787L3.483,0.131C3.483,0.131 3.762,0.293 3.704,-0.024L2.984,-3.953C2.984,-3.953 2.927,-4.269 3.156,-4.494L5.938,-7.221C5.938,-7.221 6.168,-7.446 5.85,-7.488L2.077,-7.984C2.077,-7.984 1.759,-8.026 1.626,-8.319L0,-11.936Z" style="fill:white;fill-rule:nonzero;"/>
                </g>
                <g transform="matrix(1,0,0,1,724.143,89.1475)">
                    <path d="M0,-11.936C0,-11.936 -0.132,-12.229 -0.264,-11.936L-1.89,-8.319C-1.89,-8.319 -2.021,-8.026 -2.341,-7.984L-6.113,-7.488C-6.113,-7.488 -6.431,-7.446 -6.202,-7.221L-3.419,-4.494C-3.419,-4.494 -3.189,-4.269 -3.248,-3.953L-3.967,-0.024C-3.967,-0.024 -4.024,0.293 -3.746,0.131L-0.411,-1.787C-0.411,-1.787 -0.132,-1.947 0.147,-1.787L3.483,0.131C3.483,0.131 3.762,0.293 3.704,-0.024L2.984,-3.953C2.984,-3.953 2.926,-4.269 3.156,-4.494L5.938,-7.221C5.938,-7.221 6.168,-7.446 5.85,-7.488L2.077,-7.984C2.077,-7.984 1.758,-8.026 1.626,-8.319L0,-11.936Z" style="fill:white;fill-rule:nonzero;"/>
                </g>
                <g transform="matrix(1,0,0,1,705.836,89.1475)">
                    <path d="M0,-11.936C0,-11.936 -0.132,-12.229 -0.264,-11.936L-1.891,-8.319C-1.891,-8.319 -2.022,-8.026 -2.341,-7.984L-6.113,-7.488C-6.113,-7.488 -6.432,-7.446 -6.202,-7.221L-3.419,-4.494C-3.419,-4.494 -3.19,-4.269 -3.248,-3.953L-3.967,-0.024C-3.967,-0.024 -4.025,0.293 -3.746,0.131L-0.411,-1.787C-0.411,-1.787 -0.132,-1.947 0.146,-1.787L3.482,0.131C3.482,0.131 3.761,0.293 3.704,-0.024L2.983,-3.953C2.983,-3.953 2.926,-4.269 3.156,-4.494L5.937,-7.221C5.937,-7.221 6.168,-7.446 5.849,-7.488L2.077,-7.984C2.077,-7.984 1.758,-8.026 1.626,-8.319L0,-11.936Z" style="fill:white;fill-rule:nonzero;"/>
                </g>
                <g transform="matrix(1,0,0,1,428.377,247.353)">
                    <path d="M0,-63.874C0,-63.874 -18.768,-63.874 -18.768,-45.107L-18.768,-18.768C-18.768,-18.768 -18.768,0 0,0L147.18,0C147.18,0 165.946,0 165.946,-18.768L165.946,-45.107C165.946,-45.107 165.946,-63.874 147.18,-63.874L0,-63.874Z" style="fill:rgb(240,95,0);fill-rule:nonzero;stroke:black;stroke-width:1px;"/>
                </g>
                <text x="98.733px" y="201.641px" style="font-family:'NEXT-MediumBook', 'NEXT', sans-serif;font-weight:500;font-size:9.931px;fill:white;">J<tspan x="102.69px " y="201.641px ">a</tspan>na Pr<tspan x="132.263px 138.524px 143.573px " y="201.641px 201.641px 201.641px ">avd</tspan>iv<tspan x="157.282px " y="201.641px ">á</tspan></text>
                <text x="58.622px" y="236.45px" style="font-family:'NEXT-LightBook', 'NEXT', sans-serif;font-weight:300;font-size:9.931px;">K<tspan x="63.847px 68.754px " y="236.45px 236.45px ">va</tspan>litní pr<tspan x="102.682px " y="236.45px ">o</tspan>dukt za par<tspan x="159.307px " y="236.45px ">á</tspan>dní cenu</text>
                <text x="266.252px" y="326.169px" style="font-family:'NEXT-MediumBook', 'NEXT', sans-serif;font-weight:500;font-size:9.931px;fill:white;">V<tspan x="272.343px 277.799px 281.129px " y="326.169px 326.169px 326.169px ">ero</tspan>nik<tspan x="300.031px " y="326.169px ">a</tspan> N<tspan x="316.169px 321.545px 325.074px " y="326.169px 326.169px 326.169px ">efa</tspan>lšo<tspan x="343.648px 348.697px " y="326.169px 326.169px ">va</tspan>ná</text>
                <text x="244.046px" y="360.978px" style="font-family:'NEXT-LightBook', 'NEXT', sans-serif;font-weight:300;font-size:9.931px;">K<tspan x="249.271px 254.179px " y="360.978px 360.978px ">va</tspan>litní pr<tspan x="288.107px " y="360.978px ">o</tspan>dukt za par<tspan x="344.732px " y="360.978px ">á</tspan>dní cenu</text>
                <text x="291.348px" y="70.351px" style="font-family:'NEXT-MediumBook', 'NEXT', sans-serif;font-weight:500;font-size:9.931px;fill:white;">Jiří C<tspan x="312.477px " y="70.351px ">o</tspan>nelže</text>
                <text x="244.046px" y="105.16px" style="font-family:'NEXT-LightBook', 'NEXT', sans-serif;font-weight:300;font-size:9.931px;">K<tspan x="249.271px 254.179px " y="105.16px 105.16px ">va</tspan>litní pr<tspan x="288.106px " y="105.16px ">o</tspan>dukt za par<tspan x="344.731px " y="105.16px ">á</tspan>dní cenu</text>
                <text x="649.192px" y="325.455px" style="font-family:'NEXT-MediumBook', 'NEXT', sans-serif;font-weight:500;font-size:9.931px;fill:white;">Adéla R<tspan x="684.293px " y="325.455px ">e</tspan>álná</text>
                <text x="614.9px" y="360.263px" style="font-family:'NEXT-LightBook', 'NEXT', sans-serif;font-weight:300;font-size:9.931px;">K<tspan x="620.126px 625.033px " y="360.263px 360.263px ">va</tspan>litní pr<tspan x="658.961px " y="360.263px ">o</tspan>dukt za par<tspan x="715.586px " y="360.263px ">á</tspan>dní cenu</text>
                <text x="649.192px" y="69.637px" style="font-family:'NEXT-MediumBook', 'NEXT', sans-serif;font-weight:500;font-size:9.931px;fill:white;">Simona U<tspan x="692.379px " y="69.637px ">p</tspan>římná</text>
                <text x="614.9px" y="104.445px" style="font-family:'NEXT-LightBook', 'NEXT', sans-serif;font-weight:300;font-size:9.931px;">K<tspan x="620.126px 625.033px " y="104.445px 104.445px ">va</tspan>litní pr<tspan x="658.961px " y="104.445px ">o</tspan>dukt za par<tspan x="715.586px " y="104.445px ">á</tspan>dní cenu</text>
                <text x="456.815px" y="201.343px" style="font-family:'NEXT-MediumBook', 'NEXT', sans-serif;font-weight:500;font-size:9.931px;fill:white;">K<tspan x="462.579px 468.838px 472.168px " y="201.343px 201.343px 201.343px ">are</tspan>l Pr<tspan x="491.44px 497.7px 502.748px " y="201.343px 201.343px 201.343px ">avd</tspan>omluvný</text>
                <text x="429.475px" y="236.152px" style="font-family:'NEXT-LightBook', 'NEXT', sans-serif;font-weight:300;font-size:9.931px;">K<tspan x="434.701px 439.608px " y="236.152px 236.152px ">va</tspan>litní pr<tspan x="473.54px " y="236.152px ">o</tspan>dukt za par<tspan x="530.169px " y="236.152px ">á</tspan>dní cenu</text>
                <g transform="matrix(1,0,0,1,465.485,220.854)">
                    <path d="M0,-11.936C0,-11.936 -0.132,-12.229 -0.264,-11.936L-1.89,-8.319C-1.89,-8.319 -2.021,-8.026 -2.341,-7.984L-6.112,-7.488C-6.112,-7.488 -6.431,-7.446 -6.202,-7.22L-3.419,-4.494C-3.419,-4.494 -3.189,-4.269 -3.248,-3.953L-3.967,-0.024C-3.967,-0.024 -4.024,0.293 -3.746,0.132L-0.411,-1.787C-0.411,-1.787 -0.132,-1.947 0.147,-1.787L3.483,0.132C3.483,0.132 3.762,0.293 3.704,-0.024L2.984,-3.953C2.984,-3.953 2.927,-4.269 3.156,-4.494L5.938,-7.22C5.938,-7.22 6.168,-7.446 5.85,-7.488L2.077,-7.984C2.077,-7.984 1.759,-8.026 1.626,-8.319L0,-11.936Z" style="fill:white;fill-rule:nonzero;"/>
                </g>
                <g transform="matrix(1,0,0,1,483.793,220.854)">
                    <path d="M0,-11.936C0,-11.936 -0.132,-12.229 -0.265,-11.936L-1.891,-8.319C-1.891,-8.319 -2.022,-8.026 -2.341,-7.984L-6.113,-7.488C-6.113,-7.488 -6.432,-7.446 -6.202,-7.22L-3.419,-4.494C-3.419,-4.494 -3.19,-4.269 -3.248,-3.953L-3.967,-0.024C-3.967,-0.024 -4.025,0.293 -3.746,0.132L-0.411,-1.787C-0.411,-1.787 -0.132,-1.947 0.146,-1.787L3.482,0.132C3.482,0.132 3.761,0.293 3.704,-0.024L2.983,-3.953C2.983,-3.953 2.926,-4.269 3.156,-4.494L5.937,-7.22C5.937,-7.22 6.168,-7.446 5.849,-7.488L2.077,-7.984C2.077,-7.984 1.758,-8.026 1.626,-8.319L0,-11.936Z" style="fill:white;fill-rule:nonzero;"/>
                </g>
                <g transform="matrix(1,0,0,1,502.1,220.854)">
                    <path d="M0,-11.936C0,-11.936 -0.132,-12.229 -0.264,-11.936L-1.89,-8.319C-1.89,-8.319 -2.021,-8.026 -2.341,-7.984L-6.112,-7.488C-6.112,-7.488 -6.431,-7.446 -6.202,-7.22L-3.419,-4.494C-3.419,-4.494 -3.189,-4.269 -3.248,-3.953L-3.967,-0.024C-3.967,-0.024 -4.024,0.293 -3.746,0.132L-0.411,-1.787C-0.411,-1.787 -0.132,-1.947 0.147,-1.787L3.483,0.132C3.483,0.132 3.762,0.293 3.704,-0.024L2.984,-3.953C2.984,-3.953 2.927,-4.269 3.156,-4.494L5.938,-7.22C5.938,-7.22 6.168,-7.446 5.85,-7.488L2.077,-7.984C2.077,-7.984 1.758,-8.026 1.626,-8.319L0,-11.936Z" style="fill:white;fill-rule:nonzero;"/>
                </g>
                <g transform="matrix(1,0,0,1,538.714,220.854)">
                    <path d="M0,-11.936C0,-11.936 -0.132,-12.229 -0.264,-11.936L-1.89,-8.319C-1.89,-8.319 -2.021,-8.026 -2.341,-7.984L-6.113,-7.488C-6.113,-7.488 -6.431,-7.446 -6.202,-7.22L-3.419,-4.494C-3.419,-4.494 -3.189,-4.269 -3.248,-3.953L-3.967,-0.024C-3.967,-0.024 -4.024,0.293 -3.746,0.132L-0.411,-1.787C-0.411,-1.787 -0.132,-1.947 0.147,-1.787L3.483,0.132C3.483,0.132 3.761,0.293 3.704,-0.024L2.984,-3.953C2.984,-3.953 2.926,-4.269 3.156,-4.494L5.938,-7.22C5.938,-7.22 6.168,-7.446 5.849,-7.488L2.077,-7.984C2.077,-7.984 1.758,-8.026 1.626,-8.319L0,-11.936Z" style="fill:white;fill-rule:nonzero;"/>
                </g>
                <g transform="matrix(1,0,0,1,520.407,220.854)">
                    <path d="M0,-11.936C0,-11.936 -0.132,-12.229 -0.265,-11.936L-1.891,-8.319C-1.891,-8.319 -2.022,-8.026 -2.341,-7.984L-6.113,-7.488C-6.113,-7.488 -6.432,-7.446 -6.202,-7.22L-3.419,-4.494C-3.419,-4.494 -3.19,-4.269 -3.248,-3.953L-3.968,-0.024C-3.968,-0.024 -4.025,0.293 -3.746,0.132L-0.411,-1.787C-0.411,-1.787 -0.132,-1.947 0.146,-1.787L3.482,0.132C3.482,0.132 3.761,0.293 3.704,-0.024L2.983,-3.953C2.983,-3.953 2.926,-4.269 3.155,-4.494L5.937,-7.22C5.937,-7.22 6.168,-7.446 5.849,-7.488L2.077,-7.984C2.077,-7.984 1.758,-8.026 1.626,-8.319L0,-11.936Z" style="fill:white;fill-rule:nonzero;"/>
                </g>
            </g>
        </g>
    </g>
</svg>
