<?xml version="1.0" encoding="UTF-8" standalone="no"?>
<!DOCTYPE svg PUBLIC "-//W3C//DTD SVG 1.1//EN" "http://www.w3.org/Graphics/SVG/1.1/DTD/svg11.dtd">
<svg width="100%" height="100%" viewBox="0 0 2183 1148" version="1.1" xmlns="http://www.w3.org/2000/svg" xmlns:xlink="http://www.w3.org/1999/xlink" xml:space="preserve" xmlns:serif="http://www.serif.com/" style="fill-rule:evenodd;clip-rule:evenodd;">
    <g transform="matrix(1,0,0,1,-9822.05,-1645.3)">
        <g id="Page-11" serif:id="Page 11" transform="matrix(2.66667,0,0,2.66667,9822.05,1645.3)">
            <rect x="0" y="0" width="818.504" height="430.233" style="fill:none;"/>
            <g id="Layer-1" serif:id="Layer 1">
                <g transform="matrix(1,0,0,1,70.3154,143.687)">
                    <path d="M0,-90.404C0,-90.404 -22.729,-90.404 -22.729,-67.677L-22.729,-22.726C-22.729,-22.726 -22.729,0 0,0L43.271,0C43.271,0 66,0 66,-22.726L66,-67.677C66,-67.677 66,-90.404 43.271,-90.404L0,-90.404Z" style="fill:none;fill-rule:nonzero;stroke:#000;stroke-width:1.16px;"/>
                </g>
                <g transform="matrix(1,0,0,1,117.393,73.861)">
                    <path d="M0,-34.504C0,-34.504 -15.825,-34.504 -15.825,-18.68L-15.825,-15.824C-15.825,-15.824 -15.825,0 0,0L43.258,0C43.258,0 59.083,0 59.083,-15.824L59.083,-18.68C59.083,-18.68 59.083,-34.504 43.258,-34.504L0,-34.504Z" style="fill:#fff;fill-rule:nonzero;"/>
                </g>
                <g transform="matrix(1,0,0,1,115.208,50.1521)">
                    <path d="M0,14.16L0,13.043L3.988,13.043L3.988,1.437L0.199,3.908L0.199,2.533L4.168,0L5.225,0L5.225,13.043L9.133,13.043L9.133,14.16L0,14.16Z" style="fill-rule:nonzero;"/>
                </g>
                <g transform="matrix(1,0,0,1,125.832,64.3921)">
                    <path d="M0,-0.08L0,-1.975L1.975,-1.975L1.975,0.379C1.975,1.397 1.436,1.895 0.379,1.895L0.14,1.895L0.14,1.096L0.379,1.096C0.858,1.096 1.097,0.877 1.097,0.459L1.097,-0.08L0,-0.08Z" style="fill-rule:nonzero;"/>
                </g>
                <g transform="matrix(1,0,0,1,130.078,50.1521)">
                    <path d="M0,14.16L0,13.043L3.988,13.043L3.988,1.437L0.199,3.908L0.199,2.533L4.168,0L5.225,0L5.225,13.043L9.134,13.043L9.134,14.16L0,14.16Z" style="fill-rule:nonzero;"/>
                </g>
                <g transform="matrix(1,0,0,1,148.679,57.232)">
                    <path d="M0,0.002C0,-4.309 -1.495,-6.242 -3.649,-6.242C-5.803,-6.242 -7.299,-4.309 -7.299,0.002C-7.299,4.307 -5.803,6.24 -3.649,6.24C-1.495,6.24 0,4.307 0,0.002M-8.535,0.002C-8.535,-4.865 -6.601,-7.318 -3.649,-7.318C-0.697,-7.318 1.236,-4.865 1.236,0.002C1.236,4.865 -0.697,7.32 -3.649,7.32C-6.601,7.32 -8.535,4.865 -8.535,0.002" style="fill-rule:nonzero;"/>
                </g>
                <g transform="matrix(1,0,0,1,160.679,57.232)">
                    <path d="M0,0.002C0,-4.309 -1.496,-6.242 -3.65,-6.242C-5.804,-6.242 -7.299,-4.309 -7.299,0.002C-7.299,4.307 -5.804,6.24 -3.65,6.24C-1.496,6.24 0,4.307 0,0.002M-8.535,0.002C-8.535,-4.865 -6.602,-7.318 -3.65,-7.318C-0.698,-7.318 1.236,-4.865 1.236,0.002C1.236,4.865 -0.698,7.32 -3.65,7.32C-6.602,7.32 -8.535,4.865 -8.535,0.002" style="fill-rule:nonzero;"/>
                </g>
                <g transform="matrix(1,0,0,1,117.393,73.861)">
                    <path d="M0,-34.504C0,-34.504 -15.825,-34.504 -15.825,-18.68L-15.825,-15.824C-15.825,-15.824 -15.825,0 0,0L43.258,0C43.258,0 59.083,0 59.083,-15.824L59.083,-18.68C59.083,-18.68 59.083,-34.504 43.258,-34.504L0,-34.504Z" style="fill:none;fill-rule:nonzero;stroke:#000;stroke-width:1.16px;"/>
                </g>
                <g transform="matrix(1,0,0,1,674.084,384.82)">
                    <path d="M0,-90.402C0,-90.402 -22.729,-90.402 -22.729,-67.675L-22.729,-22.726C-22.729,-22.726 -22.729,0 0,0L43.271,0C43.271,0 66,0 66,-22.726L66,-67.675C66,-67.675 66,-90.402 43.271,-90.402L0,-90.402Z" style="fill:none;fill-rule:nonzero;stroke:#000;stroke-width:1.16px;"/>
                </g>
                <g transform="matrix(1,0,0,1,721.16,314.996)">
                    <path d="M0,-34.504C0,-34.504 -15.825,-34.504 -15.825,-18.68L-15.825,-15.826C-15.825,-15.826 -15.825,0 0,0L33.932,0C33.932,0 49.757,0 49.757,-15.826L49.757,-18.68C49.757,-18.68 49.757,-34.504 33.932,-34.504L0,-34.504Z" style="fill:#fff;fill-rule:nonzero;"/>
                </g>
                <g transform="matrix(1,0,0,1,722.03,293.679)">
                    <path d="M0,9.615L0.977,8.857C1.694,10.211 2.951,10.912 4.526,10.912C6.461,10.912 7.977,9.476 7.977,7.422C7.977,5.406 6.461,3.931 4.526,3.931C3.648,3.931 2.911,4.109 2.094,4.568L1.575,3.769L6.761,-1.276L0.798,-1.276L0.798,-2.393L8.556,-2.393L8.556,-1.453L3.889,2.914C4.088,2.875 4.308,2.855 4.526,2.855C6.979,2.855 9.193,4.668 9.193,7.422C9.193,10.195 6.979,12.008 4.526,12.008C2.691,12.008 0.977,11.289 0,9.615" style="fill-rule:nonzero;"/>
                </g>
                <g transform="matrix(1,0,0,1,734.269,291.287)">
                    <path d="M0,14.16L3.211,6.484L-0.339,6.484L-0.339,5.367L3.67,5.367L5.465,1.117L-1.655,1.117L-1.655,0L6.82,0L6.82,0.939L4.905,5.367L6.541,5.367L6.541,6.484L4.487,6.484L1.316,14.16L0,14.16Z" style="fill-rule:nonzero;"/>
                </g>
                <g transform="matrix(1,0,0,1,751.375,298.369)">
                    <path d="M0,-0.002C0,-4.309 -1.495,-6.244 -3.648,-6.244C-5.803,-6.244 -7.299,-4.309 -7.299,-0.002C-7.299,4.307 -5.803,6.24 -3.648,6.24C-1.495,6.24 0,4.307 0,-0.002M-8.536,-0.002C-8.536,-4.865 -6.601,-7.32 -3.648,-7.32C-0.697,-7.32 1.237,-4.865 1.237,-0.002C1.237,4.865 -0.697,7.318 -3.648,7.318C-6.601,7.318 -8.536,4.865 -8.536,-0.002" style="fill-rule:nonzero;"/>
                </g>
                <g transform="matrix(1,0,0,1,721.16,314.996)">
                    <path d="M0,-34.504C0,-34.504 -15.825,-34.504 -15.825,-18.68L-15.825,-15.826C-15.825,-15.826 -15.825,0 0,0L33.932,0C33.932,0 49.757,0 49.757,-15.826L49.757,-18.68C49.757,-18.68 49.757,-34.504 33.932,-34.504L0,-34.504Z" style="fill:none;fill-rule:nonzero;stroke:#000;stroke-width:1.16px;"/>
                </g>
                <g transform="matrix(1,0,0,1,223.031,143.687)">
                    <path d="M0,-90.404C0,-90.404 -22.729,-90.404 -22.729,-67.677L-22.729,-22.726C-22.729,-22.726 -22.729,0 0,0L43.271,0C43.271,0 66,0 66,-22.726L66,-67.677C66,-67.677 66,-90.404 43.271,-90.404L0,-90.404Z" style="fill:none;fill-rule:nonzero;stroke:#000;stroke-width:1.16px;"/>
                </g>
                <g transform="matrix(1,0,0,1,270.108,73.861)">
                    <path d="M0,-34.504C0,-34.504 -15.825,-34.504 -15.825,-18.68L-15.825,-15.824C-15.825,-15.824 -15.825,0 0,0L33.931,0C33.931,0 49.756,0 49.756,-15.824L49.756,-18.68C49.756,-18.68 49.756,-34.504 33.931,-34.504L0,-34.504Z" style="fill:#fff;fill-rule:nonzero;"/>
                </g>
                <g transform="matrix(1,0,0,1,278.326,60.9236)">
                    <path d="M0,-7.381C0,-8.836 -1.196,-9.914 -2.712,-9.914C-4.228,-9.914 -5.425,-8.836 -5.425,-7.381C-5.425,-5.887 -4.228,-4.848 -2.712,-4.848C-1.196,-4.848 0,-5.887 0,-7.381M0.599,-0.6C0.599,-2.414 -0.878,-3.752 -2.712,-3.752C-4.547,-3.752 -6.022,-2.414 -6.022,-0.6C-6.022,1.234 -4.547,2.531 -2.712,2.531C-0.878,2.531 0.599,1.234 0.599,-0.6M-7.238,-0.563C-7.238,-2.315 -6.183,-3.652 -4.746,-4.309C-5.862,-4.93 -6.621,-5.965 -6.621,-7.401C-6.621,-9.574 -4.786,-11.01 -2.712,-11.01C-0.638,-11.01 1.197,-9.574 1.197,-7.401C1.197,-5.965 0.439,-4.93 -0.678,-4.309C0.758,-3.652 1.815,-2.315 1.815,-0.563C1.815,1.973 -0.319,3.629 -2.712,3.629C-5.105,3.629 -7.238,1.973 -7.238,-0.563" style="fill-rule:nonzero;"/>
                </g>
                <g transform="matrix(1,0,0,1,282.03,50.1521)">
                    <path d="M0,14.16L0,13.043L3.988,13.043L3.988,1.437L0.199,3.908L0.199,2.533L4.168,0L5.225,0L5.225,13.043L9.134,13.043L9.134,14.16L0,14.16Z" style="fill-rule:nonzero;"/>
                </g>
                <g transform="matrix(1,0,0,1,300.632,57.232)">
                    <path d="M0,0.002C0,-4.309 -1.495,-6.242 -3.649,-6.242C-5.803,-6.242 -7.299,-4.309 -7.299,0.002C-7.299,4.307 -5.803,6.24 -3.649,6.24C-1.495,6.24 0,4.307 0,0.002M-8.535,0.002C-8.535,-4.865 -6.601,-7.318 -3.649,-7.318C-0.697,-7.318 1.236,-4.865 1.236,0.002C1.236,4.865 -0.697,7.32 -3.649,7.32C-6.601,7.32 -8.535,4.865 -8.535,0.002" style="fill-rule:nonzero;"/>
                </g>
                <g transform="matrix(1,0,0,1,270.108,73.861)">
                    <path d="M0,-34.504C0,-34.504 -15.825,-34.504 -15.825,-18.68L-15.825,-15.824C-15.825,-15.824 -15.825,0 0,0L33.931,0C33.931,0 49.756,0 49.756,-15.824L49.756,-18.68C49.756,-18.68 49.756,-34.504 33.931,-34.504L0,-34.504Z" style="fill:none;fill-rule:nonzero;stroke:#000;stroke-width:1.16px;"/>
                </g>
                <g transform="matrix(1,0,0,1,519.988,143.687)">
                    <path d="M0,-90.404C0,-90.404 -22.729,-90.404 -22.729,-67.677L-22.729,-22.726C-22.729,-22.726 -22.729,0 0,0L43.271,0C43.271,0 65.999,0 65.999,-22.726L65.999,-67.677C65.999,-67.677 65.999,-90.404 43.271,-90.404L0,-90.404Z" style="fill:none;fill-rule:nonzero;stroke:#000;stroke-width:1.16px;"/>
                </g>
                <g transform="matrix(1,0,0,1,567.065,73.861)">
                    <path d="M0,-34.504C0,-34.504 -15.826,-34.504 -15.826,-18.68L-15.826,-15.824C-15.826,-15.824 -15.826,0 0,0L18.777,0C18.777,0 34.603,0 34.603,-15.824L34.603,-18.68C34.603,-18.68 34.603,-34.504 18.777,-34.504L0,-34.504Z" style="fill:#fff;fill-rule:nonzero;stroke:#000;stroke-width:1.16px;"/>
                </g>
                <g transform="matrix(1,0,0,1,689.237,259.952)">
                    <path d="M0,-90.404C0,-90.404 -22.729,-90.404 -22.729,-67.677L-22.729,-22.726C-22.729,-22.726 -22.729,0 0,0L43.271,0C43.271,0 65.999,0 65.999,-22.726L65.999,-67.677C65.999,-67.677 65.999,-90.404 43.271,-90.404L0,-90.404Z" style="fill:none;fill-rule:nonzero;stroke:#000;stroke-width:1.16px;"/>
                </g>
                <g transform="matrix(1,0,0,1,736.313,190.127)">
                    <path d="M0,-34.504C0,-34.504 -15.825,-34.504 -15.825,-18.68L-15.825,-15.824C-15.825,-15.824 -15.825,0 0,0L18.778,0C18.778,0 34.604,0 34.604,-15.824L34.604,-18.68C34.604,-18.68 34.604,-34.504 18.778,-34.504L0,-34.504Z" style="fill:#fff;fill-rule:nonzero;"/>
                </g>
                <g transform="matrix(1,0,0,1,735.241,168.812)">
                    <path d="M0,9.611L0.978,8.853C1.695,10.209 2.951,10.908 4.527,10.908C6.462,10.908 7.977,9.472 7.977,7.418C7.977,5.404 6.462,3.925 4.527,3.925C3.649,3.925 2.912,4.107 2.094,4.566L1.575,3.767L6.761,-1.28L0.798,-1.28L0.798,-2.395L8.556,-2.395L8.556,-1.455L3.889,2.912C4.089,2.873 4.308,2.849 4.527,2.849C6.979,2.849 9.193,4.666 9.193,7.418C9.193,10.191 6.979,12.006 4.527,12.006C2.692,12.006 0.978,11.287 0,9.611" style="fill-rule:nonzero;"/>
                </g>
                <g transform="matrix(1,0,0,1,754.381,171.005)">
                    <path d="M0,5.225C0,3.211 -1.516,1.733 -3.45,1.733C-5.385,1.733 -6.9,3.211 -6.9,5.225C-6.9,7.28 -5.385,8.715 -3.45,8.715C-1.516,8.715 0,7.28 0,5.225M-8.116,5.225C-8.116,3.33 -7.179,1.973 -5.764,0.039L-2.413,-4.588L-0.937,-4.588L-5.046,0.977C-4.507,0.756 -3.988,0.657 -3.45,0.657C-0.997,0.657 1.217,2.473 1.217,5.225C1.217,7.998 -0.997,9.813 -3.45,9.813C-5.902,9.813 -8.116,7.998 -8.116,5.225" style="fill-rule:nonzero;"/>
                </g>
                <g transform="matrix(1,0,0,1,736.313,190.127)">
                    <path d="M0,-34.504C0,-34.504 -15.825,-34.504 -15.825,-18.68L-15.825,-15.824C-15.825,-15.824 -15.825,0 0,0L18.778,0C18.778,0 34.604,0 34.604,-15.824L34.604,-18.68C34.604,-18.68 34.604,-34.504 18.778,-34.504L0,-34.504Z" style="fill:none;fill-rule:nonzero;stroke:#000;stroke-width:1.16px;"/>
                </g>
                <g transform="matrix(1,0,0,1,177.329,346.025)">
                    <path d="M0,4.707L0,-27.189C0,-27.189 0,-49.92 -22.729,-49.92L-107.014,-49.92C-107.014,-49.92 -129.742,-49.92 -129.742,-27.189L-129.742,4.707C-129.742,4.707 -129.742,27.436 -107.014,27.436L-85.212,27.436L-64.871,54.627L-44.53,27.436L-22.729,27.436C-22.729,27.436 0,27.436 0,4.707Z" style="fill:none;fill-rule:nonzero;stroke:#000;stroke-width:1.16px;stroke-miterlimit:10;"/>
                </g>
                <g transform="matrix(1,0,0,1,124.769,317.023)">
                    <path d="M0,38.418L0,3.758C0,-0.252 1.002,-1.42 5.011,-1.42L26.225,-1.42C30.065,-1.42 30.985,-0.252 30.985,3.424L30.985,38.418C30.985,39.338 30.065,39.838 29.315,39.338L17.205,31.4C15.868,30.566 14.951,30.566 13.696,31.4L1.671,39.338C0.919,39.838 0,39.338 0,38.418" style="fill-rule:nonzero;"/>
                </g>
                <g transform="matrix(1,0,0,1,89.6797,355.536)">
                    <path d="M0,-41.781C0,-41.781 -0.756,-43.463 -1.514,-41.781L-6.805,-29.994C-6.805,-29.994 -7.562,-28.308 -9.393,-28.068L-21.608,-26.463C-21.608,-26.463 -23.439,-26.218 -22.122,-24.926L-13.086,-16.058C-13.086,-16.058 -11.768,-14.765 -12.099,-12.949L-14.443,-0.135C-14.443,-0.135 -14.776,1.682 -13.174,0.76L-2.356,-5.47C-2.356,-5.47 -0.756,-6.394 0.844,-5.47L11.663,0.76C11.663,0.76 13.263,1.682 12.931,-0.135L10.587,-12.949C10.587,-12.949 10.254,-14.765 11.572,-16.058L20.609,-24.926C20.609,-24.926 21.929,-26.218 20.098,-26.463L7.88,-28.068C7.88,-28.068 6.05,-28.308 5.292,-29.994L0,-41.781Z" style="fill-rule:nonzero;"/>
                </g>
                <g transform="matrix(1,0,0,1,343.326,346.254)">
                    <path d="M0,4.701L0,-27.195C0,-27.195 0,-49.922 -22.729,-49.922L-107.013,-49.922C-107.013,-49.922 -129.741,-49.922 -129.741,-27.195L-129.741,4.701C-129.741,4.701 -129.741,27.433 -107.013,27.433L-85.211,27.433L-64.871,54.623L-44.53,27.433L-22.729,27.433C-22.729,27.433 0,27.433 0,4.701Z" style="fill:none;fill-rule:nonzero;stroke:#000;stroke-width:1.16px;stroke-miterlimit:10;"/>
                </g>
                <g transform="matrix(1,0,0,1,254.158,352.936)">
                    <path d="M0,-35.854C-9.827,-35.715 -16.126,-29 -24.154,-20.002C-25.331,-18.69 -25.538,-17.305 -24.223,-15.85C-16.126,-6.784 -9.896,-0.139 -0.068,0C9.759,-0.139 15.92,-6.854 24.086,-15.85C25.401,-17.305 25.193,-18.69 24.017,-20.002C15.988,-29 9.69,-35.715 0,-35.854M0,-12.043C3.185,-12.043 5.814,-14.674 5.814,-17.86C5.814,-21.112 3.185,-23.741 0,-23.741C-3.252,-23.741 -5.883,-21.112 -5.883,-17.86C-5.883,-14.674 -3.252,-12.043 0,-12.043M0,-7.684C-5.675,-7.684 -10.242,-12.254 -10.242,-17.79C-10.242,-23.534 -5.675,-28.102 0,-28.102C5.606,-28.102 10.175,-23.534 10.175,-17.79C10.175,-12.254 5.606,-7.684 0,-7.684" style="fill-rule:nonzero;"/>
                </g>
                <g transform="matrix(1,0,0,1,290.285,322.072)">
                    <path d="M0,24.627L0,22.684L6.937,22.684L6.937,2.498L0.347,6.799L0.347,4.406L7.25,0L9.088,0L9.088,22.684L15.886,22.684L15.886,24.627L0,24.627Z" style="fill-rule:nonzero;"/>
                </g>
                <g transform="matrix(1,0,0,1,309.742,322.072)">
                    <path d="M0,24.627L0,0L2.186,0L2.186,11.238L13.216,0L16.233,0L4.648,11.619L17.378,24.627L14.395,24.627L2.22,12.07L2.186,12.07L2.186,24.627L0,24.627Z" style="fill-rule:nonzero;"/>
                </g>
                <g transform="matrix(1,0,0,1,755.236,102.002)">
                    <path d="M0,4.703L0,-27.193C0,-27.193 0,-49.92 -22.729,-49.92L-107.013,-49.92C-107.013,-49.92 -129.741,-49.92 -129.741,-27.193L-129.741,4.703C-129.741,4.703 -129.741,27.433 -107.013,27.433L-85.212,27.433L-64.872,54.623L-44.53,27.433L-22.729,27.433C-22.729,27.433 0,27.433 0,4.703Z" style="fill:none;fill-rule:nonzero;stroke:#000;stroke-width:1.16px;stroke-miterlimit:10;"/>
                </g>
                <g transform="matrix(1,0,0,1,682.899,95.7202)">
                    <path d="M0,12.963L-35.099,12.963C-37.837,12.803 -38.48,11.996 -37.917,9.422C-37.032,4.188 -33.087,0.404 -27.854,0.244C-21.011,0 -14.248,0 -7.406,0.244C-2.174,0.404 1.853,4.188 2.818,9.422C3.3,11.754 2.737,12.963 0,12.963" style="fill-rule:nonzero;"/>
                </g>
                <g transform="matrix(1,0,0,1,665.35,71.7316)">
                    <path d="M0,20.85C5.716,20.85 10.385,16.18 10.385,10.385C10.385,4.668 5.716,0 0,0C-5.795,0 -10.465,4.668 -10.465,10.385C-10.465,16.18 -5.795,20.85 0,20.85" style="fill-rule:nonzero;"/>
                </g>
                <g transform="matrix(1,0,0,1,698.787,77.8199)">
                    <path d="M0,24.627L0,22.686L6.937,22.686L6.937,2.498L0.346,6.799L0.346,4.406L7.249,0L9.088,0L9.088,22.686L15.886,22.686L15.886,24.627L0,24.627Z" style="fill-rule:nonzero;"/>
                </g>
                <g transform="matrix(1,0,0,1,729.206,96.5534)">
                    <path d="M0,-12.837C0,-15.368 -2.083,-17.241 -4.719,-17.241C-7.354,-17.241 -9.436,-15.368 -9.436,-12.837C-9.436,-10.233 -7.354,-8.431 -4.719,-8.431C-2.083,-8.431 0,-10.233 0,-12.837M1.039,-1.046C1.039,-4.2 -1.526,-6.523 -4.719,-6.523C-7.91,-6.523 -10.476,-4.2 -10.476,-1.046C-10.476,2.147 -7.91,4.403 -4.719,4.403C-1.526,4.403 1.039,2.147 1.039,-1.046M-12.592,-0.974C-12.592,-4.026 -10.754,-6.351 -8.256,-7.493C-10.198,-8.569 -11.517,-10.372 -11.517,-12.87C-11.517,-16.651 -8.326,-19.148 -4.719,-19.148C-1.11,-19.148 2.08,-16.651 2.08,-12.87C2.08,-10.372 0.762,-8.569 -1.18,-7.493C1.317,-6.351 3.155,-4.026 3.155,-0.974C3.155,3.433 -0.556,6.311 -4.719,6.311C-8.881,6.311 -12.592,3.433 -12.592,-0.974" style="fill-rule:nonzero;"/>
                </g>
                <g transform="matrix(1,0,0,1,615.1,346.025)">
                    <path d="M0,4.707L0,-27.189C0,-27.189 0,-49.92 -22.729,-49.92L-212.788,-49.92C-212.788,-49.92 -235.517,-49.92 -235.517,-27.189L-235.517,4.707C-235.517,4.707 -235.517,27.436 -212.788,27.436L-138.1,27.436L-117.759,54.627L-97.417,27.436L-22.729,27.436C-22.729,27.436 0,27.436 0,4.707Z" style="fill:none;fill-rule:nonzero;stroke:#000;stroke-width:1.16px;stroke-miterlimit:10;"/>
                </g>
                <g transform="matrix(1,0,0,1,411.894,318.68)">
                    <path d="M0,30.224L-0.229,14.085C-0.229,10.374 1.213,6.89 4.396,2.495L9.85,-5.155C11.137,-7.049 12.653,-6.901 13.335,-5.155C13.865,-3.794 14.017,-1.899 13.638,-0.61C12.729,2.195 11.895,4.314 11.062,6.435C10.381,8.255 11.137,8.859 12.577,8.859L25.003,9.009C28.488,9.009 29.776,10.298 29.17,13.48L25.003,34.163C24.547,36.212 22.503,37.273 20.456,36.966L3.562,34.394C1.287,34.089 0.075,33.029 0,30.224" style="fill-rule:nonzero;"/>
                </g>
                <g transform="matrix(1,0,0,1,408.713,350.417)">
                    <path d="M0,-20.074L0,0.608C0,3.108 -0.834,3.639 -2.729,3.793C-4.773,4.092 -6.667,4.092 -6.667,1.291L-6.667,-20.984C-6.667,-22.879 -5.833,-24.166 -3.485,-23.637C-1.44,-23.181 0,-22.879 0,-20.074" style="fill-rule:nonzero;"/>
                </g>
                <g transform="matrix(1,0,0,1,537.733,354.888)">
                    <path d="M0,-30.226L0.228,-14.087C0.303,-10.376 -1.213,-6.89 -4.395,-2.497L-9.851,5.155C-11.213,7.049 -12.653,6.897 -13.335,5.155C-13.866,3.792 -14.017,1.897 -13.639,0.608C-12.805,-2.195 -11.895,-4.316 -11.063,-6.435C-10.381,-8.255 -11.138,-8.863 -12.578,-8.863L-25.003,-9.013C-28.488,-9.087 -29.776,-10.3 -29.17,-13.484L-25.003,-34.165C-24.625,-36.214 -22.503,-37.275 -20.457,-36.97L-3.561,-34.394C-1.289,-34.013 -0.076,-33.031 0,-30.226" style="fill-rule:nonzero;"/>
                </g>
                <g transform="matrix(1,0,0,1,540.914,323.148)">
                    <path d="M0,20.074L0,-0.61C0,-3.11 0.835,-3.641 2.729,-3.791C4.774,-3.946 6.668,-4.094 6.668,-1.291L6.668,20.986C6.668,22.877 5.834,24.168 3.486,23.635C1.44,23.181 0,22.877 0,20.074" style="fill-rule:nonzero;"/>
                </g>
                <g transform="matrix(1,0,0,1,451.053,323.146)">
                    <path d="M0,25.041L0,23.377L9.262,12.66C11.585,9.988 12.487,8.254 12.487,6.172C12.487,3.709 10.683,1.906 7.631,1.906C4.995,1.906 2.705,3.223 0.798,4.717L0.798,2.115C2.567,1.039 4.891,0 7.666,0C11.655,0 14.568,2.391 14.568,6.172C14.568,8.705 13.527,10.717 10.961,13.631L2.74,23.1L15.921,23.1L15.921,25.041L0,25.041Z" style="fill-rule:nonzero;"/>
                </g>
                <g transform="matrix(1,0,0,1,478.002,323.56)">
                    <path d="M0,24.627L0,18.869L-9.47,18.869L-9.47,17.275L0.139,0L2.532,0L-7.11,16.928L0,16.928L0,11.203L2.185,11.203L2.185,16.928L7.596,16.928L7.596,18.869L2.185,18.869L2.185,24.627L0,24.627Z" style="fill-rule:nonzero;"/>
                </g>
                <g transform="matrix(1,0,0,1,573.625,340.21)">
                    <path d="M0,-9.087C0,-12.659 -2.636,-15.157 -6.001,-15.157C-9.365,-15.157 -12.002,-12.659 -12.002,-9.087C-12.002,-5.585 -9.365,-3.015 -6.001,-3.015C-2.636,-3.015 0,-5.585 0,-9.087M-10.371,7.977L-3.226,-1.663C-4.094,-1.317 -5.029,-1.146 -6.001,-1.146C-10.268,-1.146 -14.117,-4.3 -14.117,-9.087C-14.117,-13.907 -10.268,-17.064 -6.001,-17.064C-1.734,-17.064 2.115,-13.907 2.115,-9.087C2.115,-5.794 0.485,-3.433 -1.977,-0.069L-7.805,7.977L-10.371,7.977Z" style="fill-rule:nonzero;"/>
                </g>
                <g transform="matrix(1,0,0,1,577.959,327.722)">
                    <path d="M0,16.721L1.699,15.403C2.948,17.762 5.133,18.975 7.874,18.975C11.237,18.975 13.874,16.477 13.874,12.905C13.874,9.403 11.237,6.836 7.874,6.836C6.001,6.836 4.925,7.112 2.844,8.049L2.046,6.836L3.364,-4.162L14.464,-4.162L14.464,-2.218L5.064,-2.218L3.885,6.002C5.064,5.309 6.382,4.961 7.874,4.961C12.14,4.961 15.99,8.117 15.99,12.905C15.99,17.725 12.14,20.883 7.874,20.883C4.683,20.883 1.699,19.633 0,16.721" style="fill-rule:nonzero;"/>
                </g>
                <g transform="matrix(1,0,0,1,263.512,223.334)">
                    <path d="M0,4.703L0,-27.193C0,-27.193 0,-49.92 -22.729,-49.92L-192.786,-49.92C-192.786,-49.92 -215.516,-49.92 -215.516,-27.193L-215.516,4.703C-215.516,4.703 -215.516,27.433 -192.786,27.433L-128.098,27.433L-107.758,54.623L-87.416,27.433L-22.729,27.433C-22.729,27.433 0,27.433 0,4.703Z" style="fill:none;fill-rule:nonzero;stroke:#000;stroke-width:1.16px;stroke-miterlimit:10;"/>
                </g>
                <g transform="matrix(1,0,0,1,88.1592,187.746)">
                    <path d="M0,43.824C11.584,37.832 20.09,30.865 21.791,20.492C23.897,8.017 10.612,0 0,9.478C-10.613,0 -23.898,8.017 -21.792,20.492C-20.01,30.865 -11.585,37.832 0,43.824" style="fill-rule:nonzero;"/>
                </g>
                <g transform="matrix(1,0,0,1,175.84,190.049)">
                    <path d="M0,40.648C-1.693,41.05 -3.629,41.373 -5.564,41.373C-17.258,41.373 -26.773,31.857 -26.773,20.164C-26.773,8.47 -17.258,-1.047 -5.564,-1.047C6.129,-1.047 15.646,8.47 15.646,20.164C15.646,22.181 15.402,24.277 14.838,26.052C13.064,31.695 13.789,35.566 15.806,41.695C9.354,39.759 5.241,39.519 0,40.648" style="fill-rule:nonzero;"/>
                </g>
                <g transform="matrix(1,0,0,1,119.129,203.316)">
                    <path d="M0,16.717L1.699,15.399C2.948,17.76 5.134,18.973 7.874,18.973C11.238,18.973 13.874,16.475 13.874,12.903C13.874,9.399 11.238,6.832 7.874,6.832C6.348,6.832 5.064,7.143 3.642,7.942L2.74,6.555L11.759,-2.22L1.388,-2.22L1.388,-4.164L14.881,-4.164L14.881,-2.531L6.764,5.065C7.111,4.992 7.492,4.961 7.874,4.961C12.141,4.961 15.991,8.115 15.991,12.903C15.991,17.723 12.141,20.881 7.874,20.881C4.683,20.881 1.699,19.631 0,16.717" style="fill-rule:nonzero;"/>
                </g>
                <g transform="matrix(1,0,0,1,204.514,203.316)">
                    <path d="M0,16.717L1.698,15.399C2.948,17.76 5.133,18.973 7.873,18.973C11.237,18.973 13.874,16.475 13.874,12.903C13.874,9.399 11.237,6.832 7.873,6.832C6.347,6.832 5.064,7.143 3.642,7.942L2.739,6.555L11.758,-2.22L1.387,-2.22L1.387,-4.164L14.88,-4.164L14.88,-2.531L6.763,5.065C7.11,4.992 7.492,4.961 7.873,4.961C12.14,4.961 15.99,8.115 15.99,12.903C15.99,17.723 12.14,20.881 7.873,20.881C4.683,20.881 1.698,19.631 0,16.717" style="fill-rule:nonzero;"/>
                </g>
                <g transform="matrix(1,0,0,1,238.92,211.467)">
                    <path d="M0,0.001C0,-7.493 -2.602,-10.858 -6.349,-10.858C-10.094,-10.858 -12.696,-7.493 -12.696,0.001C-12.696,7.491 -10.094,10.855 -6.349,10.855C-2.602,10.855 0,7.491 0,0.001M-14.846,0.001C-14.846,-8.466 -11.481,-12.729 -6.349,-12.729C-1.215,-12.729 2.15,-8.466 2.15,0.001C2.15,8.462 -1.215,12.73 -6.349,12.73C-11.481,12.73 -14.846,8.462 -14.846,0.001" style="fill-rule:nonzero;"/>
                </g>
                <g transform="matrix(1,0,0,1,331.651,250.335)">
                    <path d="M0,-77.74C0,-77.74 -22.843,-77.74 -22.843,-54.898L-22.843,-22.842C-22.843,-22.842 -22.843,0 0,0L266.718,0C266.718,0 289.561,0 289.561,-22.842L289.561,-54.898C289.561,-54.898 289.561,-77.74 266.718,-77.74L0,-77.74Z" style="fill:none;fill-rule:nonzero;stroke:#000;stroke-width:1.17px;"/>
                </g>
                <g transform="matrix(0.375,0,0,0.375,-3683.27,-616.988)">
                    <path d="M10711.3,2256.51C10716.2,2248.67 10724.5,2243.62 10734.4,2243.31C10753.1,2242.65 10771.7,2242.65 10790.4,2243.31C10799.8,2243.6 10807.7,2248.11 10812.8,2255.2C10800.2,2269.29 10781.9,2278.15 10761.5,2278.15C10741.7,2278.15 10723.9,2269.83 10711.3,2256.51Z" style="fill-rule:nonzero;"/>
                </g>
                <g transform="matrix(1,0,0,1,352.712,199.359)">
                    <path d="M0,21.422C5.872,21.422 10.668,16.625 10.668,10.672C10.668,4.795 5.872,0 0,0C-5.954,0 -10.751,4.795 -10.751,10.672C-10.751,16.625 -5.954,21.422 0,21.422" style="fill-rule:nonzero;"/>
                </g>
                <g transform="matrix(1,0,0,1,352.282,185.611)">
                    <path d="M0,51.709C14.279,51.709 25.854,40.135 25.854,25.854C25.854,11.574 14.279,0 0,0C-14.279,0 -25.854,11.574 -25.854,25.854C-25.854,40.135 -14.279,51.709 0,51.709Z" style="fill:none;fill-rule:nonzero;stroke:#000;stroke-width:1.17px;"/>
                </g>
                <g transform="matrix(1,0,0,1,393.896,193.504)">
                    <path d="M0,11.123L0,9.199L1.319,9.473C2.59,9.473 3.051,8.82 3.051,7.277L3.051,-0.176L5.102,-0.176L5.102,7.834C5.102,10.377 3.544,11.299 1.462,11.299C0.842,11.299 0.382,11.203 0,11.123" style="fill-rule:nonzero;"/>
                </g>
                <g transform="matrix(1,0,0,1,400.965,196.668)">
                    <path d="M0,7.941L0,0.189L1.874,0.189L1.874,0.949C2.367,0.332 3.114,0 4.02,0C5.053,0 5.848,0.441 6.34,1.255C6.848,0.441 7.675,0 8.738,0C10.503,0 11.631,1.173 11.631,3.062L11.631,7.941L9.645,7.941L9.645,3.302C9.645,2.287 9.089,1.681 8.214,1.681C7.324,1.681 6.8,2.302 6.8,3.302L6.8,7.941L4.814,7.941L4.814,3.302C4.814,2.287 4.273,1.681 3.432,1.681C2.542,1.681 1.97,2.287 1.97,3.302L1.97,7.941L0,7.941Z" style="fill-rule:nonzero;"/>
                </g>
                <g transform="matrix(1,0,0,1,416.561,202.101)">
                    <path d="M0,-6.072L1.541,-8.773L3.591,-8.773L1.16,-6.072L0,-6.072ZM-0.588,-2.193L3.226,-2.193C3.035,-3.273 2.32,-3.783 1.319,-3.783C0.318,-3.783 -0.413,-3.228 -0.588,-2.193M-2.527,-1.367C-2.527,-3.767 -0.857,-5.433 1.319,-5.433C3.289,-5.433 4.656,-4.244 5.053,-2.383L5.053,-0.685L-0.571,-0.685C-0.396,0.475 0.524,1.078 1.796,1.078L4.497,0.078L4.497,1.842C3.75,2.334 2.75,2.701 1.669,2.701C-0.891,2.701 -2.527,1.032 -2.527,-1.367" style="fill-rule:nonzero;"/>
                </g>
                <g transform="matrix(1,0,0,1,423.167,196.668)">
                    <path d="M0,7.941L0,0.189L1.875,0.189L1.875,1.062C2.4,0.379 3.194,0 4.212,0C6.007,0 7.214,1.255 7.214,3.222L7.214,7.941L5.244,7.941L5.244,3.429C5.244,2.287 4.624,1.681 3.607,1.681C2.59,1.681 1.971,2.287 1.971,3.429L1.971,7.941L0,7.941Z" style="fill-rule:nonzero;"/>
                </g>
                <g transform="matrix(1,0,0,1,438.258,200.736)">
                    <path d="M0,-0.002C0,-1.369 -0.97,-2.322 -2.24,-2.322C-3.512,-2.322 -4.48,-1.369 -4.48,-0.002C-4.48,1.363 -3.512,2.316 -2.24,2.316C-0.97,2.316 0,1.363 0,-0.002M-6.451,-0.002C-6.451,-2.449 -4.465,-4.068 -2.24,-4.068C-0.016,-4.068 1.971,-2.449 1.971,-0.002C1.971,2.443 -0.016,4.066 -2.24,4.066C-4.465,4.066 -6.451,2.443 -6.451,-0.002" style="fill-rule:nonzero;"/>
                </g>
                <g transform="matrix(1,0,0,1,447.643,202.75)">
                    <path d="M0,-7.563L0,-4.75L2.049,-4.75C3.003,-4.75 3.686,-5.227 3.686,-6.165C3.686,-7.118 3.003,-7.563 2.049,-7.563L0,-7.563ZM-2.051,1.859L-2.051,-9.422L2.208,-9.422C4.48,-9.422 5.768,-8.022 5.768,-6.165C5.768,-4.336 4.48,-2.891 2.208,-2.891L0,-2.891L0,1.859L-2.051,1.859Z" style="fill-rule:nonzero;"/>
                </g>
                <g transform="matrix(1,0,0,1,454.598,193.328)">
                    <path d="M0,11.281L0,3.529L1.811,3.529L1.811,4.609C2.256,3.894 2.955,3.529 3.893,3.529L4.338,3.529L4.338,5.275L3.988,5.275C2.923,5.275 2.335,5.642 1.97,6.422L1.97,11.281L0,11.281ZM1.891,2.701L-0.287,0L0.983,0L2.431,1.256L3.876,0L5.147,0L2.971,2.701L1.891,2.701Z" style="fill-rule:nonzero;"/>
                </g>
                <g transform="matrix(1,0,0,1,0,-32.296)">
                    <path d="M460.108,229.153L462.078,229.153L462.078,236.905L460.108,236.905L460.108,229.153ZM460.108,228.325L461.649,225.624L463.699,225.624L461.269,228.325L460.108,228.325Z" style="fill-rule:nonzero;"/>
                </g>
                <g transform="matrix(1,0,0,1,0,-29.116)">
                    <path d="M464.143,222.444L466.113,222.444L466.113,224.368L464.143,224.368L464.143,222.444ZM462.839,236.905L462.839,235.157L464.143,235.25L464.143,225.973L466.112,225.973L466.112,235.854C466.112,236.539 465.746,236.905 465.063,236.905L462.839,236.905Z" style="fill-rule:nonzero;"/>
                </g>
                <g transform="matrix(1,0,0,1,468.049,196.668)">
                    <path d="M0,7.941L0,0.189L1.874,0.189L1.874,0.949C2.367,0.332 3.114,0 4.02,0C5.053,0 5.848,0.441 6.34,1.255C6.849,0.441 7.675,0 8.739,0C10.504,0 11.631,1.173 11.631,3.062L11.631,7.941L9.646,7.941L9.646,3.302C9.646,2.287 9.089,1.681 8.215,1.681C7.325,1.681 6.801,2.302 6.801,3.302L6.801,7.941L4.814,7.941L4.814,3.302C4.814,2.287 4.274,1.681 3.432,1.681C2.543,1.681 1.971,2.287 1.971,3.302L1.971,7.941L0,7.941Z" style="fill-rule:nonzero;"/>
                </g>
                <g transform="matrix(1,0,0,1,483.058,201.563)">
                    <path d="M0,-1.655L3.814,-1.655C3.623,-2.735 2.907,-3.245 1.907,-3.245C0.906,-3.245 0.175,-2.69 0,-1.655M-1.938,-0.829C-1.938,-3.229 -0.27,-4.895 1.907,-4.895C3.877,-4.895 5.244,-3.706 5.641,-1.844L5.641,-0.147L0.016,-0.147C0.19,1.013 1.111,1.616 2.383,1.616L5.085,0.616L5.085,2.38C4.338,2.872 3.337,3.24 2.256,3.24C-0.303,3.24 -1.938,1.57 -1.938,-0.829" style="fill-rule:nonzero;"/>
                </g>
                <g transform="matrix(1,0,0,1,490.252,196.668)">
                    <path d="M0,7.941L0,0.189L1.874,0.189L1.874,1.062C2.399,0.379 3.193,0 4.21,0C6.006,0 7.213,1.255 7.213,3.222L7.213,7.941L5.243,7.941L5.243,3.429C5.243,2.287 4.624,1.681 3.606,1.681C2.59,1.681 1.97,2.287 1.97,3.429L1.97,7.941L0,7.941Z" style="fill-rule:nonzero;"/>
                </g>
                <g transform="matrix(1,0,0,1,0,-32.296)">
                    <path d="M499.32,229.153L501.29,229.153L501.29,236.905L499.32,236.905L499.32,229.153ZM499.32,228.325L500.861,225.624L502.911,225.624L500.48,228.325L499.32,228.325Z" style="fill-rule:nonzero;"/>
                </g>
                <g transform="matrix(1,0,0,1,396.757,216.689)">
                    <path d="M0,13.189C-1.589,11.33 -2.288,9.027 -2.288,6.597C-2.288,4.164 -1.589,1.859 0,0L1.017,0C-0.811,2.335 -1.304,4.275 -1.304,6.597C-1.304,8.916 -0.811,10.853 1.017,13.189L0,13.189Z" style="fill-rule:nonzero;"/>
                </g>
                <g transform="matrix(1,0,0,1,398.629,216.689)">
                    <path d="M0,11.283L0,10.392L3.179,10.392L3.179,1.144L0.16,3.115L0.16,2.021L3.322,0L4.164,0L4.164,10.392L7.278,10.392L7.278,11.283L0,11.283Z" style="fill-rule:nonzero;"/>
                </g>
                <g transform="matrix(1,0,0,1,406.142,216.689)">
                    <path d="M0,13.189C1.827,10.853 2.319,8.916 2.319,6.597C2.319,4.275 1.827,2.335 0,0L1.017,0C2.606,1.859 3.305,4.164 3.305,6.597C3.305,9.027 2.606,11.33 1.017,13.189L0,13.189Z" style="fill-rule:nonzero;"/>
                </g>
                <g transform="matrix(1,0,0,1,416.862,221.964)">
                    <path d="M0,0.733L0,5.085L2.717,5.085C4.164,5.085 5.292,4.419 5.292,2.926C5.292,1.448 4.164,0.733 2.717,0.733L0,0.733ZM0,-4.351L0,-0.189L2.13,-0.189C3.433,-0.189 4.497,-0.841 4.497,-2.273C4.497,-3.685 3.433,-4.351 2.13,-4.351L0,-4.351ZM-1.001,6.008L-1.001,-5.275L2.209,-5.275C4.322,-5.275 5.53,-4.019 5.53,-2.431C5.53,-1.351 4.989,-0.443 3.973,0.049C5.482,0.43 6.309,1.557 6.309,2.958C6.309,4.674 5.053,6.008 2.829,6.008L-1.001,6.008Z" style="fill-rule:nonzero;"/>
                </g>
                <g transform="matrix(1,0,0,1,431.843,224.095)">
                    <path d="M0,0C0,-1.861 -1.398,-3.211 -3.162,-3.211C-4.927,-3.211 -6.325,-1.861 -6.325,0C-6.325,1.859 -4.927,3.209 -3.162,3.209C-1.398,3.209 0,1.859 0,0M-7.278,0C-7.278,-2.447 -5.324,-4.068 -3.162,-4.068C-1.001,-4.068 0.952,-2.447 0.952,0C0.952,2.445 -1.001,4.068 -3.162,4.068C-5.324,4.068 -7.278,2.445 -7.278,0" style="fill-rule:nonzero;"/>
                </g>
                <g transform="matrix(1,0,0,1,434.729,220.027)">
                    <path d="M0,7.945L0,0.191L0.89,0.191L0.89,1.445C1.445,0.509 2.383,0 3.575,0C5.354,0 6.705,1.189 6.705,3.242L6.705,7.945L5.752,7.945L5.752,3.322C5.752,1.668 4.751,0.826 3.353,0.826C1.954,0.826 0.953,1.668 0.953,3.322L0.953,7.945L0,7.945Z" style="fill-rule:nonzero;"/>
                </g>
                <g transform="matrix(1,0,0,1,443.749,223.413)">
                    <path d="M0,1.555L0,-3.195L0.953,-3.195L0.953,1.397C0.953,2.858 1.621,3.907 3.258,3.907C4.895,3.907 5.578,2.858 5.578,1.397L5.578,-3.195L6.53,-3.195L6.53,1.555C6.53,3.463 5.371,4.75 3.258,4.75C1.145,4.75 0,3.463 0,1.555" style="fill-rule:nonzero;"/>
                </g>
                <g transform="matrix(1,0,0,1,452.214,220.632)">
                    <path d="M0,6.926L0,5.83C0.62,6.322 1.414,6.703 2.225,6.703L2.241,6.703C3.178,6.703 3.798,6.291 3.798,5.354C3.798,3.289 0,4.098 0,1.412C0,0.19 0.985,-0.605 2.32,-0.605C3.082,-0.605 3.751,-0.367 4.243,-0.049L4.243,1.063C3.655,0.553 3.051,0.221 2.272,0.221C1.398,0.221 0.906,0.713 0.906,1.412C0.906,3.272 4.704,2.541 4.704,5.354C4.704,6.735 3.751,7.531 2.241,7.531C1.336,7.531 0.556,7.293 0,6.926" style="fill-rule:nonzero;"/>
                </g>
                <g transform="matrix(1,0,0,1,469.577,224.095)">
                    <path d="M0,0C0,-1.861 -1.399,-3.211 -3.162,-3.211C-4.927,-3.211 -6.325,-1.861 -6.325,0C-6.325,1.859 -4.927,3.209 -3.162,3.209C-1.399,3.209 0,1.859 0,0M0.412,3.877L0.079,2.176C-0.637,3.385 -1.907,4.068 -3.305,4.068C-5.403,4.068 -7.279,2.445 -7.279,0C-7.279,-2.447 -5.403,-4.068 -3.305,-4.068C-1.907,-4.068 -0.637,-3.369 0.079,-2.178L0.079,-3.877L0.969,-3.877L0.969,1.859L1.351,3.877L0.412,3.877Z" style="fill-rule:nonzero;"/>
                </g>
                <g transform="matrix(1,0,0,1,474.958,225.271)">
                    <path d="M0,-5.881L-2.352,-8.582L-1.557,-8.582L0.271,-6.818L2.098,-8.582L2.892,-8.582L0.541,-5.881L0,-5.881ZM-2.559,2.701L-2.559,1.875L1.764,-4.195L-2.399,-4.195L-2.399,-5.053L2.908,-5.053L2.908,-4.227L-1.43,1.844L3.067,1.844L3.067,2.701L-2.559,2.701Z" style="fill-rule:nonzero;"/>
                </g>
                <g transform="matrix(1,0,0,1,483.343,216.689)">
                    <path d="M0,11.283L0,10.392L3.177,10.392L3.177,1.144L0.158,3.115L0.158,2.021L3.321,0L4.162,0L4.162,10.392L7.276,10.392L7.276,11.283L0,11.283Z" style="fill-rule:nonzero;"/>
                </g>
                <g transform="matrix(1,0,0,1,498.164,222.332)">
                    <path d="M0,0C0,-3.434 -1.192,-4.977 -2.908,-4.977C-4.625,-4.977 -5.815,-3.434 -5.815,0C-5.815,3.43 -4.625,4.973 -2.908,4.973C-1.192,4.973 0,3.43 0,0M-6.801,0C-6.801,-3.879 -5.26,-5.832 -2.908,-5.832C-0.557,-5.832 0.984,-3.879 0.984,0C0.984,3.875 -0.557,5.832 -2.908,5.832C-5.26,5.832 -6.801,3.875 -6.801,0" style="fill-rule:nonzero;"/>
                </g>
                <g transform="matrix(1,0,0,1,507.725,222.332)">
                    <path d="M0,0C0,-3.434 -1.192,-4.977 -2.908,-4.977C-4.625,-4.977 -5.816,-3.434 -5.816,0C-5.816,3.43 -4.625,4.973 -2.908,4.973C-1.192,4.973 0,3.43 0,0M-6.802,0C-6.802,-3.879 -5.261,-5.832 -2.908,-5.832C-0.557,-5.832 0.984,-3.879 0.984,0C0.984,3.875 -0.557,5.832 -2.908,5.832C-5.261,5.832 -6.802,3.875 -6.802,0" style="fill-rule:nonzero;"/>
                </g>
                <g transform="matrix(1,0,0,1,517.284,222.332)">
                    <path d="M0,0C0,-3.434 -1.191,-4.977 -2.906,-4.977C-4.623,-4.977 -5.815,-3.434 -5.815,0C-5.815,3.43 -4.623,4.973 -2.906,4.973C-1.191,4.973 0,3.43 0,0M-6.801,0C-6.801,-3.879 -5.259,-5.832 -2.906,-5.832C-0.556,-5.832 0.985,-3.879 0.985,0C0.985,3.875 -0.556,5.832 -2.906,5.832C-5.259,5.832 -6.801,3.875 -6.801,0" style="fill-rule:nonzero;"/>
                </g>
                <g transform="matrix(1,0,0,1,524.777,216.689)">
                    <path d="M0,11.283L0,0L1.002,0L1.002,5.148L6.055,0L7.437,0L2.13,5.324L7.962,11.283L6.595,11.283L1.018,5.529L1.002,5.529L1.002,11.283L0,11.283Z" style="fill-rule:nonzero;"/>
                </g>
                <g transform="matrix(1,0,0,1,536.517,225.462)">
                    <path d="M0,-6.072L-2.353,-8.773L-1.558,-8.773L0.271,-7.009L2.097,-8.773L2.891,-8.773L0.54,-6.072L0,-6.072ZM-3.83,-1.367C-3.83,-3.814 -1.907,-5.435 0.254,-5.435C1.08,-5.435 1.938,-5.228 2.446,-4.912L2.446,-3.801C1.875,-4.293 1.159,-4.578 0.317,-4.578C-1.494,-4.578 -2.876,-3.228 -2.876,-1.367C-2.876,0.492 -1.494,1.842 0.317,1.842C1.08,1.842 1.795,1.586 2.319,1.145L2.653,1.969C2.034,2.414 1.128,2.701 0.254,2.701C-1.907,2.701 -3.83,1.078 -3.83,-1.367" style="fill-rule:nonzero;"/>
                </g>
                <g transform="matrix(1,0,0,1,0,24.201)">
                    <rect x="540.723" y="202.261" width="1.573" height="1.51"/>
                </g>
                <g transform="matrix(1,0,0,1,547.964,216.689)">
                    <path d="M0,11.283L0,10.359L5.609,0.924L0.191,0.924L0.191,0L6.77,0L6.77,0.924L1.129,10.359L7.183,10.359L7.183,11.283L0,11.283Z" style="fill-rule:nonzero;"/>
                </g>
                <g transform="matrix(1,0,0,1,563.184,224.095)">
                    <path d="M0,0C0,-1.861 -1.398,-3.211 -3.162,-3.211C-4.926,-3.211 -6.325,-1.861 -6.325,0C-6.325,1.859 -4.926,3.209 -3.162,3.209C-1.398,3.209 0,1.859 0,0M0.413,3.877L0.079,2.176C-0.636,3.385 -1.907,4.068 -3.306,4.068C-5.403,4.068 -7.278,2.445 -7.278,0C-7.278,-2.447 -5.403,-4.068 -3.306,-4.068C-1.907,-4.068 -0.636,-3.369 0.079,-2.178L0.079,-3.877L0.969,-3.877L0.969,1.859L1.35,3.877L0.413,3.877Z" style="fill-rule:nonzero;"/>
                </g>
                <g transform="matrix(1,0,0,1,568.977,220.218)">
                    <path d="M0,7.754L-3.289,0L-2.24,0L0.445,6.545L3.146,0L4.195,0L0.905,7.754L0,7.754Z" style="fill-rule:nonzero;"/>
                </g>
                <g transform="matrix(1,0,0,1,581.177,224.095)">
                    <path d="M0,0C0,-1.861 -1.398,-3.211 -3.162,-3.211C-4.926,-3.211 -6.324,-1.861 -6.324,0C-6.324,1.859 -4.926,3.209 -3.162,3.209C-1.398,3.209 0,1.859 0,0M-7.278,0C-7.278,-2.447 -5.323,-4.068 -3.162,-4.068C-1.001,-4.068 0.954,-2.447 0.954,0C0.954,2.445 -1.001,4.068 -3.162,4.068C-5.323,4.068 -7.278,2.445 -7.278,0" style="fill-rule:nonzero;"/>
                </g>
                <g transform="matrix(1,0,0,1,0,14.428)">
                    <rect x="584.063" y="202.261" width="0.953" height="11.283"/>
                </g>
                <g transform="matrix(1,0,0,1,587.892,224.748)">
                    <path d="M0,-1.305L5.481,-1.305C5.402,-2.973 4.179,-3.879 2.78,-3.879C1.445,-3.879 0.126,-2.91 0,-1.305M-0.923,-0.67C-0.923,-3.086 0.826,-4.721 2.78,-4.721C4.75,-4.721 6.387,-3.45 6.387,-0.922L6.387,-0.461L0,-0.461C0.047,1.22 1.35,2.572 3.099,2.572C4.067,2.572 4.894,2.224 5.545,1.652L5.911,2.445C5.228,3.002 4.274,3.416 3.051,3.416C0.89,3.416 -0.923,1.89 -0.923,-0.67" style="fill-rule:nonzero;"/>
                </g>
                <g transform="matrix(1,0,0,1,0,17.604)">
                    <path d="M596.149,199.085L597.325,199.085L597.325,200.214L596.149,200.214L596.149,199.085ZM594.592,213.544L594.592,212.704L596.261,212.704L596.261,202.614L597.214,202.614L597.214,213.544L594.592,213.544Z" style="fill-rule:nonzero;"/>
                </g>
                <g transform="matrix(1,0,0,1,600.024,219.711)">
                    <path d="M0,5.24L-0.127,-3.022L1.001,-3.022L0.874,5.24L0,5.24ZM-0.349,6.752L1.223,6.752L1.223,8.262L-0.349,8.262L-0.349,6.752Z" style="fill-rule:nonzero;"/>
                </g>
                <g transform="matrix(1,0,0,1,473.433,101.998)">
                    <path d="M0,4.711L0,-27.185C0,-27.185 0,-49.916 -22.729,-49.916L-107.014,-49.916C-107.014,-49.916 -129.742,-49.916 -129.742,-27.185L-129.742,4.711C-129.742,4.711 -129.742,27.44 -107.014,27.44L-85.212,27.44L-64.872,54.627L-44.53,27.44L-22.729,27.44C-22.729,27.44 0,27.44 0,4.711Z" style="fill:none;fill-rule:nonzero;stroke:#000;stroke-width:1.16px;stroke-miterlimit:10;"/>
                </g>
                <g transform="matrix(1,0,0,1,431.333,96.1784)">
                    <path d="M0,-9.089C0,-12.663 -2.636,-15.159 -6.001,-15.159C-9.365,-15.159 -12.001,-12.663 -12.001,-9.089C-12.001,-5.585 -9.365,-3.017 -6.001,-3.017C-2.636,-3.017 0,-5.585 0,-9.089M-10.371,7.977L-3.226,-1.665C-4.093,-1.318 -5.029,-1.148 -6.001,-1.148C-10.268,-1.148 -14.117,-4.302 -14.117,-9.089C-14.117,-13.909 -10.268,-17.066 -6.001,-17.066C-1.734,-17.066 2.116,-13.909 2.116,-9.089C2.116,-5.794 0.486,-3.435 -1.977,-0.071L-7.805,7.977L-10.371,7.977Z" style="fill-rule:nonzero;"/>
                </g>
                <g transform="matrix(1,0,0,1,450.2,96.1784)">
                    <path d="M0,-9.089C0,-12.663 -2.636,-15.159 -6.001,-15.159C-9.365,-15.159 -12.001,-12.663 -12.001,-9.089C-12.001,-5.585 -9.365,-3.017 -6.001,-3.017C-2.636,-3.017 0,-5.585 0,-9.089M-10.371,7.977L-3.226,-1.665C-4.093,-1.318 -5.029,-1.148 -6.001,-1.148C-10.268,-1.148 -14.117,-4.302 -14.117,-9.089C-14.117,-13.909 -10.268,-17.066 -6.001,-17.066C-1.733,-17.066 2.116,-13.909 2.116,-9.089C2.116,-5.794 0.486,-3.435 -1.977,-0.071L-7.805,7.977L-10.371,7.977Z" style="fill-rule:nonzero;"/>
                </g>
                <g transform="matrix(1,0,0,1,398.887,109.236)">
                    <path d="M0,-33.057L-9.758,0.828C-10.136,2.191 -11.422,2.42 -12.103,1.207L-20.348,-12.407C-21.104,-13.696 -20.802,-14.604 -19.742,-15.584L-1.284,-34.041C0.151,-35.477 0.227,-33.889 0,-33.057" style="fill-rule:nonzero;"/>
                </g>
                <g transform="matrix(1,0,0,1,394.954,92.369)">
                    <path d="M0,-20.428C0.832,-20.729 2.344,-20.576 0.982,-19.217L-17.852,-0.989C-18.835,-0.08 -19.742,0.301 -21.029,-0.533L-34.494,-9.158C-35.628,-9.838 -35.4,-11.049 -34.039,-11.502L0,-20.428Z" style="fill-rule:nonzero;"/>
                </g>
                <g transform="matrix(1,0,0,1,565.992,52.5468)">
                    <path d="M0,9.611L0.978,8.853C1.695,10.209 2.952,10.908 4.527,10.908C6.462,10.908 7.978,9.472 7.978,7.418C7.978,5.404 6.462,3.925 4.527,3.925C3.649,3.925 2.912,4.107 2.095,4.566L1.576,3.767L6.762,-1.28L0.798,-1.28L0.798,-2.395L8.557,-2.395L8.557,-1.455L3.889,2.912C4.089,2.873 4.309,2.849 4.527,2.849C6.98,2.849 9.194,4.666 9.194,7.418C9.194,10.191 6.98,12.006 4.527,12.006C2.692,12.006 0.978,11.287 0,9.611" style="fill-rule:nonzero;"/>
                </g>
                <g transform="matrix(1,0,0,1,585.133,54.7394)">
                    <path d="M0,5.225C0,3.211 -1.517,1.733 -3.45,1.733C-5.386,1.733 -6.9,3.211 -6.9,5.225C-6.9,7.28 -5.386,8.715 -3.45,8.715C-1.517,8.715 0,7.28 0,5.225M-8.117,5.225C-8.117,3.33 -7.18,1.973 -5.764,0.039L-2.414,-4.588L-0.937,-4.588L-5.046,0.977C-4.508,0.756 -3.988,0.657 -3.45,0.657C-0.997,0.657 1.217,2.473 1.217,5.225C1.217,7.998 -0.997,9.813 -3.45,9.813C-5.903,9.813 -8.117,7.998 -8.117,5.225" style="fill-rule:nonzero;"/>
                </g>
            </g>
        </g>
    </g>
</svg>
