<?xml version="1.0" encoding="UTF-8" standalone="no"?>
<!DOCTYPE svg PUBLIC "-//W3C//DTD SVG 1.1//EN" "http://www.w3.org/Graphics/SVG/1.1/DTD/svg11.dtd">
<svg width="100%" height="100%" viewBox="0 0 325 312" version="1.1" xmlns="http://www.w3.org/2000/svg" xmlns:xlink="http://www.w3.org/1999/xlink" xml:space="preserve" xmlns:serif="http://www.serif.com/" style="fill-rule:evenodd;clip-rule:evenodd;stroke-miterlimit:10;">
    <g transform="matrix(1,0,0,1,-1841.63,0)">
        <g id="Page-3" serif:id="Page 3" transform="matrix(1,0,0,1,1841.63,0)">
            <rect x="0" y="0" width="324.688" height="311.59" style="fill:none;"/>
            <clipPath id="_clip1">
                <rect x="0" y="0" width="324.688" height="311.59"/>
            </clipPath>
            <g clip-path="url(#_clip1)">
                <g id="Layer-1" serif:id="Layer 1">
                    <g transform="matrix(1,0,0,1,70.8652,311.59)">
                        <path d="M0,-311.59C0,-311.59 -70.865,-311.59 -70.865,-240.724L-70.865,-70.867C-70.865,-70.867 -70.865,0 0,0L182.955,0C182.955,0 253.821,0 253.821,-70.867L253.821,-240.724C253.821,-240.724 253.821,-311.59 182.955,-311.59L0,-311.59Z" style="fill:white;fill-rule:nonzero;"/>
                    </g>
                    <g transform="matrix(1,0,0,1,178.171,222.486)">
                        <clipPath id="_clip2">
                            <path d="M-107.306,-222.486C-107.306,-222.486 -177.887,-222.492 -178.171,-152.053L-178.171,18.351C-178.133,21.503 -176.52,89.104 -107.306,89.104L75.65,89.104C75.65,89.104 146.516,89.104 146.516,18.237L146.516,-151.62C146.516,-151.62 146.516,-222.486 75.65,-222.486L-107.306,-222.486Z" clip-rule="nonzero"/>
                        </clipPath>
                        <g clip-path="url(#_clip2)">
                            <path d="M0,-126.908C4.645,-130.819 14.926,-128.863 16.187,-125.148C10.88,-126.582 5.373,-126.973 -0.199,-126.582M-17.248,-127.951C-23.815,-128.277 -30.782,-128.668 -37.88,-127.69C-33.701,-133.165 -17.978,-130.167 -17.314,-128.603M-0.796,-118.826C2.786,-123.193 8.093,-121.76 11.41,-118.695C7.231,-116.088 4.246,-115.762 -0.796,-118.565M2.654,-120.651C2.521,-120.325 2.388,-119.868 2.388,-119.477C2.388,-117.978 3.715,-116.805 5.373,-116.805C6.966,-116.805 8.292,-117.978 8.292,-119.477C8.292,-119.804 8.227,-120.129 8.093,-120.455M5.308,-118.239C5.97,-118.239 6.567,-118.826 6.567,-119.543C6.567,-120.194 5.97,-120.781 5.308,-120.781C4.645,-120.781 4.047,-120.194 4.047,-119.543C4.047,-118.826 4.645,-118.239 5.308,-118.239ZM-19.769,-102.596C-22.355,-98.424 -17.58,-96.99 -15.854,-96.99C-14.13,-94.187 -9.686,-92.166 -4.976,-95.165C-1.725,-94.383 0.398,-96.859 -0.465,-100.054M-33.634,-119.868L-31.112,-120.911M-32.573,-123.323L-31.112,-121.303C-28.99,-120.911 -27.862,-120.781 -24.745,-120.585C-21.627,-120.39 -18.31,-119.543 -17.248,-123.062M2.854,-88.516C-2.521,-89.168 -7.165,-87.669 -10.149,-87.93C-13.135,-88.19 -14.661,-89.429 -18.441,-89.886C-21.03,-90.211 -24.479,-90.081 -27.465,-90.146C-24.943,-86.105 -19.901,-78.022 -12.272,-77.435C-0.796,-76.523 -2.256,-85.453 0.995,-87.148M-25.474,-88.516C-20.3,-86.43 -16.452,-82.194 -10.017,-82.194C-5.903,-82.194 -3.583,-84.671 0.199,-86.952M-24.745,-89.103C-17.646,-88.19 -15.59,-86.365 -10.149,-85.974C-4.71,-85.583 -1.99,-87.408 0.929,-87.669M3.98,-92.036C4.71,-90.146 5.042,-88.647 4.909,-87.017M-38.477,-100.575C-38.411,-98.293 -37.681,-96.403 -37.481,-93.796M-20.3,-120.325C-19.769,-120.261 -19.437,-120.194 -18.773,-120.129L-16.452,-119.477M-29.322,-172.339C-33.567,-172.991 -40.202,-174.816 -44.514,-171.428C-49.024,-167.842 -49.224,-158.13 -54.133,-158.261C-56.123,-158.325 -56.521,-159.629 -56.853,-161.324C-57.649,-158.782 -57.516,-155.457 -55.46,-153.372M-33.899,-173.382C-29.123,-179.248 -20.764,-179.965 -16.187,-176.772C-11.609,-179.965 -2.853,-177.554 -1.062,-173.578C11.211,-173.97 18.376,-164.778 18.907,-155.457M14.86,-152.394C16.319,-149.395 12.007,-138.184 -1.725,-150.569M-1.857,-162.432C2.388,-158.39 0,-146.658 -11.012,-147.896C-22.355,-149.136 -21.561,-155.783 -21.494,-160.085M-32.706,-161.324C-33.767,-158.651 -34.629,-147.049 -20.632,-152.329M-32.042,-152.785C-30.516,-144.442 -43.386,-139.097 -45.442,-148.809M17.381,-163.345C26.403,-159.76 28.858,-147.179 24.347,-139.032C29.587,-133.491 26.337,-124.822 22.888,-120.716C27.199,-114.458 33.501,-114.198 41.197,-118.239C57.45,-126.778 71.912,-125.213 76.29,-123.91C89.16,-119.999 88.563,-110.679 77.484,-110.679C55.924,-110.679 45.111,-94.252 42.392,-82.194C40.666,-74.568 36.752,-71.048 29.72,-67.007C19.504,-61.14 16.054,-52.276 18.177,-40.999C19.57,-33.243 16.054,-27.116 8.956,-23.857C2.388,-20.792 -0.531,-15.187 -0.265,-8.605C0,-0.325 -3.516,5.018 -9.686,10.428C-18.575,18.251 -23.418,28.028 -22.755,53.057C-31.444,31.874 -30.516,19.425 -27.531,6.192C-25.274,-3.585 -27.597,-10.624 -36.752,-14.991C-50.883,-21.64 -54.597,-32.786 -53.802,-46.866C-53.337,-54.361 -55.46,-60.619 -62.358,-62.379C-71.911,-64.921 -75.627,-68.115 -77.021,-77.696C-79.938,-97.772 -96.458,-98.228 -112.577,-93.014C-117.487,-91.449 -119.212,-92.883 -119.013,-97.837C-118.481,-110.482 -93.34,-120.781 -78.745,-116.675C-75.493,-115.762 -72.31,-113.741 -69.325,-111.851C-62.823,-107.745 -56.123,-111.33 -53.934,-117.978C-57.052,-126.908 -66.34,-128.212 -58.245,-139.944C-61.563,-144.637 -60.036,-152.133 -50.153,-155.457" style="fill:none;fill-rule:nonzero;stroke:black;stroke-width:1px;"/>
                        </g>
                    </g>
                </g>
            </g>
        </g>
    </g>
</svg>
