<?xml version="1.0" encoding="UTF-8" standalone="no"?>
<!DOCTYPE svg PUBLIC "-//W3C//DTD SVG 1.1//EN" "http://www.w3.org/Graphics/SVG/1.1/DTD/svg11.dtd">
<svg width="100%" height="100%" viewBox="0 0 325 312" version="1.1" xmlns="http://www.w3.org/2000/svg" xmlns:xlink="http://www.w3.org/1999/xlink" xml:space="preserve" xmlns:serif="http://www.serif.com/" style="fill-rule:evenodd;clip-rule:evenodd;stroke-miterlimit:10;">
    <g transform="matrix(1,0,0,1,-920.817,0)">
        <g id="Page-2" serif:id="Page 2" transform="matrix(1,0,0,1,920.817,0)">
            <rect x="0" y="0" width="324.688" height="311.59" style="fill:none;"/>
            <clipPath id="_clip1">
                <rect x="0" y="0" width="324.688" height="311.59"/>
            </clipPath>
            <g clip-path="url(#_clip1)">
                <g id="Layer-1" serif:id="Layer 1">
                    <g transform="matrix(1,0,0,1,70.8667,311.59)">
                        <path d="M0,-311.59C0,-311.59 -70.866,-311.59 -70.866,-240.724L-70.866,-70.867C-70.866,-70.867 -70.866,0 0,0L182.955,0C182.955,0 253.82,0 253.82,-70.867L253.82,-240.724C253.82,-240.724 253.82,-311.59 182.955,-311.59L0,-311.59Z" style="fill:white;fill-rule:nonzero;"/>
                    </g>
                    <g transform="matrix(1,0,0,1,103.066,154.713)">
                        <clipPath id="_clip2">
                            <path d="M-32.199,-154.713C-32.199,-154.713 -102.782,-154.719 -103.066,-84.28L-103.066,86.124C-103.028,89.276 -101.415,156.877 -32.199,156.877L150.756,156.877C150.756,156.877 221.622,156.877 221.622,86.01L221.622,-83.847C221.622,-83.847 221.622,-154.713 150.756,-154.713L-32.199,-154.713Z" clip-rule="nonzero"/>
                        </clipPath>
                        <g clip-path="url(#_clip2)">
                            <path d="M0,16.12C-1.116,16.12 -11.533,21.824 -14.633,0.124C-21.701,-14.51 -22.694,-27.902 -18.725,-35.963C-13.518,-46.627 -2.48,-34.227 2.604,-7.442C7.689,-10.913 9.177,-30.755 6.076,-35.839C15.377,-39.188 12.029,-52.208 8.929,-58.284M-18.477,-38.816C-19.346,-45.512 -26.786,-51.465 -21.205,-58.904C-23.811,-66.345 -20.957,-80.606 -2.48,-86.931M36.458,-119.049C28.521,-120.288 16.121,-123.761 8.061,-117.313C-0.372,-110.491 -0.744,-92.015 -9.921,-92.263C-13.641,-92.387 -14.385,-94.866 -15.005,-98.092C-16.493,-93.255 -16.245,-86.931 -12.401,-82.963M27.902,-121.032C36.83,-132.193 52.455,-133.558 61.012,-127.482C69.568,-133.558 85.938,-128.97 89.285,-121.404C112.227,-122.149 125.62,-104.663 126.611,-86.931C127.48,-72.174 113.344,-69.197 106.398,-73.289M108.135,-86.435C111.482,-80.978 105.902,-58.904 77.753,-79.489M75.025,-101.936C83.706,-95.114 81.721,-72.546 61.012,-72.546C39.684,-72.546 39.807,-85.318 39.063,-93.502M17.98,-93.502C16.492,-88.171 17.361,-66.097 42.287,-78.993M20.957,-77.506C25.546,-62.005 2.729,-49.232 -3.1,-67.214M123.76,-101.936C140.625,-95.114 145.214,-71.182 136.781,-55.681C154.143,-37.079 125.744,-19.842 123.76,-13.89C125.744,-33.855 136.781,-55.681 120.04,-71.182M134.177,-24.803C134.177,-11.657 137.4,3.72 125.372,14.757M91.021,-32.366C99.703,-39.808 118.924,-36.087 121.279,-29.019C111.359,-31.746 101.066,-32.49 90.65,-31.746M58.779,-34.351C46.503,-34.971 33.482,-35.715 20.213,-33.855C28.025,-44.272 57.416,-38.568 58.656,-35.591M89.533,-16.989C96.23,-25.299 106.15,-22.57 112.352,-16.741C104.539,-11.781 98.959,-11.161 89.533,-16.493M95.982,-20.462C95.734,-19.842 95.486,-18.974 95.486,-18.23C95.486,-15.377 97.967,-13.146 101.066,-13.146C104.043,-13.146 106.523,-15.377 106.523,-18.23C106.523,-18.85 106.398,-19.47 106.15,-20.09M100.943,-15.873C102.184,-15.873 103.299,-16.989 103.299,-18.354C103.299,-19.594 102.184,-20.709 100.943,-20.709C99.703,-20.709 98.587,-19.594 98.587,-18.354C98.587,-16.989 99.703,-15.873 100.943,-15.873ZM54.068,13.889C49.23,21.824 58.16,24.554 61.384,24.554C64.607,29.885 72.917,33.729 81.721,28.026C87.798,29.514 91.766,24.802 90.154,18.724M28.15,-18.974L32.861,-20.957M30.134,-25.547L32.861,-21.702C36.83,-20.957 38.939,-20.709 44.768,-20.338C50.595,-19.966 56.796,-18.354 58.779,-25.051M7.564,42.286C10.293,53.944 16.988,60.764 29.886,73.041C42.783,85.317 44.768,97.469 68.576,97.346C86.063,97.221 90.154,86.557 98.587,76.637C106.895,66.84 118.428,48.362 119.42,40.055C120.412,31.745 123.884,11.904 124.38,1.611M96.354,40.674C86.311,39.434 77.629,42.286 72.049,41.791C66.468,41.295 63.615,38.938 56.548,38.069C51.711,37.45 45.263,37.698 39.684,37.573C44.395,45.262 53.82,60.639 68.081,61.756C89.533,63.491 86.806,46.502 92.882,43.278M43.402,40.674C53.076,44.643 60.268,52.702 72.297,52.702C79.984,52.702 84.326,47.991 91.395,43.651M44.768,39.559C58.035,41.295 61.88,44.766 72.049,45.51C82.217,46.254 87.302,42.782 92.758,42.286M98.463,33.977C99.826,37.573 100.447,40.426 100.199,43.526M0,18.6C-0.124,37.698 1.736,71.305 -0.496,76.016C-2.729,80.729 -11.533,90.401 -9.178,102.182M-2.232,48.983C-16.245,50.346 -54.688,73.041 -43.031,105.655C-35.838,125.743 -15.377,145.834 -12.773,149.678M-41.915,95.981C-35.838,107.018 -23.934,108.135 6.324,103.174C6.324,118.799 4.216,135.787 15.253,143.973M-2.107,62.748C-11.533,67.707 -27.282,71.924 -30.506,102.678M110.242,66.096C126.611,107.018 157.613,98.959 150.05,118.551C142.484,138.145 129.713,137.153 129.465,145.338M101.066,79.86C106.646,88.912 108.383,103.299 117.684,106.895M93.998,85.069C86.311,105.159 103.919,140.996 70.809,145.338M8.929,112.35C16.617,105.903 30.258,115.327 32.117,145.09M153.521,118.428C171.503,127.231 193.081,136.036 207.342,144.965M-45.76,112.227C-63.988,126.86 -87.303,138.889 -100.571,143.725M-16.617,-30.507C-12.525,-30.507 -9.178,-28.771 -4.465,-14.51M-9.674,-23.811C-8.309,-18.478 -10.541,-15.13 -5.58,-7.814C0.372,0.991 -1.612,6.943 -4.092,7.811M-14.758,-16.493C-14.51,-8.558 -11.533,-4.96 -7.316,-0.992M19.097,17.732C19.221,22.072 20.585,25.67 20.957,30.629M53.076,-19.842C54.068,-19.718 54.688,-19.594 55.928,-19.47L60.268,-18.23" style="fill:none;fill-rule:nonzero;stroke:black;stroke-width:1px;"/>
                        </g>
                    </g>
                </g>
            </g>
        </g>
    </g>
</svg>
