<?xml version="1.0" encoding="UTF-8" standalone="no"?>
<!DOCTYPE svg PUBLIC "-//W3C//DTD SVG 1.1//EN" "http://www.w3.org/Graphics/SVG/1.1/DTD/svg11.dtd">
<svg width="100%" height="100%" viewBox="0 0 1442 1291" version="1.1" xmlns="http://www.w3.org/2000/svg" xmlns:xlink="http://www.w3.org/1999/xlink" xml:space="preserve" xmlns:serif="http://www.serif.com/" style="fill-rule:evenodd;clip-rule:evenodd;stroke-miterlimit:10;">
    <g transform="matrix(1,0,0,1,-4911.02,-3096.68)">
        <g id="Page-15" serif:id="Page 15" transform="matrix(2.66667,0,0,2.66667,4911.02,3096.68)">
            <rect x="0" y="0" width="540.71" height="483.793" style="fill:none;"/>
            <g id="Layer-1" serif:id="Layer 1">
                <g>
                    <clipPath id="_clip1">
                        <rect x="0" y="-0.001" width="538.582" height="481.89" clip-rule="nonzero"/>
                    </clipPath>
                    <g clip-path="url(#_clip1)">
                        <g transform="matrix(1,0,0,1,460.031,113.993)">
                            <path d="M0,366.583C-6.785,352.812 -15.314,333.416 -22.682,311.887C-25.008,295.983 -18.998,228.29 -22.682,202.687C-27.336,170.103 -33.539,152.646 -37.805,143.53C-43.426,131.504 -58.354,132.475 -61.262,141.202M-175.451,232.169C-180.299,225.769 -193.094,207.925 -198.133,208.118C-205.502,189.498 -240.01,163.701 -255.131,173.205C-260.754,176.697 -261.336,181.74 -260.172,183.485C-258.428,186.008 -251.061,192.602 -245.244,200.166C-234.193,214.714 -234.969,227.708 -224.307,233.14C-204.338,259.129 -190.766,283.374 -174.869,298.697C-162.655,310.529 -151.605,322.36 -136.678,329.537C-120.004,343.696 -104.883,382.488 -100.424,397.811M-86.853,165.835C-95.771,158.466 -96.547,137.323 -99.842,115.212C-101.78,102.41 -103.139,92.131 -122.137,90.968C-142.299,89.804 -147.146,112.108 -148.504,134.995M-43.426,186.59C-55.059,179.801 -57.578,169.521 -61.262,143.53C-63.588,127.432 -66.303,101.828 -83.557,103.187C-91.312,103.769 -95.771,106.678 -98.873,112.108M-187.666,114.049L-167.309,107.453M-197.553,57.024L-181.461,53.339M-243.111,201.137L-235.744,195.317C-235.744,184.649 -244.082,175.34 -259.396,179.994M-183.399,120.836L-165.563,113.66M-208.021,23.276C-206.276,32.974 -203.562,41.507 -193.676,39.374C-182.043,36.853 -186.502,26.767 -188.828,17.651M-141.137,118.897C-139.391,134.221 -138.616,138.875 -136.678,147.798C-134.35,158.466 -132.024,165.835 -136.678,166.999C-142.299,168.356 -146.564,147.798 -148.309,141.202C-150.83,131.311 -168.859,74.868 -170.022,70.602C-178.359,39.956 -179.91,8.341 -200.072,12.995C-215.969,16.681 -210.153,30.646 -202.399,80.3C-200.266,93.876 -186.502,154.585 -184.563,163.701C-168.471,239.347 -177.389,243.613 -174.094,265.725M-126.402,215.489L-89.373,301.802M-74.639,228.29L-59.905,299.667M-359.045,127.043C-320.659,67.304 -240.979,-12.995 -106.047,-31.228" style="fill:none;fill-rule:nonzero;stroke:#000;stroke-width:1px;"/>
                        </g>
                    </g>
                </g>
            </g>
        </g>
    </g>
</svg>
