<?xml version="1.0" encoding="UTF-8" standalone="no"?><!DOCTYPE svg PUBLIC "-//W3C//DTD SVG 1.1//EN" "http://www.w3.org/Graphics/SVG/1.1/DTD/svg11.dtd"><svg width="100%" height="100%" viewBox="0 0 541 484" version="1.1" xmlns="http://www.w3.org/2000/svg" xmlns:xlink="http://www.w3.org/1999/xlink" xml:space="preserve" xmlns:serif="http://www.serif.com/" style="fill-rule:evenodd;clip-rule:evenodd;stroke-miterlimit:10;"><rect id="kosik" x="0" y="0" width="540.71" height="483.793" style="fill:none;"/><clipPath id="_clip1"><rect x="0" y="0" width="540.71" height="483.793"/></clipPath><g clip-path="url(#_clip1)"><g id="Layer-1" serif:id="Layer 1"><path d="M146.227,162.772l67.813,-16.394c13.326,-3.184 24.176,-2.004 30.662,-0.118c1.18,0.354 15.685,5.425 24.531,8.375l3.774,67.812l77.248,-26.89l-21.229,-9.789c4.246,-8.137 6.486,-12.146 8.373,-14.506c18.045,8.963 24.412,0.118 47.291,6.133l-8.019,10.614l40.57,-2.594c10.849,6.722 27.007,17.808 35.969,26.536c-5.896,4.362 -14.387,4.952 -21.463,4.597c-43.754,-0.236 -87.154,6.605 -128.784,20.875c-24.413,8.373 -46.466,28.186 -73.709,22.29c-7.666,-1.651 -14.034,-6.487 -21.346,-9.907c-3.303,-1.532 -5.66,-2.713 -11.322,-4.835c-6.251,-2.358 -14.506,-5.307 -20.874,-7.548c-1.769,-5.072 -3.893,-10.497 -5.072,-15.45c-2.713,-8.845 -6.958,-19.812 -11.91,-30.898l-12.502,-28.304Z" style="fill:none;fill-rule:nonzero;stroke:#000;stroke-width:1px;"/><path d="M118.396,161.119c-18.752,4.6 -33.965,8.373 -38.094,9.436c-20.166,5.189 -28.422,7.076 -29.248,12.737" style="fill:none;fill-rule:nonzero;stroke:#000;stroke-width:1px;"/><path d="M169.579,267.732c7.193,3.42 14.623,7.431 22.054,11.558c6.84,4.245 9.788,8.727 14.034,13.444c16.274,18.634 32.785,40.687 59.084,44.343c32.668,4.6 63.567,-8.255 92.697,-21.346c33.848,-15.213 59.321,-39.508 89.277,-62.387c6.721,-4.953 14.152,-7.429 19.341,-13.798c5.543,-6.723 -0.59,-15.686 -0.353,-23.586c-4.246,9.433 -15.569,10.731 -24.531,12.854c-53.661,12.736 -102.486,29.955 -153.787,47.999c-18.752,6.605 -40.097,19.814 -59.674,7.076c-16.158,-10.496 -26.89,-25.71 -45.052,-31.135" style="fill:none;fill-rule:nonzero;stroke:#000;stroke-width:1px;"/><path d="M150.945,239.311c-11.794,-5.779 -23.233,-11.322 -33.611,-16.51l-27.833,-13.8c-32.315,-17.336 -37.858,-19.812 -38.565,-24.294l-0.235,18.635c0,2.711 3.184,5.778 10.26,9.552l28.54,15.331l33.611,16.511c11.676,6.132 23.587,11.557 35.027,17.454" style="fill:none;fill-rule:nonzero;stroke:#000;stroke-width:1px;"/><path d="M68.745,185.061c2.004,2.594 4.127,3.656 6.604,4.835c4.954,2.359 37.974,18.398 73.12,35.734l-25.002,-57.551c-19.814,4.836 -37.503,9.434 -41.632,10.378c-8.963,2.004 -15.213,3.774 -13.09,6.604Z" style="fill:none;fill-rule:nonzero;stroke:#000;stroke-width:1px;"/><path d="M465.358,214.309c-9.552,-10.969 -21.936,-19.224 -35.144,-26.653" style="fill:none;fill-rule:nonzero;stroke:#000;stroke-width:1px;"/><path d="M456.514,250.633c-0,48.588 -11.677,100.834 -49.886,133.619c-29.602,25.357 -67.223,33.965 -103.193,46.231c-6.958,2.712 -13.916,5.07 -21.229,6.958c-37.738,9.671 -68.166,-23.824 -99.772,-43.401c-13.091,-8.136 -23.47,-17.807 -35.263,-26.653c-8.726,-6.485 -16.156,-12.618 -22.289,-16.745c-6.486,-4.011 -10.732,-6.606 -11.676,-7.196c-5.189,-3.184 -8.492,-8.609 -12.029,-20.284c-2.594,-8.609 -17.219,-68.637 -25.002,-100.952" style="fill:none;fill-rule:nonzero;stroke:#000;stroke-width:1px;"/><path d="M234.561,339.908c-2.948,-10.496 -5.897,-16.511 -13.798,-18.987c-0.708,-0.236 -1.18,0.117 -0.944,0.943c6.014,22.879 6.014,55.312 30.545,65.454c0.591,0.236 1.768,0 1.533,-0.943c-10.26,-23.47 -14.978,-38.094 -17.336,-46.467Z" style="fill:none;fill-rule:nonzero;stroke:#000;stroke-width:1px;"/><path d="M256.143,400.409c-0,-5.661 -13.326,-14.86 -16.864,-11.086c-1.533,1.65 2.358,23.705 4.127,28.894c1.416,4.246 8.373,5.897 11.204,6.721c5.307,1.416 1.533,-16.863 1.533,-24.529Z" style="fill:none;fill-rule:nonzero;stroke:#000;stroke-width:1px;"/><path d="M220.29,362.08c-5.896,-15.685 -5.307,-32.313 -10.613,-48.234c-1.77,-5.308 -2.713,-16.747 -9.199,-16.512c1.296,22.643 -3.657,50.122 15.92,67.342c2.005,1.768 5.072,0.589 3.892,-2.596Z" style="fill:none;fill-rule:nonzero;stroke:#000;stroke-width:1px;"/><path d="M230.669,410.787c-2.123,-6.958 -2.477,-16.747 -4.6,-25.002c-2.123,-8.255 -6.604,-14.859 -16.039,-15.921c1.297,7.076 1.77,16.039 3.657,24.058c1.886,8.138 5.66,15.214 13.444,18.398c0.944,0.59 2.123,0.59 3.302,0c0.236,-0.353 0.353,-0.943 0.236,-1.533Z" style="fill:none;fill-rule:nonzero;stroke:#000;stroke-width:1px;"/><path d="M191.397,295.566c-0.235,-4.954 -1.532,-12.03 -7.075,-12.856c-0.946,0 -2.123,0.59 -2.123,1.533c-2.713,17.1 -1.533,33.729 1.177,51.42c0.473,3.066 1.888,4.835 3.657,6.604c2.595,2.595 7.076,4.363 7.076,1.651c-0,-8.609 -1.533,-16.864 -1.65,-25.474c-0.59,-11.44 -1.062,-22.879 -1.062,-22.879Z" style="fill:none;fill-rule:nonzero;stroke:#000;stroke-width:1px;"/><path d="M205.195,395.338c-5.544,-14.506 -2.595,-39.272 -19.695,-44.461c3.065,14.977 2.005,34.908 15.331,45.522c2.476,2.004 5.306,1.652 4.364,-1.061Z" style="fill:none;fill-rule:nonzero;stroke:#000;stroke-width:1px;"/><path d="M173.471,323.869c-0,-16.156 2.005,-32.902 -2.948,-48.942c-0.354,-1.062 -1.77,-2.36 -3.656,-2.712c-1.534,0 -2.477,1.886 -2.477,2.712c-0,17.218 -5.779,36.796 4.953,52.127c0.59,0.943 1.18,1.415 2.359,1.179c1.651,-0.471 1.769,-1.298 1.769,-4.364Z" style="fill:none;fill-rule:nonzero;stroke:#000;stroke-width:1px;"/><path d="M183.142,378.945c-5.308,-14.27 -1.888,-36.324 -15.922,-45.17c1.533,15.567 -0.707,37.268 14.389,47.647c1.414,1.06 2.123,-1.18 1.533,-2.477Z" style="fill:none;fill-rule:nonzero;stroke:#000;stroke-width:1px;"/><path d="M157.196,309.835c-2.595,-14.978 7.901,-37.738 -5.662,-46.466c-3.302,-2.123 -0.824,27.007 -2.123,39.744c-0.353,3.538 1.416,8.963 4.955,10.733c1.65,0.824 3.184,-1.063 2.83,-4.011Z" style="fill:none;fill-rule:nonzero;stroke:#000;stroke-width:1px;"/><path d="M164.39,363.26c-4.246,-14.271 -0.354,-32.314 -11.559,-43.637c-1.06,-1.06 -1.65,-0.353 -1.532,0.591c1.769,15.448 -1.651,35.262 11.676,45.287c1.888,1.415 2.005,-0.708 1.415,-2.241Z" style="fill:none;fill-rule:nonzero;stroke:#000;stroke-width:1px;"/><path d="M142.808,298.277c-2.831,-14.034 5.07,-33.375 -7.43,-43.518c-1.297,-1.061 -2.83,-2.004 -2.83,0.945c-0,14.976 -1.769,31.487 6.132,45.286c0.708,1.298 1.651,1.298 2.713,1.298c1.769,0 2.005,-0.945 1.415,-4.011Z" style="fill:none;fill-rule:nonzero;stroke:#000;stroke-width:1px;"/><path d="M148.469,348.989c-3.892,-13.091 1.532,-31.96 -10.968,-40.923c-0.826,-0.59 -1.416,-0.353 -1.179,1.179c2.712,14.152 -0.354,29.722 8.845,41.632c1.769,1.768 4.127,1.415 3.302,-1.888Z" style="fill:none;fill-rule:nonzero;stroke:#000;stroke-width:1px;"/><path d="M127.358,286.013l-4.129,-31.725c-0.588,-4.362 -4.598,-9.905 -8.254,-9.905c-2.359,-0 -2.596,2.004 -2.241,4.481l5.307,33.375c0.826,5.424 4.364,10.496 8.137,9.317c1.534,-0.473 1.652,-2.123 1.18,-5.543Z" style="fill:none;fill-rule:nonzero;stroke:#000;stroke-width:1px;"/><path d="M133.608,336.488c-3.42,-12.854 1.415,-30.309 -10.142,-39.39c-0.944,-0.708 -1.534,-0.354 -1.534,0.236c0,13.208 -0.353,28.776 7.903,41.041c1.533,2.241 4.363,1.533 3.773,-1.887Z" style="fill:none;fill-rule:nonzero;stroke:#000;stroke-width:1px;"/><path d="M109.903,277.639l-5.424,-33.258c-0.472,-3.302 -4.482,-9.67 -8.139,-9.67c-1.415,-0 -2.357,1.77 -2.003,4.6l5.896,32.903c1.062,5.898 3.655,8.02 5.897,8.728c1.769,0.59 4.127,-0.944 3.773,-3.303Z" style="fill:none;fill-rule:nonzero;stroke:#000;stroke-width:1px;"/><path d="M117.923,325.402l-4.953,-29.365c-0.943,-5.308 -4.363,-9.199 -7.547,-9.199c-2.123,0 -2.123,1.651 -1.888,3.655l5.189,29.131c0.945,5.188 4.129,8.844 7.195,8.844c1.65,0 2.358,-0.588 2.004,-3.066Z" style="fill:none;fill-rule:nonzero;stroke:#000;stroke-width:1px;"/><path d="M448.611,270.327c0,-3.892 -0.472,-7.312 -2.123,-6.958c-2.122,0.473 -2.829,3.066 -2.829,4.953c-2.123,22.645 -5.19,44.933 -12.501,66.279c16.51,-16.746 14.623,-42.456 17.453,-64.274Z" style="fill:none;fill-rule:nonzero;stroke:#000;stroke-width:1px;"/><path d="M432.455,342.268c0.235,-0.473 0.235,-0.826 0.235,-1.18c-13.798,11.911 -20.52,30.899 -32.431,44.934c10.378,-4.364 27.361,-31.843 32.196,-43.754Z" style="fill:none;fill-rule:nonzero;stroke:#000;stroke-width:1px;"/><path d="M437.055,278.818c-0,-7.548 -4.953,-5.779 -5.897,2.005c-3.302,26.653 -11.557,51.066 -21.11,75.597c16.628,-13.681 27.007,-48.59 27.007,-77.602Z" style="fill:none;fill-rule:nonzero;stroke:#000;stroke-width:1px;"/><path d="M410.991,364.085c1.061,-1.533 2.358,-3.656 1.179,-3.065c-15.095,8.254 -24.177,25.709 -36.089,38.563c17.22,-4.953 24.414,-22.997 34.91,-35.498Z" style="fill:none;fill-rule:nonzero;stroke:#000;stroke-width:1px;"/><path d="M421.133,296.155c-0.944,-10.261 -7.43,-4.718 -10.142,5.188c-7.429,27.125 -19.341,51.42 -31.489,75.833c20.874,-8.61 43.519,-59.912 41.631,-81.021Z" style="fill:none;fill-rule:nonzero;stroke:#000;stroke-width:1px;"/><path d="M383.983,382.719c1.18,-1.179 1.887,-2.948 0.708,-2.477c-15.332,5.19 -26.063,17.691 -35.499,29.956c16.157,-1.769 24.178,-17.101 34.791,-27.479Z" style="fill:none;fill-rule:nonzero;stroke:#000;stroke-width:1px;"/><path d="M386.696,333.776c4.953,-12.147 1.533,-18.517 -6.016,-13.799c-7.428,4.6 -13.797,12.974 -17.689,20.639c-6.958,13.562 -10.379,25.945 -17.454,39.271c-2.123,4.01 -4.364,8.021 -5.189,12.62c30.545,-1.534 38.565,-39.744 46.348,-58.731Z" style="fill:none;fill-rule:nonzero;stroke:#000;stroke-width:1px;"/><path d="M351.67,395.928c-14.034,-1.651 -26.063,9.789 -30.073,22.29c8.491,1.415 24.765,-14.507 30.073,-22.29Z" style="fill:none;fill-rule:nonzero;stroke:#000;stroke-width:1px;"/><path d="M329.616,353.353c-4.364,-9.906 -22.526,-5.426 -31.018,4.245c-1.414,1.651 -1.886,3.656 -1.768,5.897c0.942,24.413 -0.943,27.833 4.364,33.612c3.891,4.244 17.926,0.943 20.52,-4.128c4.599,-8.845 10.379,-33.966 7.902,-39.626Z" style="fill:none;fill-rule:nonzero;stroke:#000;stroke-width:1px;"/><path d="M314.874,403.829c-7.548,-2.594 -13.916,-1.77 -17.336,4.481c-1.887,3.539 -4.6,8.61 -3.42,17.809c0.589,4.599 7.076,0.589 9.197,-0.826c6.724,-4.481 9.2,-14.506 12.385,-19.813c0.471,-0.825 0.471,-1.179 -0.826,-1.651Z" style="fill:none;fill-rule:nonzero;stroke:#000;stroke-width:1px;"/><path d="M177.009,258.062c-2.006,1.179 -3.656,0.236 -4.129,-1.887c-0,0 -1.65,-12.737 -8.254,-31.606c-3.303,-9.435 -8.373,-20.875 -13.445,-32.433l-30.545,-69.345c-1.18,-2.831 -1.77,-5.425 -1.887,-7.903c-0.235,-4.48 1.652,-9.197 5.779,-12.146c1.768,-1.297 4.01,-2.123 6.604,-2.477l51.773,-7.783c0.708,-4.6 4.954,-9.436 10.379,-10.143l46.584,-6.369c6.014,-0.824 10.967,2.123 15.213,6.133l38.094,-5.66c9.08,-1.297 15.566,5.779 19.223,13.443" style="fill:none;fill-rule:nonzero;stroke:#000;stroke-width:1px;"/><path d="M386.343,175.744l35.733,-45.405l-0.943,23.233c47.057,-36.207 73.356,-99.064 208.862,-99.064" style="fill:none;fill-rule:nonzero;stroke:#000;stroke-width:1px;"/><path d="M301.075,113.71l-7.076,-14.86c-2.24,-4.717 -6.604,-8.609 -11.557,-7.783l-38.328,6.486c-5.662,0.943 -7.785,-7.076 -14.86,-6.015l-36.56,5.661" style="fill:none;fill-rule:nonzero;stroke:#000;stroke-width:1px;"/><path d="M310.393,95.666l-2.713,-4.953c-2.475,-4.836 -7.076,-8.845 -13.326,-7.902l-36.678,5.779c-8.491,1.297 -9.199,-6.84 -14.741,-6.015l-46.467,6.724c-3.42,0.234 -5.896,3.183 -5.896,7.547c-0,1.297 -0.237,2.004 -2.36,2.358l-53.659,8.608c-3.067,0.473 -5.307,2.124 -6.604,4.719c-0.59,1.179 -0.707,2.594 -0.707,2.594" style="fill:none;fill-rule:nonzero;stroke:#000;stroke-width:1px;"/><path d="M356.623,152.864c6.722,6.486 13.915,12.501 21.11,18.517c-8.019,-3.303 -15.803,-8.375 -22.998,-14.625" style="fill:none;fill-rule:nonzero;stroke:#000;stroke-width:1px;"/><path d="M259.799,143.076c-1.298,-0.354 -2.595,-0.826 -3.774,-1.18l-11.911,-3.773c-5.662,-1.77 -17.574,-3.068 -35.381,0.824c-8.727,1.888 -36.559,8.846 -64.275,15.688" style="fill:none;fill-rule:nonzero;stroke:#000;stroke-width:1px;"/><path d="M342.825,161.119c86.682,-147.535 143.055,-69.344 277.499,-100.008" style="fill:none;fill-rule:nonzero;stroke:#000;stroke-width:1px;"/><path d="M176.183,238.367c2.478,6.84 3.893,12.266 1.651,18.634c-1.768,5.188 -9.434,7.548 -15.214,9.67c-1.296,0.708 -1.886,-1.179 -2.476,-2.122c-0,0 0.473,-12.031 -8.491,-32.079l-2.595,-5.779" style="fill:none;fill-rule:nonzero;stroke:#000;stroke-width:1px;"/><path d="M145.991,161.828l-17.689,-39.509c-0.708,-1.532 -1.063,-3.184 -1.063,-4.717l48.236,-7.547l10.967,-8.021" style="fill:none;fill-rule:nonzero;stroke:#000;stroke-width:1px;"/><path d="M123.23,167.017l-15.449,-34.791c-0.945,-2.005 -1.415,-4.009 -1.652,-6.015c-0.353,-3.066 0.472,-7.783 2.123,-10.142l10.732,-9.434" style="fill:none;fill-rule:nonzero;stroke:#000;stroke-width:1px;"/><path d="M584.473,-51.635c-278.091,44.58 -262.759,167.822 -299.673,208.863l-16.629,-16.748l0.826,12.383" style="fill:none;fill-rule:nonzero;stroke:#000;stroke-width:1px;"/><path d="M611.951,154.397c-110.033,-53.188 -139.87,-5.778 -183.388,17.218l17.808,12.267l-26.418,1.533" style="fill:none;fill-rule:nonzero;stroke:#000;stroke-width:1px;"/></g></g></svg>