<?xml version="1.0" encoding="UTF-8"?>
<svg xmlns="http://www.w3.org/2000/svg" xmlns:xlink="http://www.w3.org/1999/xlink" width="540.71pt" height="483.793pt" viewBox="0 0 540.71 483.793" version="1.1">
<defs>
<clipPath id="clip1">
  <path d="M 372 40 L 538.582031 40 L 538.582031 190 L 372 190 Z M 372 40 "/>
</clipPath>
<clipPath id="clip2">
  <path d="M 328 46 L 538.582031 46 L 538.582031 176 L 328 176 Z M 328 46 "/>
</clipPath>
<clipPath id="clip3">
  <path d="M 254 0 L 538.582031 0 L 538.582031 172 L 254 172 Z M 254 0 "/>
</clipPath>
<clipPath id="clip4">
  <path d="M 405 115 L 538.582031 115 L 538.582031 200 L 405 200 Z M 405 115 "/>
</clipPath>
</defs>
<g id="surface1">
<path style=" stroke:none;fill-rule:nonzero;fill:rgb(94.099426%,37.298584%,0%);fill-opacity:1;" d="M 0 481.890625 L 538.582031 481.890625 L 538.582031 0 L 0 0 Z M 0 481.890625 "/>
<path style="fill:none;stroke-width:1;stroke-linecap:butt;stroke-linejoin:miter;stroke:rgb(0%,0%,0%);stroke-opacity:1;stroke-miterlimit:10;" d="M -0.0009375 -0.0019375 L 67.811563 16.392594 C 81.139688 19.576188 91.987344 18.3965 98.475625 16.513688 C 99.655313 16.158219 114.159219 11.087906 123.006875 8.138688 L 126.780313 -59.673812 L 204.026406 -32.783187 L 182.799844 -22.994125 C 187.045938 -14.857406 189.284219 -10.849594 191.170938 -8.490219 C 209.217813 -17.451156 215.585 -8.607406 238.463906 -14.623031 L 230.444375 -25.236312 L 271.014688 -22.642562 C 281.862344 -29.365219 298.0225 -40.451156 306.983438 -49.177719 C 301.088906 -53.541 292.596719 -54.130844 285.518594 -53.775375 C 241.764688 -53.541 198.36625 -60.380844 156.733438 -74.650375 C 132.323281 -83.025375 110.268594 -102.837875 83.026406 -96.939437 C 75.358438 -95.291 68.99125 -90.455062 61.67875 -87.033187 C 58.377969 -85.501937 56.018594 -84.32225 50.358438 -82.19725 C 44.108438 -79.841781 35.850625 -76.892562 29.483438 -74.650375 C 27.713906 -69.580062 25.592813 -64.154281 24.413125 -59.201156 C 21.698281 -50.357406 17.452188 -39.388656 12.502969 -28.302719 Z M -0.0009375 -0.0019375 " transform="matrix(1,0,0,-1,146.2275,162.7715)"/>
<path style="fill:none;stroke-width:1;stroke-linecap:butt;stroke-linejoin:miter;stroke:rgb(0%,0%,0%);stroke-opacity:1;stroke-miterlimit:10;" d="M -0.00096875 -0.00189375 C -18.750969 -4.59955 -33.965812 -8.372988 -38.094719 -9.435488 C -58.258781 -14.626894 -66.516594 -16.513613 -67.340812 -22.173769 " transform="matrix(1,0,0,-1,118.3955,161.1192)"/>
<path style="fill:none;stroke-width:1;stroke-linecap:butt;stroke-linejoin:miter;stroke:rgb(0%,0%,0%);stroke-opacity:1;stroke-miterlimit:10;" d="M -0.000975 -0.001875 C 7.194338 -3.419844 14.624025 -7.431563 22.053713 -11.556563 C 28.893556 -15.802656 31.842775 -20.283125 36.088869 -25.001875 C 52.362306 -43.634688 68.874025 -65.689375 95.1709 -69.345625 C 127.838869 -73.943281 158.737306 -61.091719 187.870119 -47.997969 C 221.717775 -32.787031 247.190431 -8.490156 277.147463 14.38875 C 283.866213 19.341875 291.299806 21.818437 296.487306 28.185625 C 302.030275 34.908281 295.897463 43.873125 296.135744 51.771562 C 291.88965 42.337969 280.565431 41.041094 271.604494 38.916094 C 217.940431 26.181719 169.116213 8.962969 117.815431 -9.08 C 99.065431 -15.685469 77.717775 -28.896406 58.143556 -16.158125 C 41.9834 -5.662031 31.252931 9.552812 13.088869 14.978594 " transform="matrix(1,0,0,-1,169.5791,267.7325)"/>
<path style="fill:none;stroke-width:1;stroke-linecap:butt;stroke-linejoin:miter;stroke:rgb(0%,0%,0%);stroke-opacity:1;stroke-miterlimit:10;" d="M 0.0000125 -0.0019 C -11.792956 5.77935 -23.234363 11.322319 -33.609363 16.509819 L -61.4453 30.3106 C -93.7578 47.646537 -99.300769 50.1231 -100.0078 54.603569 L -100.242175 35.970756 C -100.242175 33.259819 -97.058581 30.189506 -89.984363 26.416069 L -61.4453 11.087944 L -27.832019 -5.423775 C -16.156238 -11.556588 -4.246081 -16.982369 7.195325 -22.880806 " transform="matrix(1,0,0,-1,150.9453,239.3106)"/>
<path style="fill:none;stroke-width:1;stroke-linecap:butt;stroke-linejoin:miter;stroke:rgb(0%,0%,0%);stroke-opacity:1;stroke-miterlimit:10;" d="M 0.00099375 -0.0019 C 2.0049 -2.59565 4.125994 -3.654244 6.602556 -4.833931 C 11.559587 -7.193306 44.579119 -23.232369 79.72365 -40.568306 L 54.72365 16.982475 C 34.907244 12.146537 17.219744 7.548881 13.090837 6.603569 C 4.125994 4.599662 -2.124006 2.830131 0.00099375 -0.0019 Z M 0.00099375 -0.0019 " transform="matrix(1,0,0,-1,68.7451,185.0606)"/>
<path style="fill:none;stroke-width:1;stroke-linecap:butt;stroke-linejoin:miter;stroke:rgb(0%,0%,0%);stroke-opacity:1;stroke-miterlimit:10;" d="M 0.000975 0.00000625 C -9.553713 10.968756 -21.936525 19.222662 -35.143556 26.65235 " transform="matrix(1,0,0,-1,465.3584,214.3086)"/>
<path style="fill:none;stroke-width:1;stroke-linecap:butt;stroke-linejoin:miter;stroke:rgb(0%,0%,0%);stroke-opacity:1;stroke-miterlimit:10;" d="M 0.001925 -0.0009125 C 0.001925 -48.590756 -11.677762 -100.832944 -49.884794 -133.6181 C -79.486356 -158.977475 -117.10745 -167.58685 -153.080106 -179.852475 C -160.037137 -182.563413 -166.994169 -184.922788 -174.306669 -186.809506 C -212.04495 -196.477475 -242.474637 -162.985288 -274.080106 -143.407163 C -287.16995 -135.270444 -297.548856 -125.602475 -309.341825 -116.754819 C -318.068387 -110.270444 -325.498075 -104.137631 -331.630887 -100.008725 C -338.119169 -96.000913 -342.365262 -93.403256 -343.306669 -92.813413 C -348.498075 -89.629819 -351.798856 -84.204038 -355.337919 -72.528256 C -357.931669 -63.922788 -372.556669 -3.891538 -380.337919 28.420962 " transform="matrix(1,0,0,-1,456.5137,250.6319)"/>
<path style="fill:none;stroke-width:1;stroke-linecap:butt;stroke-linejoin:miter;stroke:rgb(0%,0%,0%);stroke-opacity:1;stroke-miterlimit:10;" d="M -0.00190625 0.00195 C -2.947219 10.494137 -5.896437 16.509762 -13.798781 18.986325 C -14.505812 19.224606 -14.978469 18.869137 -14.740187 18.044919 C -8.728469 -4.833988 -8.728469 -37.267581 15.802781 -47.408206 C 16.392625 -47.646488 17.572313 -47.408206 17.337938 -46.4668 C 7.076219 -22.99805 2.357469 -8.37305 -0.00190625 0.00195 Z M -0.00190625 0.00195 " transform="matrix(1,0,0,-1,234.5605,339.9082)"/>
<path style="fill:none;stroke-width:1;stroke-linecap:butt;stroke-linejoin:miter;stroke:rgb(0%,0%,0%);stroke-opacity:1;stroke-miterlimit:10;" d="M 0.00193125 -0.00095625 C 0.00193125 5.6592 -13.326194 14.858419 -16.865256 11.084981 C -18.396506 9.436544 -14.505881 -12.618144 -12.73635 -17.80955 C -11.322288 -22.055644 -4.365256 -23.704081 -1.533225 -24.5283 C 3.775369 -25.946269 0.00193125 -7.665019 0.00193125 -0.00095625 Z M 0.00193125 -0.00095625 " transform="matrix(1,0,0,-1,256.1426,400.4092)"/>
<path style="fill:none;stroke-width:1;stroke-linecap:butt;stroke-linejoin:miter;stroke:rgb(0%,0%,0%);stroke-opacity:1;stroke-miterlimit:10;" d="M -0.0009375 -0.00193125 C -5.895469 15.685569 -5.305625 32.314475 -10.614219 48.232444 C -12.38375 53.541037 -13.325156 64.982444 -19.813437 64.744162 C -18.516562 42.103537 -23.469687 14.623069 -3.891562 -2.595681 C -1.887656 -4.365213 1.17875 -3.185525 -0.0009375 -0.00193125 Z M -0.0009375 -0.00193125 " transform="matrix(1,0,0,-1,220.29,362.0801)"/>
<path style="fill:none;stroke-width:1;stroke-linecap:butt;stroke-linejoin:miter;stroke:rgb(0%,0%,0%);stroke-opacity:1;stroke-miterlimit:10;" d="M -0.00093125 0.00194375 C -2.122025 6.958975 -2.477494 16.748037 -4.598588 25.001944 C -6.723588 33.25585 -11.204056 39.861319 -20.63765 40.923819 C -19.340775 33.845694 -18.868119 24.884756 -16.9814 16.865225 C -15.094681 8.728506 -11.321244 1.650381 -3.536088 -1.533213 C -2.594681 -2.123056 -1.414994 -2.123056 -0.235306 -1.533213 C -0.00093125 -1.177744 0.116256 -0.591806 -0.00093125 0.00194375 Z M -0.00093125 0.00194375 " transform="matrix(1,0,0,-1,230.6689,410.7871)"/>
<path style="fill:none;stroke-width:1;stroke-linecap:butt;stroke-linejoin:miter;stroke:rgb(0%,0%,0%);stroke-opacity:1;stroke-miterlimit:10;" d="M 0.0019375 -0.00090625 C -0.236344 4.952219 -1.533219 12.030344 -7.076188 12.854562 C -8.0215 12.854562 -9.197281 12.264719 -9.197281 11.323312 C -11.912125 -5.77825 -10.732438 -22.407156 -8.0215 -40.098563 C -7.548844 -43.164969 -6.134781 -44.9345 -4.36525 -46.700125 C -1.767594 -49.297781 2.712875 -51.063406 2.712875 -48.352469 C 2.712875 -39.743094 1.177719 -31.489188 1.060531 -22.879813 C 0.470687 -11.438406 0.0019375 -0.00090625 0.0019375 -0.00090625 Z M 0.0019375 -0.00090625 " transform="matrix(1,0,0,-1,191.3965,295.5655)"/>
<path style="fill:none;stroke-width:1;stroke-linecap:butt;stroke-linejoin:miter;stroke:rgb(0%,0%,0%);stroke-opacity:1;stroke-miterlimit:10;" d="M 0.0000125 -0.00194375 C -5.542956 14.505869 -2.593738 39.271494 -19.6953 44.4629 C -16.628894 29.482431 -17.691394 9.552744 -4.363269 -1.060538 C -1.886706 -3.064444 0.941419 -2.712881 0.0000125 -0.00194375 Z M 0.0000125 -0.00194375 " transform="matrix(1,0,0,-1,205.1953,395.3379)"/>
<path style="fill:none;stroke-width:1;stroke-linecap:butt;stroke-linejoin:miter;stroke:rgb(0%,0%,0%);stroke-opacity:1;stroke-miterlimit:10;" d="M -0.00195 -0.00189375 C -0.00195 16.154356 2.005863 32.904356 -2.947262 48.943419 C -3.302731 50.005919 -4.716794 51.302794 -6.603512 51.654356 C -8.138669 51.654356 -9.080075 49.767637 -9.080075 48.943419 C -9.080075 31.724669 -14.861325 12.146544 -4.12695 -3.185488 C -3.537106 -4.126894 -2.947262 -4.59955 -1.767575 -4.365175 C -0.119137 -3.892519 -0.00195 -3.064394 -0.00195 -0.00189375 Z M -0.00195 -0.00189375 " transform="matrix(1,0,0,-1,173.4707,323.8692)"/>
<path style="fill:none;stroke-width:1;stroke-linecap:butt;stroke-linejoin:miter;stroke:rgb(0%,0%,0%);stroke-opacity:1;stroke-miterlimit:10;" d="M -0.000975 -0.0000125 C -5.309569 14.269519 -1.887694 36.324206 -15.92285 45.171862 C -14.387694 29.60155 -16.629881 7.902331 -1.532225 -2.476575 C -0.118162 -3.535169 0.588869 -1.296888 -0.000975 -0.0000125 Z M -0.000975 -0.0000125 " transform="matrix(1,0,0,-1,183.1416,378.9453)"/>
<path style="fill:none;stroke-width:1;stroke-linecap:butt;stroke-linejoin:miter;stroke:rgb(0%,0%,0%);stroke-opacity:1;stroke-miterlimit:10;" d="M -0.0009875 -0.0009375 C -2.594738 14.979531 7.901356 37.737344 -5.661144 46.467812 C -8.965831 48.588906 -6.485363 19.46 -7.786144 6.721719 C -8.137706 3.182656 -6.368175 -2.239219 -2.829113 -4.012656 C -1.180675 -4.836875 0.354481 -2.94625 -0.0009875 -0.0009375 Z M -0.0009875 -0.0009375 " transform="matrix(1,0,0,-1,157.1963,309.835)"/>
<path style="fill:none;stroke-width:1;stroke-linecap:butt;stroke-linejoin:miter;stroke:rgb(0%,0%,0%);stroke-opacity:1;stroke-miterlimit:10;" d="M 0.001025 -0.00191875 C -4.245069 14.271519 -0.354444 32.314487 -11.557569 43.638706 C -12.620069 44.6973 -13.209913 43.990269 -13.092725 43.044956 C -11.323194 27.599644 -14.741163 7.783237 -1.416944 -2.2402 C 0.473681 -3.654263 0.590869 -1.533169 0.001025 -0.00191875 Z M 0.001025 -0.00191875 " transform="matrix(1,0,0,-1,164.3896,363.2598)"/>
<path style="fill:none;stroke-width:1;stroke-linecap:butt;stroke-linejoin:miter;stroke:rgb(0%,0%,0%);stroke-opacity:1;stroke-miterlimit:10;" d="M 0.00099375 0.00005625 C -2.831038 14.035212 5.071306 33.375056 -7.428694 43.519587 C -8.725569 44.578181 -10.260725 45.523494 -10.260725 42.574275 C -10.260725 27.597712 -12.030256 11.085994 -4.127913 -2.714788 C -3.420881 -4.011663 -2.475569 -4.011663 -1.413069 -4.011663 C 0.352556 -4.011663 0.590837 -3.06635 0.00099375 0.00005625 Z M 0.00099375 0.00005625 " transform="matrix(1,0,0,-1,142.8076,298.2774)"/>
<path style="fill:none;stroke-width:1;stroke-linecap:butt;stroke-linejoin:miter;stroke:rgb(0%,0%,0%);stroke-opacity:1;stroke-miterlimit:10;" d="M 0.00005 0.00101875 C -3.890575 13.090862 1.5313 31.95805 -10.9687 40.922894 C -11.792919 41.512737 -12.382763 41.274456 -12.148388 39.743206 C -9.433544 25.590862 -12.49995 10.024456 -3.300731 -1.889606 C -1.5312 -3.655231 0.824269 -3.303669 0.00005 0.00101875 Z M 0.00005 0.00101875 " transform="matrix(1,0,0,-1,148.4687,348.9893)"/>
<path style="fill:none;stroke-width:1;stroke-linecap:butt;stroke-linejoin:miter;stroke:rgb(0%,0%,0%);stroke-opacity:1;stroke-miterlimit:10;" d="M 0.000975 0.00098125 L -4.127931 31.723637 C -4.717775 36.086919 -8.725587 41.629887 -12.381837 41.629887 C -14.741212 41.629887 -14.979494 39.625981 -14.624025 37.149419 L -9.315431 3.774419 C -8.491212 -1.651363 -4.95215 -6.721675 -1.178712 -5.541988 C 0.352538 -5.069331 0.473631 -3.420894 0.000975 0.00098125 Z M 0.000975 0.00098125 " transform="matrix(1,0,0,-1,127.3584,286.0127)"/>
<path style="fill:none;stroke-width:1;stroke-linecap:butt;stroke-linejoin:miter;stroke:rgb(0%,0%,0%);stroke-opacity:1;stroke-miterlimit:10;" d="M 0.000975 0.00001875 C -3.4209 12.855487 1.415037 30.308612 -10.143556 39.390644 C -11.084963 40.097675 -11.674806 39.742206 -11.674806 39.152362 C -11.674806 25.945331 -12.030275 10.378925 -3.772463 -1.8867 C -2.241213 -4.128888 0.590819 -3.421856 0.000975 0.00001875 Z M 0.000975 0.00001875 " transform="matrix(1,0,0,-1,133.6084,336.4883)"/>
<path style="fill:none;stroke-width:1;stroke-linecap:butt;stroke-linejoin:miter;stroke:rgb(0%,0%,0%);stroke-opacity:1;stroke-miterlimit:10;" d="M -0.00095625 -0.001925 L -5.422831 33.259794 C -5.895488 36.560575 -9.907206 42.927762 -13.563456 42.927762 C -14.977519 42.927762 -15.918925 41.158231 -15.567363 38.3262 L -9.668925 5.423856 C -8.606425 -0.474581 -6.016581 -2.595675 -3.774394 -3.302706 C -2.004863 -3.89255 0.354512 -2.357394 -0.00095625 -0.001925 Z M -0.00095625 -0.001925 " transform="matrix(1,0,0,-1,109.9033,277.6387)"/>
<path style="fill:none;stroke-width:1;stroke-linecap:butt;stroke-linejoin:miter;stroke:rgb(0%,0%,0%);stroke-opacity:1;stroke-miterlimit:10;" d="M -0.001025 0.00005625 L -4.95415 29.363337 C -5.895556 34.671931 -9.317431 38.562556 -12.501025 38.562556 C -14.622119 38.562556 -14.622119 36.914119 -14.387744 34.910212 L -9.200244 5.7774 C -8.254931 0.5899 -5.071337 -3.06635 -2.004931 -3.06635 C -0.352587 -3.06635 0.354444 -2.476506 -0.001025 0.00005625 Z M -0.001025 0.00005625 " transform="matrix(1,0,0,-1,117.9229,325.4024)"/>
<path style="fill:none;stroke-width:1;stroke-linecap:butt;stroke-linejoin:miter;stroke:rgb(0%,0%,0%);stroke-opacity:1;stroke-miterlimit:10;" d="M -0.001925 -0.000925 C -0.001925 3.893606 -0.470675 7.311575 -2.123019 6.956106 C -4.244112 6.487356 -4.951144 3.893606 -4.951144 2.006887 C -7.076144 -20.637644 -10.14255 -42.926706 -17.451144 -64.274363 C -0.943331 -47.528269 -2.83005 -21.817331 -0.001925 -0.000925 Z M -0.001925 -0.000925 " transform="matrix(1,0,0,-1,448.6113,270.3272)"/>
<path style="fill:none;stroke-width:1;stroke-linecap:butt;stroke-linejoin:miter;stroke:rgb(0%,0%,0%);stroke-opacity:1;stroke-miterlimit:10;" d="M 0.00193125 -0.00193125 C 0.236306 0.474631 0.236306 0.826194 0.236306 1.181662 C -13.564475 -10.7324 -20.283225 -29.720681 -32.197287 -43.755838 C -21.818381 -39.38865 -4.834006 -11.912088 0.00193125 -0.00193125 Z M 0.00193125 -0.00193125 " transform="matrix(1,0,0,-1,432.4551,342.2676)"/>
<path style="fill:none;stroke-width:1;stroke-linecap:butt;stroke-linejoin:miter;stroke:rgb(0%,0%,0%);stroke-opacity:1;stroke-miterlimit:10;" d="M -0.0000125 -0.0019125 C -0.0000125 7.548869 -4.953138 5.779337 -5.89845 -2.005819 C -9.199231 -28.658163 -17.453138 -53.072225 -27.007825 -77.603475 C -10.378919 -63.919881 -0.0000125 -29.013631 -0.0000125 -0.0019125 Z M -0.0000125 -0.0019125 " transform="matrix(1,0,0,-1,437.0547,278.8184)"/>
<path style="fill:none;stroke-width:1;stroke-linecap:butt;stroke-linejoin:miter;stroke:rgb(0%,0%,0%);stroke-opacity:1;stroke-miterlimit:10;" d="M 0.0009875 -0.0009375 C 1.059581 1.534219 2.356456 3.655312 1.180675 3.065469 C -13.916981 -5.188438 -22.999012 -22.645469 -34.909169 -35.497031 C -17.690419 -30.543906 -10.495106 -12.500938 0.0009875 -0.0009375 Z M 0.0009875 -0.0009375 " transform="matrix(1,0,0,-1,410.9912,364.085)"/>
<path style="fill:none;stroke-width:1;stroke-linecap:butt;stroke-linejoin:miter;stroke:rgb(0%,0%,0%);stroke-opacity:1;stroke-miterlimit:10;" d="M 0.0000125 -0.00095 C -0.9453 10.260769 -7.429675 4.7178 -10.140613 -5.18845 C -17.5703 -32.31345 -29.484363 -56.606419 -41.6328 -81.020481 C -20.7578 -72.411106 1.886731 -21.110325 0.0000125 -0.00095 Z M 0.0000125 -0.00095 " transform="matrix(1,0,0,-1,421.1328,296.1553)"/>
<path style="fill:none;stroke-width:1;stroke-linecap:butt;stroke-linejoin:miter;stroke:rgb(0%,0%,0%);stroke-opacity:1;stroke-miterlimit:10;" d="M 0.000975 0.00005 C 1.180663 1.179737 1.887694 2.949269 0.708006 2.476612 C -14.624025 -2.714794 -25.354494 -15.214794 -34.791994 -27.480419 C -18.635744 -25.710888 -10.612306 -10.378856 0.000975 0.00005 Z M 0.000975 0.00005 " transform="matrix(1,0,0,-1,383.9834,382.7188)"/>
<path style="fill:none;stroke-width:1;stroke-linecap:butt;stroke-linejoin:miter;stroke:rgb(0%,0%,0%);stroke-opacity:1;stroke-miterlimit:10;" d="M -0.0009875 -0.00094375 C 4.952138 12.147494 1.534169 18.518587 -6.016612 13.799837 C -13.442394 9.198275 -19.813487 0.823275 -23.704112 -6.840788 C -30.661144 -20.403288 -34.083019 -32.7861 -41.157237 -46.110319 C -43.282237 -50.122038 -45.524425 -54.133756 -46.348644 -58.731413 C -15.801769 -57.196256 -7.782237 -18.985319 -0.0009875 -0.00094375 Z M -0.0009875 -0.00094375 " transform="matrix(1,0,0,-1,386.6963,333.7764)"/>
<path style="fill:none;stroke-width:1;stroke-linecap:butt;stroke-linejoin:miter;stroke:rgb(0%,0%,0%);stroke-opacity:1;stroke-miterlimit:10;" d="M -0.00193125 -0.0018875 C -14.033181 1.650456 -26.064431 -9.79095 -30.072244 -22.29095 C -21.580056 -23.705013 -5.306619 -7.783138 -0.00193125 -0.0018875 Z M -0.00193125 -0.0018875 " transform="matrix(1,0,0,-1,351.6699,395.9278)"/>
<path style="fill:none;stroke-width:1;stroke-linecap:butt;stroke-linejoin:miter;stroke:rgb(0%,0%,0%);stroke-opacity:1;stroke-miterlimit:10;" d="M 0.0009875 0.0019375 C -4.362294 9.904281 -22.526356 5.427719 -31.018544 -4.244156 C -32.432606 -5.8965 -32.905262 -7.900406 -32.784169 -10.142594 C -31.842762 -34.556656 -33.729481 -37.974625 -28.420887 -43.755875 C -24.530262 -47.998063 -10.495106 -44.697281 -7.901356 -39.626969 C -3.3037 -30.779313 2.47755 -5.658219 0.0009875 0.0019375 Z M 0.0009875 0.0019375 " transform="matrix(1,0,0,-1,329.6162,353.3535)"/>
<path style="fill:none;stroke-width:1;stroke-linecap:butt;stroke-linejoin:miter;stroke:rgb(0%,0%,0%);stroke-opacity:1;stroke-miterlimit:10;" d="M 0.001 0.000975 C -7.549781 2.594725 -13.916969 1.770506 -17.334938 -4.479494 C -19.221656 -8.018556 -21.9365 -13.092775 -20.756813 -22.288088 C -20.166969 -26.88965 -13.678688 -22.877931 -11.557594 -21.463869 C -4.834938 -16.9834 -2.358375 -6.956056 0.825219 -1.651369 C 1.297875 -0.82715 1.297875 -0.471681 0.001 0.000975 Z M 0.001 0.000975 " transform="matrix(1,0,0,-1,314.874,403.8291)"/>
<path style="fill:none;stroke-width:1;stroke-linecap:butt;stroke-linejoin:miter;stroke:rgb(0%,0%,0%);stroke-opacity:1;stroke-miterlimit:10;" d="M -0.0009875 0 C -2.004894 -1.179688 -3.657238 -0.234375 -4.129894 1.886719 C -4.129894 1.886719 -5.778331 14.625 -12.3838 33.492188 C -15.684581 42.929688 -20.754894 54.367188 -25.829113 65.925781 L -56.372081 135.269531 C -57.551769 138.101562 -58.141613 140.695312 -58.2588 143.175781 C -58.493175 147.652344 -56.606456 152.371094 -52.481456 155.320312 C -50.711925 156.617188 -48.469738 157.441406 -45.875988 157.796875 L 5.89745 165.578125 C 6.604481 170.179688 10.850575 175.015625 16.276356 175.722656 L 62.858387 182.09375 C 68.874012 182.914062 73.827137 179.96875 78.073231 175.960938 L 116.166981 181.617188 C 125.245106 182.914062 131.733387 175.839844 135.389637 168.175781 " transform="matrix(1,0,0,-1,177.0088,258.0625)"/>
<g clip-path="url(#clip1)" clip-rule="nonzero">
<path style="fill:none;stroke-width:1;stroke-linecap:butt;stroke-linejoin:miter;stroke:rgb(0%,0%,0%);stroke-opacity:1;stroke-miterlimit:10;" d="M 0.00095 -0.00189375 L 35.731419 45.404356 L 34.790012 22.173887 C 81.848606 58.380919 108.145481 121.236387 243.653294 121.236387 " transform="matrix(1,0,0,-1,386.3428,175.7442)"/>
</g>
<path style="fill:none;stroke-width:1;stroke-linecap:butt;stroke-linejoin:miter;stroke:rgb(0%,0%,0%);stroke-opacity:1;stroke-miterlimit:10;" d="M -0.00098125 -0.0009375 L -7.0752 14.858437 C -9.317387 19.577187 -13.680669 23.467812 -18.633794 22.643594 L -56.961919 16.155312 C -62.622075 15.213906 -64.747075 23.233437 -71.821294 22.170937 L -108.379887 16.510781 " transform="matrix(1,0,0,-1,301.0752,113.71)"/>
<path style="fill:none;stroke-width:1;stroke-linecap:butt;stroke-linejoin:miter;stroke:rgb(0%,0%,0%);stroke-opacity:1;stroke-miterlimit:10;" d="M 0.00193125 0.0019375 L -2.712913 4.951156 C -5.189475 9.787094 -9.787131 13.798812 -16.037131 12.8535 L -52.716819 7.076156 C -61.209006 5.779281 -61.916038 13.916 -67.459006 13.091781 L -113.92385 6.365219 C -117.345725 6.13475 -119.822288 3.185531 -119.822288 -1.181656 C -119.822288 -2.478531 -120.056663 -3.185563 -122.181663 -3.537125 L -175.841819 -12.1465 C -178.908225 -12.619156 -181.146506 -14.2715 -182.443381 -16.86525 C -183.033225 -18.044938 -183.150413 -19.459 -183.150413 -19.459 " transform="matrix(1,0,0,-1,310.3926,95.666)"/>
<path style="fill:none;stroke-width:1;stroke-linecap:butt;stroke-linejoin:miter;stroke:rgb(0%,0%,0%);stroke-opacity:1;stroke-miterlimit:10;" d="M -0.00190625 0.00101875 C 6.72075 -6.487262 13.916063 -12.502887 21.111375 -18.518512 C 13.091844 -15.213825 5.306688 -10.143512 -1.888625 -3.893512 " transform="matrix(1,0,0,-1,356.623,152.8643)"/>
<path style="fill:none;stroke-width:1;stroke-linecap:butt;stroke-linejoin:miter;stroke:rgb(0%,0%,0%);stroke-opacity:1;stroke-miterlimit:10;" d="M -0.001925 -0.001925 C -1.2988 0.353544 -2.595675 0.8262 -3.775362 1.181669 L -15.685519 4.9512 C -21.345675 6.724637 -33.259737 8.021512 -51.064425 4.130887 C -59.794894 2.240262 -87.626925 -4.716769 -115.341769 -11.556613 " transform="matrix(1,0,0,-1,259.7988,143.0762)"/>
<g clip-path="url(#clip2)" clip-rule="nonzero">
<path style="fill:none;stroke-width:1;stroke-linecap:butt;stroke-linejoin:miter;stroke:rgb(0%,0%,0%);stroke-opacity:1;stroke-miterlimit:10;" d="M -0.00098125 -0.00189375 C 86.682613 147.533262 143.053706 69.345762 277.499019 100.009825 " transform="matrix(1,0,0,-1,342.8252,161.1192)"/>
</g>
<path style="fill:none;stroke-width:1;stroke-linecap:butt;stroke-linejoin:miter;stroke:rgb(0%,0%,0%);stroke-opacity:1;stroke-miterlimit:10;" d="M 0.00099375 0.0000125 C 2.477556 -6.839831 3.891619 -12.265613 1.649431 -18.6328 C -0.116194 -23.8203 -7.784163 -26.179675 -13.561506 -28.304675 C -14.858381 -29.011706 -15.448225 -27.124988 -16.038069 -26.179675 C -16.038069 -26.179675 -15.565413 -14.152331 -24.530256 5.89845 L -27.124006 11.675794 " transform="matrix(1,0,0,-1,176.1826,238.3672)"/>
<path style="fill:none;stroke-width:1;stroke-linecap:butt;stroke-linejoin:miter;stroke:rgb(0%,0%,0%);stroke-opacity:1;stroke-miterlimit:10;" d="M 0.0009875 0.000075 L -17.690419 39.507887 C -18.39745 41.039137 -18.752919 42.691481 -18.752919 44.226637 L 29.485362 51.773512 L 40.450206 59.793044 " transform="matrix(1,0,0,-1,145.9912,161.8282)"/>
<path style="fill:none;stroke-width:1;stroke-linecap:butt;stroke-linejoin:miter;stroke:rgb(0%,0%,0%);stroke-opacity:1;stroke-miterlimit:10;" d="M -0.00003125 0.000975 L -15.44925 34.790037 C -16.394563 36.79785 -16.863313 38.801756 -17.101594 40.805662 C -17.453156 43.872069 -16.628938 48.590819 -14.976594 50.946287 L -4.246125 60.383787 " transform="matrix(1,0,0,-1,123.2305,167.0166)"/>
<g clip-path="url(#clip3)" clip-rule="nonzero">
<path style="fill:none;stroke-width:1;stroke-linecap:butt;stroke-linejoin:miter;stroke:rgb(0%,0%,0%);stroke-opacity:1;stroke-miterlimit:10;" d="M -0.00004375 -0.0018875 C -278.089888 -44.580013 -262.757856 -167.8222 -299.671919 -208.861263 L -316.300825 -192.115169 L -315.476606 -204.497981 " transform="matrix(1,0,0,-1,584.4727,-51.6347)"/>
</g>
<g clip-path="url(#clip4)" clip-rule="nonzero">
<path style="fill:none;stroke-width:1;stroke-linecap:butt;stroke-linejoin:miter;stroke:rgb(0%,0%,0%);stroke-opacity:1;stroke-miterlimit:10;" d="M 0.001925 -0.0009375 C -110.033231 53.186562 -139.869169 5.776406 -183.3887 -17.219688 L -165.580106 -29.485313 L -191.998075 -31.016563 " transform="matrix(1,0,0,-1,611.9512,154.3975)"/>
</g>
</g>
</svg>
