<?xml version="1.0" encoding="UTF-8" standalone="no"?><!DOCTYPE svg PUBLIC "-//W3C//DTD SVG 1.1//EN" "http://www.w3.org/Graphics/SVG/1.1/DTD/svg11.dtd"><svg width="100%" height="100%" viewBox="0 0 539 482" version="1.1" xmlns="http://www.w3.org/2000/svg" xmlns:xlink="http://www.w3.org/1999/xlink" xml:space="preserve" xmlns:serif="http://www.serif.com/" style="fill-rule:evenodd;clip-rule:evenodd;stroke-miterlimit:10;"><rect id="Page-5" serif:id="Page 5" x="0" y="0" width="538.583" height="481.89" style="fill:none;"/><g id="Layer-1" serif:id="Layer 1"><path d="M420.165,131.532l-0,-46.863c-0,-26.149 -19.202,-45.164 -45.605,-45.164l-210.537,-0c-26.403,-0 -45.605,19.015 -45.605,45.164l-0,46.863l301.747,-0Z" style="fill:none;fill-rule:nonzero;stroke:#000;stroke-width:1px;"/><path d="M169.054,100.854c7.462,-0 13.567,-6.059 13.567,-13.801c-0,-7.406 -6.105,-13.465 -13.567,-13.465c-7.801,-0 -13.906,6.059 -13.906,13.465c-0,7.742 6.105,13.801 13.906,13.801Z" style="fill:none;fill-rule:nonzero;stroke:#000;stroke-width:1px;"/><path d="M369.868,102.559c7.462,-0 13.567,-6.059 13.567,-13.801c0,-7.406 -6.105,-13.465 -13.567,-13.465c-7.801,-0 -13.906,6.059 -13.906,13.465c0,7.742 6.105,13.801 13.906,13.801Z" style="fill:none;fill-rule:nonzero;stroke:#000;stroke-width:1px;"/><path d="M409.241,379.174c-10.582,0 -29.016,-1.021 -40.281,8.51c-10.924,9.531 -8.193,30.636 -7.852,50.719l59.057,-59.91l0,-245.768" style="fill:none;fill-rule:nonzero;stroke:#000;stroke-width:1px;"/><path d="M118.417,133.407l0,263.672c0,26.23 19.202,45.307 45.605,45.307l210.537,-0c26.403,-0 45.605,-19.077 45.605,-45.307l0,-10.22" style="fill:none;fill-rule:nonzero;stroke:#000;stroke-width:1px;"/></g></svg>