<?xml version="1.0" encoding="UTF-8" standalone="no"?>
<!DOCTYPE svg PUBLIC "-//W3C//DTD SVG 1.1//EN" "http://www.w3.org/Graphics/SVG/1.1/DTD/svg11.dtd">
<svg width="100%" height="100%" viewBox="0 0 2183 1148" version="1.1" xmlns="http://www.w3.org/2000/svg" xmlns:xlink="http://www.w3.org/1999/xlink" xml:space="preserve" xmlns:serif="http://www.serif.com/" style="fill-rule:evenodd;clip-rule:evenodd;stroke-miterlimit:10;">
    <g transform="matrix(1,0,0,1,-12277.6,-1451.38)">
        <g id="Page-12" serif:id="Page 12" transform="matrix(2.66667,0,0,2.66667,12277.6,1451.38)">
            <rect x="0" y="0" width="818.504" height="430.234" style="fill:none;"/>
            <g id="Layer-1" serif:id="Layer 1">
                <rect x="0" y="0" width="818.504" height="430.234" style="fill:rgb(240,95,0);"/>
                <g transform="matrix(1,0,0,1,784.663,286.517)">
                    <path d="M0,115.832L0,123.75C0,124.725 -0.367,125.09 -1.102,125.576C-4.531,127.402 -7.959,128.988 -12.122,128.988C-88.651,128.865 -165.057,128.865 -241.586,128.988C-245.626,128.988 -249.055,127.402 -252.361,125.455C-252.851,125.211 -253.463,124.602 -253.463,123.627L-253.463,115.832L-225.545,115.832L-225.545,-7.918C-225.545,-11.572 -223.831,-13.156 -220.158,-13.156L-33.183,-13.156C-29.387,-13.156 -27.795,-11.572 -27.795,-7.553L-27.795,115.832L0,115.832Z" style="fill-rule:nonzero;"/>
                </g>
                <g transform="matrix(1,0,0,1,559.852,273.97)">
                    <path d="M0,128.379L196.158,128.379L196.158,4.871C196.158,1.096 195.056,0 191.138,0L3.796,0C1.469,0.121 0,1.584 0,4.02L0,128.379Z" style="fill:rgb(240,95,0);fill-rule:nonzero;stroke:black;stroke-width:1px;"/>
                </g>
                <g transform="matrix(1,0,0,1,637.729,410.51)">
                    <path d="M0,-7.307L-105.793,-7.307L-105.793,0L146.199,0L146.199,-7.307L40.529,-7.307C39.672,-3.897 38.938,-3.532 36.122,-3.532L4.652,-3.532C1.224,-3.532 0.734,-4.018 0,-7.307" style="fill:rgb(240,95,0);fill-rule:nonzero;"/>
                </g>
                <g transform="matrix(-0.0851466,0.996368,0.996368,0.0851466,661.151,385.64)">
                    <path d="M19.41,-20.867C21.926,-20.283 22.35,-19.509 22.172,-17.435L19.41,14.895C19.243,16.847 18.482,17.15 16.126,17.562L19.41,-20.867Z" style="fill-rule:nonzero;"/>
                </g>
                <g transform="matrix(1,0,0,1,568.791,284.08)">
                    <path d="M0,108.646L178.404,108.646L178.526,1.705C178.526,0.365 177.914,0 176.567,0.121L1.225,0.121C0,0.121 0,0.486 0,1.46L0,108.646Z" style="fill:none;fill-rule:nonzero;stroke:black;stroke-width:1px;"/>
                </g>
                <g transform="matrix(1,0,0,1,761.031,406.855)">
                    <path d="M0,0.002C0,0.488 0.49,0.854 0.979,0.854L8.081,0.854C8.571,0.854 9.061,0.488 9.061,0.002C9.061,-0.486 8.571,-0.852 8.081,-0.852L0.979,-0.852C0.49,-0.852 0,-0.486 0,0.002" style="fill-rule:nonzero;"/>
                </g>
                <g transform="matrix(1,0,0,1,418.524,377.526)">
                    <path d="M0,26.651C10.392,24.651 23.295,28.149 24.301,34.145C24.971,37.975 12.737,39.307 4.525,37.975L-10.558,35.643L-11.061,19.489C-3.352,9.995 10.894,-10.158 13.742,-12.656C16.591,-5.161 23.798,-0.663 28.826,-3.829L17.933,27.649" style="fill:none;fill-rule:nonzero;stroke:black;stroke-width:1px;"/>
                </g>
                <g transform="matrix(0.580428,-0.814311,-0.814311,-0.580428,438.561,364.014)">
                    <path d="M-2.059,3.997L7.757,3.997" style="fill:none;fill-rule:nonzero;stroke:black;stroke-width:1px;"/>
                </g>
                <g transform="matrix(-0.662829,0.748771,0.748771,0.662829,570.798,290.174)">
                    <path d="M-25.827,-74.477C-29.145,-72.489 -32.531,-69.668 -32.425,-65.769C-32.316,-61.869 -28.736,-51.089 -25.827,-47.843C-2.629,-29.32 28.278,-22.776 36.586,-22.361C44.892,-21.947 45.852,-23.783 48.128,-25.348" style="fill:none;fill-rule:nonzero;stroke:black;stroke-width:1px;"/>
                </g>
                <g transform="matrix(0.894274,0.44752,0.44752,-0.894274,492.916,316.083)">
                    <path d="M7.868,-1.823C15.728,-1.801 22.107,6.047 22.128,15.742C22.074,25.586 15.728,33.398 7.868,33.377C-0.142,33.281 -6.521,25.431 -6.467,15.586C-6.489,5.892 -0.142,-1.92 7.868,-1.823Z" style="fill:none;fill-rule:nonzero;stroke:black;stroke-width:1px;"/>
                </g>
                <g transform="matrix(-0.803015,0.595959,0.595959,0.803015,469.087,385.95)">
                    <path d="M-72.811,-24.066C-47.88,-17.471 -17.172,-18.275 7.955,-24.067" style="fill:none;fill-rule:nonzero;stroke:black;stroke-width:1px;"/>
                </g>
                <g transform="matrix(0.719973,-0.694003,-0.694003,-0.719973,468.502,375.655)">
                    <path d="M-8.669,21.485L53.248,21.485" style="fill:none;fill-rule:nonzero;stroke:black;stroke-width:1px;"/>
                </g>
                <g transform="matrix(1,0,0,1,554.106,231.963)">
                    <path d="M0,4.498C1.508,1.166 6.2,-5.496 13.239,-5.496C20.948,-5.496 27.651,1.666 33.183,4.998L39.216,9.994" style="fill:none;fill-rule:nonzero;stroke:black;stroke-width:1px;"/>
                </g>
                <g transform="matrix(1,0,0,1,612.092,118.375)">
                    <path d="M0,8.994C-2.515,4.998 -4.19,2.666 -8.883,0L-13.407,2.332" style="fill:none;fill-rule:nonzero;stroke:black;stroke-width:1px;"/>
                </g>
                <g transform="matrix(-0.699901,0.71424,0.71424,0.699901,562.481,137.301)">
                    <path d="M26.579,-39.649C29.895,-38.512 32.144,-38.186 35.817,-36.463C40.279,-23.408 32.105,7.064 26.579,10.563C22.931,12.856 10.141,8.536 2.188,2.853C0.703,-6.581 2.007,-22.9 2.101,-26.328" style="fill:none;fill-rule:nonzero;stroke:black;stroke-width:1px;"/>
                </g>
                <g transform="matrix(1,0,0,1,498.801,70.5759)">
                    <path d="M0,64.455C2.849,63.621 5.194,62.455 7.541,61.123C20.948,53.295 38.378,50.963 41.06,49.965C44.913,48.465 43.572,34.809 43.405,29.478C42.902,16.988 30.165,0 1.173,3.496C-1.677,3.83 -4.525,5.162 -7.206,7.328" style="fill:none;fill-rule:nonzero;stroke:black;stroke-width:1px;"/>
                </g>
                <g transform="matrix(1,0,0,1,472.656,104.885)">
                    <path d="M0,10.492C2.179,12.824 3.352,14.156 9.72,14.156C19.104,14.156 26.312,5.996 32.68,2.832C45.752,-3.664 51.953,11.492 68.042,2.332" style="fill:none;fill-rule:nonzero;stroke:black;stroke-width:1px;"/>
                </g>
                <g transform="matrix(1,0,0,1,479.862,97.0562)">
                    <path d="M0,-2.164C3.185,2.332 7.039,5.164 12.402,5.164C23.63,5.164 36.87,-1.832 42.233,-3.83C50.612,-6.994 54.802,-7.328 58.154,-6.328" style="fill:none;fill-rule:nonzero;stroke:black;stroke-width:1px;"/>
                </g>
                <g transform="matrix(1,0,0,1,543.882,55.5853)">
                    <path d="M0,47.801C1.005,39.807 5.53,33.311 2.011,23.983C-2.011,13.324 -12.737,1.166 -26.312,0.5C-36.87,0 -44.914,6.162 -44.579,17.489" style="fill:none;fill-rule:nonzero;stroke:black;stroke-width:1px;"/>
                </g>
                <g transform="matrix(0.393111,0.919491,0.919491,-0.393111,614.121,95.1509)">
                    <path d="M16.084,-16.374C13.705,-11.346 7.567,-1.979 9.938,3.568C14.275,4.814 17.523,10.715 16.084,14.976C25.281,18.698 29.249,22.469 31.784,19.927C34.321,17.385 35.083,14.507 33.194,9.665" style="fill:none;fill-rule:nonzero;stroke:black;stroke-width:1px;"/>
                </g>
                <g transform="matrix(1,0,0,1,616.616,354.379)">
                    <path d="M0,-216.85L-41.227,-23.319L-35.529,0L-21.619,-20.155L9.553,-215.518L0,-216.85Z" style="fill:rgb(240,95,0);fill-rule:nonzero;stroke:black;stroke-width:1px;"/>
                </g>
                <g transform="matrix(0.180181,-0.983633,-0.983633,-0.180181,697.857,276.141)">
                    <path d="M-83.496,100.181L120.198,100.181" style="fill:none;fill-rule:nonzero;stroke:black;stroke-width:1px;"/>
                </g>
                <g transform="matrix(1,0,0,1,637.397,125.039)">
                    <path d="M0,10.158C0,10.158 6.871,12.824 7.709,10.492C8.882,7.326 11.396,6.66 12.569,8.826C13.742,10.992 13.575,14.988 10.055,15.322C2.849,15.988 -3.184,13.49 -9.385,12.824C-21.452,11.324 -36.032,8.158 -42.065,5.494C-45.082,4.162 -48.266,-0.834 -46.255,-2.832C-43.238,-5.83 -40.557,-4.498 -39.886,-3.498C-39.049,-2.332 -40.892,-1.666 -39.886,-0.168C-38.881,1.332 -29.831,3.996 -27.82,3.33" style="fill:none;fill-rule:nonzero;stroke:black;stroke-width:1px;"/>
                </g>
                <g transform="matrix(0.875476,-0.483261,-0.483261,-0.875476,633.43,130.389)">
                    <path d="M-0.751,2.914C3.211,0.727 8.212,-1.655 11.309,2.914" style="fill:none;fill-rule:nonzero;stroke:black;stroke-width:1px;"/>
                </g>
                <g transform="matrix(0.907538,-0.41997,-0.41997,-0.907538,631.013,134.381)">
                    <path d="M-0.425,2.234C3.376,0.474 7.04,-1.587 10.285,2.234" style="fill:none;fill-rule:nonzero;stroke:black;stroke-width:1px;"/>
                </g>
                <g transform="matrix(1,0,0,1,614.437,137.195)">
                    <path d="M0,-4.83L3.353,-4.83C5.698,-2.164 10.391,0.5 14.413,0.5C19.943,0.5 22.289,-0.832 23.463,-5.33" style="fill:none;fill-rule:nonzero;stroke:black;stroke-width:1px;"/>
                </g>
                <g transform="matrix(0.941066,0.338223,0.338223,-0.941066,619.995,98.367)">
                    <path d="M4.736,-1.861C4.477,2.825 2.427,9.521 0.737,14.222C-1.572,20.648 -0.379,24.262 4.736,25.393C10.852,26.707 11.675,20.455 11.765,16.239C11.822,11.129 12.656,1.871 12.802,-0.023" style="fill:none;fill-rule:nonzero;stroke:black;stroke-width:1px;"/>
                </g>
                <g transform="matrix(1,0,0,1,589.299,167.342)">
                    <path d="M0,-41.639L-23.965,-28.815C-17.932,-23.817 -14.078,-13.825 -13.742,0L20.111,-30.813" style="fill:none;fill-rule:nonzero;stroke:black;stroke-width:1px;"/>
                </g>
                <g transform="matrix(1,0,0,1,599.354,235.295)">
                    <path d="M0,-34.811C-4.022,-26.983 -12.234,-17.823 -2.849,-8.829C-4.19,-3.332 -6.871,-1.166 -9.217,0" style="fill:none;fill-rule:nonzero;stroke:black;stroke-width:1px;"/>
                </g>
                <g transform="matrix(0.801809,0.59758,0.59758,-0.801809,593.23,188.627)">
                    <path d="M-1.574,-4.746L14.31,-4.746" style="fill:none;fill-rule:nonzero;stroke:black;stroke-width:1px;"/>
                </g>
                <g transform="matrix(0.768161,0.640257,0.640257,-0.768161,620.039,200.822)">
                    <path d="M4.749,-10.781L31.801,-10.781C31.999,-8.663 32.752,-8.255 32.422,-4.195C32.09,-0.134 34.893,6.973 22.993,6.594L-6.032,5.818" style="fill:none;fill-rule:nonzero;stroke:black;stroke-width:1px;"/>
                </g>
                <g transform="matrix(0.833624,0.552332,0.552332,-0.833624,601.161,178.277)">
                    <path d="M-0.552,-1.832L6.082,-1.832" style="fill:none;fill-rule:nonzero;stroke:black;stroke-width:1px;"/>
                </g>
                <g transform="matrix(0.99684,-0.0794314,-0.0794314,-0.99684,516.869,183.999)">
                    <path d="M0.436,2.976C30.9,-13.486 51.993,-12.494 75.923,2.976" style="fill:none;fill-rule:nonzero;stroke:black;stroke-width:1px;"/>
                </g>
                <g transform="matrix(-0.998533,0.054138,0.054138,0.998533,517.395,188.812)">
                    <path d="M-74.128,-14.314C-45.633,0.487 -21.163,-6.344 -0.279,-14.314" style="fill:none;fill-rule:nonzero;stroke:black;stroke-width:1px;"/>
                </g>
                <g transform="matrix(0.796032,0.605254,0.605254,-0.796032,615.977,250.943)">
                    <path d="M-2.469,-7.327C5.523,-7.318 13.75,-7.339 21.742,-7.327" style="fill:none;fill-rule:nonzero;stroke:black;stroke-width:1px;"/>
                </g>
                <g transform="matrix(-0.624972,-0.780648,-0.780648,0.624972,651.468,223.865)">
                    <path d="M-16.122,7.745L3.721,7.745" style="fill:none;fill-rule:nonzero;stroke:black;stroke-width:1px;"/>
                </g>
                <g transform="matrix(0.784586,0.62002,0.62002,-0.784586,628.774,233.202)">
                    <path d="M-3.819,-10.992L31.638,-10.992" style="fill:none;fill-rule:nonzero;stroke:black;stroke-width:1px;"/>
                </g>
                <g transform="matrix(1,0,0,1,642.258,70.4074)">
                    <path d="M0,36.975C5.529,27.483 15.251,13.991 14.078,9.995C12.904,5.996 4.524,1.332 -0.67,0.666C-5.866,0 -8.882,1.5 -9.889,4.664" style="fill:none;fill-rule:nonzero;stroke:black;stroke-width:1px;"/>
                </g>
                <g transform="matrix(-0.329941,-0.944002,-0.944002,0.329941,662.914,66.3701)">
                    <path d="M-9.362,9.176C-0.499,3.239 4.452,6.3 7.398,9.176" style="fill:none;fill-rule:nonzero;stroke:black;stroke-width:1px;"/>
                </g>
                <g transform="matrix(-0.998526,-0.0542738,-0.0542738,0.998526,602.251,81.8187)">
                    <path d="M-21.468,0.583L0.016,0.583" style="fill:none;fill-rule:nonzero;stroke:black;stroke-width:1px;"/>
                </g>
                <g transform="matrix(-0.0150984,0.999886,0.999886,0.0150984,611.906,101.054)">
                    <path d="M-16.398,-17.158C-4.584,-16.31 7.234,-15.795 16.916,-17.158" style="fill:none;fill-rule:nonzero;stroke:black;stroke-width:1px;"/>
                </g>
                <g transform="matrix(1,0,0,1,551.759,21.9411)">
                    <path d="M0,65.289C7.039,66.955 18.101,71.783 21.284,70.287C24.468,68.787 33.183,60.627 34.188,57.461C35.194,54.297 36.702,28.314 34.356,23.818C32.01,19.32 27.317,6.498 24.636,4.666C21.954,2.832 6.871,-6.16 3.017,-6.494L-10.726,-3.496C-16.424,1.5 -20.446,7.662 -22.792,14.824L-18.435,37.309" style="fill:none;fill-rule:nonzero;stroke:black;stroke-width:1px;"/>
                </g>
                <g transform="matrix(1,0,0,1,572.708,32.6011)">
                    <path d="M0,55.961L-2.347,23.484L-11.564,0" style="fill:none;fill-rule:nonzero;stroke:black;stroke-width:1px;"/>
                </g>
                <g transform="matrix(1,0,0,1,581.423,56.0854)">
                    <path d="M0,-10.492L-11.062,0L-35.864,-2.832" style="fill:none;fill-rule:nonzero;stroke:black;stroke-width:1px;"/>
                </g>
                <g transform="matrix(1,0,0,1,552.765,68.0778)">
                    <path d="M0,2.164L18.603,3.664L30.837,-4.664L30.837,-1.832L18.77,6.828L0.67,5.328L0,2.164Z" style="fill-rule:nonzero;stroke:black;stroke-width:1px;"/>
                </g>
                <g transform="matrix(1,0,0,1,584.272,73.7423)">
                    <path d="M0,-35.479C16.759,-24.487 15.921,-2.168 15.418,5.494C14.748,15.488 33.183,-7.331 35.362,-9.163C37.54,-10.995 54.802,-25.985 56.646,-29.483C58.489,-32.981 50.612,-39.475 43.406,-42.139C36.702,-44.637 17.262,-50.967 0,-35.479Z" style="fill:none;fill-rule:nonzero;stroke:black;stroke-width:1px;"/>
                </g>
                <g transform="matrix(0.152235,-0.988344,-0.988344,-0.152235,623.464,55.0339)">
                    <path d="M-10.164,20.794C4.722,14.948 15.846,10.556 22.864,20.794" style="fill:none;fill-rule:nonzero;stroke:black;stroke-width:1px;"/>
                </g>
                <g transform="matrix(1,0,0,1,601.701,33.1009)">
                    <path d="M0,44.137C7.877,38.141 14.412,31.313 15.082,26.315C17.429,6.994 26.312,11.158 26.312,0" style="fill:none;fill-rule:nonzero;stroke:black;stroke-width:1px;"/>
                </g>
                <g transform="matrix(1,0,0,1,615.108,54.5858)">
                    <path d="M0,16.656C8.715,16.656 19.942,16.488 24.971,15.324C30.165,14.158 35.193,10.494 35.528,6.83C35.696,4.498 20.445,0.334 19.607,0" style="fill:none;fill-rule:nonzero;stroke:black;stroke-width:1px;"/>
                </g>
                <g transform="matrix(1,0,0,1,589.299,123.372)">
                    <path d="M0,-25.316C-12.568,-19.82 -15.251,-13.658 -14.413,0C-16.927,-15.324 -22.457,-17.488 -41.897,-15.99" style="fill:none;fill-rule:nonzero;stroke:black;stroke-width:1px;"/>
                </g>
                <g transform="matrix(1,0,0,1,548.742,96.0582)">
                    <path d="M0,-0.334C8.212,2.332 18.435,11.324 24.636,9.492C30.837,7.66 37.205,-2.998 43.573,-11.658" style="fill:none;fill-rule:nonzero;stroke:black;stroke-width:1px;"/>
                </g>
                <g transform="matrix(0.901086,-0.43364,-0.43364,-0.901086,676.067,263.904)">
                    <path d="M-6.739,-2.897C-4.934,0.855 -3.226,5.948 -2.991,9.531C-2.748,16.991 -4.685,24.949 -6.739,26.86C-11.343,24.639 -18.84,16.787 -19.077,8.955C-19.187,6.791 -18.847,4.408 -18.137,2.404" style="fill:none;fill-rule:nonzero;stroke:black;stroke-width:1px;"/>
                </g>
                <g transform="matrix(-0.624777,0.780803,0.780803,0.624777,416.935,363.722)">
                    <path d="M-209.852,-100.846C-77.125,-120.635 -89.534,-80.338 48.463,-100.846" style="fill:none;fill-rule:nonzero;stroke:black;stroke-width:1px;"/>
                </g>
                <g transform="matrix(0.921745,-0.387798,-0.387798,-0.921745,224.429,314.187)">
                    <path d="M-6.329,34.589C46.779,18.207 75.731,-3.731 172.762,34.589" style="fill:none;fill-rule:nonzero;stroke:black;stroke-width:1px;"/>
                </g>
                <g transform="matrix(0.999532,-0.0306057,-0.0306057,-0.999532,162.588,246.703)">
                    <path d="M0.055,0.915C33.252,-4.6 56.374,0.357 59.913,0.915" style="fill:none;fill-rule:nonzero;stroke:black;stroke-width:1px;"/>
                </g>
                <g transform="matrix(0.519513,-0.854463,-0.854463,-0.519513,491.553,309.139)">
                    <path d="M-46.5,82.693C46.578,65.537 34.355,102.628 147.054,82.693" style="fill:none;fill-rule:nonzero;stroke:black;stroke-width:1px;"/>
                </g>
                <g transform="matrix(0.340179,-0.940361,-0.940361,-0.340179,536.888,309.421)">
                    <path d="M-61.763,88.022C16.319,72.426 55.736,109.855 125.448,88.022" style="fill:none;fill-rule:nonzero;stroke:black;stroke-width:1px;"/>
                </g>
                <g transform="matrix(1,0,0,1,512.375,261.443)">
                    <path d="M0,-72.117L24.971,-60.625C18.268,-40.638 8.044,-2.664 4.86,-0.832C3.353,0 -5.53,-2.998 -14.413,-6.996" style="fill:none;fill-rule:nonzero;stroke:black;stroke-width:1px;"/>
                </g>
                <g transform="matrix(1,0,0,1,516.23,199.652)">
                    <path d="M0,-32.311C14.916,-30.479 34.356,-25.983 43.909,-26.981C53.461,-27.981 73.237,-37.309 74.578,-38.973L77.091,-25.983L81.616,-20.819L70.892,-8.995C61.17,1.5 44.076,6.662 23.63,1.832" style="fill:none;fill-rule:nonzero;stroke:black;stroke-width:1px;"/>
                </g>
                <g transform="matrix(1,0,0,1,517.57,171.671)">
                    <path d="M0,-16.322C11.731,-6.994 25.977,0 43.406,-0.832C50.612,-1.166 55.472,-4.33 57.483,-5.828" style="fill:none;fill-rule:nonzero;stroke:black;stroke-width:1px;"/>
                </g>
                <g>
                    <clipPath id="_clip1">
                        <path d="M329.199,182.163C300.206,209.978 212.724,220.304 128.091,188.16C126.079,187.328 124.402,187.328 122.895,189.326C109.823,205.48 153.229,228.133 153.061,247.453C152.223,308.41 221.606,297.417 240.711,307.576C259.816,317.736 264.844,349.88 306.742,347.216C350.482,344.385 374.449,304.746 388.023,313.906C395.397,318.902 398.246,328.728 400.09,337.056C403.943,355.709 418.86,356.543 440.479,354.377L472.658,308.742C481.539,296.084 485.896,294.92 489.75,294.752C487.571,282.595 490.421,272.27 497.627,254.281C488.409,250.117 479.527,245.121 479.695,243.454C480.03,240.291 474.667,241.788 482.377,229.632C490.086,217.472 506.677,196.319 511.705,188.994L515.056,180.332L515.56,165.675L517.068,155.018C510.029,149.353 502.655,142.525 498.465,135.031C493.941,136.529 488.912,137.361 483.885,137.695C476.008,138.361 469.304,136.863 468.13,134.031C466.958,131.199 469.137,122.039 471.316,112.712C474.164,100.554 482.041,85.066 491.426,78.07C409.81,132.533 367.41,145.689 329.199,182.163Z" clip-rule="nonzero"/>
                    </clipPath>
                    <g clip-path="url(#_clip1)">
                        <g transform="matrix(1,0,0,1,382.875,225.791)">
                            <path d="M0,110.482L5.469,22.041L-14.649,28.191L-16.725,88.953L-52.313,39.707L-72.43,45.857L-18.441,116.119L0,110.482ZM56.104,93.328L31.844,13.976L13.627,19.546L37.887,98.898L56.104,93.328ZM90.862,82.703L80.303,48.168L112.32,76.14L134.784,69.273L105.733,45.404L93.557,45.949L93.668,45.914C110.209,40.857 116.488,27.816 112.388,14.406C108.458,1.552 95.995,-5.637 79.454,-0.581L48.384,8.919L72.644,88.271L90.862,82.703ZM81.333,15.957C87.032,14.212 92.459,15.976 94.236,21.787C96.115,27.935 92.567,32.32 86.867,34.062L76.92,37.103L71.385,18.998L81.333,15.957Z" style="fill-rule:nonzero;stroke:black;stroke-width:1px;stroke-miterlimit:4;"/>
                        </g>
                        <g transform="matrix(1,0,0,1,210.564,142.496)">
                            <path d="M0,145.025L0.972,129.818L29.584,121.07L39.005,133.099L59.57,126.812L4.686,56.822L-14.202,62.597L-20.564,151.312L0,145.025ZM2.533,83.757L19.625,106.884L1.296,112.488L2.533,83.757ZM85.499,118.884L69.952,68.033L119.922,108.361L138.81,102.587L114.549,23.234L96.667,28.701L112.078,79.107L62.579,39.123L43.356,45.002L67.617,124.353L85.499,118.884ZM187.09,87.826L167.648,24.232L187.653,18.115L182.836,2.357L124.607,20.16L129.425,35.918L149.43,29.802L168.873,93.394L187.09,87.826ZM235.372,73.064L211.111,-6.287L192.894,-0.719L217.154,78.634L235.372,73.064Z" style="fill-rule:nonzero;stroke:black;stroke-width:1px;stroke-miterlimit:4;"/>
                        </g>
                    </g>
                </g>
                <g transform="matrix(1,0,0,1,491.427,356.543)">
                    <path d="M0,-278.473C-9.386,-271.479 -17.263,-255.989 -20.111,-243.83C-22.29,-234.504 -24.469,-225.342 -23.295,-222.512C-22.122,-219.68 -15.418,-218.182 -7.542,-218.848C-2.515,-219.18 2.514,-220.014 7.039,-221.512C11.229,-214.018 18.603,-207.188 25.641,-201.528L24.133,-190.868L23.63,-176.211L20.277,-167.549C15.251,-160.221 -1.342,-139.071 -9.051,-126.912C-16.76,-114.754 -11.396,-116.252 -11.731,-113.088C-11.899,-111.422 -3.018,-106.426 6.2,-102.262C-1.007,-84.276 -3.855,-73.95 -1.677,-61.791C-5.53,-61.623 -9.889,-60.457 -18.771,-47.799L-50.947,-2.164C-72.567,0 -87.482,-0.832 -91.337,-19.487C-93.18,-27.813 -96.029,-37.641 -103.403,-42.637C-116.979,-51.797 -140.943,-12.159 -184.685,-9.327C-226.583,-6.662 -231.61,-38.807 -250.715,-48.965C-269.82,-59.125 -339.203,-48.133 -338.365,-109.09C-338.197,-128.411 -381.604,-151.061 -368.531,-167.217C-367.023,-169.215 -365.347,-169.215 -363.336,-168.383C-278.703,-136.239 -191.221,-146.565 -162.228,-174.379C-124.018,-210.852 -81.616,-224.01 0,-278.473Z" style="fill:none;fill-rule:nonzero;stroke:black;stroke-width:1px;"/>
                </g>
                <g transform="matrix(-0.599678,-0.800242,-0.800242,0.599678,141.308,77.7444)">
                    <path d="M-210.494,-270.353C-215.707,-233.149 -222.686,-195.248 -236.779,-158.509C-247.856,-129.685 -263.985,-66.498 -210.494,1.271C-170.804,51.738 -146.014,71.485 -114.556,75.136C-108.811,75.858 -102.102,75.647 -94.593,74.837" style="fill:none;fill-rule:nonzero;stroke:black;stroke-width:1px;"/>
                </g>
                <g transform="matrix(1,0,0,1,602.126,371.226)">
                    <path d="M0,-22.678L6.142,-12.047L13.228,-10.629L15,-7.442L17.479,-4.961L17.479,0" style="fill:none;fill-rule:nonzero;stroke:black;stroke-width:1px;stroke-miterlimit:4;"/>
                </g>
                <g transform="matrix(1,0,0,1,604.016,348.683)">
                    <path d="M0,-2.615L34.016,-4.252L36.378,-0.385L40.63,1.637L46.772,-1.306L53.916,-0.385" style="fill:none;fill-rule:nonzero;stroke:black;stroke-width:1px;stroke-miterlimit:4;"/>
                </g>
                <g transform="matrix(1,0,0,1,601.693,325.517)">
                    <path d="M0,18.463L2.299,10.984L9.207,9.213L12.244,9.213L14.016,4.961L14.016,0" style="fill:none;fill-rule:nonzero;stroke:black;stroke-width:1px;stroke-miterlimit:4;"/>
                </g>
                <g transform="matrix(1,0,0,1,599.089,355.99)">
                    <path d="M0,-8.709L-3.932,-5.408L-3.932,-1.772L-7.475,0" style="fill:none;fill-rule:nonzero;stroke:black;stroke-width:1px;stroke-miterlimit:4;"/>
                </g>
            </g>
        </g>
    </g>
</svg>
