<?xml version="1.0" encoding="UTF-8"?>
<svg xmlns="http://www.w3.org/2000/svg" xmlns:xlink="http://www.w3.org/1999/xlink" width="818.504pt" height="430.234pt" viewBox="0 0 818.504 430.234" version="1.1">
<defs>
<clipPath id="clip1">
  <path d="M 0 0 L 818.503906 0 L 818.503906 430.234375 L 0 430.234375 Z M 0 0 "/>
</clipPath>
<clipPath id="clip2">
  <path d="M 393 350 L 462 350 L 462 430.234375 L 393 430.234375 Z M 393 350 "/>
</clipPath>
<clipPath id="clip3">
  <path d="M 310 223 L 518 223 L 518 342 L 310 342 Z M 310 223 "/>
</clipPath>
<clipPath id="clip4">
  <path d="M 329.199219 182.164062 C 300.207031 209.976562 212.722656 220.304688 128.089844 188.160156 C 126.078125 187.328125 124.402344 187.328125 122.894531 189.324219 C 109.824219 205.480469 153.230469 228.132812 153.0625 247.453125 C 152.222656 308.410156 221.605469 297.417969 240.710938 307.574219 C 259.816406 317.734375 264.84375 349.878906 306.742188 347.214844 C 350.480469 344.386719 374.449219 304.746094 388.023438 313.90625 C 395.398438 318.902344 398.246094 328.726562 400.089844 337.054688 C 403.941406 355.710938 418.859375 356.542969 440.480469 354.378906 L 472.65625 308.742188 C 481.539062 296.085938 485.894531 294.921875 489.75 294.753906 C 487.570312 282.59375 490.421875 272.269531 497.628906 254.28125 C 488.410156 250.117188 479.527344 245.121094 479.695312 243.453125 C 480.03125 240.289062 474.667969 241.789062 482.378906 229.632812 C 490.085938 217.472656 506.675781 196.320312 511.703125 188.992188 L 515.054688 180.332031 L 515.558594 165.675781 L 517.066406 155.019531 C 510.027344 149.351562 502.65625 142.523438 498.464844 135.03125 C 493.941406 136.527344 488.910156 137.359375 483.886719 137.695312 C 476.007812 138.359375 469.304688 136.863281 468.128906 134.03125 C 466.957031 131.199219 469.136719 122.039062 471.316406 112.710938 C 474.164062 100.554688 482.039062 85.066406 491.425781 78.070312 C 409.808594 132.53125 367.410156 145.6875 329.199219 182.164062 "/>
</clipPath>
<clipPath id="clip5">
  <path d="M 304 217 L 518 217 L 518 348 L 304 348 Z M 304 217 "/>
</clipPath>
<clipPath id="clip6">
  <path d="M 329.199219 182.164062 C 300.207031 209.976562 212.722656 220.304688 128.089844 188.160156 C 126.078125 187.328125 124.402344 187.328125 122.894531 189.324219 C 109.824219 205.480469 153.230469 228.132812 153.0625 247.453125 C 152.222656 308.410156 221.605469 297.417969 240.710938 307.574219 C 259.816406 317.734375 264.84375 349.878906 306.742188 347.214844 C 350.480469 344.386719 374.449219 304.746094 388.023438 313.90625 C 395.398438 318.902344 398.246094 328.726562 400.089844 337.054688 C 403.941406 355.710938 418.859375 356.542969 440.480469 354.378906 L 472.65625 308.742188 C 481.539062 296.085938 485.894531 294.921875 489.75 294.753906 C 487.570312 282.59375 490.421875 272.269531 497.628906 254.28125 C 488.410156 250.117188 479.527344 245.121094 479.695312 243.453125 C 480.03125 240.289062 474.667969 241.789062 482.378906 229.632812 C 490.085938 217.472656 506.675781 196.320312 511.703125 188.992188 L 515.054688 180.332031 L 515.558594 165.675781 L 517.066406 155.019531 C 510.027344 149.351562 502.65625 142.523438 498.464844 135.03125 C 493.941406 136.527344 488.910156 137.359375 483.886719 137.695312 C 476.007812 138.359375 469.304688 136.863281 468.128906 134.03125 C 466.957031 131.199219 469.136719 122.039062 471.316406 112.710938 C 474.164062 100.554688 482.039062 85.066406 491.425781 78.070312 C 409.808594 132.53125 367.410156 145.6875 329.199219 182.164062 "/>
</clipPath>
<clipPath id="clip7">
  <path d="M 190 136 L 446 136 L 446 294 L 190 294 Z M 190 136 "/>
</clipPath>
<clipPath id="clip8">
  <path d="M 329.199219 182.164062 C 300.207031 209.976562 212.722656 220.304688 128.089844 188.160156 C 126.078125 187.328125 124.402344 187.328125 122.894531 189.324219 C 109.824219 205.480469 153.230469 228.132812 153.0625 247.453125 C 152.222656 308.410156 221.605469 297.417969 240.710938 307.574219 C 259.816406 317.734375 264.84375 349.878906 306.742188 347.214844 C 350.480469 344.386719 374.449219 304.746094 388.023438 313.90625 C 395.398438 318.902344 398.246094 328.726562 400.089844 337.054688 C 403.941406 355.710938 418.859375 356.542969 440.480469 354.378906 L 472.65625 308.742188 C 481.539062 296.085938 485.894531 294.921875 489.75 294.753906 C 487.570312 282.59375 490.421875 272.269531 497.628906 254.28125 C 488.410156 250.117188 479.527344 245.121094 479.695312 243.453125 C 480.03125 240.289062 474.667969 241.789062 482.378906 229.632812 C 490.085938 217.472656 506.675781 196.320312 511.703125 188.992188 L 515.054688 180.332031 L 515.558594 165.675781 L 517.066406 155.019531 C 510.027344 149.351562 502.65625 142.523438 498.464844 135.03125 C 493.941406 136.527344 488.910156 137.359375 483.886719 137.695312 C 476.007812 138.359375 469.304688 136.863281 468.128906 134.03125 C 466.957031 131.199219 469.136719 122.039062 471.316406 112.710938 C 474.164062 100.554688 482.039062 85.066406 491.425781 78.070312 C 409.808594 132.53125 367.410156 145.6875 329.199219 182.164062 "/>
</clipPath>
<clipPath id="clip9">
  <path d="M 184 130 L 452 130 L 452 300 L 184 300 Z M 184 130 "/>
</clipPath>
<clipPath id="clip10">
  <path d="M 329.199219 182.164062 C 300.207031 209.976562 212.722656 220.304688 128.089844 188.160156 C 126.078125 187.328125 124.402344 187.328125 122.894531 189.324219 C 109.824219 205.480469 153.230469 228.132812 153.0625 247.453125 C 152.222656 308.410156 221.605469 297.417969 240.710938 307.574219 C 259.816406 317.734375 264.84375 349.878906 306.742188 347.214844 C 350.480469 344.386719 374.449219 304.746094 388.023438 313.90625 C 395.398438 318.902344 398.246094 328.726562 400.089844 337.054688 C 403.941406 355.710938 418.859375 356.542969 440.480469 354.378906 L 472.65625 308.742188 C 481.539062 296.085938 485.894531 294.921875 489.75 294.753906 C 487.570312 282.59375 490.421875 272.269531 497.628906 254.28125 C 488.410156 250.117188 479.527344 245.121094 479.695312 243.453125 C 480.03125 240.289062 474.667969 241.789062 482.378906 229.632812 C 490.085938 217.472656 506.675781 196.320312 511.703125 188.992188 L 515.054688 180.332031 L 515.558594 165.675781 L 517.066406 155.019531 C 510.027344 149.351562 502.65625 142.523438 498.464844 135.03125 C 493.941406 136.527344 488.910156 137.359375 483.886719 137.695312 C 476.007812 138.359375 469.304688 136.863281 468.128906 134.03125 C 466.957031 131.199219 469.136719 122.039062 471.316406 112.710938 C 474.164062 100.554688 482.039062 85.066406 491.425781 78.070312 C 409.808594 132.53125 367.410156 145.6875 329.199219 182.164062 "/>
</clipPath>
</defs>
<g id="surface1">
<g clip-path="url(#clip1)" clip-rule="nonzero">
<path style=" stroke:none;fill-rule:nonzero;fill:rgb(94.099426%,37.298584%,0%);fill-opacity:1;" d="M 0 430.234375 L 818.503906 430.234375 L 818.503906 0 L 0 0 Z M 0 430.234375 "/>
</g>
<path style=" stroke:none;fill-rule:nonzero;fill:rgb(0%,0%,0%);fill-opacity:1;" d="M 784.664062 402.347656 L 784.664062 410.265625 C 784.664062 411.242188 784.296875 411.605469 783.5625 412.09375 C 780.132812 413.917969 776.703125 415.503906 772.542969 415.503906 C 696.011719 415.382812 619.605469 415.382812 543.078125 415.503906 C 539.035156 415.503906 535.609375 413.917969 532.300781 411.972656 C 531.8125 411.726562 531.199219 411.121094 531.199219 410.144531 L 531.199219 402.347656 L 559.117188 402.347656 L 559.117188 278.597656 C 559.117188 274.945312 560.832031 273.359375 564.503906 273.359375 L 751.480469 273.359375 C 755.277344 273.359375 756.867188 274.945312 756.867188 278.964844 L 756.867188 402.347656 Z M 784.664062 402.347656 "/>
<path style="fill-rule:nonzero;fill:rgb(94.099426%,37.298584%,0%);fill-opacity:1;stroke-width:1;stroke-linecap:butt;stroke-linejoin:miter;stroke:rgb(0%,0%,0%);stroke-opacity:1;stroke-miterlimit:10;" d="M -0.0009375 0.00154375 L 196.159219 0.00154375 L 196.159219 123.509356 C 196.159219 127.282794 195.057656 128.38045 191.139688 128.38045 L 3.795938 128.38045 C 1.467813 128.259356 -0.0009375 126.794512 -0.0009375 124.360919 Z M -0.0009375 0.00154375 " transform="matrix(1,0,0,-1,559.8525,402.3492)"/>
<path style=" stroke:none;fill-rule:nonzero;fill:rgb(94.099426%,37.298584%,0%);fill-opacity:1;" d="M 637.726562 403.203125 L 531.933594 403.203125 L 531.933594 410.507812 L 783.925781 410.507812 L 783.925781 403.203125 L 678.257812 403.203125 C 677.402344 406.613281 676.667969 406.976562 673.851562 406.976562 L 642.378906 406.976562 C 638.953125 406.976562 638.460938 406.492188 637.726562 403.203125 "/>
<path style=" stroke:none;fill-rule:nonzero;fill:rgb(0%,0%,0%);fill-opacity:1;" d="M 638.707031 403.203125 C 639.074219 405.757812 639.808594 406.246094 641.890625 406.246094 L 674.339844 406.246094 C 676.300781 406.246094 676.664062 405.515625 677.277344 403.203125 Z M 638.707031 403.203125 "/>
<path style="fill-rule:nonzero;fill:rgb(100%,100%,100%);fill-opacity:1;stroke-width:1;stroke-linecap:butt;stroke-linejoin:miter;stroke:rgb(0%,0%,0%);stroke-opacity:1;stroke-miterlimit:10;" d="M -0.0019375 -0.0003625 L 178.404312 -0.0003625 L 178.525406 106.941044 C 178.525406 108.280888 177.912125 108.644169 176.568375 108.523075 L 1.224625 108.523075 C -0.0019375 108.523075 -0.0019375 108.159794 -0.0019375 107.187138 Z M -0.0019375 -0.0003625 " transform="matrix(1,0,0,-1,568.791,392.7262)"/>
<path style=" stroke:none;fill-rule:nonzero;fill:rgb(0%,0%,0%);fill-opacity:1;" d="M 761.03125 406.855469 C 761.03125 407.34375 761.519531 407.710938 762.011719 407.710938 L 769.113281 407.710938 C 769.601562 407.710938 770.09375 407.34375 770.09375 406.855469 C 770.09375 406.367188 769.601562 406.003906 769.113281 406.003906 L 762.011719 406.003906 C 761.519531 406.003906 761.03125 406.367188 761.03125 406.855469 "/>
<g clip-path="url(#clip2)" clip-rule="nonzero">
<path style="fill:none;stroke-width:1;stroke-linecap:butt;stroke-linejoin:miter;stroke:rgb(0%,0%,0%);stroke-opacity:1;stroke-miterlimit:10;" d="M -0.0009625 0.00161875 C 10.393569 2.001619 23.295912 -1.498381 24.299819 -7.494475 C 24.971694 -11.3226 12.737319 -12.654631 4.526381 -11.3226 L -10.559556 -8.990569 L -11.059556 7.161775 C -3.352525 16.657869 10.893569 36.810212 13.741225 39.306306 C 16.592787 31.810212 23.799819 27.314119 28.827162 30.478181 L 17.932631 -0.998381 " transform="matrix(1,0,0,-1,418.5244,404.1774)"/>
</g>
<path style="fill:none;stroke-width:1;stroke-linecap:butt;stroke-linejoin:miter;stroke:rgb(0%,0%,0%);stroke-opacity:1;stroke-miterlimit:10;" d="M -0.001025 -0.00039375 L 5.698194 7.9957 " transform="matrix(1,0,0,-1,434.1104,363.3707)"/>
<path style="fill:none;stroke-width:1;stroke-linecap:butt;stroke-linejoin:miter;stroke:rgb(0%,0%,0%);stroke-opacity:1;stroke-miterlimit:10;" d="M 0.00194375 0.00155 C 3.689444 1.165613 8.044913 1.833581 10.892569 -0.830481 C 13.740225 -3.49845 19.439444 -13.322669 19.94335 -17.6547 C 18.435538 -47.299231 2.8496 -74.7797 -2.345712 -81.275794 C -7.541025 -87.771887 -9.552744 -87.271887 -12.232431 -87.939856 " transform="matrix(1,0,0,-1,532.1504,221.4703)"/>
<path style="fill:none;stroke-width:1;stroke-linecap:butt;stroke-linejoin:miter;stroke:rgb(0%,0%,0%);stroke-opacity:1;stroke-miterlimit:10;" d="M 0.00101875 -0.000375 C 7.040081 -3.496469 16.254925 0.667594 20.6143 9.32775 C 24.969769 18.155875 22.790081 27.980094 15.754925 31.480094 C 8.547894 34.976187 -0.670856 30.812125 -5.026325 21.984 C -9.3857 13.323844 -7.206012 3.499625 0.00101875 -0.000375 Z M 0.00101875 -0.000375 " transform="matrix(1,0,0,-1,499.1357,321.234)"/>
<path style="fill:none;stroke-width:1;stroke-linecap:butt;stroke-linejoin:miter;stroke:rgb(0%,0%,0%);stroke-opacity:1;stroke-miterlimit:10;" d="M 0.00194375 0.00153125 C -16.0879 -20.154719 -41.228525 -37.807063 -64.857431 -48.131281 " transform="matrix(1,0,0,-1,513.2129,323.232)"/>
<path style="fill:none;stroke-width:1;stroke-linecap:butt;stroke-linejoin:miter;stroke:rgb(0%,0%,0%);stroke-opacity:1;stroke-miterlimit:10;" d="M -0.00194375 -0.000425 L 44.580087 42.972231 " transform="matrix(1,0,0,-1,447.3496,366.2027)"/>
<path style="fill:none;stroke-width:1;stroke-linecap:butt;stroke-linejoin:miter;stroke:rgb(0%,0%,0%);stroke-opacity:1;stroke-miterlimit:10;" d="M -0.00003125 -0.0003375 C 1.507781 3.331694 6.199187 9.995756 13.23825 9.995756 C 20.949187 9.995756 27.652312 2.831694 33.183562 -0.500338 L 39.214812 -5.496431 " transform="matrix(1,0,0,-1,554.1055,236.4606)"/>
<path style="fill:none;stroke-width:1;stroke-linecap:butt;stroke-linejoin:miter;stroke:rgb(0%,0%,0%);stroke-opacity:1;stroke-miterlimit:10;" d="M 0.00195 0.0016125 C -2.513675 3.997706 -4.189456 6.329737 -8.884769 8.9938 L -13.408206 6.661769 " transform="matrix(1,0,0,-1,612.0918,127.3688)"/>
<path style="fill:none;stroke-width:1;stroke-linecap:butt;stroke-linejoin:miter;stroke:rgb(0%,0%,0%);stroke-opacity:1;stroke-miterlimit:10;" d="M -0.00100625 -0.00035625 C -1.508819 -3.164419 -2.848662 -4.99645 -4.188506 -8.828481 C 2.010713 -21.1527 29.495088 -36.640981 35.862275 -35.144888 C 40.053681 -34.144888 45.920869 -21.984731 47.428681 -12.324575 C 41.729463 -4.660513 29.15915 5.827769 26.647431 8.1598 " transform="matrix(1,0,0,-1,515.5596,128.5348)"/>
<path style="fill:none;stroke-width:1;stroke-linecap:butt;stroke-linejoin:miter;stroke:rgb(0%,0%,0%);stroke-opacity:1;stroke-miterlimit:10;" d="M -0.00001875 -0.00035 C 2.847637 0.835588 5.195294 1.99965 7.54295 3.331681 C 20.9492 11.159806 38.378887 13.491838 41.058575 14.491838 C 44.914044 15.991838 43.570294 29.644181 43.406231 34.976213 C 42.902325 47.4684 30.164044 64.456681 1.171856 60.960588 C -1.6758 60.62465 -4.523456 59.292619 -7.20705 57.128556 " transform="matrix(1,0,0,-1,498.8008,135.0309)"/>
<path style="fill:none;stroke-width:1;stroke-linecap:butt;stroke-linejoin:miter;stroke:rgb(0%,0%,0%);stroke-opacity:1;stroke-miterlimit:10;" d="M 0.00005 0.0016 C 2.179737 -2.330431 3.351612 -3.662463 9.7188 -3.662463 C 19.105519 -3.662463 26.31255 4.497694 32.679737 7.661756 C 45.75005 14.15785 51.953175 -0.9984 68.043019 8.161756 " transform="matrix(1,0,0,-1,472.6562,115.3766)"/>
<path style="fill:none;stroke-width:1;stroke-linecap:butt;stroke-linejoin:miter;stroke:rgb(0%,0%,0%);stroke-opacity:1;stroke-miterlimit:10;" d="M 0.00098125 0.001575 C 3.184575 -4.494519 7.040044 -7.32655 12.403325 -7.32655 C 23.629887 -7.32655 36.868169 -0.330456 42.23145 1.665637 C 50.610356 4.8297 54.801762 5.165637 58.153325 4.165637 " transform="matrix(1,0,0,-1,479.8623,94.8922)"/>
<path style="fill:none;stroke-width:1;stroke-linecap:butt;stroke-linejoin:miter;stroke:rgb(0%,0%,0%);stroke-opacity:1;stroke-miterlimit:10;" d="M 0.0010125 -0.00041875 C 1.004919 7.995675 5.528356 14.491769 2.012731 23.819894 C -2.010706 34.476144 -12.737269 46.6363 -26.311487 47.300362 C -36.870081 47.800362 -44.91305 41.640206 -44.577112 30.312081 " transform="matrix(1,0,0,-1,543.8818,103.3863)"/>
<path style="fill:none;stroke-width:1;stroke-linecap:butt;stroke-linejoin:miter;stroke:rgb(0%,0%,0%);stroke-opacity:1;stroke-miterlimit:10;" d="M -0.00098125 0.0016 C 3.686519 4.165662 9.889644 13.489881 15.920894 13.489881 C 18.772456 9.993787 25.475581 9.325819 28.827144 12.325819 C 35.8623 5.329725 40.89355 3.165662 39.5498 -0.166369 C 38.209956 -3.4984 35.8623 -5.330431 30.670894 -5.494494 " transform="matrix(1,0,0,-1,605.3877,116.3766)"/>
<path style="fill-rule:nonzero;fill:rgb(94.099426%,37.298584%,0%);fill-opacity:1;stroke-width:1;stroke-linecap:butt;stroke-linejoin:miter;stroke:rgb(0%,0%,0%);stroke-opacity:1;stroke-miterlimit:10;" d="M 0.0009875 0.00155625 L -41.225575 -193.529694 L -35.530262 -216.850006 L -21.620106 -196.693756 L 9.551769 -1.330475 Z M 0.0009875 0.00155625 " transform="matrix(1,0,0,-1,616.6162,137.5289)"/>
<path style="fill:none;stroke-width:1;stroke-linecap:butt;stroke-linejoin:miter;stroke:rgb(0%,0%,0%);stroke-opacity:1;stroke-miterlimit:10;" d="M 0.0019375 0.00155 L 36.701156 200.360925 " transform="matrix(1,0,0,-1,584.2715,340.2203)"/>
<path style="fill:none;stroke-width:1;stroke-linecap:butt;stroke-linejoin:miter;stroke:rgb(0%,0%,0%);stroke-opacity:1;stroke-miterlimit:10;" d="M 0.0009375 0.0015875 C 0.0009375 0.0015875 6.872031 -2.666381 7.707969 -0.33435 C 8.88375 2.833619 11.395469 3.497681 12.567344 1.333619 C 13.743125 -0.83435 13.575156 -4.830444 10.055625 -5.162475 C 2.848594 -5.830444 -3.182656 -3.330444 -9.385781 -2.666381 C -21.452187 -1.166381 -36.030312 2.001588 -42.065469 4.66565 C -45.081094 5.997681 -48.264687 10.993775 -46.256875 12.989869 C -43.237344 15.989869 -40.557656 14.657838 -39.885781 13.657838 C -39.049844 12.489869 -40.893594 11.825806 -39.885781 10.325806 C -38.881875 8.825806 -29.831094 6.161744 -27.819375 6.829713 " transform="matrix(1,0,0,-1,637.3975,135.1969)"/>
<path style="fill:none;stroke-width:1;stroke-linecap:butt;stroke-linejoin:miter;stroke:rgb(0%,0%,0%);stroke-opacity:1;stroke-miterlimit:10;" d="M -0.00101875 0.00158125 C 4.526325 0.00158125 10.053669 0.333613 10.557575 5.829706 " transform="matrix(1,0,0,-1,631.3643,128.2008)"/>
<path style="fill:none;stroke-width:1;stroke-linecap:butt;stroke-linejoin:miter;stroke:rgb(0%,0%,0%);stroke-opacity:1;stroke-miterlimit:10;" d="M -0.001 0.00155 C 4.190406 0.00155 8.381812 -0.330481 9.721656 4.497644 " transform="matrix(1,0,0,-1,629.6885,132.5328)"/>
<path style="fill:none;stroke-width:1;stroke-linecap:butt;stroke-linejoin:miter;stroke:rgb(0%,0%,0%);stroke-opacity:1;stroke-miterlimit:10;" d="M 0.000000000000113687 0.00161875 L 3.351563 0.00161875 C 5.699219 -2.66635 10.390625 -5.330413 14.414063 -5.330413 C 19.941406 -5.330413 22.289063 -3.998381 23.464844 0.501619 " transform="matrix(1,0,0,-1,614.4375,132.3649)"/>
<path style="fill:none;stroke-width:1;stroke-linecap:butt;stroke-linejoin:miter;stroke:rgb(0%,0%,0%);stroke-opacity:1;stroke-miterlimit:10;" d="M 0.00191875 0.00155 C 1.341763 4.497644 1.6777 11.493738 1.6777 16.489831 C 1.6777 23.31405 4.02145 26.31405 9.216763 25.646081 C 15.419888 24.81405 14.076138 18.653894 12.736294 14.6578 C 11.060513 9.829675 8.716763 0.833581 8.212856 -0.99845 " transform="matrix(1,0,0,-1,623.8223,101.7203)"/>
<path style="fill:none;stroke-width:1;stroke-linecap:butt;stroke-linejoin:miter;stroke:rgb(0%,0%,0%);stroke-opacity:1;stroke-miterlimit:10;" d="M -0.001925 -0.000325 L -23.966769 -12.824544 C -17.931613 -17.820637 -14.076144 -27.812825 -13.740206 -41.64095 L 20.111356 -10.824544 " transform="matrix(1,0,0,-1,589.2988,125.7028)"/>
<path style="fill:none;stroke-width:1;stroke-linecap:butt;stroke-linejoin:miter;stroke:rgb(0%,0%,0%);stroke-opacity:1;stroke-miterlimit:10;" d="M 0.00096875 -0.000375 C -4.022469 -7.8285 -12.233406 -16.988656 -2.850594 -25.980844 C -4.190437 -31.480844 -6.870125 -33.644906 -9.217781 -34.812875 " transform="matrix(1,0,0,-1,599.3545,200.484)"/>
<path style="fill:none;stroke-width:1;stroke-linecap:butt;stroke-linejoin:miter;stroke:rgb(0%,0%,0%);stroke-opacity:1;stroke-miterlimit:10;" d="M 0.0010125 -0.0003875 L 12.735388 -9.492575 " transform="matrix(1,0,0,-1,589.1318,191.4918)"/>
<path style="fill:none;stroke-width:1;stroke-linecap:butt;stroke-linejoin:miter;stroke:rgb(0%,0%,0%);stroke-opacity:1;stroke-miterlimit:10;" d="M 0.00095625 -0.00033125 L 20.7783 -17.320644 C 22.290019 -15.820644 23.129862 -15.988613 25.473612 -12.656581 C 27.817362 -9.32455 34.524394 -5.660488 25.137675 1.667637 L 2.344706 19.655919 " transform="matrix(1,0,0,-1,616.7842,212.1442)"/>
<path style="fill:none;stroke-width:1;stroke-linecap:butt;stroke-linejoin:miter;stroke:rgb(0%,0%,0%);stroke-opacity:1;stroke-miterlimit:10;" d="M 0.00190625 -0.0004 L 5.52925 -3.664463 " transform="matrix(1,0,0,-1,599.6895,179.4996)"/>
<path style="fill:none;stroke-width:1;stroke-linecap:butt;stroke-linejoin:miter;stroke:rgb(0%,0%,0%);stroke-opacity:1;stroke-miterlimit:10;" d="M -0.00099375 0.00160625 C 31.674788 -13.990581 52.624006 -11.326519 75.249006 5.9977 " transform="matrix(1,0,0,-1,517.0674,180.9977)"/>
<path style="fill:none;stroke-width:1;stroke-linecap:butt;stroke-linejoin:miter;stroke:rgb(0%,0%,0%);stroke-opacity:1;stroke-miterlimit:10;" d="M 0.001025 0.00159375 C -27.651319 -16.322625 -52.456006 -10.826531 -73.741162 -3.998406 " transform="matrix(1,0,0,-1,590.6396,170.5055)"/>
<path style="fill:none;stroke-width:1;stroke-linecap:butt;stroke-linejoin:miter;stroke:rgb(0%,0%,0%);stroke-opacity:1;stroke-miterlimit:10;" d="M 0.001025 -0.00035 C 6.368213 -4.828475 12.903369 -9.824569 19.274463 -14.652694 " transform="matrix(1,0,0,-1,609.5771,255.2809)"/>
<path style="fill:none;stroke-width:1;stroke-linecap:butt;stroke-linejoin:miter;stroke:rgb(0%,0%,0%);stroke-opacity:1;stroke-miterlimit:10;" d="M -0.00100625 0.0015375 L -12.399444 15.489819 " transform="matrix(1,0,0,-1,655.4971,241.2906)"/>
<path style="fill:none;stroke-width:1;stroke-linecap:butt;stroke-linejoin:miter;stroke:rgb(0%,0%,0%);stroke-opacity:1;stroke-miterlimit:10;" d="M 0.00194375 0.00156875 L 27.81835 -21.982806 " transform="matrix(1,0,0,-1,618.9629,239.4586)"/>
<path style="fill:none;stroke-width:1;stroke-linecap:butt;stroke-linejoin:miter;stroke:rgb(0%,0%,0%);stroke-opacity:1;stroke-miterlimit:10;" d="M 0.0000125 -0.0004125 C 5.527356 9.491775 15.250013 22.983962 14.078138 26.980056 C 12.902356 30.980056 4.52345 35.644119 -0.671862 36.308181 C -5.867175 36.97615 -8.8828 35.47615 -9.890612 32.312087 " transform="matrix(1,0,0,-1,642.2578,107.3824)"/>
<path style="fill:none;stroke-width:1;stroke-linecap:butt;stroke-linejoin:miter;stroke:rgb(0%,0%,0%);stroke-opacity:1;stroke-miterlimit:10;" d="M -0.00095625 0.001625 C 2.682638 10.325844 -1.844706 13.989906 -5.5283 15.821938 " transform="matrix(1,0,0,-1,657.3408,78.236)"/>
<path style="fill:none;stroke-width:1;stroke-linecap:butt;stroke-linejoin:miter;stroke:rgb(0%,0%,0%);stroke-opacity:1;stroke-miterlimit:10;" d="M 0.00095 -0.00040625 L -21.452175 1.167562 " transform="matrix(1,0,0,-1,623.6553,83.566)"/>
<path style="fill:none;stroke-width:1;stroke-linecap:butt;stroke-linejoin:miter;stroke:rgb(0%,0%,0%);stroke-opacity:1;stroke-miterlimit:10;" d="M -0.00100625 -0.0003375 C 0.670869 -11.824556 1.006806 -23.648775 -0.504912 -33.312838 " transform="matrix(1,0,0,-1,594.9971,84.3981)"/>
<path style="fill:none;stroke-width:1;stroke-linecap:butt;stroke-linejoin:miter;stroke:rgb(0%,0%,0%);stroke-opacity:1;stroke-miterlimit:10;" d="M -0.0009875 -0.00036875 C 7.038075 -1.664431 18.100575 -6.492556 21.284169 -4.996463 C 24.467762 -3.496463 33.182606 4.663694 34.186512 7.827756 C 35.194325 10.991819 36.702137 36.976194 34.354481 41.472287 C 32.010731 45.968381 27.315419 58.7926 24.635731 60.624631 C 21.952137 62.456662 6.870106 71.44885 3.018544 71.784787 L -10.72755 68.784787 C -16.422863 63.788694 -20.4463 57.628537 -22.79005 50.464475 L -18.434581 27.9801 " transform="matrix(1,0,0,-1,551.7588,87.2301)"/>
<path style="fill:none;stroke-width:1;stroke-linecap:butt;stroke-linejoin:miter;stroke:rgb(0%,0%,0%);stroke-opacity:1;stroke-miterlimit:10;" d="M -0.00096875 -0.0004 L -2.348625 32.476162 L -11.563469 55.960537 " transform="matrix(1,0,0,-1,572.708,88.5621)"/>
<path style="fill:none;stroke-width:1;stroke-linecap:butt;stroke-linejoin:miter;stroke:rgb(0%,0%,0%);stroke-opacity:1;stroke-miterlimit:10;" d="M -0.001025 -0.00035 L -11.063525 -10.492538 L -35.864306 -7.660506 " transform="matrix(1,0,0,-1,581.4229,45.5934)"/>
<path style="fill-rule:nonzero;fill:rgb(0%,0%,0%);fill-opacity:1;stroke-width:1;stroke-linecap:butt;stroke-linejoin:miter;stroke:rgb(0%,0%,0%);stroke-opacity:1;stroke-miterlimit:10;" d="M 0.001025 -0.0003875 L 18.602588 -1.500387 L 30.836963 6.827738 L 30.836963 3.995706 L 18.770556 -4.66445 L 0.668994 -3.16445 Z M 0.001025 -0.0003875 " transform="matrix(1,0,0,-1,552.7646,70.2418)"/>
<path style="fill:none;stroke-width:1;stroke-linecap:butt;stroke-linejoin:miter;stroke:rgb(0%,0%,0%);stroke-opacity:1;stroke-miterlimit:10;" d="M 0.0019375 0.00158125 C 16.75975 -10.990606 15.919906 -33.310919 15.419906 -40.971075 C 14.748031 -50.967169 33.181625 -28.146856 35.361312 -26.314825 C 37.541 -24.482794 54.802719 -9.494512 56.646469 -5.994512 C 58.490219 -2.498419 50.611312 3.997675 43.404281 6.661738 C 36.701156 9.157831 17.263656 15.489863 0.0019375 0.00158125 Z M 0.0019375 0.00158125 " transform="matrix(1,0,0,-1,584.2715,38.2633)"/>
<path style="fill:none;stroke-width:1;stroke-linecap:butt;stroke-linejoin:miter;stroke:rgb(0%,0%,0%);stroke-opacity:1;stroke-miterlimit:10;" d="M -0.00191875 -0.0003625 C 8.044956 13.823856 14.076206 24.148075 5.029331 32.644169 " transform="matrix(1,0,0,-1,601.3652,61.9137)"/>
<path style="fill:none;stroke-width:1;stroke-linecap:butt;stroke-linejoin:miter;stroke:rgb(0%,0%,0%);stroke-opacity:1;stroke-miterlimit:10;" d="M 0.001925 -0.00038125 C 7.876925 5.995713 14.412081 12.823838 15.08005 17.823838 C 17.427706 37.14415 26.310519 32.980088 26.310519 44.136338 " transform="matrix(1,0,0,-1,601.7012,77.2379)"/>
<path style="fill:none;stroke-width:1;stroke-linecap:butt;stroke-linejoin:miter;stroke:rgb(0%,0%,0%);stroke-opacity:1;stroke-miterlimit:10;" d="M 0.000975 -0.0003875 C 8.715819 -0.0003875 19.942381 0.167581 24.969725 1.331644 C 30.165037 2.499613 35.192381 6.163675 35.528319 9.827738 C 35.696287 12.159769 20.446287 16.323831 19.606444 16.655863 " transform="matrix(1,0,0,-1,615.1084,71.2418)"/>
<path style="fill:none;stroke-width:1;stroke-linecap:butt;stroke-linejoin:miter;stroke:rgb(0%,0%,0%);stroke-opacity:1;stroke-miterlimit:10;" d="M -0.001925 0.0016125 C -12.568331 -5.494481 -15.251925 -11.658544 -14.412081 -25.314794 C -16.927706 -9.990575 -22.45505 -7.826513 -41.896456 -9.326513 " transform="matrix(1,0,0,-1,589.2988,98.0563)"/>
<path style="fill:none;stroke-width:1;stroke-linecap:butt;stroke-linejoin:miter;stroke:rgb(0%,0%,0%);stroke-opacity:1;stroke-miterlimit:10;" d="M -0.0000125 0.00154375 C 8.210925 -2.666425 18.433581 -11.658613 24.636706 -9.826581 C 30.835925 -7.99455 37.203113 2.665606 43.574206 11.325762 " transform="matrix(1,0,0,-1,548.7422,95.7242)"/>
<path style="fill:none;stroke-width:1;stroke-linecap:butt;stroke-linejoin:miter;stroke:rgb(0%,0%,0%);stroke-opacity:1;stroke-miterlimit:10;" d="M -0.001 -0.0004 C -0.001 4.163662 -0.668969 9.495694 -2.012719 12.823819 C -5.028344 19.651944 -10.223656 25.980069 -12.903344 26.8121 C -16.090844 22.816006 -19.4385 12.491787 -16.258812 5.331631 C -15.418969 3.331631 -14.079125 1.331631 -12.567406 -0.164463 " transform="matrix(1,0,0,-1,671.251,269.4371)"/>
<path style="fill:none;stroke-width:1;stroke-linecap:butt;stroke-linejoin:miter;stroke:rgb(0%,0%,0%);stroke-opacity:1;stroke-miterlimit:10;" d="M -0.0000125 -0.00038125 C -98.375013 -91.269912 -59.160169 -106.758194 -161.390638 -201.691787 " transform="matrix(1,0,0,-1,469.3047,136.8629)"/>
<path style="fill:none;stroke-width:1;stroke-linecap:butt;stroke-linejoin:miter;stroke:rgb(0%,0%,0%);stroke-opacity:1;stroke-miterlimit:10;" d="M 0.00149375 0.0015875 C 55.306181 5.497681 90.497587 -3.498412 165.075712 69.450806 " transform="matrix(1,0,0,-1,205.1821,284.7594)"/>
<path style="fill:none;stroke-width:1;stroke-linecap:butt;stroke-linejoin:miter;stroke:rgb(0%,0%,0%);stroke-opacity:1;stroke-miterlimit:10;" d="M -0.00101875 0.00154375 C 33.350544 -4.49455 56.311481 1.165606 59.831013 1.833575 " transform="matrix(1,0,0,-1,162.6143,245.7867)"/>
<path style="fill:none;stroke-width:1;stroke-linecap:butt;stroke-linejoin:miter;stroke:rgb(0%,0%,0%);stroke-opacity:1;stroke-miterlimit:10;" d="M 0.00048125 0.00154375 C 63.0122 70.618731 24.969231 79.446856 100.555169 165.384356 " transform="matrix(1,0,0,-1,396.7378,305.9117)"/>
<path style="fill:none;stroke-width:1;stroke-linecap:butt;stroke-linejoin:miter;stroke:rgb(0%,0%,0%);stroke-opacity:1;stroke-miterlimit:10;" d="M 0.00096875 0.0016125 C 41.227531 68.1188 19.438469 117.919581 63.684562 176.044581 " transform="matrix(1,0,0,-1,433.1045,337.5563)"/>
<path style="fill:none;stroke-width:1;stroke-linecap:butt;stroke-linejoin:miter;stroke:rgb(0%,0%,0%);stroke-opacity:1;stroke-miterlimit:10;" d="M 0 0.00158125 L 24.972656 -11.490606 C 18.269531 -31.478888 8.042969 -69.451544 4.859375 -71.283575 C 3.351562 -72.115606 -5.53125 -69.119513 -14.414062 -65.119513 " transform="matrix(1,0,0,-1,512.375,189.3258)"/>
<path style="fill:none;stroke-width:1;stroke-linecap:butt;stroke-linejoin:miter;stroke:rgb(0%,0%,0%);stroke-opacity:1;stroke-miterlimit:10;" d="M 0.00096875 0.00155625 C 14.915031 -1.830475 34.356437 -6.326569 43.907219 -5.330475 C 53.461906 -4.330475 73.235344 4.99765 74.579094 6.661712 L 77.090812 -6.326569 L 81.61425 -11.490631 L 70.891594 -23.31485 C 61.168937 -33.810944 44.075187 -38.9711 23.629875 -34.142975 " transform="matrix(1,0,0,-1,516.2295,167.3414)"/>
<path style="fill:none;stroke-width:1;stroke-linecap:butt;stroke-linejoin:miter;stroke:rgb(0%,0%,0%);stroke-opacity:1;stroke-miterlimit:10;" d="M 0.0000125 0.00154375 C 11.730481 -9.326581 25.976575 -16.322675 43.406262 -15.490644 C 50.613294 -15.154706 55.472669 -11.990644 57.484387 -10.49455 " transform="matrix(1,0,0,-1,517.5703,155.3492)"/>
<g clip-path="url(#clip3)" clip-rule="nonzero">
<g clip-path="url(#clip4)" clip-rule="nonzero">
<path style=" stroke:none;fill-rule:nonzero;fill:rgb(0%,0%,0%);fill-opacity:1;" d="M 382.875 336.273438 L 388.34375 247.832031 L 368.226562 253.980469 L 366.148438 314.742188 L 330.5625 265.5 L 310.445312 271.648438 L 364.433594 341.910156 Z M 438.976562 319.117188 L 414.71875 239.765625 L 396.5 245.335938 L 420.761719 324.6875 Z M 473.738281 308.492188 L 463.175781 273.960938 L 495.195312 301.929688 L 517.660156 295.0625 L 488.609375 271.195312 L 476.429688 271.738281 L 476.542969 271.707031 C 493.082031 266.648438 499.363281 253.605469 495.261719 240.195312 C 491.332031 227.34375 478.871094 220.152344 462.328125 225.210938 L 431.257812 234.710938 L 455.519531 314.0625 Z M 464.207031 241.75 C 469.90625 240.003906 475.332031 241.765625 477.109375 247.578125 C 478.988281 253.726562 475.441406 258.109375 469.742188 259.851562 L 459.792969 262.894531 L 454.257812 244.789062 Z M 464.207031 241.75 "/>
</g>
</g>
<g clip-path="url(#clip5)" clip-rule="nonzero">
<g clip-path="url(#clip6)" clip-rule="nonzero">
<path style="fill:none;stroke-width:1;stroke-linecap:butt;stroke-linejoin:miter;stroke:rgb(0%,0%,0%);stroke-opacity:1;stroke-miterlimit:4;" d="M 0.0005 -0.0003375 L 5.46925 88.441069 L -14.647938 82.292631 L -16.726063 21.530912 L -52.312 70.7731 L -72.429188 64.624662 L -18.440906 -5.637056 Z M 56.102062 17.155912 L 31.84425 96.507475 L 13.6255 90.937162 L 37.887219 11.5856 Z M 90.863781 27.780912 L 80.301281 62.312162 L 112.320812 34.343412 L 134.785656 41.2106 L 105.734875 65.077787 L 93.555187 64.534819 L 93.668469 64.566069 C 110.207531 69.624662 116.488781 82.667631 112.387219 96.077787 C 108.457531 108.92935 95.996594 116.120756 79.453625 111.062162 L 48.383312 101.562162 L 72.645031 22.2106 Z M 81.332531 94.5231 C 87.03175 96.269194 92.457531 94.507475 94.234875 88.694975 C 96.113781 82.546537 92.566906 78.163725 86.867687 76.421537 L 76.918469 73.378569 L 71.383312 91.484037 Z M 81.332531 94.5231 " transform="matrix(1,0,0,-1,382.8745,336.2731)"/>
</g>
</g>
<g clip-path="url(#clip7)" clip-rule="nonzero">
<g clip-path="url(#clip8)" clip-rule="nonzero">
<path style=" stroke:none;fill-rule:nonzero;fill:rgb(0%,0%,0%);fill-opacity:1;" d="M 210.5625 287.519531 L 211.535156 272.3125 L 240.148438 263.566406 L 249.570312 275.59375 L 270.132812 269.308594 L 215.25 199.316406 L 196.363281 205.09375 L 190 293.808594 Z M 213.097656 226.253906 L 230.1875 249.378906 L 211.859375 254.984375 Z M 296.0625 261.378906 L 280.515625 210.527344 L 330.484375 250.855469 L 349.375 245.082031 L 325.113281 165.730469 L 307.230469 171.195312 L 322.640625 221.601562 L 273.144531 181.617188 L 253.921875 187.5 L 278.179688 266.847656 Z M 397.652344 230.320312 L 378.210938 166.726562 L 398.21875 160.609375 L 393.398438 144.851562 L 335.171875 162.65625 L 339.988281 178.414062 L 359.992188 172.296875 L 379.4375 235.890625 Z M 445.9375 215.558594 L 421.675781 136.210938 L 403.457031 141.777344 L 427.71875 221.128906 Z M 445.9375 215.558594 "/>
</g>
</g>
<g clip-path="url(#clip9)" clip-rule="nonzero">
<g clip-path="url(#clip10)" clip-rule="nonzero">
<path style="fill:none;stroke-width:1;stroke-linecap:butt;stroke-linejoin:miter;stroke:rgb(0%,0%,0%);stroke-opacity:1;stroke-miterlimit:4;" d="M -0.0015 0.00156875 L 0.971156 15.2086 L 29.584438 23.954694 L 39.006313 11.92735 L 59.568813 18.212506 L 4.686 88.204694 L -14.200719 82.42735 L -20.564 -6.287494 Z M 2.533656 61.267194 L 19.6235 38.142194 L 1.295375 32.536725 Z M 85.4985 26.142194 L 69.951625 76.993756 L 119.920375 36.665631 L 138.811 42.439069 L 114.549281 121.790631 L 96.666469 116.325787 L 112.076625 65.919537 L 62.580531 105.903912 L 43.357875 100.0211 L 67.615688 20.673444 Z M 187.088344 57.200787 L 167.646938 120.794537 L 187.65475 126.911725 L 182.834438 142.669537 L 124.607875 124.86485 L 129.424281 109.107037 L 149.428188 115.224225 L 168.8735 51.630475 Z M 235.3735 71.962506 L 211.111781 151.310162 L 192.893031 145.743756 L 217.15475 66.392194 Z M 235.3735 71.962506 " transform="matrix(1,0,0,-1,210.564,287.5211)"/>
</g>
</g>
<path style="fill:none;stroke-width:1;stroke-linecap:butt;stroke-linejoin:miter;stroke:rgb(0%,0%,0%);stroke-opacity:1;stroke-miterlimit:10;" d="M -0.00101875 -0.0004125 C -9.387737 -6.9926 -17.262737 -22.484788 -20.110394 -34.644944 C -22.290081 -43.969163 -24.469769 -53.129319 -23.293987 -55.96135 C -22.122112 -58.793381 -15.418987 -60.289475 -7.540081 -59.625413 C -2.516644 -59.293381 2.514606 -58.457444 7.038044 -56.96135 C 11.22945 -64.453538 18.60445 -71.285569 25.639606 -76.945725 L 24.131794 -87.605881 L 23.631794 -102.262131 L 20.276325 -110.922288 C 15.252888 -118.250413 -1.340862 -139.402756 -9.0518 -151.562913 C -16.758831 -163.719163 -11.39555 -162.219163 -11.731487 -165.383225 C -11.899456 -167.051194 -3.016644 -172.047288 6.1982 -176.21135 C -1.008831 -194.195725 -3.856487 -204.52385 -1.6768 -216.6801 C -5.528362 -216.848069 -9.887737 -218.016038 -18.77055 -230.672288 L -50.946331 -276.309006 C -72.567425 -278.473069 -87.481487 -277.641038 -91.336956 -258.984788 C -93.180706 -250.660569 -96.028362 -240.832444 -103.403362 -235.83635 C -116.977581 -226.676194 -140.942425 -266.312913 -184.684612 -269.144944 C -226.58305 -271.812913 -231.610394 -239.664475 -250.715862 -229.508225 C -269.821331 -219.348069 -339.204144 -230.340256 -338.3643 -169.383225 C -338.196331 -150.062913 -381.602581 -127.410569 -368.532269 -111.254319 C -367.024456 -109.258225 -365.348675 -109.258225 -363.336956 -110.090256 C -278.704144 -142.234788 -191.219769 -131.906663 -162.227581 -104.094163 C -124.016644 -67.621506 -81.6143 -54.46135 -0.00101875 -0.0004125 Z M -0.00101875 -0.0004125 " transform="matrix(1,0,0,-1,491.4268,78.0699)"/>
<path style="fill:none;stroke-width:1;stroke-linecap:butt;stroke-linejoin:miter;stroke:rgb(0%,0%,0%);stroke-opacity:1;stroke-miterlimit:10;" d="M 0.00191875 -0.00040625 C -26.646519 -26.480875 -52.79105 -54.793375 -73.740269 -88.105875 C -90.162144 -114.254313 -131.056675 -165.051188 -217.365269 -162.887125 C -281.552769 -161.387125 -312.220738 -153.394938 -334.005894 -130.406656 C -338.029331 -126.242594 -341.8848 -120.7465 -345.740269 -114.254313 " transform="matrix(1,0,0,-1,483.8848,84.066)"/>
<path style="fill:none;stroke-width:1;stroke-linecap:butt;stroke-linejoin:miter;stroke:rgb(0%,0%,0%);stroke-opacity:1;stroke-miterlimit:4;" d="M -0.001 0.001625 L 6.143531 -10.631188 L 13.229469 -12.049156 L 14.999 -15.236656 L 17.479469 -17.717125 L 17.479469 -22.678063 " transform="matrix(1,0,0,-1,602.126,348.5485)"/>
<path style="fill:none;stroke-width:1;stroke-linecap:butt;stroke-linejoin:miter;stroke:rgb(0%,0%,0%);stroke-opacity:1;stroke-miterlimit:4;" d="M 0.000025 0.00159375 L 34.01565 1.638312 L 36.378931 -2.228875 L 40.628931 -4.252313 L 46.773463 -1.310906 L 53.914088 -2.228875 " transform="matrix(1,0,0,-1,604.0156,346.068)"/>
<path style="fill:none;stroke-width:1;stroke-linecap:butt;stroke-linejoin:miter;stroke:rgb(0%,0%,0%);stroke-opacity:1;stroke-miterlimit:4;" d="M 0.0019125 -0.00036875 L 2.298787 7.4801 L 9.208944 9.249631 L 12.2441 9.249631 L 14.017537 13.503537 L 14.017537 18.464475 " transform="matrix(1,0,0,-1,601.6934,343.9801)"/>
<path style="fill:none;stroke-width:1;stroke-linecap:butt;stroke-linejoin:miter;stroke:rgb(0%,0%,0%);stroke-opacity:1;stroke-miterlimit:4;" d="M 0.00094375 -0.00035 L -3.93265 -3.301131 L -3.93265 -6.93785 L -7.475619 -8.707381 " transform="matrix(1,0,0,-1,599.0889,347.2809)"/>
</g>
</svg>
