<?xml version="1.0" encoding="UTF-8" standalone="no"?>
<!DOCTYPE svg PUBLIC "-//W3C//DTD SVG 1.1//EN" "http://www.w3.org/Graphics/SVG/1.1/DTD/svg11.dtd">
<svg width="100%" height="100%" viewBox="0 0 541 484" version="1.1" xmlns="http://www.w3.org/2000/svg" xmlns:xlink="http://www.w3.org/1999/xlink" xml:space="preserve" xmlns:serif="http://www.serif.com/" style="fill-rule:evenodd;clip-rule:evenodd;">
    <g transform="matrix(1,0,0,1,-6505.51,-1530.71)">
        <g id="Page-17" serif:id="Page 17" transform="matrix(1,0,0,1,6505.51,1530.71)">
            <rect x="0" y="0" width="540.71" height="483.793" style="fill:none;"/>
            <g id="Layer-1" serif:id="Layer 1">
                <g transform="matrix(1,0,0,1,184.641,198.894)">
                    <path d="M0,-4.521L4.441,-4.521L4.441,0" style="fill:none;fill-rule:nonzero;stroke:black;stroke-width:0.47px;"/>
                </g>
                <g transform="matrix(1,0,0,1,189.082,189.437)">
                    <path d="M0,-4.521L0,0L-4.441,0" style="fill:none;fill-rule:nonzero;stroke:black;stroke-width:0.47px;"/>
                </g>
                <g transform="matrix(1,0,0,1,198.389,184.916)">
                    <path d="M0,4.521L-4.44,4.521L-4.44,0" style="fill:none;fill-rule:nonzero;stroke:black;stroke-width:0.47px;"/>
                </g>
                <g transform="matrix(1,0,0,1,193.949,194.373)">
                    <path d="M0,4.521L0,0L4.44,0" style="fill:none;fill-rule:nonzero;stroke:black;stroke-width:0.47px;"/>
                </g>
                <g transform="matrix(1,0,0,1,433.156,367.083)">
                    <path d="M0,0.003C0,0.774 0.773,1.355 1.547,1.355L12.762,1.355C13.536,1.355 14.309,0.774 14.309,0.003C14.309,-0.772 13.536,-1.352 12.762,-1.352L1.547,-1.352C0.773,-1.352 0,-0.772 0,0.003" style="fill-rule:nonzero;"/>
                </g>
                <g transform="matrix(-1,0,0,1,540.88,33.809)">
                    <rect x="130.734" y="139.912" width="279.412" height="170.16" style="fill:none;stroke:black;stroke-width:0.56px;stroke-miterlimit:10;"/>
                </g>
                <g transform="matrix(1,0,0,1,114.297,359.93)">
                    <path d="M0,0L312.285,0" style="fill:none;fill-rule:nonzero;stroke:black;stroke-width:0.56px;stroke-miterlimit:10;"/>
                </g>
                <g transform="matrix(1,0,0,1,70.2109,155.351)">
                    <path d="M0,216.954L0,204.579L44.086,204.579L44.086,8.121C44.086,2.319 46.794,-0.193 52.595,-0.193L347.863,-0.193C353.857,-0.193 356.371,2.319 356.371,8.701L356.371,204.579L400.264,204.579L400.264,217.147" style="fill:none;fill-rule:nonzero;stroke:black;stroke-width:0.56px;stroke-miterlimit:10;"/>
                </g>
                <g transform="matrix(-0.105211,-0.99445,-0.99445,0.105211,262.404,331.418)">
                    <path d="M-32.388,-35.136C-37.629,-33.221 -38.084,-32.006 -37.616,-27.583L-32.388,21.835C-31.818,27.22 -30.968,27.907 -25.654,28.512L-32.388,-35.136Z" style="fill-rule:nonzero;stroke:black;stroke-width:0.56px;stroke-miterlimit:10;"/>
                </g>
                <g transform="matrix(1,0,0,1,470.499,380.74)">
                    <path d="M0,-8.121C0,-6.574 -0.581,-5.994 -1.741,-5.221C-7.155,-2.318 -12.568,0.193 -19.144,0.193C-139.996,-0 -260.655,-0 -381.508,0.193C-387.889,0.193 -393.304,-2.318 -398.523,-5.414C-399.297,-5.801 -400.265,-6.767 -400.265,-8.314L0,-8.121Z" style="fill-rule:nonzero;stroke:black;stroke-width:0.56px;stroke-miterlimit:10;"/>
                </g>
                <g transform="matrix(1,0,0,1,410.146,259.018)">
                    <path d="M0,20.256L-48.935,-6.669C-50.844,-7.588 -51.474,-10.134 -49.869,-11.798L-15.963,-44.957C-13.323,-47.562 -15.036,-50.962 -18.847,-51.329L-168.763,-64.369C-170.92,-64.606 -172.61,-62.276 -171.554,-60.272L-105.125,74.814C-103.412,78.214 -99.622,78.42 -98.065,74.96L-79.302,31.476C-78.401,29.405 -76.321,28.994 -74.496,30.579L-10.723,84.862L0,84.862L0,20.256Z" style="fill:white;fill-rule:nonzero;stroke:black;stroke-width:0.56px;stroke-miterlimit:10;"/>
                </g>
            </g>
        </g>
    </g>
</svg>
