<?xml version="1.0" encoding="UTF-8"?>
<svg xmlns="http://www.w3.org/2000/svg" xmlns:xlink="http://www.w3.org/1999/xlink" width="540.71pt" height="483.793pt" viewBox="0 0 540.71 483.793" version="1.1">
<defs>
<clipPath id="clip1">
  <path d="M 221 179 L 421.378906 179 L 421.378906 341.460938 L 221 341.460938 Z M 221 179 "/>
</clipPath>
<clipPath id="clip2">
  <path d="M 211 168 L 421.378906 168 L 421.378906 341.460938 L 211 341.460938 Z M 211 168 "/>
</clipPath>
</defs>
<g id="surface1">
<path style=" stroke:none;fill-rule:nonzero;fill:rgb(94.099426%,37.298584%,0%);fill-opacity:1;" d="M 0 481.890625 L 538.582031 481.890625 L 538.582031 0 L 0 0 Z M 0 481.890625 "/>
<path style=" stroke:none;fill-rule:nonzero;fill:rgb(0%,0%,0%);fill-opacity:1;" d="M 487.109375 359.136719 L 487.109375 372.980469 C 487.109375 374.6875 486.476562 375.324219 485.214844 376.175781 C 479.3125 379.371094 473.417969 382.140625 466.253906 382.140625 C 334.578125 381.925781 203.113281 381.925781 71.4375 382.140625 C 64.484375 382.140625 58.585938 379.371094 52.898438 375.964844 C 52.054688 375.535156 51.003906 374.472656 51.003906 372.769531 L 51.003906 359.136719 L 99.039062 359.136719 L 99.039062 142.738281 C 99.039062 136.351562 101.988281 133.578125 108.304688 133.578125 L 430.015625 133.578125 C 436.546875 133.578125 439.285156 136.351562 439.285156 143.375 L 439.285156 359.136719 Z M 487.109375 359.136719 "/>
<path style=" stroke:none;fill-rule:nonzero;fill:rgb(94.099426%,37.298584%,0%);fill-opacity:1;" d="M 100.300781 359.136719 L 437.8125 359.136719 L 437.8125 143.164062 C 437.8125 136.5625 435.914062 134.644531 429.171875 134.644531 L 106.832031 134.644531 C 102.828125 134.859375 100.300781 137.414062 100.300781 141.671875 Z M 100.300781 359.136719 "/>
<path style=" stroke:none;fill-rule:nonzero;fill:rgb(94.099426%,37.298584%,0%);fill-opacity:1;" d="M 234.292969 360.628906 L 52.265625 360.628906 L 52.265625 373.40625 L 485.847656 373.40625 L 485.847656 360.628906 L 304.027344 360.628906 C 302.554688 366.59375 301.289062 367.230469 296.445312 367.230469 L 242.300781 367.230469 C 236.398438 367.230469 235.558594 366.378906 234.292969 360.628906 "/>
<path style=" stroke:none;fill-rule:nonzero;fill:rgb(0%,0%,0%);fill-opacity:1;" d="M 235.976562 360.628906 C 236.613281 365.101562 237.875 365.953125 241.457031 365.953125 L 297.289062 365.953125 C 300.660156 365.953125 301.289062 364.675781 302.34375 360.628906 Z M 235.976562 360.628906 "/>
<path style=" stroke:none;fill-rule:nonzero;fill:rgb(0%,0%,0%);fill-opacity:1;" d="M 115.679688 342.3125 L 422.640625 342.3125 L 422.851562 155.304688 C 422.851562 152.960938 421.796875 152.324219 419.480469 152.535156 L 117.785156 152.535156 C 115.679688 152.535156 115.679688 153.175781 115.679688 154.878906 Z M 115.679688 342.3125 "/>
<path style=" stroke:none;fill-rule:nonzero;fill:rgb(94.099426%,37.298584%,0%);fill-opacity:1;" d="M 421.378906 341.460938 L 116.945312 341.460938 L 116.945312 154.027344 L 421.378906 154.027344 Z M 421.378906 341.460938 "/>
<g clip-path="url(#clip1)" clip-rule="nonzero">
<path style=" stroke:none;fill-rule:nonzero;fill:rgb(100%,100%,100%);fill-opacity:1;" d="M 477.117188 309.171875 L 358.339844 243.566406 C 356.210938 242.542969 355.511719 239.707031 357.296875 237.855469 L 395.0625 200.921875 C 398.003906 198.019531 396.09375 194.234375 391.847656 193.824219 L 224.871094 179.300781 C 222.46875 179.035156 220.585938 181.632812 221.761719 183.863281 L 295.753906 334.324219 C 297.660156 338.109375 301.882812 338.339844 303.613281 334.488281 L 324.515625 286.054688 C 325.515625 283.746094 327.835938 283.289062 329.867188 285.054688 L 433.585938 372.867188 Z M 477.117188 309.171875 "/>
</g>
<g clip-path="url(#clip2)" clip-rule="nonzero">
<path style="fill:none;stroke-width:0.729;stroke-linecap:butt;stroke-linejoin:miter;stroke:rgb(0%,0%,0%);stroke-opacity:1;stroke-miterlimit:10;" d="M -0.0019125 0.000025 L -118.779256 65.605494 C -120.908163 66.628931 -121.607381 69.464869 -119.822225 71.316431 L -82.0566 108.250025 C -79.115194 111.152369 -81.02535 114.937525 -85.271444 115.347681 L -252.248006 129.871119 C -254.65035 130.136744 -256.533163 127.539087 -255.357381 125.308619 L -181.365194 -25.152319 C -179.458944 -28.937475 -175.236288 -29.167944 -173.505819 -25.316381 L -152.603475 23.117212 C -151.603475 25.425806 -149.283163 25.882837 -147.251913 24.117212 L -43.533163 -63.695288 Z M -0.0019125 0.000025 " transform="matrix(1,0,0,-1,477.1191,309.1719)"/>
</g>
<path style=" stroke:none;fill-rule:nonzero;fill:rgb(0%,0%,0%);fill-opacity:1;" d="M 446.449219 367.019531 C 446.449219 367.871094 447.292969 368.507812 448.132812 368.507812 L 460.351562 368.507812 C 461.195312 368.507812 462.039062 367.871094 462.039062 367.019531 C 462.039062 366.164062 461.195312 365.527344 460.351562 365.527344 L 448.132812 365.527344 C 447.292969 365.527344 446.449219 366.164062 446.449219 367.019531 "/>
<path style="fill:none;stroke-width:2.188;stroke-linecap:butt;stroke-linejoin:miter;stroke:rgb(0%,0%,0%);stroke-opacity:1;stroke-miterlimit:4;" d="M -0.0019125 -0.00189375 L 5.03715 -0.00189375 L 5.03715 -5.126894 " transform="matrix(1,0,0,-1,168.4941,171.9317)"/>
<path style="fill:none;stroke-width:2.188;stroke-linecap:butt;stroke-linejoin:miter;stroke:rgb(0%,0%,0%);stroke-opacity:1;stroke-miterlimit:4;" d="M 0.00005 -0.0019375 L 0.00005 -5.126938 L -5.035106 -5.126938 " transform="matrix(1,0,0,-1,173.5312,161.209)"/>
<path style="fill:none;stroke-width:2.188;stroke-linecap:butt;stroke-linejoin:miter;stroke:rgb(0%,0%,0%);stroke-opacity:1;stroke-miterlimit:4;" d="M 0.0019375 -0.0009375 L -5.033219 -0.0009375 L -5.033219 5.124062 " transform="matrix(1,0,0,-1,184.084,166.335)"/>
<path style="fill:none;stroke-width:2.188;stroke-linecap:butt;stroke-linejoin:miter;stroke:rgb(0%,0%,0%);stroke-opacity:1;stroke-miterlimit:4;" d="M -0.001925 0.00000625 L -0.001925 5.125006 L 5.033231 5.125006 " transform="matrix(1,0,0,-1,179.0488,177.0586)"/>
</g>
</svg>
