<?xml version="1.0" encoding="UTF-8" standalone="no"?><!DOCTYPE svg PUBLIC "-//W3C//DTD SVG 1.1//EN" "http://www.w3.org/Graphics/SVG/1.1/DTD/svg11.dtd"><svg width="100%" height="100%" viewBox="0 0 819 431" version="1.1" xmlns="http://www.w3.org/2000/svg" xmlns:xlink="http://www.w3.org/1999/xlink" xml:space="preserve" xmlns:serif="http://www.serif.com/" style="fill-rule:evenodd;clip-rule:evenodd;stroke-miterlimit:1;"><rect id="Artboard1" x="0" y="0" width="818.504" height="430.233" style="fill:none;"/><clipPath id="_clip1"><rect x="0" y="0" width="818.504" height="430.233"/></clipPath><g clip-path="url(#_clip1)"><path d="M65.005,71.234c0,1.992 -2.52,1.873 -2.52,1.873l-2.521,0l0,-3.598l2.521,0c2.592,-0.02 2.52,1.725 2.52,1.725m-5.041,-7.209l1.923,0c1.995,0.103 1.916,1.562 1.916,1.562c0,1.813 -2.201,1.844 -2.201,1.844l-1.638,0l0,-3.406Zm4.577,4.113c0,0 1.721,-0.722 1.71,-2.639c0,0 0.279,-3.142 -3.973,-3.525l-4.694,0l0,13.168l5.381,0c0,0 4.498,0.012 4.498,-3.716c0,0 0.112,-2.536 -2.922,-3.288" style="fill-rule:nonzero;"/><path d="M87.803,71.234c0,1.992 -2.52,1.873 -2.52,1.873l-2.521,0l0,-3.598l2.521,0c2.592,-0.02 2.52,1.725 2.52,1.725m-5.041,-7.209l1.923,0c1.994,0.103 1.917,1.562 1.917,1.562c0,1.813 -2.202,1.844 -2.202,1.844l-1.638,0l0,-3.406Zm4.577,4.113c0,0 1.721,-0.722 1.71,-2.639c0,0 0.279,-3.142 -3.973,-3.525l-4.693,0l0,13.168l5.381,0c0,0 4.498,0.012 4.498,-3.716c0,0 0.111,-2.536 -2.923,-3.288" style="fill-rule:nonzero;"/><path d="M125.366,102.615c-0.656,0.93 -1.611,1.65 -2.865,2.163c-1.235,0.493 -2.712,0.739 -4.429,0.739c-1.119,-0 -2.229,-0.123 -3.329,-0.369c-1.099,-0.247 -2.132,-0.627 -3.097,-1.138l-0,-3.302c1.988,1.214 4.149,1.822 6.484,1.822c1.447,-0 2.557,-0.267 3.329,-0.798c0.791,-0.53 1.186,-1.262 1.186,-2.191c-0,-0.531 -0.116,-0.967 -0.347,-1.309c-0.232,-0.361 -0.55,-0.655 -0.955,-0.883c-0.386,-0.246 -0.84,-0.446 -1.361,-0.597c-0.502,-0.153 -1.032,-0.294 -1.592,-0.427c-1.023,-0.247 -1.958,-0.522 -2.807,-0.825c-0.83,-0.322 -1.554,-0.702 -2.171,-1.139c-0.598,-0.435 -1.061,-0.976 -1.389,-1.622c-0.328,-0.645 -0.492,-1.433 -0.492,-2.362c-0,-1.253 0.318,-2.325 0.955,-3.217c0.637,-0.911 1.543,-1.613 2.72,-2.106c1.177,-0.494 2.577,-0.74 4.198,-0.74c1.061,-0 2.112,0.123 3.154,0.369c1.042,0.248 1.969,0.58 2.779,0.998l-0,3.215c-0.772,-0.474 -1.679,-0.854 -2.721,-1.138c-1.022,-0.304 -2.113,-0.456 -3.271,-0.456c-1.312,-0 -2.334,0.247 -3.067,0.741c-0.734,0.474 -1.1,1.157 -1.1,2.049c-0,0.645 0.173,1.157 0.521,1.537c0.347,0.36 0.839,0.654 1.476,0.882c0.636,0.209 1.379,0.418 2.228,0.625c0.927,0.229 1.804,0.485 2.634,0.77c0.849,0.283 1.592,0.654 2.229,1.109c0.656,0.437 1.167,0.996 1.534,1.68c0.367,0.683 0.55,1.537 0.55,2.563c-0,1.308 -0.328,2.427 -0.984,3.357m-18.474,-7.6c-0.926,3.397 -1.891,6.756 -2.894,10.077l-3.879,-0c-0.714,-2.429 -1.418,-4.868 -2.113,-7.315c-0.694,-2.448 -1.37,-4.896 -2.026,-7.344c-0.656,2.429 -1.331,4.877 -2.026,7.344c-0.676,2.447 -1.37,4.885 -2.084,7.315l-3.878,-0c-1.023,-3.321 -1.998,-6.68 -2.924,-10.077c-0.926,-3.396 -1.804,-6.82 -2.634,-10.274l3.965,-0c0.56,2.77 1.149,5.55 1.766,8.339c0.637,2.771 1.303,5.484 1.997,8.14c0.734,-2.619 1.438,-5.227 2.113,-7.826c0.695,-2.6 1.361,-5.2 1.998,-7.799l3.617,-0c0.637,2.581 1.293,5.151 1.969,7.713c0.675,2.562 1.37,5.123 2.084,7.685c0.694,-2.638 1.35,-5.322 1.968,-8.056c0.617,-2.731 1.206,-5.463 1.765,-8.196l3.879,-0c-0.849,3.454 -1.737,6.878 -2.663,10.274m-26.785,10.077l-14.384,-0l-0.001,-20.351l13.836,-0l-0,3.046l-10.16,-0l-0,5.265l9.059,-0l-0,3.045l-9.059,-0l-0,5.949l10.709,-0l-0,3.046Zm-19.177,-0l-3.705,-0c-1.1,-1.689 -2.228,-3.397 -3.387,-5.123c-1.138,-1.728 -2.276,-3.435 -3.414,-5.124c-1.139,-1.689 -2.268,-3.33 -3.387,-4.924l-0,15.171l-3.531,-0l-0,-20.351l3.705,-0c1.736,2.467 3.444,4.952 5.123,7.457c1.698,2.505 3.386,5.047 5.065,7.628l-0,-15.085l3.531,-0l-0,20.351Zm-8.542,-45.698l19.77,-0l-0,18.32l-19.77,-0l-0,-18.32Zm22.799,-0l19.769,-0l-0,18.32l-19.769,-0l-0,-18.32Zm22.798,-0l19.77,-0l-0,18.32l-19.77,-0l-0,-18.32Zm-69.402,78.293l112.636,-0l-0,-110.76l-112.636,-0l-0,110.76Z" style="fill-rule:nonzero;"/><path d="M108.579,73.21c-5.308,-0.25 -5.14,-4.653 -5.14,-4.653c0.223,-4.789 5.202,-4.694 5.202,-4.694c2.665,0.03 5.079,1.489 5.079,1.489l-0,-2.433c-2.19,-0.899 -3.704,-1.047 -3.704,-1.047c-2.532,-0.235 -3.94,0.296 -3.94,0.296c-5.28,1.591 -5.113,6.389 -5.113,6.389c0.151,4.662 4.107,6.084 4.107,6.084c4.705,1.828 8.773,-0.545 8.773,-0.545l-0,-2.521c-3.028,1.9 -5.264,1.635 -5.264,1.635" style="fill-rule:nonzero;"/><path d="M606.831,300.076c-0.052,-8.57 -0.175,-27.274 -0.175,-27.274c-18.315,-26.861 -27.796,-44.14 -52.572,-66.372l4.171,-7.667c5.404,-8.453 13.281,-17.082 14.284,-18.23c4.325,-4.89 5.455,-3.009 8.459,-5.641c2.894,-2.531 4.408,-2.803 7.186,-3.155c0.32,-0.126 0.657,-0.234 1.012,-0.318c0.023,-0.03 0.052,-0.072 0.075,-0.1c2.446,-1.691 3.76,-3.384 5.641,-3.572c2.255,-3.194 5.829,-3.948 6.957,-4.137c1.879,-1.127 4.134,-3.948 4.885,-4.699c0.567,-0.564 3.576,-5.451 4.327,-5.829c0.751,-0.374 2.441,-3.946 4.322,-4.698c2.823,-2.821 4.511,-4.7 6.016,-5.454c1.504,-0.752 6.582,-3.382 7.709,-3.571c0.563,-0.19 1.503,-0.751 2.068,-0.751c3.008,-0.941 3.572,0.561 3.385,1.879c-0.19,1.128 -1.695,1.879 -3.574,3.759c-1.879,1.881 -2.82,4.702 -3.381,6.205c-0.567,1.691 -1.317,5.828 -3.199,8.838c3.199,-2.633 6.769,-5.642 9.213,-5.642c1.128,-0 1.88,1.127 2.068,2.445c-1.504,0.939 -8.837,9.023 -10.153,10.339c-1.316,1.316 -7.329,5.076 -15.225,6.767c-0.377,0.565 -5.267,5.264 -6.018,6.394c-0.447,0.626 -2.094,1.551 -3.813,2.452c-0.058,0.402 -0.145,0.798 -0.26,1.19c0.042,-0.025 0.083,-0.05 0.127,-0.072c-0.073,1.87 -1.935,4.702 -4.244,7.581c0.456,0.257 0.869,0.557 1.235,0.895c0.671,0.372 1.197,0.993 1.638,1.759c0.308,0.335 2.341,7.778 2.582,8.161l6.207,4.036l0.917,-4.316c7.007,-29.559 31.736,-43.497 49.943,-49.324c27.448,9.59 55.46,25.945 73.696,48.317c16.978,1.476 24.891,5.487 29.978,8.657l1.146,1.184c-52.398,31.004 -104.311,60.357 -156.633,89.964" style="fill:#fff;fill-rule:nonzero;"/><path d="M588.23,171.853c-3.009,0.378 -4.513,0.564 -7.52,3.196c-3.007,2.634 -4.136,0.754 -8.459,5.642c-1.316,1.503 -11.472,12.595 -15.608,21.244" style="fill:none;fill-rule:nonzero;stroke:#000;stroke-width:1px;"/><path d="M629.026,139.518c1.126,-0.188 1.881,1.505 0.375,3.007c-0.375,0.379 -3.948,2.634 -5.078,3.762" style="fill:none;fill-rule:nonzero;stroke:#000;stroke-width:1px;"/><path d="M615.113,148.544c1.128,-0.377 7.895,-2.258 8.649,-1.883c1.881,0.942 -0.378,2.82 -6.017,4.89c-1.316,1.504 -1.695,2.818 -1.881,3.571" style="fill:none;fill-rule:nonzero;stroke:#000;stroke-width:1px;"/><path d="M619.695,152.5l1.335,-2.307" style="fill:none;fill-rule:nonzero;stroke:#000;stroke-width:1px;"/><path d="M622.258,152.867l1.504,-2.443c1.128,-1.879 1.881,-3.386 4.698,-6.206c2.635,-2.632 4.136,-3.195 3.948,-4.511c-0.187,-0.751 -0.563,-0.941 -1.313,-0.941" style="fill:none;fill-rule:nonzero;stroke:#000;stroke-width:1px;"/><path d="M608.344,150.609l-71.44,41.36" style="fill:none;fill-rule:nonzero;stroke:#000;stroke-width:1px;"/><path d="M567.173,185.578l-21.056,12.219" style="fill:none;fill-rule:nonzero;stroke:#000;stroke-width:1px;"/><path d="M630.907,254.384c-12.221,13.914 -19.74,19.931 -20.868,20.307" style="fill:none;fill-rule:nonzero;stroke:#000;stroke-width:1px;"/><path d="M630.907,138.766c3.005,-0.939 3.57,0.563 3.381,1.88c-0.188,1.129 -1.693,1.879 -3.571,3.76c-1.881,1.881 -2.819,4.699 -3.386,6.203c-0.56,1.693 -1.313,5.829 -3.192,8.836c3.192,-2.632 6.768,-5.639 9.21,-5.639c1.128,0 1.879,1.128 2.067,2.444c-1.504,0.94 -8.836,9.024 -10.152,10.339c-1.315,1.318 -7.331,5.076 -15.225,6.769c-0.377,0.564 -5.266,5.264 -6.019,6.39c-0.94,1.318 -7.144,3.951 -8.269,4.89c-0.942,0.752 -3.386,-3.008 -5.078,-2.633c-1.507,0.377 -3.762,-3.006 -5.453,-4.322c1.317,-2.258 2.823,-5.078 3.761,-6.204c2.445,-1.693 3.759,-3.384 5.64,-3.572c2.255,-3.198 5.827,-3.947 6.955,-4.137c1.88,-1.128 4.136,-3.948 4.889,-4.699c0.561,-0.564 3.574,-5.451 4.323,-5.827c0.753,-0.377 2.446,-3.951 4.325,-4.7c2.82,-2.82 4.513,-4.703 6.017,-5.457c1.505,-0.749 6.578,-3.381 7.706,-3.569c0.565,-0.189 1.504,-0.752 2.071,-0.752Z" style="fill:none;fill-rule:nonzero;stroke:#000;stroke-width:1px;"/><path d="M591.426,207.574c-1.506,3.197 -3.574,8.273 -4.701,10.154c-3.009,5.075 -7.897,12.03 -8.273,12.783" style="fill:none;fill-rule:nonzero;stroke:#000;stroke-width:1px;"/><path d="M591.426,196.106c2.067,1.504 4.325,4.325 3.948,6.581" style="fill:none;fill-rule:nonzero;stroke:#000;stroke-width:1px;"/><path d="M590.294,197.223c0.753,2.444 3.199,7.343 2.446,8.658" style="fill:none;fill-rule:nonzero;stroke:#000;stroke-width:1px;"/><path d="M588.23,202.124c0.567,5.075 -1.318,13.347 -7.33,19.738c-2.071,2.255 -5.266,3.574 -6.207,3.574" style="fill:none;fill-rule:nonzero;stroke:#000;stroke-width:1px;"/><path d="M575.634,216.222c3.572,-4.889 10.152,-12.785 11.091,-14.853c0.753,-1.69 13.16,-13.16 13.349,-18.047c-5.264,2.82 -9.4,6.205 -13.726,6.766l-3.569,-8.645c0.753,-1.128 1.502,-2.444 2.255,-3.574" style="fill:none;fill-rule:nonzero;stroke:#000;stroke-width:1px;"/><path d="M612.857,208.89l-11.281,-7.332c-1.503,-3.009 -2.722,-9.338 -5.731,-10.463" style="fill:none;fill-rule:nonzero;stroke:#000;stroke-width:1px;"/><path d="M717.761,294.807l0,-9.213c0,-1.317 0.751,-2.634 1.879,-3.383l25.568,-15.042c4.136,-2.446 8.461,0.188 8.461,4.888l0,9.966c0,1.502 -0.751,2.632 -2.069,3.383l-25.566,14.289c-3.95,2.254 -8.273,-0.377 -8.273,-4.888Z" style="fill:none;fill-rule:nonzero;stroke:#000;stroke-width:1px;"/><path d="M554.201,388.805l-0,-9.211c-0,-1.316 0.753,-2.634 1.881,-3.384l25.568,-15.042c4.136,-2.443 8.46,0.189 8.46,4.888l-0,9.965c-0,1.506 -0.753,2.63 -2.067,3.385l-25.57,14.287c-3.947,2.258 -8.272,-0.373 -8.272,-4.888Z" style="fill:none;fill-rule:nonzero;stroke:#000;stroke-width:1px;"/><path d="M595.184,73.531c13.349,14.1 24.818,25.943 35.533,50.572" style="fill:none;fill-rule:nonzero;stroke:#000;stroke-width:1px;"/><path d="M600.26,60.558c8.273,27.072 19.742,44.369 39.293,59.221" style="fill:none;fill-rule:nonzero;stroke:#000;stroke-width:1px;"/><path d="M487.838,82.178l0,10.717l153.219,-88.738l0,116.561l-118.253,68.433" style="fill:none;fill-rule:nonzero;stroke:#000;stroke-width:1px;"/><path d="M473.173,70.898l14.851,9.589l160.552,-93.813" style="fill:none;fill-rule:nonzero;stroke:#000;stroke-width:1px;"/><path d="M456.628,71.088l14.288,2.816l-0,-4.133l152.846,-89.301" style="fill:none;fill-rule:nonzero;stroke:#000;stroke-width:1px;"/><path d="M452.115,158.13c8.839,10.905 17.863,18.426 26.699,32.9" style="fill:none;fill-rule:nonzero;stroke:#000;stroke-width:1px;"/><path d="M471.481,195.167c-13.725,-13.536 -27.823,-39.104 -29.704,-60.161c-2.255,-25.943 7.52,-57.527 45.684,-42.862c-9.776,13.158 -21.619,17.672 -37.035,9.773c4.698,12.786 9.21,34.593 0.563,54.896l142.316,-84.221c7.708,-9.025 5.453,-25.756 5.453,-40.796" style="fill:none;fill-rule:nonzero;stroke:#000;stroke-width:1px;"/><path d="M460.2,200.619l-6.202,-7.896l1.316,-7.898c-17.106,-15.79 -26.132,-36.657 -26.132,-69.183c-0,-20.492 15.604,-34.403 25.942,-38.163l-0,-7.332l163.937,-94.75l6.203,3.758l9.213,-4.699l18.235,10.904l-0,134.984" style="fill:none;fill-rule:nonzero;stroke:#000;stroke-width:1px;"/><path d="M650.646,152.491l-0,-14.289" style="fill:none;fill-rule:nonzero;stroke:#000;stroke-width:1px;"/><path d="M607.784,205.593c6.013,-31.587 31.769,-47.464 50.568,-53.479c27.449,9.586 55.46,25.944 73.698,48.317c17.295,1.504 26.334,6.487 31.414,9.681" style="fill:none;fill-rule:nonzero;stroke:#000;stroke-width:1px;"/><path d="M551.38,363.424l-194.954,111.485l-158.298,-90.616l0,-20.869l158.298,90.616l195.33,-112.234" style="fill:none;fill-rule:nonzero;stroke:#000;stroke-width:1px;"/><path d="M608.344,309.283l182.172,-104.717l-136.862,-80.275l-18.05,10.34" style="fill:none;fill-rule:nonzero;stroke:#000;stroke-width:1px;"/><path d="M551.757,331.842l-195.33,112.234l-142.129,-81.401l4.324,-19.555l133.479,76.329l198.527,-114.114" style="fill:none;fill-rule:nonzero;stroke:#000;stroke-width:1px;"/><path d="M356.237,441.822l-4.324,-21.246" style="fill:none;fill-rule:nonzero;stroke:#000;stroke-width:1px;"/><path d="M213.735,395.385l-0,39.481l-13.914,6.956" style="fill:none;fill-rule:nonzero;stroke:#000;stroke-width:1px;"/><path d="M199.444,362.296l16.171,-10.715" style="fill:none;fill-rule:nonzero;stroke:#000;stroke-width:1px;"/><path d="M537.846,194.603c-18.237,-6.394 -42.302,-4.701 -54.895,-3.196l-262.071,150.774" style="fill:none;fill-rule:nonzero;stroke:#000;stroke-width:1px;"/><path d="M287.431,311.724l153.782,-88.357" style="fill:none;fill-rule:nonzero;stroke:#000;stroke-width:1px;"/><path d="M552.696,307.025c-17.483,-25.756 -47.563,-64.106 -69.373,-78.207c-7.894,-5.075 -40.981,-6.58 -57.713,-5.264" style="fill:none;fill-rule:nonzero;stroke:#000;stroke-width:1px;"/><path d="M607.026,272.808c-17.481,-25.754 -44.553,-63.918 -66.927,-77.079l-182.356,104.718c-13.349,32.335 -18.238,63.354 -9.966,106.218" style="fill:none;fill-rule:nonzero;stroke:#000;stroke-width:1px;"/><path d="M553.45,307.402l53.206,-31.396l-0,58.845l-53.206,30.454l-0,-56.399" style="fill:none;fill-rule:nonzero;stroke:#000;stroke-width:1px;"/><path d="M793.148,263.974l16.355,9.587l-453.453,260.38l-157.922,-90.615l-0,38.163l158.299,90.616l453.076,-260.381l-0,-34.4" style="fill:none;fill-rule:nonzero;stroke:#000;stroke-width:1px;"/><path d="M215.616,443.89l140.811,80.651l434.28,-250.417l-0,-68.054" style="fill:none;fill-rule:nonzero;stroke:#000;stroke-width:1px;"/><path d="M790.706,226.375l-182.55,104.528" style="fill:none;fill-rule:nonzero;stroke:#000;stroke-width:1px;"/><path d="M608.344,299.318l161.49,-92.873l-118.626,-69.558l-15.98,9.209" style="fill:none;fill-rule:nonzero;stroke:#000;stroke-width:1px;"/><path d="M545.367,297.627l-196.273,112.798l-114.492,-65.612c23.499,-26.505 67.305,-41.548 121.825,-44.367" style="fill:none;fill-rule:nonzero;stroke:#000;stroke-width:1px;"/><path d="M641.997,182.005l-0,1.316c0.753,0.564 0.941,1.13 1.88,1.879c1.126,0.753 1.294,1.319 2.162,1.541" style="fill:none;fill-rule:nonzero;stroke:#000;stroke-width:1px;"/><path d="M622.444,220.922c1.504,-1.693 5.421,-6.205 6.549,-7.709" style="fill:none;fill-rule:nonzero;stroke:#000;stroke-width:1px;"/><path d="M611.92,275.44l8.457,4.325" style="fill:none;fill-rule:nonzero;stroke:#000;stroke-width:1px;"/><path d="M613.985,263.974c0.753,-0.188 -0,-3.384 16.922,-14.289" style="fill:none;fill-rule:nonzero;stroke:#000;stroke-width:1px;"/><path d="M654.53,196.152c-0.565,-0.186 -0.376,-0.752 0.377,-1.503c0.562,-0.563 0.75,-0.563 1.317,-0c0.371,0.378 0.371,0.941 -0.19,1.503c-0.377,0.376 -0.753,0.19 -1.504,-0" style="fill-rule:nonzero;"/><path d="M657.977,198.738c-0.565,-3.571 -2.818,-5.829 -5.266,-4.699c0,-0 3.385,3.758 5.266,4.699Z" style="fill:none;fill-rule:nonzero;stroke:#000;stroke-width:1px;"/><path d="M673.393,209.83c1.69,0.378 3.946,0.564 5.262,0.564" style="fill:none;fill-rule:nonzero;stroke:#000;stroke-width:1px;"/><path d="M670.01,213.214l4.697,0.564" style="fill:none;fill-rule:nonzero;stroke:#000;stroke-width:1px;"/><path d="M673.579,176.93c-2.253,1.315 -3.781,3.571 -4.909,5.075" style="fill:none;fill-rule:nonzero;stroke:#000;stroke-width:1px;"/><path d="M670.175,192.158c0.377,0.19 5.66,1.505 8.107,1.316" style="fill:none;fill-rule:nonzero;stroke:#000;stroke-width:1px;"/><path d="M667.564,205.13c6.206,4.134 10.151,-1.127 5.829,-2.818" style="fill:none;fill-rule:nonzero;stroke:#000;stroke-width:1px;"/><path d="M682.98,195.541c2.071,-0 4.29,-2.253 5.041,-3.383" style="fill:none;fill-rule:nonzero;stroke:#000;stroke-width:1px;"/><path d="M681.664,193.097c1.881,-0.562 4.325,-3.195 5.267,-4.135" style="fill:none;fill-rule:nonzero;stroke:#000;stroke-width:1px;"/><path d="M670.175,185.324c1.875,-2.82 6.79,-7.454 11.116,-3.506c3.194,3.007 -0.567,7.899 -2.069,7.333" style="fill:none;fill-rule:nonzero;stroke:#000;stroke-width:1px;"/><path d="M642.938,172.231c-1.128,1.691 -1.505,2.633 -1.881,5.827" style="fill:none;fill-rule:nonzero;stroke:#000;stroke-width:1px;"/><path d="M634.853,177.116c-0.188,1.884 -0,3.199 1.504,4.89" style="fill:none;fill-rule:nonzero;stroke:#000;stroke-width:1px;"/><path d="M636.732,169.597c-0.188,0.941 -1.316,3.385 0,3.949c1.881,0.751 7.521,-5.263 4.645,-10.163" style="fill:none;fill-rule:nonzero;stroke:#000;stroke-width:1px;"/><path d="M649.895,166.779c-0.378,1.316 -0.566,2.631 -0.566,3.195" style="fill:none;fill-rule:nonzero;stroke:#000;stroke-width:1px;"/><path d="M654.031,162.455c-1.881,2.632 -2.632,3.195 -2.448,6.768" style="fill:none;fill-rule:nonzero;stroke:#000;stroke-width:1px;"/><path d="M659.856,161.701c-2.255,1.507 -4.511,3.949 -4.697,7.334" style="fill:none;fill-rule:nonzero;stroke:#000;stroke-width:1px;"/><path d="M658.728,166.779c-0.376,0.939 -1.316,1.691 -1.316,3.007" style="fill:none;fill-rule:nonzero;stroke:#000;stroke-width:1px;"/><path d="M662.488,167.907c-0.939,0.941 -1.504,1.69 -2.256,3.572" style="fill:none;fill-rule:nonzero;stroke:#000;stroke-width:1px;"/><path d="M667.564,167.718c-3.195,3.195 -4.267,5.452 -5.395,7.144" style="fill:none;fill-rule:nonzero;stroke:#000;stroke-width:1px;"/><path d="M667.564,171.292c-1.502,1.69 -3.593,3.65 -3.966,5.343" style="fill:none;fill-rule:nonzero;stroke:#000;stroke-width:1px;"/><path d="M674.521,171.103c-3.383,0.75 -5.124,2.264 -8.883,7.15" style="fill:none;fill-rule:nonzero;stroke:#000;stroke-width:1px;"/><path d="M651.399,244.048c-23.314,-0.941 -44.373,2.63 -54.522,10.715" style="fill:none;fill-rule:nonzero;stroke:#000;stroke-width:1px;"/><path d="M652.338,237.466c1.502,6.203 6.957,8.834 10.338,13.16c3.758,4.888 3.385,9.209 1.316,14.097" style="fill:none;fill-rule:nonzero;stroke:#000;stroke-width:1px;"/><path d="M657.412,216.394c-4.701,4.512 -7.708,11.109 -6.957,14.491c-2.441,2.07 -29.514,0.566 -34.779,-3.948c-1.505,-1.315 -1.505,-3.194 0.188,-4.888c1.506,-1.503 10.707,-10.528 10.897,-12.783" style="fill:none;fill-rule:nonzero;stroke:#000;stroke-width:1px;"/><path d="M661.601,213.395c1.471,-1.863 2.015,-0.182 4.273,-2.813" style="fill:none;fill-rule:nonzero;stroke:#000;stroke-width:1px;"/><path d="M640.869,200.431l-1.316,1.127" style="fill:none;fill-rule:nonzero;stroke:#000;stroke-width:1px;"/><path d="M632.596,206.445c1.504,1.879 3.576,1.879 4.325,4.326" style="fill:none;fill-rule:nonzero;stroke:#000;stroke-width:1px;"/><path d="M641.622,189.716c-1.504,-0.379 -4.327,-0.379 -4.701,-1.131" style="fill:none;fill-rule:nonzero;stroke:#000;stroke-width:1px;"/><path d="M642.938,188.398c-1.505,-1.128 -5.829,-1.505 -5.078,-3.76" style="fill:none;fill-rule:nonzero;stroke:#000;stroke-width:1px;"/><path d="M655.91,202.124c-4.888,-0.754 -4.724,-6.769 -4.724,-6.769c1.128,1.502 2.09,3.572 4.724,4.137" style="fill:none;fill-rule:nonzero;stroke:#000;stroke-width:1px;"/><path d="M642.653,207.199c-2.82,-2.82 -5.076,-3.948 -7.896,-6.58" style="fill:none;fill-rule:nonzero;stroke:#000;stroke-width:1px;"/><path d="M643.687,208.138c-1.314,-2.82 -2.818,-3.76 -4.322,-4.701c-0.752,-1.691 -3.761,-2.63 -5.265,-3.381c0,1.879 1.504,4.51 2.821,6.014c1.88,2.068 4.889,1.504 6.766,2.443" style="fill:none;fill-rule:nonzero;stroke:#000;stroke-width:1px;"/><path d="M627.522,204.755c0.563,-1.318 2.739,-3.221 4.136,-5.641c1.584,-2.744 2.869,-3.385 4.446,-4.248" style="fill:none;fill-rule:nonzero;stroke:#000;stroke-width:1px;"/><path d="M645.003,201.558c1.13,0.377 2.071,-0.751 3.011,-1.692c-0.567,2.257 0.563,9.4 -3.011,11.279c-2.63,1.317 -3.193,3.196 -3.006,4.136" style="fill:none;fill-rule:nonzero;stroke:#000;stroke-width:1px;"/><path d="M640.118,196.106c-0,1.315 -0.377,1.879 0.751,3.009c0.941,0.941 2.976,0.941 3.543,1.879" style="fill:none;fill-rule:nonzero;stroke:#000;stroke-width:1px;"/><path d="M649.142,188.021c-2.446,2.82 -5.641,5.453 -7.332,6.206c-0,0 -2.78,-1.13 -2.78,1.128" style="fill:none;fill-rule:nonzero;stroke:#000;stroke-width:1px;"/><path d="M648.577,186.331c-1.13,-2.445 -3.006,-4.7 -5.076,-5.829c3.946,-0 4.888,3.762 5.076,5.641" style="fill:none;fill-rule:nonzero;stroke:#000;stroke-width:1px;"/><path d="M654.404,190.466c3.008,2.068 7.71,5.451 8.084,6.768c0.188,-2.068 -2.027,-5.077 -8.084,-6.768" style="fill:none;fill-rule:nonzero;stroke:#000;stroke-width:1px;"/><path d="M628.143,193.097c-0.567,-0.751 -1.372,-2.067 0.693,-4.322c4.327,-4.89 -1.128,-8.274 3.199,-13.16c-0.755,-1.693 -1.883,-6.767 6.578,-11.283c2.82,-1.502 5.074,-1.125 8.273,-0.562c2.63,-3.948 11.465,-9.589 21.996,-3.76c6.015,3.385 12.97,3.385 18.048,11.469c5.45,8.836 2.255,15.04 0,17.483c1.69,2.633 2.067,7.897 -2.633,12.596l2.819,2.067c-1.316,2.256 -4.325,6.582 -8.461,6.769c0.567,1.127 -1.691,3.008 -3.948,3.384l0.943,1.692c-3.008,1.316 -5.264,2.819 -7.898,1.316l0.563,1.879c-3.005,1.129 -4.699,1.318 -6.578,0.188l1.694,2.069c-1.694,0.564 -2.447,0.751 -4.136,-0.188l0,1.315c-0.755,-0.376 -1.505,-0.376 -2.822,-1.127l0.563,1.505c-0.752,0.564 -2.254,0.752 -3.572,-0.189" style="fill:none;fill-rule:nonzero;stroke:#000;stroke-width:1px;"/><path d="M662.865,209.642l-7.333,7.145c-3.005,3.383 -16.352,4.699 -24.063,-1.127c-7.707,-5.831 -5.826,-17.299 -4.513,-20.494c1.129,-2.818 8.837,-12.033 12.409,-15.418c2.822,-2.632 5.638,-6.39 8.649,-8.645c5.451,-4.138 13.535,-0.377 14.475,4.888c4.136,2.067 8.459,7.894 8.086,12.594c-0.377,4.324 -1.318,6.018 1.69,7.521l-2.255,-0.751c-1.694,3.383 -6.769,6.203 -2.446,9.774l-2.818,-0.374l-1.315,3.758c1.503,0.565 2.819,2.068 4.133,2.068c-2.254,2.821 -6.954,7.708 -10.528,5.641" style="fill:none;fill-rule:nonzero;stroke:#000;stroke-width:1px;"/><path d="M624.156,210.676c-0,-1.243 -1.01,-2.253 -2.253,-2.253c-1.243,0 -2.252,1.01 -2.252,2.253c-0,1.243 1.009,2.252 2.252,2.252c1.243,0 2.253,-1.009 2.253,-2.252Z" style="fill:none;stroke:#000;stroke-width:1px;"/><path d="M620.488,213.311c0,-1.243 -1.009,-2.253 -2.251,-2.253c-1.243,0 -2.252,1.01 -2.252,2.253c0,1.244 1.009,2.253 2.252,2.253c1.242,0 2.251,-1.009 2.251,-2.253Z" style="fill:none;stroke:#000;stroke-width:1px;"/><path d="M616.848,216.318c0,-1.243 -1.01,-2.253 -2.253,-2.253c-1.244,-0 -2.254,1.01 -2.254,2.253c0,1.244 1.01,2.254 2.254,2.254c1.243,-0 2.253,-1.01 2.253,-2.254Z" style="fill:none;stroke:#000;stroke-width:1px;"/><path d="M614.025,219.888c0,-1.243 -1.009,-2.253 -2.253,-2.253c-1.244,0 -2.254,1.01 -2.254,2.253c0,1.243 1.01,2.252 2.254,2.252c1.244,0 2.253,-1.009 2.253,-2.252Z" style="fill:none;stroke:#000;stroke-width:1px;"/><path d="M610.412,223.103c0,-1.243 -1.01,-2.252 -2.255,-2.252c-1.244,0 -2.255,1.009 -2.255,2.252c0,1.243 1.011,2.252 2.255,2.252c1.245,0 2.255,-1.009 2.255,-2.252Z" style="fill:none;stroke:#000;stroke-width:1px;"/><path d="M607.784,226.838c-0,-1.243 -1.011,-2.253 -2.255,-2.253c-1.244,0 -2.254,1.01 -2.254,2.253c-0,1.244 1.01,2.253 2.254,2.253c1.244,0 2.255,-1.009 2.255,-2.252Z" style="fill:none;stroke:#000;stroke-width:1px;"/><path d="M608.613,231.343c0,-1.243 -1.01,-2.252 -2.254,-2.252c-1.244,0 -2.255,1.009 -2.255,2.252c0,1.243 1.011,2.252 2.255,2.252c1.244,0 2.254,-1.009 2.254,-2.252Z" style="fill:none;stroke:#000;stroke-width:1px;"/><path d="M613.117,232.29c-0,-1.243 -1.009,-2.251 -2.252,-2.251c-1.242,-0 -2.251,1.008 -2.251,2.251c-0,1.243 1.009,2.252 2.251,2.252c1.243,-0 2.252,-1.009 2.252,-2.252Z" style="fill:none;stroke:#000;stroke-width:1px;"/><path d="M617.109,234.668c0,-1.244 -1.01,-2.253 -2.254,-2.253c-1.244,-0 -2.254,1.009 -2.254,2.253c0,1.243 1.01,2.253 2.254,2.253c1.244,-0 2.254,-1.01 2.254,-2.253Z" style="fill:none;stroke:#000;stroke-width:1px;"/><path d="M621.957,235.934c-0,-1.243 -1.011,-2.253 -2.255,-2.253c-1.245,0 -2.255,1.01 -2.255,2.253c-0,1.243 1.01,2.252 2.255,2.252c1.244,0 2.255,-1.009 2.255,-2.252Z" style="fill:none;stroke:#000;stroke-width:1px;"/><path d="M626.952,236.84c-0,-1.243 -1.01,-2.253 -2.254,-2.253c-1.244,0 -2.253,1.01 -2.253,2.253c-0,1.243 1.009,2.252 2.253,2.252c1.244,0 2.254,-1.009 2.254,-2.252Z" style="fill:none;stroke:#000;stroke-width:1px;"/><path d="M632.265,236.613c0,-1.243 -1.009,-2.252 -2.252,-2.252c-1.244,-0 -2.253,1.009 -2.253,2.252c0,1.243 1.009,2.252 2.253,2.252c1.243,-0 2.252,-1.009 2.252,-2.252Z" style="fill:none;stroke:#000;stroke-width:1px;"/><path d="M637.497,237.467c-0,-1.243 -1.01,-2.253 -2.253,-2.253c-1.243,0 -2.252,1.01 -2.252,2.253c-0,1.243 1.009,2.252 2.252,2.252c1.243,0 2.253,-1.009 2.253,-2.252Z" style="fill:none;stroke:#000;stroke-width:1px;"/><path d="M642.653,237.467c0,-1.243 -1.009,-2.253 -2.252,-2.253c-1.243,0 -2.253,1.01 -2.253,2.253c0,1.243 1.01,2.252 2.253,2.252c1.243,0 2.252,-1.009 2.252,-2.252Z" style="fill:none;stroke:#000;stroke-width:1px;"/><path d="M647.729,237.467c0,-1.243 -1.01,-2.253 -2.253,-2.253c-1.244,0 -2.254,1.01 -2.254,2.253c0,1.243 1.01,2.252 2.254,2.252c1.243,0 2.253,-1.009 2.253,-2.252Z" style="fill:none;stroke:#000;stroke-width:1px;"/><path d="M652.94,235.942c-0,-1.243 -1.01,-2.253 -2.254,-2.253c-1.243,-0 -2.253,1.01 -2.253,2.253c-0,1.244 1.01,2.254 2.253,2.254c1.244,-0 2.254,-1.01 2.254,-2.254Z" style="fill:none;stroke:#000;stroke-width:1px;"/><path d="M163.06,74.187l0,-43.281l3.84,0l0,19.751l19.385,-19.751l5.304,0l-20.361,20.422l22.372,22.859l-5.242,0l-21.397,-22.066l-0.061,0l0,22.066l-3.84,0Z" style="fill-rule:nonzero;"/><path d="M202.502,34.442l-0,15.972l10.667,0c4.877,0 8.718,-2.805 8.718,-8.047c-0,-5.242 -3.841,-7.925 -8.718,-7.925l-10.667,0Zm-3.84,39.745l-0,-43.281l14.63,0c7.985,0 12.435,5.06 12.435,11.461c-0,6.461 -4.45,11.582 -12.435,11.582l-7.072,0l3.902,1.889l17.861,18.349l-5.304,0l-20.177,-20.848l-0,20.848l-3.84,0Z" style="fill-rule:nonzero;"/><path d="M241.027,27.859l0,-1.158l15.362,-2.256l0,3.414l-15.362,-0Zm-1.158,30.723l17.556,-0l-8.778,-22.494l-8.778,22.494Zm-10.363,15.605l17.19,-43.281l3.963,-0l17.19,43.281l-4.267,-0l-4.755,-12.07l-20.299,-0l-4.755,12.07l-4.267,-0Z" style="fill-rule:nonzero;"/><path d="M274.311,74.187l-0,-43.281l3.84,0l-0,39.746l19.751,0l-0,3.535l-23.591,0Z" style="fill-rule:nonzero;"/><path d="M340.94,52.547c-0,-11.277 -8.229,-19.324 -19.08,-19.324c-10.851,-0 -19.08,8.047 -19.08,19.324c-0,11.277 8.229,19.324 19.08,19.324c10.851,-0 19.08,-8.047 19.08,-19.324m-42.062,-0c-0,-13.533 10.18,-22.737 22.982,-22.737c12.801,-0 22.981,9.204 22.981,22.737c-0,13.533 -10.18,22.738 -22.981,22.738c-12.802,-0 -22.982,-9.205 -22.982,-22.738" style="fill-rule:nonzero;"/><path d="M364.653,74.187l-17.19,-43.281l4.267,0l14.874,38.099l14.934,-38.099l4.267,0l-17.19,43.281l-3.962,0Z" style="fill-rule:nonzero;"/><path d="M392.267,74.187l0,-43.281l4.389,0l27.188,37.551l0,-37.551l3.779,0l0,43.281l-4.389,0l-27.188,-37.855l0,37.855l-3.779,0Z" style="fill-rule:nonzero;"/><path d="M444.447,58.582l17.557,-0l-8.779,-22.494l-8.778,22.494Zm-10.363,15.605l17.19,-43.281l3.963,-0l17.19,43.281l-4.267,-0l-4.755,-12.07l-20.299,-0l-4.755,12.07l-4.267,-0Z" style="fill-rule:nonzero;"/><path d="M159.098,137.687l0,-3.535l21.519,-36.21l-20.788,0l0,-3.536l25.237,0l0,3.536l-21.64,36.21l23.225,0l0,3.535l-27.553,0Z" style="fill-rule:nonzero;"/><path d="M194.21,137.687l0,-43.281l23.53,0l0,3.536l-19.69,0l0,15.972l18.776,0l0,3.535l-18.776,0l0,16.703l19.934,0l0,3.535l-23.774,0Z" style="fill-rule:nonzero;"/><path d="M227.434,137.687l-0,-43.281l4.389,0l16.581,38.648l16.641,-38.648l4.389,0l-0,43.281l-3.779,0l-0,-35.112l-15.057,35.112l-4.328,0l-15.057,-35.112l-0,35.112l-3.779,0Z" style="fill-rule:nonzero;"/><path d="M285.223,97.942l0,15.972l10.667,0c4.877,0 8.718,-2.805 8.718,-8.047c0,-5.242 -3.841,-7.925 -8.718,-7.925l-10.667,0Zm6.766,-5.974l-7.863,-5.06l3.657,0l5.486,2.56l5.426,-2.56l3.718,0l-7.863,5.06l-2.561,0Zm-10.606,45.719l0,-43.281l14.63,0c7.985,0 12.435,5.06 12.435,11.461c0,6.461 -4.45,11.582 -12.435,11.582l-7.072,0l3.902,1.889l17.861,18.349l-5.304,0l-20.177,-20.848l0,20.848l-3.84,0Z" style="fill-rule:nonzero;"/><path d="M317.714,137.687l0,-43.281l23.53,0l0,3.536l-19.69,0l0,15.972l18.776,0l0,3.535l-18.776,0l0,16.703l19.934,0l0,3.535l-23.774,0Z" style="fill-rule:nonzero;"/><path d="M350.938,137.687l-0,-43.281l3.839,0l0,39.746l19.752,0l-0,3.535l-23.591,0Z" style="fill-rule:nonzero;"/><path d="M386.111,122.082l17.556,-0l-8.778,-22.494l-8.778,22.494Zm-10.363,15.605l17.191,-43.281l3.962,-0l17.19,43.281l-4.267,-0l-4.755,-12.07l-20.299,-0l-4.755,12.07l-4.267,-0Z" style="fill-rule:nonzero;"/><path d="M420.553,126.105l-0.488,-31.699l4.328,0l-0.487,31.699l-3.353,0Zm-1.341,5.791l6.035,0l-0,5.791l-6.035,0l-0,-5.791Z" style="fill-rule:nonzero;"/></g></svg>