<?xml version="1.0" encoding="UTF-8" standalone="no"?>
<!DOCTYPE svg PUBLIC "-//W3C//DTD SVG 1.1//EN" "http://www.w3.org/Graphics/SVG/1.1/DTD/svg11.dtd">
<svg width="100%" height="100%" viewBox="0 0 541 484" version="1.1" xmlns="http://www.w3.org/2000/svg" xmlns:xlink="http://www.w3.org/1999/xlink" xml:space="preserve" xmlns:serif="http://www.serif.com/" style="fill-rule:evenodd;clip-rule:evenodd;stroke-miterlimit:10;">
    <g transform="matrix(1,0,0,1,-4879.14,-1530.71)">
        <g id="Page-16" serif:id="Page 16" transform="matrix(1,0,0,1,4879.14,1530.71)">
            <rect x="0" y="0" width="540.71" height="483.793" style="fill:none;"/>
            <clipPath id="_clip1">
                <rect x="0" y="0" width="540.71" height="483.793"/>
            </clipPath>
            <g clip-path="url(#_clip1)">
                <g id="Layer-1" serif:id="Layer 1">
                    <g transform="matrix(0.624144,0.781309,0.781309,-0.624144,-3.12217,281.512)">
                        <path d="M78.144,-52.613C78.548,-13.853 91.33,23.569 74.151,52.562C76.305,60.611 80.018,72.911 78.144,83.569C88.186,103.028 87.051,119.201 89.732,122.557C100.081,133.22 106.848,148.575 109.368,162.441" style="fill:none;fill-rule:nonzero;stroke:black;stroke-width:1px;"/>
                    </g>
                    <g transform="matrix(1,0,0,1,-6.8799,181.187)">
                        <path d="M0,83.141C10.496,78.363 17.176,77.885 27.672,72.151C41.029,64.984 64.883,50.171 76.334,43.483C80.627,41.092 105.912,23.412 122.61,20.068C139.309,16.723 151.235,15.29 155.051,13.379L180.814,0" style="fill:none;fill-rule:nonzero;stroke:black;stroke-width:1px;"/>
                    </g>
                    <g transform="matrix(-0.199953,0.979805,0.979805,0.199953,128.102,360.691)">
                        <path d="M-43.523,-35.539L29.018,-35.539" style="fill:none;fill-rule:nonzero;stroke:black;stroke-width:1px;"/>
                    </g>
                    <g transform="matrix(0.0306856,0.999529,0.999529,-0.0306856,176.557,339.835)">
                        <path d="M-50.283,-43.557C-18.591,-52.831 14.324,-53.353 45.169,-43.557" style="fill:none;fill-rule:nonzero;stroke:black;stroke-width:1px;"/>
                    </g>
                    <g transform="matrix(1,0,0,1,24.6025,277.572)">
                        <path d="M0,187.005C40.076,174.125 104.963,153.61 119.752,136.914C135.02,131.19 150.764,125.465 157.443,114.971C183.684,100.182 199.428,86.824 203.722,83.962C217.08,73.943 225.19,71.081 231.871,61.063C239.504,53.43 246.184,47.706 246.184,43.412C246.66,28.147 250.955,21.468 251.908,14.312C252.863,7.156 252.863,3.817 252.386,0" style="fill:none;fill-rule:nonzero;stroke:black;stroke-width:1px;"/>
                    </g>
                    <g transform="matrix(1,0,0,1,272.046,269.942)">
                        <path d="M0,50.624C3.832,46.803 6.226,42.027 10.057,39.64C19.633,33.909 24.901,27.223 30.168,21.969C36.394,15.283 39.746,10.029 41.183,0" style="fill:none;fill-rule:nonzero;stroke:black;stroke-width:1px;"/>
                    </g>
                    <g transform="matrix(1,0,0,1,243.124,385.837)">
                        <path d="M0,-103.525C-3.348,-95.892 -5.262,-91.598 -10.521,-81.103C-12.436,-76.809 -42.087,-60.111 -54.043,-55.341C-65.999,-50.57 -69.825,-30.056 -62.174,0" style="fill:none;fill-rule:nonzero;stroke:black;stroke-width:1px;"/>
                    </g>
                    <g transform="matrix(1,0,0,1,189.054,277.543)">
                        <path d="M0,48.206C-1.453,33.887 0,24.341 4.357,15.272L12.105,0" style="fill:none;fill-rule:nonzero;stroke:black;stroke-width:1px;"/>
                    </g>
                    <g transform="matrix(1,0,0,1,353.708,188.92)">
                        <path d="M0,-31.019C-52.502,-20.043 -74.457,-28.156 -85.912,-30.065C-87.82,-31.973 -103.57,-57.266 -103.57,-74.922C-103.57,-104.51 -79.707,-122.168 -57.274,-125.031C-29.114,-128.372 -7.637,-115.487 -2.864,-98.784C1.908,-82.081 5.727,-85.422 11.455,-88.762C17.182,-92.103 28.16,-98.784 31.5,-94.489C34.842,-90.194 30.545,-77.786 20.522,-66.332C26.728,-62.993 31.5,-61.084 34.363,-52.971C37.228,-44.858 17.182,-38.176 8.113,-36.268C1.908,-34.836 5.25,-31.496 12.887,-29.586C20.522,-27.678 58.705,-17.18 58.705,17.657C58.705,45.336 38.183,54.88 23.387,61.561C8.591,68.242 -50.115,82.559 -66.342,85.899C-72.07,86.854 -120.754,97.353 -142.709,89.24C-153.686,85.422 -158.459,79.218 -161.799,76.834C-151.776,72.06 -144.617,65.379 -142.23,59.652C-136.026,44.859 -134.116,31.498 -140.799,21L-144.617,12.408L-179.459,24.338C-178.026,8.59 -181.846,-22.428 -170.391,-30.541C-158.936,-38.654 -136.98,-18.611 -121.707,-20.043C-106.435,-21.475 -91.639,-24.338 -86.389,-29.586" style="fill:white;fill-rule:nonzero;stroke:black;stroke-width:1px;"/>
                    </g>
                    <g transform="matrix(-0.833386,0.552691,0.552691,0.833386,356.786,142.969)">
                        <path d="M-24.765,-7.465C-15.982,-2.887 -3.87,-4.562 2.251,-7.465" style="fill:none;fill-rule:nonzero;stroke:black;stroke-width:1px;"/>
                    </g>
                    <g transform="matrix(0.0296384,0.999561,0.999561,-0.0296384,376.68,132.512)">
                        <path d="M-29.552,-18.764C-6.889,-28.2 4.483,-31.46 19.675,-18.764" style="fill:none;fill-rule:nonzero;stroke:black;stroke-width:1px;"/>
                    </g>
                    <g transform="matrix(1,0,0,1,318.857,193.082)">
                        <path d="M0,15.472C-35.312,12.572 -63.464,4.835 -76.825,1.935C-86.847,0 -96.867,0 -105.933,8.22" style="fill:none;fill-rule:nonzero;stroke:black;stroke-width:1px;"/>
                    </g>
                    <g transform="matrix(0.933702,0.35805,0.35805,-0.933702,26.1603,266.968)">
                        <path d="M-2.442,-12.738C12.209,-18.946 41.606,-23.614 68.624,-12.738" style="fill:none;fill-rule:nonzero;stroke:black;stroke-width:1px;"/>
                    </g>
                    <g transform="matrix(0.286783,-0.957996,-0.957996,-0.286783,158.543,239.258)">
                        <path d="M-10.313,13.853C-1.619,16.456 8.095,17.326 18.607,13.853" style="fill:none;fill-rule:nonzero;stroke:black;stroke-width:1px;"/>
                    </g>
                    <g transform="matrix(1,0,0,1,172.373,232.367)">
                        <path d="M0,-16.738C-2.875,-9.086 -6.229,-0.955 0,6.219C3.834,11.002 20.126,3.35 26.356,1.436C38.815,-2.39 38.336,-19.609 37.378,-27.74" style="fill:none;fill-rule:nonzero;stroke:black;stroke-width:1px;"/>
                    </g>
                    <g transform="matrix(1,0,0,1,322.665,94.4024)">
                        <path d="M0,24.042C6.732,24.042 12.022,18.753 12.022,12.021C12.022,5.289 6.732,0 0,0C-6.733,0 -12.023,5.289 -12.023,12.021C-12.023,18.753 -6.733,24.042 0,24.042Z" style="fill:none;fill-rule:nonzero;stroke:black;stroke-width:1px;"/>
                    </g>
                    <g transform="matrix(1,0,0,1,334.597,109.291)">
                        <path d="M0,-3.159C-12.896,-7.558 -17.656,1.954 -24.343,3.422C-29.119,4.399 -37.717,3.91 -44.404,-0.001" style="fill:none;fill-rule:nonzero;stroke:black;stroke-width:1px;"/>
                    </g>
                    <g transform="matrix(-0.965128,-0.261777,-0.261777,0.965128,299.326,104.362)">
                        <path d="M-12.279,1.151C-7.315,3.018 -2.226,3.073 0.285,1.151" style="fill:none;fill-rule:nonzero;stroke:black;stroke-width:1px;"/>
                    </g>
                    <g transform="matrix(0.910754,0.412948,0.412948,-0.910754,60.8407,273.733)">
                        <path d="M-1.873,-8.667C10.572,-14.126 25.58,-13.666 40.103,-8.667" style="fill:none;fill-rule:nonzero;stroke:black;stroke-width:1px;"/>
                    </g>
                    <g transform="matrix(0.936559,0.350509,0.350509,-0.936559,77.6718,272.9)">
                        <path d="M-1.052,-5.814C9.661,-8.529 16.608,-7.999 32.122,-5.814" style="fill:none;fill-rule:nonzero;stroke:black;stroke-width:1px;"/>
                    </g>
                    <g transform="matrix(0.949605,-0.313451,-0.313451,-0.949605,217.395,169.509)">
                        <path d="M-1.204,7.487C11.194,8.481 16.635,9.737 46.565,7.487" style="fill:none;fill-rule:nonzero;stroke:black;stroke-width:1px;"/>
                    </g>
                    <g transform="matrix(0.969523,-0.245002,-0.245002,-0.969523,196.067,300.029)">
                        <path d="M-0.751,6.04C18.431,13.654 38.321,0.652 48.558,6.041" style="fill:none;fill-rule:nonzero;stroke:black;stroke-width:1px;"/>
                    </g>
                    <g transform="matrix(0.344065,0.938946,0.938946,-0.344065,227.209,331.236)">
                        <path d="M-10.178,-14.57C1.484,-18.844 8.932,-17.955 20.856,-14.57" style="fill:none;fill-rule:nonzero;stroke:black;stroke-width:1px;"/>
                    </g>
                    <g transform="matrix(1,0,0,1,174.378,245.251)">
                        <path d="M0,-32.131C-10.973,-30.693 -21.469,-32.611 -31.01,-28.294C-62.496,-13.907 -80.146,-11.509 -89.211,-11.029C-98.274,-10.55 -117.834,-8.631 -135.008,0.48" style="fill:none;fill-rule:nonzero;stroke:black;stroke-width:1px;"/>
                    </g>
                    <g transform="matrix(1,0,0,1,322.734,101.773)">
                        <path d="M0,10.085C2.784,10.085 5.043,7.827 5.043,5.042C5.043,2.257 2.784,0 0,0C-2.785,0 -5.043,2.257 -5.043,5.042C-5.043,7.827 -2.785,10.085 0,10.085" style="fill-rule:nonzero;"/>
                    </g>
                </g>
            </g>
        </g>
    </g>
</svg>
