<?xml version="1.0" encoding="UTF-8" standalone="no"?>
<!DOCTYPE svg PUBLIC "-//W3C//DTD SVG 1.1//EN" "http://www.w3.org/Graphics/SVG/1.1/DTD/svg11.dtd">
<svg width="100%" height="100%" viewBox="0 0 1144 1567" version="1.1" xmlns="http://www.w3.org/2000/svg" xmlns:xlink="http://www.w3.org/1999/xlink" xml:space="preserve" xmlns:serif="http://www.serif.com/" style="fill-rule:evenodd;clip-rule:evenodd;stroke-miterlimit:10;">
    <g transform="matrix(1,0,0,1,-15567.7,0)">
        <g id="Artboard1" transform="matrix(0.523688,0,0,1.36529,7925.19,0)">
            <rect x="14593.6" y="0" width="2182.68" height="1147.29" style="fill:none;"/>
            <g transform="matrix(5.09209,0,0,1.95319,16284.7,279.059)">
                <path d="M0,306.143l0,-8.63c0,-2.725 0.908,-4.542 2.271,-6.813c1.363,-2.272 3.179,-4.543 3.179,-7.268c0,-5.451 -0.455,-10.901 -1.816,-16.807c-0.908,-4.087 -2.726,-8.629 -4.541,-13.171c-2.272,-5.905 -7.267,-10.902 -12.263,-14.535c-3.179,-2.272 -5.45,-4.544 -8.174,-6.36c-9.083,-5.904 -16.348,-14.535 -25.885,-19.531c-11.809,-6.359 -23.616,-13.172 -36.786,-16.352c-25.431,-5.905 -39.964,-9.538 -59.946,-7.267c-4.996,0.454 -9.537,0.908 -14.532,1.362c-7.267,0.455 -14.986,1.817 -22.253,3.18c-16.349,2.725 -33.606,5.45 -50.408,22.711c-4.996,4.996 -8.629,9.993 -14.533,11.809c-2.726,0.909 -3.633,1.362 -2.726,4.088c0.455,1.363 0,3.18 0,4.997c0,4.088 1.363,4.996 5.45,4.542c4.087,-0.454 7.721,-0.454 11.809,-0.454c1.361,-0 2.269,1.363 2.723,1.363m73.117,-103.108c-7.72,-2.726 -21.798,-5.905 -34.968,-9.085c-2.272,-0.454 -4.542,-0.454 -6.813,-0.908c-9.083,-1.817 -17.712,-0.454 -25.431,4.542c-10.446,6.813 -10.9,5.905 -22.707,3.633c-0.454,1.818 -0.909,3.18 -0.909,4.997c0,1.363 -0.454,2.726 -0.454,4.087m218.894,63.138c16.804,-16.806 19.073,-28.616 17.258,-53.144c-2.272,-26.799 -37.24,-52.689 -65.851,-39.971c-19.073,8.63 -20.435,7.721 -24.068,11.355c-5.905,5.905 -4.996,5.451 -10.446,18.169m-59.038,24.074c-7.719,-3.18 -15.441,-6.359 -23.161,-9.539c-9.083,-3.634 -18.62,-6.359 -27.702,-9.54c-2.725,-0.907 -5.903,-1.361 -9.083,-1.361c-0.907,-0 -1.816,1.361 -2.725,1.817m60.4,187.138c-2.27,8.176 -4.54,10.446 -6.812,14.535c-2.269,-4.089 -4.541,-8.176 -6.811,-11.81c-4.541,-7.721 -11.808,-12.264 -20.437,-13.172c-3.633,-0.454 -7.719,0.908 -11.352,2.27c-1.364,0.455 -2.726,1.364 -4.088,1.818m47.684,-208.942c2.27,0.909 4.541,1.818 7.266,2.726c6.813,2.271 14.078,4.543 21.345,7.268c4.996,1.817 9.99,2.725 14.986,4.542c3.633,1.363 6.813,3.18 10.445,4.542c13.17,4.997 24.524,12.718 35.877,20.894c17.711,13.173 34.968,27.254 47.231,39.517c9.536,9.539 13.17,22.711 22.707,32.25c0.453,0.454 0.453,1.363 0.453,2.271m-157.585,-27.707c-8.175,-0.909 -27.249,6.359 -35.423,11.355c-26.794,16.806 -31.335,44.514 -15.894,70.404c3.178,5.451 7.265,10.447 10.898,15.898m85.832,-3.634c-19.527,3.634 -19.074,26.345 -1.361,24.528m78.564,-215.3c-0.908,-7.723 -4.995,-13.172 -11.352,-16.807c-12.717,-6.812 -23.161,-12.717 -35.423,-5.45c-3.18,1.817 -6.359,4.088 -9.537,6.359m72.208,190.318c1.816,-2.726 4.995,-9.993 -2.272,-14.989c-8.628,-5.905 -18.165,-5.905 -26.794,-1.817m12.716,71.313c0.454,2.725 1.363,5.45 1.363,8.175c0.455,6.36 -4.542,13.173 -10.446,13.173c-9.082,-0 -13.624,-8.63 -14.078,-16.352m-118.528,18.623c-5.905,7.267 -20.437,11.81 -28.158,8.63c-3.632,-1.363 -7.719,-3.634 -10.899,-6.359c-9.99,-8.63 -2.725,-26.345 7.267,-34.975m76.749,-233.014l-13.624,16.806c-1.817,-0 -4.541,-0.909 -7.267,-0.909c-0.907,-0 -2.725,0.455 -3.633,1.363c-1.817,1.816 -2.724,3.634 -4.542,6.358c-3.178,-0.453 -6.811,-1.362 -10.445,-1.816c-9.082,-1.362 -18.164,-1.817 -27.248,0.454c-7.72,1.817 -14.531,4.997 -20.436,10.901c-1.817,1.818 -3.178,3.18 -4.541,4.997m301.092,235.286c5.45,-10.902 -5.903,-21.803 -15.44,-17.261c1.816,-6.814 -1.363,-13.626 -6.813,-15.443c3.633,-20.44 -14.078,-22.257 -26.794,-11.356m-85.377,-38.154c9.082,-1.818 19.983,4.996 21.798,13.627c0.909,4.088 0,6.813 -4.087,9.538c-3.633,2.271 -4.996,2.724 -11.807,2.724c-0.909,-2.27 -1.363,-4.542 -3.179,-6.812c-2.725,-3.179 -6.358,-3.179 -10.445,-2.725m64.941,0.908l3.634,-4.088c0,-0.454 -0.454,-1.362 -0.454,-2.271c0,-9.538 -1.364,-11.355 -6.813,-19.077c-4.542,-6.813 -11.353,-11.81 -18.166,-15.898c-29.063,-17.26 -67.212,-24.527 -82.198,-24.527m-89.465,-234.379c-6.357,-4.996 -10.898,-11.808 -19.527,-13.625c-4.087,-0.91 -14.078,-0.455 -25.433,8.176c15.896,-16.351 19.528,-17.715 34.062,-16.351c-3.634,-8.631 -21.799,-17.716 -37.241,-17.716c12.262,-3.633 20.891,-5.45 35.423,-2.271c4.541,0.908 9.537,0.908 14.078,3.18c0.909,0.454 1.818,1.361 2.725,0.908c3.634,-1.817 6.812,0.453 9.991,2.272c6.359,3.632 10.446,9.084 15.442,14.08m-51.773,381.998c0.454,1.363 0.454,3.179 1.363,4.088c7.266,7.268 16.803,9.539 27.248,9.539c5.904,-0 11.353,-3.179 13.624,-5.906c5.45,-6.812 8.174,-14.08 7.72,-22.711m-15.894,-422.877c-0.454,-0.454 -1.363,-0.454 -1.817,-1.364c-3.633,-7.266 -10.898,-10.9 -16.802,-15.896c-4.542,-3.634 -9.538,-6.36 -13.624,-10.447c5.449,9.539 9.082,19.985 12.714,34.066m34.969,-17.714c6.359,-29.07 0.908,-17.716 11.808,-38.155c-0.908,7.267 0.455,21.803 1.816,26.345c1.362,5.905 0.454,11.355 -2.724,16.806c-2.726,4.542 -5.905,9.993 -2.271,15.443c-1.816,3.179 -4.088,5.905 -5.903,9.085c-1.818,3.178 -2.272,6.359 0.454,9.993c1.361,1.817 3.633,6.813 6.811,14.08m147.14,407.435c-3.633,7.268 -2.725,22.257 8.63,22.257c7.265,0 9.99,-8.63 9.081,-15.444m-108.084,-421.061c5.904,-9.084 17.712,-16.352 27.248,-20.894c-2.27,-0.453 -4.541,-1.364 -6.812,-1.817c-14.532,-3.179 -27.702,1.817 -34.06,9.084m-49.047,56.778c6.813,0.908 13.624,1.363 19.982,3.179c4.542,1.364 9.083,1.817 11.354,7.722c2.27,6.358 6.358,12.264 4.088,19.078c-0.454,1.362 -0.908,3.179 -1.818,4.542c-1.362,1.817 -3.632,3.179 -5.449,4.088c-0.909,0.454 -2.27,1.361 -3.178,0.908c-4.088,-2.271 -6.813,0.908 -9.538,4.088c-1.817,2.272 -4.996,4.088 -7.72,6.359c-1.817,1.363 -3.634,3.18 -5.904,4.997l-9.083,-0.909m-63.125,-10.447c-1.816,4.542 -2.724,8.63 0,12.718c1.363,2.271 1.818,4.997 2.725,7.722l6.358,1.817c4.996,5.45 4.541,12.718 7.72,19.077c4.996,-0.454 7.267,2.271 9.083,6.358c1.817,4.089 4.995,6.814 8.174,9.994c0.909,0.908 1.363,1.817 2.271,3.179l9.538,0m93.097,-178.052c6.813,-4.998 18.165,-7.269 26.34,-4.089c-16.349,-11.357 -25.886,-10.449 -38.147,-5.906m177.567,476.931c6.357,2.725 5.903,9.539 4.087,12.718c-2.271,4.088 -6.812,4.996 -11.354,4.088c-2.269,-0.454 -4.541,-2.271 -6.358,-4.088m-165.305,-387.902c3.633,-4.998 1.817,-13.627 -3.633,-16.353c-0.909,-0.454 -2.725,-0.909 -3.178,-0.454c-2.272,2.271 -4.542,3.633 -6.359,5.45m69.03,302.51l0.454,13.627c9.082,8.176 18.618,13.627 25.886,0.908m-26.34,-0.454c-5.905,22.257 -26.341,18.169 -26.341,-0.908c0,-3.18 0.454,-5.451 1.362,-7.722c2.272,-5.905 -0.454,-9.539 -4.541,-12.718m95.368,51.781c1.364,5.45 3.633,9.538 11.808,13.171c0,1.818 0,3.635 -0.454,4.997m-143.053,-257.542c4.541,0.909 7.721,-0.908 10.899,-4.088c1.817,-1.817 3.633,-3.179 5.451,-4.996c3.178,-3.18 0,-6.359 0,-9.993c0,-2.725 -0.909,-5.905 -1.364,-8.631c-0.454,-2.27 -1.362,-4.087 -1.816,-5.904l-6.357,-0.908m79.927,124.001c-3.632,-12.718 -58.13,-49.964 -86.74,-64.499c-4.087,-1.817 -19.074,-7.721 -22.707,-8.63m-53.134,-62.228c0,0.454 0.454,0.454 0.454,0.454c6.359,-0.454 9.083,4.088 12.262,8.631c1.816,2.725 3.633,5.904 5.45,9.083c2.271,3.635 3.179,2.272 7.266,2.272l1.816,0m128.521,192.135c8.175,-4.088 21.345,-4.088 26.341,3.178c2.269,3.635 4.995,8.177 3.178,13.174c-0.909,2.271 -2.724,4.542 -4.088,6.813c-7.265,-3.18 -14.532,-6.359 -19.982,1.817m44.053,12.264c11.352,0.454 19.981,2.724 23.16,11.808c3.18,9.539 -2.725,16.353 -16.349,11.811m16.349,53.144c5.903,20.44 26.341,19.077 21.345,0.908m-216.623,-472.388c-1.818,-1.817 -1.818,-2.271 -7.267,-13.172c-4.087,-8.176 -12.716,-18.623 -26.34,-34.521c4.541,17.259 8.629,24.528 11.808,42.243c2.27,13.172 2.724,15.897 2.724,18.168l12.716,9.539m-22.253,14.081c-0.908,-2.727 -1.815,-5.451 -2.269,-8.176c-0.909,-6.814 -0.909,-12.719 -4.542,-21.803l10.899,4.997m-61.763,149.892l-4.086,-1.363c-2.726,4.543 -4.541,9.539 -8.175,13.173c-0.454,0.454 -0.908,1.817 -0.454,2.271c1.816,1.817 -0.454,3.179 -2.726,3.179m178.023,160.34c-2.272,-6.359 -3.633,-13.173 -6.813,-19.077c-0.454,-0.909 -0.454,-1.817 -0.907,-2.272c-3.634,0.909 -4.089,2.726 -2.726,5.451c1.363,2.725 2.726,4.997 3.633,7.722c1.816,5.45 -0.907,9.993 -0.907,15.443l0,2.726m111.262,-193.498l0,-0.454c0,-2.271 -2.271,-4.088 -2.725,-6.813c-0.453,-2.271 0.908,-4.543 1.363,-7.268l-5.904,-0.909c-1.362,6.814 0,10.902 -7.266,14.536c0.454,3.179 2.724,3.179 6.813,3.632m-158.494,-166.697c2.27,-3.634 3.632,-7.722 6.811,-10.901c4.996,-4.997 9.991,-9.539 12.263,-16.806c0.907,-3.181 3.179,-5.451 4.994,-8.177c-14.985,8.631 -18.619,9.084 -28.609,24.983m24.522,126.273c2.726,0.453 4.996,0.908 7.721,1.817c1.362,0.454 3.178,0.454 4.542,0c2.724,-0.909 5.903,1.816 7.719,5.45l5.905,4.542l-0.908,12.263c2.269,2.727 5.448,4.543 6.811,7.723c0.454,0.909 0.908,2.271 0.454,2.725c-2.27,2.271 -0.908,5.905 -1.363,9.085m-54.949,244.37c-1.364,7.266 -3.634,14.989 -9.083,20.44c-1.817,1.816 -2.272,2.271 -5.45,4.088m157.585,-44.968c4.996,0.908 9.083,1.817 13.17,4.995c7.266,5.452 7.72,16.353 0.454,22.258m-124.433,-355.654c1.362,-0.454 19.982,-2.27 23.161,-1.817c13.169,1.817 18.619,7.267 18.619,18.623c-0.908,-5.45 -4.541,-9.084 -9.537,-9.993c-6.357,-1.363 -13.624,-1.816 -23.161,5.451l1.363,2.27c6.813,-0.453 9.537,0 16.803,2.727c-0.908,-3.634 -4.996,-6.815 -7.266,-9.085m-84.924,54.052c-2.725,5.451 -8.628,7.722 -13.169,10.447c-2.272,1.363 -3.633,3.18 -5.451,4.997l0.455,1.363l-8.628,-0.909l-1.363,-4.088m-4.542,41.334c-4.541,7.268 -10.898,12.718 -15.439,19.985l11.352,12.719m178.022,166.697c12.262,-13.626 -4.088,-26.798 -19.528,-22.255l-4.542,1.362m54.952,40.88c2.269,2.271 4.541,4.088 6.357,6.359c4.087,4.542 3.634,12.264 -0.909,14.988c-7.266,4.542 -14.077,0.455 -19.072,-2.27c0,0 0.454,-3.179 -0.91,-6.359c-2.723,-6.359 -5.903,-10.447 -12.26,-12.718m-192.555,-239.374c-1.816,1.817 -3.633,4.088 -5.449,6.359l-10.9,13.627c2.725,3.634 4.995,6.358 6.359,9.993c0.907,2.725 1.361,6.359 1.361,9.084c-2.725,5.45 -5.449,10.447 -7.72,15.444c-1.362,3.179 -4.541,2.725 -6.811,3.633m54.041,-110.83c0.908,0 1.817,0 2.725,0.455c5.905,2.725 10.899,-1.363 14.079,-6.359c1.816,-2.725 4.542,-4.996 7.265,-4.996c2.726,2.271 4.542,4.542 6.359,6.812c2.724,3.18 6.811,5.906 7.72,10.448m212.081,327.038c10.446,3.634 10.446,19.077 -0.454,20.894m-15.894,-39.971c14.078,-7.268 28.156,8.63 15.44,18.623l-9.991,0m-155.315,-311.595l4.997,18.169l5.449,1.817m4.542,251.183c-0.908,-0.454 -1.818,-0.908 -2.726,-1.363c-5.45,-2.725 -8.629,-6.813 -9.537,-13.172c-0.908,-5.906 1.363,-10.448 5.904,-14.081c2.725,-2.271 6.359,-3.179 14.079,-3.179c14.078,0 27.703,28.161 3.178,29.977c-11.806,0.91 -22.253,8.631 -24.522,18.169c-1.818,6.814 2.269,13.628 8.628,13.628c14.532,0 20.435,-4.997 26.794,-13.173m-120.347,-321.587l-4.994,2.724c-2.272,4.998 3.179,6.36 4.087,9.539c-3.634,7.723 -10.9,11.356 -16.35,16.353l-4.995,0m250.684,89.027c3.178,1.817 3.632,4.996 4.541,8.176c0.907,3.179 1.816,6.812 4.542,8.63m-189.375,-63.591l9.537,2.271c1.361,-1.362 2.723,-3.633 4.541,-4.542c0.907,-0.455 1.816,-1.817 2.724,-2.725c0.909,-0.909 2.725,-1.363 3.179,-2.725c1.816,-5.451 7.267,-5.451 11.354,-4.543l9.991,19.986l-5.905,6.813m-18.619,-116.734c-2.271,-2.726 -3.632,-5.45 -6.812,-6.814c-8.629,-3.179 -12.716,1.817 -18.166,11.356c-4.087,1.816 -5.903,5.451 -7.72,9.539m155.316,346.115c1.815,4.542 3.178,8.176 3.178,13.172c0.454,7.268 -6.358,9.539 -10.446,9.993c-6.812,0.454 -12.261,-5.451 -15.439,-8.63m-184.834,-201.219c4.996,3.633 10.445,6.813 14.079,12.264c0.908,1.362 2.723,1.816 4.541,2.725c5.903,3.179 12.715,4.996 19.527,7.267c5.904,1.817 12.717,3.18 18.619,5.451c6.813,2.725 14.079,4.542 19.528,9.539m177.567,162.61c5.45,3.634 8.176,8.63 7.722,14.989c-0.909,9.992 -6.813,10.447 -15.442,10.447m-168.938,-294.334c2.724,4.997 4.542,10.902 8.174,15.444c2.725,3.179 7.266,2.271 10.446,4.996c0,0 1.361,-0.908 1.816,-1.362c1.817,-1.817 3.179,-4.088 4.995,-5.905m-103.089,54.96c-9.083,-2.271 -18.165,-4.996 -27.702,-4.996c-0.908,0 -2.27,0.454 -3.178,0.454m45.414,-133.086c-0.455,0 -0.91,-0.455 -1.364,-0.455c-3.632,0 -7.265,0.455 -10.899,0.455l0.454,4.541c-4.541,1.818 -9.537,4.088 -7.266,11.356c-7.265,1.816 -6.812,4.997 -10.899,7.723c-7.721,4.996 -8.175,9.992 -7.721,16.351l8.175,1.817m95.368,-88.12c1.818,-7.72 0,-14.988 -1.362,-22.255c-0.907,-4.543 -1.816,-9.084 -2.725,-12.718l8.629,-10.449c6.813,-8.628 23.161,-23.164 38.148,-29.977c-9.992,12.718 -16.35,22.711 -22.707,42.242c-2.726,8.176 -6.813,13.173 -13.624,13.173m-60.401,89.48c0.908,5.452 -3.178,7.723 -5.45,10.448l-6.811,0m10.899,-103.563c-2.725,0 -10.444,-10.446 -42.689,-10.446c28.157,16.806 19.982,6.358 37.693,33.158m-56.767,174.874c-2.27,-1.362 -4.087,-2.725 -6.358,-3.18c-4.541,-0.908 -9.083,-2.27 -14.531,-3.179l-0.909,4.088m121.254,-110.375c-2.271,0 -4.087,0 -6.358,1.817c-4.087,3.179 -9.083,5.905 -13.624,9.084c-1.361,0.909 -4.541,0 -6.358,-0.908c-1.816,-0.909 -2.725,-2.726 -3.632,-4.088m170.3,249.82c6.358,0 14.988,1.363 14.079,10.902m-198.912,-322.496c1.816,4.996 3.179,10.901 5.904,15.898c0.455,0.908 1.816,1.361 2.724,1.816m50.41,-60.412l0,-4.995c-5.904,2.725 -6.359,4.088 -15.895,14.534m-86.286,118.098c-0.453,0.909 -1.362,2.271 -1.362,3.634c0,6.359 -4.087,11.355 -8.174,15.443c-0.454,0.454 -0.908,0.454 -1.818,0.909m-4.541,69.949c-0.908,-2.271 -4.541,-3.179 -1.363,-6.359c4.542,1.817 7.268,5.904 9.083,9.993c1.363,3.18 1.363,6.813 1.817,9.993m48.138,6.359c3.633,8.63 4.542,18.169 4.542,27.708c0,1.816 -0.455,3.179 -0.909,4.996m75.388,-181.234c1.815,2.726 3.632,4.997 6.811,6.359c2.272,0.908 3.179,3.634 4.995,5.451m-120.799,198.04l4.996,2.725l-1.364,9.993m198.004,-3.634c-35.423,-24.074 -88.102,-30.888 -94.915,-30.888c-8.628,0 -16.803,0.455 -25.43,0.91m178.928,-106.743c0.454,1.364 0.454,3.181 1.364,4.089c16.348,16.352 29.063,37.7 27.248,59.503c-0.455,6.359 0.908,16.352 11.806,14.534c-4.541,-2.725 -5.449,-11.355 0.909,-22.256c7.266,-12.264 -1.363,-27.253 -10.445,-32.704c0.454,0 -5.903,-6.813 -12.262,-13.172c-3.178,-3.18 -5.45,-4.996 -8.629,-5.905l-5.449,-9.539m-251.592,-19.985c1.818,4.996 3.633,9.993 6.812,14.535l4.542,-2.271m94.46,36.791c2.271,3.634 2.271,7.722 2.271,11.81c0,0.909 -0.909,2.271 -1.363,3.18m-149.865,1.362c-2.725,-2.725 -5.903,-1.816 -9.083,-1.816l-5.448,0m123.978,-54.053c-3.633,4.543 -7.265,8.631 -11.807,13.173c-0.455,0.454 -0.455,0.908 -0.455,1.362m-93.551,29.525c4.996,2.271 5.45,4.542 5.45,10.447c0,1.362 0.453,3.633 1.361,4.542c4.542,4.542 4.996,10.901 4.542,16.806m66.304,127.181c-4.542,7.268 -5.449,11.356 -5.903,19.078c3.178,0.454 5.449,0.454 6.357,-2.271m-74.933,-223.022c-3.632,1.817 -5.449,4.542 -6.812,8.176c-3.632,10.447 -0.907,16.352 0.454,22.711c0.454,2.271 1.817,4.088 2.726,6.358c1.363,3.18 0.908,6.36 1.363,9.539m121.254,-75.4c0.907,1.817 1.361,4.088 2.724,5.904c2.27,3.18 4.541,6.36 7.266,9.085m-49.501,-28.161l4.542,14.08m197.096,331.126c3.633,6.359 15.439,14.081 22.252,9.539c7.266,-4.542 5.449,-19.077 -4.995,-24.982m-174.843,-352.929c0.908,0 2.27,0.455 3.178,0.455c1.818,0 3.633,1.362 4.997,0.453c5.903,-4.087 11.352,1.818 13.624,6.814c0.454,0.909 1.361,1.817 2.27,3.181m-51.771,-27.254c1.361,4.543 13.17,4.996 12.261,9.538m-88.102,298.877l3.179,16.351c1.363,3.634 -1.363,3.18 -3.633,3.634m-25.887,-214.392c-2.724,0.455 -2.27,3.18 -3.179,5.451c-0.454,1.363 0,3.18 0,4.542c0,3.18 -0.907,5.905 -2.723,8.63m148.956,-197.584c2.724,-2.726 6.811,-4.997 9.99,-6.814c1.363,-0.908 2.271,-2.27 3.18,-3.181c2.724,-2.724 4.087,-4.996 5.903,-7.72c-1.816,0.454 -6.812,1.362 -13.17,3.632m-31.335,195.316c3.18,3.179 4.541,7.721 6.358,12.264m170.755,-19.532c-0.908,13.173 9.992,16.806 6.813,37.245c4.087,4.998 12.262,11.811 14.531,19.078m-280.655,-75.854c0,1.361 0,2.725 0.453,4.088c0.908,2.725 0.908,5.905 -1.361,8.63m140.328,179.871c0,-1.363 0.454,-3.18 0.907,-4.542c3.18,-9.085 13.624,-12.264 22.254,-1.817c3.633,4.087 4.994,9.538 5.903,14.989c0.908,6.359 -7.721,11.81 -15.44,11.81m54.949,66.77c1.363,2.27 2.726,4.996 4.542,7.267c2.726,3.634 8.175,4.542 12.717,2.272c4.541,-2.272 7.265,-5.451 7.265,-10.902l0,-3.179m-164.398,-372.914c-0.907,1.361 -1.815,3.18 -3.179,4.542c-3.178,3.179 0,7.266 -0.454,10.901m24.07,-35.429c2.27,-0.909 6.357,-1.364 13.624,-1.364c-2.271,4.998 -5.904,11.811 -7.267,18.17c-0.907,4.541 -4.541,6.813 -3.633,11.81c0.909,4.542 -1.361,8.63 -5.902,10.901m44.959,73.584c6.357,10.447 4.087,9.992 4.087,19.984c0,3.635 0.454,8.177 -0.454,12.265c-0.909,4.542 1.363,7.722 4.996,10.447m-56.768,-138.083l2.271,14.08l5.903,-7.72m151.228,98.565l21.344,8.63m-146.685,-128.09c2.724,-2.271 5.449,-4.996 8.173,-7.72c0.455,-0.456 1.364,-0.911 1.818,-0.911c4.54,0 8.628,0.911 12.716,2.273c3.178,0.908 4.087,2.725 4.541,5.904m-79.929,204.853c-4.087,2.726 -7.72,5.905 -12.262,8.175c-0.908,0.455 -2.723,-0.907 -4.087,-1.361m66.758,-111.284l5.45,7.267l0.454,-2.271m-14.987,22.711c0.455,2.27 0.909,4.088 1.363,6.359c0.454,1.817 0.454,3.634 0.454,4.996m0.909,1.818c2.724,10.447 3.178,17.26 -7.721,17.26c-0.453,0 -0.453,0 -0.453,0.454m-32.244,-69.041c0.453,0.908 0.907,1.817 0.907,2.725c0,3.634 2.726,6.359 5.45,8.63m-2.724,-50.419c-0.455,1.819 0.908,4.996 2.724,5.451c3.18,0.909 4.087,3.634 4.996,6.36m-83.106,-1.817l2.269,1.362c-1.816,3.634 -0.908,8.631 -6.811,9.539m38.601,20.894c0.909,1.817 1.363,3.634 2.272,5.45c1.815,3.18 1.361,5.906 -0.909,8.177c-2.271,2.271 -3.634,4.088 -5.45,6.359m150.773,175.328c-2.271,0.909 -8.175,3.179 -9.99,7.722c0,-14.535 -16.35,-13.172 -14.078,-2.271m-34.062,-259.358c6.813,-0.456 12.263,0.907 18.62,4.087c0.908,0.454 2.726,1.817 4.541,4.996c-1.815,-9.539 -4.541,-12.264 -9.536,-15.897c-4.542,-3.181 -12.262,-3.634 -18.166,-4.088c-3.179,-0.455 -13.17,0.454 -16.349,0.454m-93.097,36.337c1.816,4.543 0.907,8.176 -3.634,10.446c-0.907,0.456 -1.361,1.818 -2.271,2.727m47.231,183.05l16.804,-2.271m145.323,15.898l9.536,7.267m-174.842,-274.803c-3.179,2.272 -4.088,5.905 -5.45,9.539m4.541,-0.909c1.363,3.633 1.363,6.36 -1.361,9.084m183.016,339.757c13.17,1.363 18.62,4.088 21.344,13.627c2.271,7.267 -1.361,18.168 -11.353,15.897c-4.541,-0.908 -11.354,-4.996 -14.532,-7.721m10.9,-50.873c2.724,2.271 5.903,2.725 9.083,1.817m-170.757,-267.082c1.363,2.272 -0.907,3.18 -1.816,4.543c-0.909,1.364 -2.724,2.725 -0.909,4.541m-64.487,89.937l-0.453,9.084m239.329,153.526l-9.083,2.726m-160.31,-100.383c2.272,0.454 4.541,0.909 6.359,-0.908c-2.272,-3.18 -4.996,-1.817 -6.813,-0.909c-0.454,9.085 -2.724,17.261 -4.542,25.436m4.088,-236.648c3.633,-3.633 7.721,-4.995 12.716,-1.818c4.087,-0.907 6.812,0 9.991,0m57.675,272.987l-9.536,-0.909m-103.997,-254.816l-7.722,4.996c0,4.542 2.272,3.634 4.542,3.634m86.286,13.172l-5.45,3.18l0,9.538m-2.725,-139.899l4.996,-8.631c-5.45,1.364 -9.537,3.634 -14.987,6.814m-21.798,325.22l-9.083,1.818c0,-0.909 0,-2.271 0.454,-3.634c0,-0.454 4.087,-18.169 4.087,-17.714m-49.046,-116.281l-8.174,6.359m28.61,94.478c-3.633,4.997 -6.357,5.451 -16.349,2.271m-59.038,-45.423c-27.248,9.994 -40.418,21.35 -36.785,51.782c1.362,10.447 4.541,19.986 9.991,29.07c9.083,14.535 20.89,21.349 37.694,21.349l16.802,0m232.518,-161.248c-2.725,0 -5.903,-1.363 -11.353,6.813l-4.086,6.813c-4.997,7.722 -9.538,10.902 -14.534,16.352m-163.943,-25.436c-0.907,1.817 -2.271,3.179 -2.271,4.996l0,3.633m213.445,-10.446l7.266,4.542l3.633,-0.454l0,-0.908c-4.542,-4.088 -9.991,-4.997 -15.894,-4.997l-3.18,8.63c8.175,3.633 13.624,10.447 12.716,19.986c-0.453,5.451 2.27,11.355 4.995,19.077c3.18,8.63 6.358,17.261 8.176,26.345c2.269,11.809 -3.634,23.165 -15.442,27.707c-2.27,0.909 -4.541,2.726 -6.811,4.088c-6.359,4.088 -12.717,4.542 -19.074,1.363m-190.284,-172.603l4.087,8.63m193.463,233.014l6.813,7.268m-251.139,-114.918c-4.995,4.997 -12.716,6.359 -16.803,2.271c-0.454,-0.454 -0.454,-1.362 -0.908,-1.817m126.704,-104.47c0,3.634 3.18,5.451 4.995,8.176m-54.496,-37.7l0,6.813l2.726,-1.363m61.761,-84.484l1.364,14.535m-32.698,53.597c1.362,4.088 -3.179,4.996 -4.087,7.722m-55.406,15.897l-0.908,7.268l0.908,0.455l1.818,-3.635m52.678,192.59l-7.266,-0.909m-82.197,113.555c0.454,9.539 3.632,16.352 8.173,19.532m137.149,-280.708c-2.27,1.817 -6.358,1.363 -7.72,4.997m-68.12,-34.066l0,1.816c0,5.905 0.454,8.63 -3.179,11.81m-60.854,64.953l1.362,-4.542l-2.725,-3.18l-2.271,3.634m92.19,-89.935l3.633,7.721m156.223,226.656c1.816,4.088 0.454,8.176 0.454,12.718m-260.22,-174.874l-3.178,-5.451l-1.818,0.908m35.877,1.363l0,7.722m92.191,-90.39c2.724,1.364 1.815,4.541 3.632,6.813m-23.161,-2.272l3.633,7.269m-73.115,33.158l0.907,7.267m-26.34,35.429l6.813,0.454m-3.179,-22.256c0,1.363 -0.908,2.725 -0.455,3.634c0.909,1.817 0.909,3.633 1.363,4.995m140.328,157.161l-6.811,0m-87.195,-200.765c-1.817,2.725 0,4.542 1.363,6.812m-62.671,68.134l4.088,6.814m265.215,249.82c-7.267,2.725 -13.17,0 -16.804,-11.355m-207.086,-302.056l-4.541,6.812m15.894,88.574l-6.358,5.905m10.9,130.815l-6.358,0.908m-32.244,16.352c-1.361,2.271 -2.725,3.634 -5.449,2.726m52.225,-344.753c-3.633,1.816 -7.265,2.724 -10.898,4.542c-0.908,0.455 -1.363,1.363 -1.818,2.27m45.415,73.131l3.178,5.904m36.331,36.338l0,6.359m-82.199,-119.005c3.18,2.271 3.633,5.45 1.817,9.084c1.363,2.271 2.725,4.542 4.541,6.359c0.455,0.453 2.271,0.908 3.179,0.908m-46.775,46.786c-1.363,3.179 0.907,5.45 1.361,8.175m126.25,64.953l-1.361,0l0,7.722m-142.6,-81.759c-8.629,3.179 -12.262,10.447 -12.716,11.809c-1.816,7.722 0,14.99 2.725,22.711c0.454,1.363 1.362,2.27 1.817,3.634m78.112,17.259l1.362,5.452m-35.877,-47.239l1.816,6.359m35.877,36.792l-0.908,6.359m7.72,-105.38l4.087,5.906m-36.784,189.41l-5.45,1.817m202.999,87.664l-4.996,-1.363l-2.724,5.905m-121.708,-291.609l0.907,0.454l-4.087,5.451m-21.345,168.97l0.454,5.45m-43.596,-218.025c-1.817,-0.454 -3.634,-0.454 -5.449,-0.454c-1.364,0 -3.179,-0.455 -4.542,-0.91m-2.271,139.901l1.362,5.905m39.964,-37.246l-1.362,5.45m-19.073,-34.975l-4.996,5.452m-67.666,74.037l-4.087,4.088m89.919,54.96l3.178,4.997m43.597,-112.192c0,0.454 -0.453,1.817 0,2.271c2.726,2.725 2.271,4.996 2.726,7.72m-61.31,19.987c-2.27,2.725 -2.27,4.997 0,7.268m114.443,185.775l1.817,4.543l-4.995,4.542m-108.994,-334.306c3.179,2.726 6.358,5.45 9.992,7.269c0.907,0.453 1.816,0.453 2.724,0.907m-34.513,-0.454l9.536,1.817m22.253,231.651c3.633,1.818 6.811,4.089 6.357,7.722m-31.335,-114.009l0,7.268m66.303,105.379l-4.994,-0.454m36.331,-109.921l4.54,1.362m0.454,-19.985l2.271,4.996m-17.256,-39.971l-4.997,3.633m-94.005,4.543l-1.817,7.721m29.973,-3.179l-4.995,4.088m63.125,-25.437c2.27,1.817 2.724,3.634 1.816,6.36m125.795,31.341c-0.454,3.179 0.909,4.088 4.542,4.088m-196.641,-88.119l4.541,0.908m61.763,74.947l-2.27,4.088m-55.86,-79.943l3.633,2.725m-40.418,54.053l-2.724,3.633m8.174,83.121l4.087,3.181m92.645,-220.297l-1.364,7.268m79.928,369.735l4.088,1.816m-126.704,9.085l1.362,4.087m149.411,-71.766l4.087,3.18m-167.122,-48.147c-23.161,4.996 -34.059,10.447 -54.951,21.348m-24.522,-158.977l2.27,4.542m89.465,34.521l1.362,4.996m-13.17,-127.181c0.455,0 0.455,0.907 0.455,0.907c3.178,2.727 4.996,6.36 5.45,9.994m72.662,127.636l0,4.542m-46.777,-109.922l0.909,4.088m198.003,330.218l-4.087,2.27m-252.046,-264.808l2.27,4.088m17.711,3.633l-2.723,3.634m24.068,132.632l-3.179,-1.363m-83.106,-104.924c-1.364,3.179 1.815,2.725 3.178,3.634m76.295,-30.433l1.816,3.634m-86.285,-37.246l-2.725,2.27m69.938,-17.713c2.723,1.816 0.908,4.541 1.361,6.358m-88.557,68.587c3.179,1.363 0.455,4.088 0.909,6.359m99.911,172.15l3.178,3.179m-58.13,-257.088l-1.816,5.451m90.373,163.519l3.18,1.816m-57.677,-163.064l-0.907,3.633m-2.272,116.281l-3.178,2.271m-31.789,-127.636l-2.272,2.725m75.842,37.701l-0.908,3.178m19.981,12.265l0.908,3.18m-48.137,-91.753c1.815,0 1.361,1.362 0.908,2.27m42.234,214.847l3.178,2.271m-116.713,-127.635l-0.453,3.179m123.524,114.009l2.272,3.18m-107.631,-132.178l-3.179,0.454m72.662,208.487l1.363,2.271m44.05,-379.726l-2.27,1.361m-31.789,292.517l-3.18,0m-3.633,13.626l0.909,2.726m-64.488,-222.567l1.363,2.27m100.364,1.363l2.724,1.817m-79.927,3.18l1.816,2.725m-22.707,4.088l0.454,6.814m-16.348,48.147l-1.363,2.725m101.273,-6.813l2.27,2.271m-39.055,-14.081l1.816,2.725m24.977,-19.077l-0.908,3.18m-100.364,74.946l1.362,2.725m26.794,-124.911l1.818,1.818l-1.818,2.725m51.773,196.223l0.907,6.358m-28.61,-41.334l-1.363,3.635m-18.62,133.994c-4.541,-4.542 -15.439,-3.633 -23.615,3.18c-14.077,11.355 -15.44,16.806 -6.358,35.883c3.634,7.267 9.992,11.356 17.712,11.356l7.266,0m65.851,-161.248c24.976,3.179 37.692,13.627 46.321,34.066c4.088,10.447 4.541,21.349 2.27,31.796c-0.454,2.271 0,3.633 0,5.905m-54.042,-52.691c14.079,-2.724 22.253,1.364 35.423,15.445m-40.873,-5.906c3.179,6.814 4.542,22.258 3.634,26.8m-9.537,-34.975c-16.349,2.725 -24.069,11.355 -26.794,16.352m31.789,-16.352c-4.087,0.908 -13.17,4.088 -15.439,7.722m106.266,109.012c-17.257,20.44 10.446,37.246 22.253,15.443m107.176,8.631c6.358,-2.726 18.166,-2.271 20.891,7.267c1.816,6.814 -4.087,11.809 -8.628,11.356m-16.804,-4.089c9.991,0 20.436,3.635 16.804,14.536c-3.18,9.538 -18.621,4.996 -20.891,-4.997m27.248,9.993c21.798,1.363 14.532,-19.985 0.454,-17.714m-22.253,-270.715c0.909,-8.63 0.909,-14.535 -4.541,-19.986c-4.541,-4.542 -10.898,-5.906 -17.257,-4.088m-206.632,-184.413c1.816,-7.267 2.271,-23.165 4.087,-28.615c0,9.084 2.271,12.717 5.451,24.073m36.331,417.882c-6.359,5.451 -14.079,5.451 -22.253,5.905c-0.454,-2.726 -0.454,-4.997 -0.908,-6.814c-1.818,-8.176 -7.722,-14.535 -14.988,-17.714c-4.995,-2.271 -11.352,-3.18 -17.257,0c-0.908,0.454 -3.632,0.454 -4.541,0.454c-9.991,0.909 -17.712,9.993 -21.798,18.169l1.362,9.993m163.488,32.249c-4.995,13.627 7.721,25.437 18.62,13.627c4.087,-4.542 6.813,-7.722 6.813,-15.444m44.051,23.619c-4.996,4.089 -6.813,7.723 -8.174,12.265c-4.087,14.989 14.985,17.714 20.889,-0.454" style="fill:none;fill-rule:nonzero;stroke:black;stroke-width:1px;"/>
            </g>
        </g>
    </g>
</svg>
