<?xml version="1.0" encoding="UTF-8"?>
<svg xmlns="http://www.w3.org/2000/svg" xmlns:xlink="http://www.w3.org/1999/xlink" width="365.677pt" height="345.153pt" viewBox="0 0 365.677 345.153" version="1.1">
<defs>
<clipPath id="clip1">
  <path d="M 0 0 L 365.675781 0 L 365.675781 345.152344 L 0 345.152344 Z M 0 0 "/>
</clipPath>
<clipPath id="clip2">
  <path d="M 75 30 L 296 30 L 296 264 L 75 264 Z M 75 30 "/>
</clipPath>
<clipPath id="clip3">
  <path d="M 58.109375 0 C 58.109375 0 0 0 0 58.109375 L 0 287.042969 C 0 287.042969 0 345.152344 58.109375 345.152344 L 307.566406 345.152344 C 307.566406 345.152344 365.675781 345.152344 365.675781 287.042969 L 365.675781 58.109375 C 365.675781 58.109375 365.675781 0 307.566406 0 Z M 58.109375 0 "/>
</clipPath>
</defs>
<g id="surface1">
<g clip-path="url(#clip1)" clip-rule="nonzero">
<path style=" stroke:none;fill-rule:nonzero;fill:rgb(100%,100%,100%);fill-opacity:1;" d="M 58.109375 0 C 58.109375 0 0 0 0 58.109375 L 0 287.042969 C 0 287.042969 0 345.152344 58.109375 345.152344 L 307.566406 345.152344 C 307.566406 345.152344 365.675781 345.152344 365.675781 287.042969 L 365.675781 58.109375 C 365.675781 58.109375 365.675781 0 307.566406 0 Z M 58.109375 0 "/>
</g>
<g clip-path="url(#clip2)" clip-rule="nonzero">
<g clip-path="url(#clip3)" clip-rule="nonzero">
<path style="fill:none;stroke-width:0.82;stroke-linecap:butt;stroke-linejoin:miter;stroke:rgb(0%,0%,0%);stroke-opacity:1;stroke-miterlimit:10;" d="M 0.00098125 -0.00034375 C -12.448238 -13.555031 -27.764644 -17.461281 -35.948238 -27.367531 M 3.567387 -3.562844 C 0.868169 -0.609719 -0.784175 2.519188 -1.307613 5.124656 C -2.350581 10.163719 0.348637 14.335594 -2.088863 19.632469 C -5.311519 26.671531 0.434575 37.616844 0.868169 45.694969 C 9.747075 41.702781 13.579106 37.9645 15.407231 36.054344 C 19.063481 36.054344 25.676762 36.573875 34.29395 34.316063 C 41.954106 32.316063 46.305669 27.277 49.352544 26.585594 C 55.79395 25.105125 59.797856 28.319969 61.536137 28.319969 C 59.797856 21.546531 56.489262 19.023094 55.098637 14.249656 C 52.747075 6.253563 49.786137 0.694969 47.610356 -1.738625 M 1.915044 43.612938 C 4.438481 31.796531 13.754887 26.843406 12.883794 23.542625 C 11.926762 20.066063 8.008794 18.937156 3.567387 16.765281 M 41.258794 18.593406 C 44.129887 21.546531 46.653325 23.718406 52.747075 25.105125 M 7.309575 11.812156 C 15.059575 9.991844 16.797856 9.644188 17.235356 0.347313 M 10.532231 10.859031 C 10.35645 7.991844 10.008794 4.691063 16.797856 3.562156 M 14.0127 5.55825 C 14.969731 5.55825 15.754887 6.429344 15.754887 7.296531 C 15.754887 8.253563 14.969731 9.034813 14.0127 9.034813 C 13.055669 9.034813 12.274419 8.253563 12.274419 7.296531 C 12.274419 6.429344 13.055669 5.55825 14.0127 5.55825 Z M 40.735356 -5.648781 C 37.9502 -9.297219 39.516606 -15.726906 33.684575 -13.37925 C 30.114262 -15.375344 27.938481 -14.246437 27.504887 -11.207375 C 24.805669 -11.207375 22.54395 -9.207375 23.415044 -6.430031 C 22.196294 -3.734719 21.239262 0.87075 26.2002 3.2145 C 31.161137 5.472313 37.516606 9.382469 41.083012 7.124656 C 44.653325 4.862938 51.614262 1.999656 51.266606 -14.94175 C 50.91895 -31.973 52.223637 -60.812844 41.172856 -60.812844 C 35.079106 -60.812844 31.85645 -57.945656 29.071294 -53.515969 M 35.860356 -15.203469 C 37.774419 -25.109719 36.645512 -30.492531 35.860356 -35.87925 M -1.131831 -56.730812 C 2.176762 -69.937844 8.270512 -87.312844 10.35645 -94.695656 M -43.522456 -77.668312 C -43.260738 -84.012062 -42.127925 -88.355812 -39.604488 -91.223 M -4.178706 -70.805031 C -2.436519 -79.926125 -3.83105 -84.098 -9.225581 -88.789406 C -3.569331 -93.480812 5.485356 -93.308937 9.313481 -95.824562 C 15.145512 -99.648781 18.625981 -107.730812 13.403325 -107.640969 C 10.879887 -108.683937 9.399419 -108.769875 6.961919 -107.902687 C 5.743169 -108.683937 3.395512 -108.769875 1.739262 -107.640969 M 33.946294 -44.394875 C 29.508794 -51.519875 23.934575 -58.207375 23.239262 -59.773781 M 16.8877 -106.945656 L 22.110356 -106.945656 C 23.586919 -108.336281 27.157231 -109.117531 29.508794 -106.859719 C 32.118169 -106.687844 34.641606 -104.078469 32.555669 -100.777687 C 33.946294 -98.433937 31.161137 -95.305031 26.2002 -96.348 C 23.415044 -86.965187 21.848637 -79.926125 21.848637 -69.762062 C 21.848637 -60.207375 21.848637 -57.426125 20.454106 -42.047219 M 26.547856 -92.265969 C 33.336919 -95.9105 44.215825 -94.781594 45.000981 -101.644875 C 45.434575 -105.558937 43.086919 -106.250344 40.735356 -105.293312 C 39.516606 -106.512062 38.036137 -106.598 36.297856 -105.558937 C 34.641606 -106.687844 33.946294 -106.164406 33.336919 -106.164406 M -30.030269 -63.769875 C -50.0498 -37.445656 -52.745113 -51.605812 -50.397456 -57.426125 C -48.045894 -63.332375 -32.467769 -89.047219 -16.276363 -85.574562 C -0.95605 -82.273781 -20.803706 -45.262062 -34.20605 -33.5355 C -43.1748 -17.289406 -52.0498 3.128563 -72.245113 2.257469 C -74.334956 2.171531 -74.682613 2.171531 -75.030269 2.171531 M -93.83105 -33.707375 C -91.131831 -30.492531 -86.694331 -27.801125 -82.166988 -26.758156 C -80.776363 -29.973 -81.209956 -41.613625 -90.870113 -33.707375 M -46.655269 -30.840187 C -48.655269 -29.105812 -53.096675 -26.582375 -60.319331 -24.586281 C -61.104488 -27.277687 -58.577144 -39.527687 -51.006831 -31.363625 M -61.104488 -37.617531 C -67.45605 -34.578469 -73.463863 -35.707375 -79.729488 -38.574562 C -76.159175 -45.262062 -73.5498 -47.695656 -69.022456 -47.695656 C -64.584956 -47.695656 -61.452144 -39.789406 -60.319331 -38.140969 M -85.475581 -37.012062 L -85.475581 -55.863625 M -91.221675 -34.402687 L -91.221675 -44.914406 M -50.311519 -30.492531 L -50.311519 -48.738625 M -56.663081 -34.836281 L -56.663081 -64.551125 M -111.936519 -81.750344 C -109.760738 -89.398781 -105.319331 -95.12925 -103.14355 -98.433937 M -89.651363 -29.973 C -89.651363 -31.5355 -88.346675 -32.75425 -87.041988 -32.75425 C -85.475581 -32.75425 -84.256831 -31.5355 -84.256831 -29.973 C -84.256831 -29.19175 -84.780269 -28.4105 -85.389644 -27.976906 M -56.663081 -26.062844 C -57.186519 -26.582375 -57.795894 -27.367531 -57.795894 -28.148781 C -57.795894 -29.625344 -56.491206 -30.930031 -55.010738 -30.930031 C -53.616206 -30.930031 -52.397456 -29.625344 -52.397456 -28.148781 M -78.858394 -38.922219 C -72.940425 -38.832375 -67.108394 -38.574562 -61.190425 -38.488625 M -105.147456 -106.687844 C -104.709956 -103.121437 -103.842769 -97.215187 -99.053706 -100.25425 C -96.702144 -95.12925 -92.264644 -96.348 -91.827144 -100.777687 C -88.346675 -99.039406 -85.823238 -102.082375 -85.7373 -107.555031 L -105.147456 -107.555031 M -83.2998 -107.555031 L -55.620113 -107.555031 M -32.815425 -107.555031 L -52.225581 -107.555031 C -52.139644 -102.082375 -49.6123 -99.039406 -46.131831 -100.777687 C -45.698238 -96.348 -41.346675 -95.12925 -38.909175 -100.25425 C -34.20605 -97.215187 -32.901363 -103.906594 -32.815425 -106.687844 M -32.9873 -100.25425 C -30.639644 -97.390969 -27.506831 -91.223 -25.678706 -85.488625 M -110.889644 -35.707375 C -118.5498 -35.621437 -127.514644 -35.359719 -125.077144 -40.6605 C -122.901363 -45.351906 -115.416988 -37.355812 -110.889644 -35.707375 Z M -121.510738 -45.957375 C -128.909175 -47.695656 -137.698238 -49.519875 -134.045894 -54.125344 C -130.823238 -58.121437 -125.514644 -48.562844 -121.510738 -45.957375 Z M -56.752925 9.296531 C -85.909175 9.296531 -95.397456 31.101219 -94.788081 49.257469 C -93.916988 74.191063 -73.116206 94.694969 -51.354488 94.694969 C -25.678706 94.694969 -13.229488 63.507469 -12.881831 45.694969 C -12.70605 36.402 -13.752925 22.847313 -26.721675 15.202781 C -32.901363 11.554344 -41.780269 9.296531 -54.573238 9.296531 M -25.241206 84.18325 C -22.108394 102.515281 10.79395 108.073875 18.8877 82.62075 C 29.508794 49.347313 -1.741206 42.222313 -12.186519 49.257469 M -12.795894 57.773094 C 3.309575 51.691063 10.446294 64.636375 8.879887 76.7145 C 7.309575 88.702781 -14.709956 97.562156 -20.975581 77.581688 M -81.557613 82.444969 C -84.342769 90.093406 -98.877925 97.2145 -109.061519 82.968406 C -118.288081 70.109031 -108.889644 53.862938 -95.659175 53.952781 M -77.815425 86.18325 C -81.471675 91.394188 -85.389644 100.691063 -98.358394 100.691063 C -113.6748 100.691063 -125.776363 86.18325 -124.20605 73.148094 C -122.815425 61.335594 -113.502925 44.655906 -96.877925 49.691063 M -49.002925 26.062156 C -34.20605 24.671531 -35.077144 61.769188 -54.225581 56.468406 C -69.022456 52.386375 -64.584956 27.452781 -49.874019 26.062156 M -47.002925 29.624656 C -46.565425 29.191063 -45.350581 30.144188 -44.303706 31.534813 C -43.346675 32.753563 -42.909175 34.230125 -43.260738 34.577781 C -43.522456 34.8395 -44.7373 33.968406 -45.784175 32.667625 C -46.827144 31.362938 -47.350581 29.972313 -47.002925 29.624656 Z M -54.663081 30.405906 C -54.315425 30.667625 -54.749019 31.972313 -55.795894 33.359031 C -56.838863 34.663719 -57.971675 35.444969 -58.319331 35.18325 C -58.752925 34.8395 -58.229488 33.534813 -57.358394 32.230125 C -56.401363 30.753563 -55.096675 30.05825 -54.663081 30.405906 Z M -35.948238 20.155906 C -40.647456 25.019188 -50.569331 24.585594 -57.186519 16.855125 M -21.760738 46.913719 C -28.202144 47.780906 -27.416988 51.866844 -34.729488 48.737938 C -35.948238 54.55825 -27.155269 58.987938 -25.678706 49.257469 M -80.600581 38.921531 C -81.209956 48.737938 -71.721675 46.480125 -71.5498 40.74575 C -79.381831 41.960594 -77.639644 38.140281 -81.733394 37.097313 M -69.979488 35.18325 C -73.811519 28.667625 -78.338863 21.023094 -72.592769 20.503563 C -67.45605 20.066063 -70.764644 30.49575 -69.979488 35.18325 Z M -31.858394 44.566063 C -29.854488 41.437156 -28.811519 32.8395 -25.241206 34.749656 C -20.975581 37.011375 -26.983394 41.093406 -31.858394 44.566063 Z M -21.323238 16.159813 C -16.7998 12.163719 -12.358394 2.952781 -8.530269 -5.039406 M -25.678706 12.597313 C -22.717769 5.038719 -20.01855 -1.738625 -17.842769 -11.37925 M -111.2373 -11.730812 C -101.9248 5.55825 -79.991206 7.991844 -77.815425 2.952781 C -76.596675 0.0855938 -78.338863 -1.738625 -81.557613 -3.734719 C -84.952144 -5.820656 -91.045894 -6.949562 -96.702144 -10.250344 M -29.506831 -107.293312 C -27.506831 -107.37925 -23.850581 -107.81675 -8.530269 -108.683937 C -0.608394 -109.117531 1.133794 -108.769875 1.739262 -106.250344 C 2.786137 -102.082375 -7.135738 -101.734719 -14.534175 -100.605812 C -22.108394 -99.476906 -25.764644 -98.172219 -27.155269 -97.9105 M -81.471675 15.202781 C -89.303706 11.554344 -98.358394 8.3395 -108.713863 -1.824562 C -118.288081 -11.207375 -123.858394 -29.887062 -116.897456 -30.840187 C -108.889644 -31.973 -102.448238 -21.808937 -98.530269 -15.031594 C -101.401363 -19.894875 -106.01855 -35.621437 -106.452144 -36.402687 C -129.342769 -54.211281 -135.784175 -78.363625 -124.819331 -82.969094 C -110.889644 -88.789406 -86.432613 -55.168312 -86.780269 -48.824562 C -87.127925 -42.484719 -96.440425 -44.828469 -114.459956 -62.465187 M -30.811519 50.648094 C -29.940425 50.648094 -29.159175 51.429344 -29.159175 52.300438 C -29.159175 53.257469 -29.940425 54.038719 -30.811519 54.038719 C -31.76855 54.038719 -32.553706 53.257469 -32.553706 52.300438 C -32.553706 51.429344 -31.76855 50.648094 -30.811519 50.648094 Z M -76.858394 41.179344 C -75.9873 41.179344 -75.116206 41.960594 -75.116206 42.917625 C -75.116206 43.874656 -75.9873 44.655906 -76.858394 44.655906 C -77.815425 44.655906 -78.600581 43.874656 -78.600581 42.917625 C -78.600581 41.960594 -77.815425 41.179344 -76.858394 41.179344 Z M 52.223637 -1.390969 C 54.747075 -5.473 55.618169 -16.332375 60.23145 -14.074562 C 65.454106 -11.37925 58.317387 -5.996437 52.223637 -1.390969 Z M 52.223637 -1.390969 " transform="matrix(1,0,0,-1,221.8623,143.027)"/>
</g>
</g>
<path style=" stroke:none;fill-rule:nonzero;fill:rgb(0%,0%,0%);fill-opacity:1;" d="M 69.796875 289.214844 L 69.796875 275.902344 L 72.328125 275.902344 L 79.097656 285.183594 L 79.097656 275.902344 L 81.480469 275.902344 L 81.480469 289.214844 L 79.097656 289.214844 L 72.179688 279.765625 L 72.179688 289.214844 Z M 69.796875 289.214844 "/>
<path style=" stroke:none;fill-rule:nonzero;fill:rgb(0%,0%,0%);fill-opacity:1;" d="M 84.628906 289.214844 L 84.628906 275.902344 L 92.503906 275.902344 L 92.503906 278.09375 L 86.972656 278.09375 L 86.972656 281.433594 L 92.1875 281.433594 L 92.1875 283.625 L 86.972656 283.625 L 86.972656 287.023438 L 92.597656 287.023438 L 92.597656 289.214844 Z M 84.628906 289.214844 "/>
<path style=" stroke:none;fill-rule:nonzero;fill:rgb(0%,0%,0%);fill-opacity:1;" d="M 97.601562 283.625 L 97.601562 287.023438 L 100.304688 287.023438 C 101.429688 287.023438 102.292969 286.496094 102.292969 285.316406 C 102.292969 284.132812 101.429688 283.625 100.304688 283.625 Z M 97.601562 278.09375 L 97.601562 281.433594 L 99.628906 281.433594 C 100.601562 281.433594 101.390625 280.925781 101.390625 279.726562 C 101.390625 278.601562 100.601562 278.09375 99.628906 278.09375 Z M 95.183594 289.214844 L 95.183594 275.902344 L 99.910156 275.902344 C 102.441406 275.902344 103.847656 277.402344 103.847656 279.351562 C 103.847656 280.53125 103.339844 281.507812 102.386719 282.125 C 103.941406 282.707031 104.765625 283.945312 104.765625 285.523438 C 104.765625 287.621094 103.285156 289.214844 100.640625 289.214844 Z M 95.183594 289.214844 "/>
<path style=" stroke:none;fill-rule:nonzero;fill:rgb(0%,0%,0%);fill-opacity:1;" d="M 106.941406 283.871094 L 106.941406 275.902344 L 109.359375 275.902344 L 109.359375 284.039062 C 109.359375 286.421875 110.839844 287.320312 112.359375 287.320312 C 113.933594 287.320312 115.398438 286.421875 115.398438 284.039062 L 115.398438 275.902344 L 117.816406 275.902344 L 117.816406 283.871094 C 117.816406 288.183594 114.890625 289.554688 112.359375 289.554688 C 109.867188 289.554688 106.941406 288.183594 106.941406 283.871094 "/>
<path style=" stroke:none;fill-rule:nonzero;fill:rgb(0%,0%,0%);fill-opacity:1;" d="M 123.253906 278.09375 L 123.253906 287.019531 L 125.449219 287.019531 C 128.074219 287.019531 130.003906 285.257812 130.003906 282.558594 C 130.003906 279.859375 128.074219 278.09375 125.449219 278.09375 Z M 125.054688 275.152344 L 122.859375 273.277344 L 124.546875 273.277344 L 125.878906 273.949219 L 127.210938 273.277344 L 128.898438 273.277344 L 126.703125 275.152344 Z M 120.835938 289.214844 L 120.835938 275.902344 L 125.449219 275.902344 C 129.5 275.902344 132.480469 278.601562 132.480469 282.558594 C 132.480469 286.515625 129.5 289.214844 125.449219 289.214844 Z M 120.835938 289.214844 "/>
<path style=" stroke:none;fill-rule:nonzero;fill:rgb(0%,0%,0%);fill-opacity:1;" d="M 140.878906 289.214844 L 140.878906 278.09375 L 137.257812 278.09375 L 137.257812 275.902344 L 146.917969 275.902344 L 146.917969 278.09375 L 143.296875 278.09375 L 143.296875 289.214844 Z M 140.878906 289.214844 "/>
<path style=" stroke:none;fill-rule:nonzero;fill:rgb(0%,0%,0%);fill-opacity:1;" d="M 150.609375 284.414062 L 154.605469 284.414062 L 152.617188 278.996094 Z M 146.128906 289.214844 L 151.378906 275.902344 L 153.851562 275.902344 L 159.105469 289.214844 L 156.441406 289.214844 L 155.429688 286.644531 L 149.804688 286.644531 L 148.808594 289.214844 Z M 146.128906 289.214844 "/>
<path style=" stroke:none;fill-rule:nonzero;fill:rgb(0%,0%,0%);fill-opacity:1;" d="M 160.753906 289.214844 L 160.753906 275.902344 L 163.171875 275.902344 L 163.171875 281.601562 L 167.636719 275.902344 L 170.785156 275.902344 L 165.648438 282.050781 L 171.121094 289.214844 L 168.046875 289.214844 L 163.902344 283.625 L 163.171875 283.625 L 163.171875 289.214844 Z M 160.753906 289.214844 "/>
<path style=" stroke:none;fill-rule:nonzero;fill:rgb(0%,0%,0%);fill-opacity:1;" d="M 182.710938 282.558594 C 182.710938 279.726562 180.683594 277.757812 178.039062 277.757812 C 175.359375 277.757812 173.351562 279.726562 173.351562 282.558594 C 173.351562 285.390625 175.359375 287.359375 178.039062 287.359375 C 180.683594 287.359375 182.710938 285.390625 182.710938 282.558594 M 170.933594 282.558594 C 170.933594 278.394531 174.066406 275.5625 178.039062 275.5625 C 181.996094 275.5625 185.128906 278.394531 185.128906 282.558594 C 185.128906 286.722656 181.996094 289.554688 178.039062 289.554688 C 174.066406 289.554688 170.933594 286.722656 170.933594 282.558594 "/>
<path style=" stroke:none;fill-rule:nonzero;fill:rgb(0%,0%,0%);fill-opacity:1;" d="M 190.882812 289.214844 L 185.558594 275.902344 L 188.222656 275.902344 L 192.046875 285.972656 L 195.855469 275.902344 L 198.535156 275.902344 L 193.207031 289.214844 Z M 190.882812 289.214844 "/>
<path style=" stroke:none;fill-rule:nonzero;fill:rgb(0%,0%,0%);fill-opacity:1;" d="M 202.488281 274.964844 L 202.488281 274.402344 L 207.214844 273.367188 L 207.214844 274.964844 Z M 203.632812 289.214844 L 203.632812 284.113281 L 198.683594 275.902344 L 201.457031 275.902344 L 204.851562 281.863281 L 208.246094 275.902344 L 211.023438 275.902344 L 206.050781 284.152344 L 206.050781 289.214844 Z M 203.632812 289.214844 "/>
<path style=" stroke:none;fill-rule:nonzero;fill:rgb(0%,0%,0%);fill-opacity:1;" d="M 218.707031 278.09375 L 218.707031 287.019531 L 220.902344 287.019531 C 223.527344 287.019531 225.460938 285.257812 225.460938 282.558594 C 225.460938 279.859375 223.527344 278.09375 220.902344 278.09375 Z M 216.289062 289.214844 L 216.289062 275.902344 L 220.902344 275.902344 C 224.953125 275.902344 227.933594 278.601562 227.933594 282.558594 C 227.933594 286.515625 224.953125 289.214844 220.902344 289.214844 Z M 216.289062 289.214844 "/>
<path style=" stroke:none;fill-rule:nonzero;fill:rgb(0%,0%,0%);fill-opacity:1;" d="M 230.3125 289.214844 L 230.3125 275.902344 L 238.191406 275.902344 L 238.191406 278.09375 L 232.65625 278.09375 L 232.65625 281.433594 L 237.871094 281.433594 L 237.871094 283.625 L 232.65625 283.625 L 232.65625 287.023438 L 238.285156 287.023438 L 238.285156 289.214844 Z M 230.3125 289.214844 "/>
<path style=" stroke:none;fill-rule:nonzero;fill:rgb(0%,0%,0%);fill-opacity:1;" d="M 244.171875 289.441406 C 242.800781 289.441406 241.582031 289.007812 240.25 288.558594 L 240.25 286.027344 L 244.09375 287.339844 C 245.351562 287.339844 246.140625 286.757812 246.140625 285.632812 C 246.140625 282.839844 240.289062 283.777344 240.289062 279.21875 C 240.289062 277.121094 241.921875 275.675781 244.285156 275.675781 C 245.558594 275.675781 246.703125 275.976562 247.734375 276.371094 L 247.734375 278.882812 L 244.339844 277.757812 C 243.289062 277.757812 242.652344 278.355469 242.652344 279.183594 C 242.652344 281.65625 248.539062 281.058594 248.539062 285.613281 C 248.539062 287.976562 246.722656 289.441406 244.171875 289.441406 "/>
<path style=" stroke:none;fill-rule:nonzero;fill:rgb(0%,0%,0%);fill-opacity:1;" d="M 253.246094 278.09375 L 253.246094 281.414062 L 255.664062 281.414062 C 256.789062 281.414062 257.597656 280.851562 257.597656 279.746094 C 257.597656 278.621094 256.789062 278.09375 255.664062 278.09375 Z M 250.824219 289.214844 L 250.824219 275.902344 L 255.851562 275.902344 C 258.53125 275.902344 260.050781 277.550781 260.050781 279.746094 C 260.050781 281.902344 258.53125 283.609375 255.851562 283.609375 L 253.246094 283.609375 L 253.246094 289.214844 Z M 250.824219 289.214844 "/>
<path style=" stroke:none;fill-rule:nonzero;fill:rgb(0%,0%,0%);fill-opacity:1;" d="M 273.101562 282.558594 C 273.101562 279.726562 271.078125 277.757812 268.433594 277.757812 C 265.75 277.757812 263.746094 279.726562 263.746094 282.558594 C 263.746094 285.390625 265.75 287.359375 268.433594 287.359375 C 271.078125 287.359375 273.101562 285.390625 273.101562 282.558594 M 261.324219 282.558594 C 261.324219 278.394531 264.457031 275.5625 268.433594 275.5625 C 272.390625 275.5625 275.523438 278.394531 275.523438 282.558594 C 275.523438 286.722656 272.390625 289.554688 268.433594 289.554688 C 264.457031 289.554688 261.324219 286.722656 261.324219 282.558594 "/>
<path style=" stroke:none;fill-rule:nonzero;fill:rgb(0%,0%,0%);fill-opacity:1;" d="M 279.757812 289.214844 L 279.757812 278.09375 L 276.136719 278.09375 L 276.136719 275.902344 L 285.796875 275.902344 L 285.796875 278.09375 L 282.175781 278.09375 L 282.175781 289.214844 Z M 279.757812 289.214844 "/>
<path style=" stroke:none;fill-rule:nonzero;fill:rgb(0%,0%,0%);fill-opacity:1;" d="M 289.488281 284.414062 L 293.484375 284.414062 L 291.496094 278.996094 Z M 285.007812 289.214844 L 290.257812 275.902344 L 292.730469 275.902344 L 297.984375 289.214844 L 295.320312 289.214844 L 294.308594 286.644531 L 288.683594 286.644531 L 287.6875 289.214844 Z M 285.007812 289.214844 "/>
<path style=" stroke:none;fill-rule:nonzero;fill:rgb(0%,0%,0%);fill-opacity:1;" d="M 56.429688 307.421875 L 60.421875 307.421875 L 58.4375 302 Z M 51.945312 312.222656 L 57.199219 298.90625 L 59.671875 298.90625 L 64.921875 312.222656 L 62.261719 312.222656 L 61.246094 309.652344 L 55.621094 309.652344 L 54.628906 312.222656 Z M 51.945312 312.222656 "/>
<path style=" stroke:none;fill-rule:nonzero;fill:rgb(0%,0%,0%);fill-opacity:1;" d="M 70.265625 312.222656 L 70.265625 298.90625 L 72.796875 298.90625 L 79.566406 308.1875 L 79.566406 298.90625 L 81.949219 298.90625 L 81.949219 312.222656 L 79.566406 312.222656 L 72.648438 302.769531 L 72.648438 312.222656 Z M 70.265625 312.222656 "/>
<path style=" stroke:none;fill-rule:nonzero;fill:rgb(0%,0%,0%);fill-opacity:1;" d="M 85.097656 312.222656 L 85.097656 298.90625 L 92.972656 298.90625 L 92.972656 301.101562 L 87.441406 301.101562 L 87.441406 304.4375 L 92.65625 304.4375 L 92.65625 306.632812 L 87.441406 306.632812 L 87.441406 310.027344 L 93.066406 310.027344 L 93.066406 312.222656 Z M 85.097656 312.222656 "/>
<path style=" stroke:none;fill-rule:nonzero;fill:rgb(0%,0%,0%);fill-opacity:1;" d="M 98.074219 301.101562 L 98.074219 304.421875 L 100.136719 304.421875 C 101.261719 304.421875 102.066406 303.855469 102.066406 302.75 C 102.066406 301.625 101.261719 301.101562 100.136719 301.101562 Z M 95.652344 312.222656 L 95.652344 298.90625 L 100.324219 298.90625 C 103.003906 298.90625 104.523438 300.558594 104.523438 302.75 C 104.523438 304.90625 103.003906 306.613281 100.324219 306.613281 L 99.855469 306.613281 L 101.542969 307.175781 L 105.3125 312.222656 L 102.234375 312.222656 L 98.074219 306.484375 L 98.074219 312.222656 Z M 95.652344 312.222656 "/>
<path style=" stroke:none;fill-rule:nonzero;fill:rgb(0%,0%,0%);fill-opacity:1;" d="M 107.035156 306.875 L 107.035156 298.90625 L 109.453125 298.90625 L 109.453125 307.046875 C 109.453125 309.425781 110.933594 310.328125 112.453125 310.328125 C 114.03125 310.328125 115.492188 309.425781 115.492188 307.046875 L 115.492188 298.90625 L 117.910156 298.90625 L 117.910156 306.875 C 117.910156 311.191406 114.984375 312.558594 112.453125 312.558594 C 109.960938 312.558594 107.035156 311.191406 107.035156 306.875 "/>
<path style=" stroke:none;fill-rule:nonzero;fill:rgb(0%,0%,0%);fill-opacity:1;" d="M 123.535156 298.15625 L 121.339844 296.28125 L 123.027344 296.28125 L 124.359375 296.957031 L 125.691406 296.28125 L 127.378906 296.28125 L 125.183594 298.15625 Z M 124.246094 312.445312 C 122.878906 312.445312 121.660156 312.015625 120.328125 311.566406 L 120.328125 309.03125 L 124.171875 310.347656 C 125.429688 310.347656 126.21875 309.765625 126.21875 308.640625 C 126.21875 305.84375 120.367188 306.78125 120.367188 302.226562 C 120.367188 300.125 121.996094 298.679688 124.359375 298.679688 C 125.636719 298.679688 126.777344 298.980469 127.8125 299.375 L 127.8125 301.886719 L 124.417969 300.761719 C 123.367188 300.761719 122.726562 301.363281 122.726562 302.1875 C 122.726562 304.664062 128.617188 304.0625 128.617188 308.621094 C 128.617188 310.984375 126.796875 312.445312 124.246094 312.445312 "/>
<path style=" stroke:none;fill-rule:nonzero;fill:rgb(0%,0%,0%);fill-opacity:1;" d="M 135.101562 312.222656 L 135.101562 298.90625 L 137.632812 298.90625 L 144.40625 308.1875 L 144.40625 298.90625 L 146.785156 298.90625 L 146.785156 312.222656 L 144.40625 312.222656 L 137.484375 302.769531 L 137.484375 312.222656 Z M 135.101562 312.222656 "/>
<path style=" stroke:none;fill-rule:nonzero;fill:rgb(0%,0%,0%);fill-opacity:1;" d="M 152.917969 307.421875 L 156.910156 307.421875 L 154.921875 302 Z M 152.558594 297.96875 L 152.558594 297.40625 L 157.285156 296.375 L 157.285156 297.96875 Z M 148.433594 312.222656 L 153.683594 298.90625 L 156.160156 298.90625 L 161.410156 312.222656 L 158.75 312.222656 L 157.738281 309.652344 L 152.109375 309.652344 L 151.117188 312.222656 Z M 148.433594 312.222656 "/>
<path style=" stroke:none;fill-rule:nonzero;fill:rgb(0%,0%,0%);fill-opacity:1;" d="M 165.664062 298.15625 L 163.472656 296.28125 L 165.160156 296.28125 L 166.492188 296.957031 L 167.824219 296.28125 L 169.511719 296.28125 L 167.316406 298.15625 Z M 166.378906 312.445312 C 165.011719 312.445312 163.789062 312.015625 162.460938 311.566406 L 162.460938 309.03125 L 166.304688 310.347656 C 167.558594 310.347656 168.347656 309.765625 168.347656 308.640625 C 168.347656 305.84375 162.496094 306.78125 162.496094 302.226562 C 162.496094 300.125 164.128906 298.679688 166.492188 298.679688 C 167.765625 298.679688 168.910156 298.980469 169.941406 299.375 L 169.941406 301.886719 L 166.546875 300.761719 C 165.496094 300.761719 164.859375 301.363281 164.859375 302.1875 C 164.859375 304.664062 170.746094 304.0625 170.746094 308.621094 C 170.746094 310.984375 168.929688 312.445312 166.378906 312.445312 "/>
<path style=" stroke:none;fill-rule:nonzero;fill:rgb(0%,0%,0%);fill-opacity:1;" d="M 177.234375 312.222656 L 177.234375 298.90625 L 179.765625 298.90625 L 186.535156 308.1875 L 186.535156 298.90625 L 188.917969 298.90625 L 188.917969 312.222656 L 186.535156 312.222656 L 179.617188 302.769531 L 179.617188 312.222656 Z M 177.234375 312.222656 "/>
<path style=" stroke:none;fill-rule:nonzero;fill:rgb(0%,0%,0%);fill-opacity:1;" d="M 311.539062 313.347656 C 309.664062 311.226562 308.839844 308.433594 308.839844 305.5625 C 308.839844 302.695312 309.664062 299.902344 311.539062 297.78125 L 313.769531 297.78125 L 312.027344 300.03125 C 311.125 301.777344 310.996094 303.632812 310.996094 305.5625 C 310.996094 307.496094 311.125 309.351562 312.027344 311.097656 L 313.769531 313.347656 Z M 301.882812 304.457031 L 306.90625 304.457031 L 306.90625 306.371094 L 301.882812 306.371094 Z M 297.15625 309.785156 L 299.691406 309.785156 L 299.691406 312.222656 L 297.15625 312.222656 Z M 297.15625 303.070312 L 299.691406 303.070312 L 299.691406 305.507812 L 297.15625 305.507812 Z M 284.242188 301.101562 L 284.242188 304.421875 L 286.304688 304.421875 C 287.429688 304.421875 288.234375 303.859375 288.234375 302.75 C 288.234375 301.625 287.429688 301.101562 286.304688 301.101562 Z M 281.820312 312.222656 L 281.820312 298.90625 L 286.492188 298.90625 C 289.171875 298.90625 290.691406 300.558594 290.691406 302.75 C 290.691406 304.910156 289.171875 306.617188 286.492188 306.617188 L 286.023438 306.617188 L 287.710938 307.175781 L 291.480469 312.222656 L 288.402344 312.222656 L 284.242188 306.484375 L 284.242188 312.222656 Z M 271.265625 312.222656 L 271.265625 298.90625 L 279.140625 298.90625 L 279.140625 301.101562 L 273.609375 301.101562 L 273.609375 304.4375 L 278.824219 304.4375 L 278.824219 306.632812 L 273.609375 306.632812 L 273.609375 310.027344 L 279.234375 310.027344 L 279.234375 312.222656 Z M 263.296875 312.222656 L 263.296875 301.101562 L 259.679688 301.101562 L 259.679688 298.90625 L 269.335938 298.90625 L 269.335938 301.101562 L 265.71875 301.101562 L 265.71875 312.222656 Z M 252.929688 312.222656 L 252.929688 301.101562 L 249.308594 301.101562 L 249.308594 298.90625 L 258.96875 298.90625 L 258.96875 301.101562 L 255.347656 301.101562 L 255.347656 312.222656 Z M 239.972656 312.222656 L 239.972656 298.90625 L 247.847656 298.90625 L 247.847656 301.101562 L 242.316406 301.101562 L 242.316406 304.4375 L 247.53125 304.4375 L 247.53125 306.632812 L 242.316406 306.632812 L 242.316406 310.027344 L 247.941406 310.027344 L 247.941406 312.222656 Z M 229.976562 312.222656 L 229.976562 298.90625 L 232.398438 298.90625 L 232.398438 310.027344 L 238.097656 310.027344 L 238.097656 312.222656 Z M 223.324219 312.449219 C 221.953125 312.449219 220.734375 312.015625 219.402344 311.566406 L 219.402344 309.035156 L 223.25 310.347656 C 224.503906 310.347656 225.292969 309.765625 225.292969 308.640625 C 225.292969 305.84375 219.441406 306.785156 219.441406 302.226562 C 219.441406 300.125 221.070312 298.683594 223.433594 298.683594 C 224.710938 298.683594 225.855469 298.980469 226.886719 299.375 L 226.886719 301.886719 L 223.492188 300.761719 C 222.441406 300.761719 221.804688 301.363281 221.804688 302.1875 C 221.804688 304.664062 227.691406 304.0625 227.691406 308.621094 C 227.691406 310.984375 225.875 312.449219 223.324219 312.449219 M 205.003906 312.222656 L 201.367188 298.90625 L 203.839844 298.90625 L 206.148438 308.472656 L 208.660156 298.90625 L 210.96875 298.90625 L 213.460938 308.472656 L 215.785156 298.90625 L 218.261719 298.90625 L 214.625 312.222656 L 212.300781 312.222656 L 209.804688 302.789062 L 207.328125 312.222656 Z M 192.066406 312.222656 L 192.066406 298.90625 L 199.941406 298.90625 L 199.941406 301.101562 L 194.410156 301.101562 L 194.410156 304.4375 L 199.625 304.4375 L 199.625 306.632812 L 194.410156 306.632812 L 194.410156 310.027344 L 200.035156 310.027344 L 200.035156 312.222656 Z M 192.066406 312.222656 "/>
</g>
</svg>
