<?xml version="1.0" encoding="UTF-8" standalone="no"?><!DOCTYPE svg PUBLIC "-//W3C//DTD SVG 1.1//EN" "http://www.w3.org/Graphics/SVG/1.1/DTD/svg11.dtd"><svg width="100%" height="100%" viewBox="0 0 366 346" version="1.1" xmlns="http://www.w3.org/2000/svg" xmlns:xlink="http://www.w3.org/1999/xlink" xml:space="preserve" xmlns:serif="http://www.serif.com/" style="fill-rule:evenodd;clip-rule:evenodd;stroke-miterlimit:10;"><rect id="Page-7" serif:id="Page 7" x="0" y="0" width="365.677" height="345.153" style="fill:none;"/><clipPath id="_clip1"><rect x="0" y="0" width="365.677" height="345.153"/></clipPath><g clip-path="url(#_clip1)"><g id="Layer-1" serif:id="Layer 1"><path d="M58.11,-0.001c0,-0 -58.11,-0 -58.11,58.11l0,228.934c0,-0 0,58.11 58.11,58.11l249.457,-0c0,-0 58.11,-0 58.11,-58.11l0,-228.934c0,-0 0,-58.11 -58.11,-58.11l-249.457,-0Z" style="fill:#fff;fill-rule:nonzero;"/><clipPath id="_clip2"><path d="M58.11,-0.001c-0,-0 -58.11,-0 -58.11,58.11l0,228.934c0,0 0,58.11 58.11,58.11l249.457,0c0,0 58.109,0 58.109,-58.11l0,-228.934c0,0 0,-58.11 -58.109,-58.11l-249.457,-0Z" clip-rule="nonzero"/></clipPath><g clip-path="url(#_clip2)"><path d="M221.862,143.027c-12.447,13.554 -27.766,17.462 -35.948,27.366m39.517,-23.803c-2.699,-2.955 -4.352,-6.082 -4.875,-8.689c-1.044,-5.039 1.654,-9.209 -0.783,-14.508c-3.221,-7.037 2.524,-17.984 2.959,-26.062c8.879,3.995 12.708,7.731 14.536,9.642c3.656,0 10.271,-0.521 18.888,1.738c7.66,1.999 12.012,7.038 15.059,7.732c6.441,1.477 10.445,-1.737 12.185,-1.737c-1.74,6.775 -5.048,9.296 -6.441,14.073c-2.35,7.993 -5.309,13.554 -7.485,15.986m-45.697,-45.349c2.524,11.814 11.838,16.766 10.967,20.067c-0.957,3.476 -4.874,4.606 -9.313,6.777m37.689,-1.825c2.872,-2.954 5.396,-5.125 11.489,-6.515m-45.436,13.293c7.747,1.823 9.488,2.171 9.923,11.466m-6.702,-10.511c-0.174,2.866 -0.522,6.169 6.267,7.297m-2.785,-1.998c0.957,0 1.741,-0.869 1.741,-1.738c0,-0.955 -0.784,-1.737 -1.741,-1.737c-0.958,0 -1.741,0.782 -1.741,1.737c0,0.869 0.783,1.738 1.741,1.738Zm26.721,11.207c-2.785,3.649 -1.218,10.079 -7.05,7.732c-3.569,1.998 -5.745,0.869 -6.18,-2.172c-2.698,0 -4.961,-1.998 -4.091,-4.777c-1.218,-2.694 -2.176,-7.299 2.786,-9.644c4.961,-2.259 11.315,-6.169 14.884,-3.91c3.568,2.26 10.532,5.126 10.183,22.067c-0.348,17.029 0.958,45.871 -10.096,45.871c-6.093,-0 -9.314,-2.867 -12.099,-7.297m6.789,-38.313c1.915,9.904 0.784,15.29 0,20.676m-36.993,20.851c3.308,13.206 9.401,30.582 11.49,37.965m-53.879,-17.028c0.261,6.343 1.393,10.686 3.917,13.554m35.426,-20.416c1.741,9.122 0.348,13.292 -5.048,17.983c5.657,4.691 14.71,4.518 18.539,7.037c5.832,3.822 9.314,11.903 4.091,11.816c-2.524,1.042 -4.004,1.129 -6.441,0.26c-1.218,0.782 -3.568,0.869 -5.222,-0.26m32.205,-63.247c-4.439,7.124 -10.01,13.813 -10.706,15.377m-6.354,47.174l5.223,-0c1.479,1.39 5.048,2.172 7.398,-0.087c2.611,-0.173 5.136,-2.78 3.047,-6.081c1.392,-2.345 -1.393,-5.473 -6.354,-4.43c-2.786,-9.384 -4.353,-16.42 -4.353,-26.585c0,-9.557 0,-12.336 -1.392,-27.714m6.093,50.216c6.789,3.647 17.669,2.518 18.453,9.381c0.435,3.911 -1.915,4.605 -4.266,3.649c-1.218,1.217 -2.698,1.304 -4.439,0.262c-1.653,1.129 -2.35,0.607 -2.959,0.607m-63.366,-42.395c-20.02,-26.325 -22.718,-12.164 -20.368,-6.342c2.35,5.906 17.93,31.622 34.12,28.147c15.32,-3.301 -4.526,-40.31 -17.93,-52.039c-8.966,-16.246 -17.844,-36.663 -38.038,-35.794c-2.089,0.087 -2.437,0.087 -2.785,0.087m-18.801,35.88c2.698,-3.214 7.138,-5.906 11.664,-6.95c1.392,3.216 0.957,14.856 -8.704,6.95m44.217,-2.867c-2.002,-1.737 -6.441,-4.257 -13.666,-6.255c-0.783,2.693 1.741,14.943 9.314,6.777m-10.097,6.255c-6.354,-3.041 -12.36,-1.911 -18.627,0.955c3.569,6.691 6.18,9.123 10.706,9.123c4.439,0 7.573,-7.906 8.704,-9.556m-25.155,-1.129l0,18.851m-5.745,-21.459l0,10.513m40.91,-14.422l0,18.244m-6.354,-13.9l0,29.712m-55.271,17.201c2.176,7.646 6.615,13.38 8.791,16.682m13.491,-68.459c0,1.562 1.306,2.779 2.611,2.779c1.567,0 2.786,-1.217 2.786,-2.779c0,-0.783 -0.523,-1.565 -1.132,-1.999m28.724,-1.912c-0.522,0.521 -1.132,1.303 -1.132,2.085c0,1.477 1.306,2.781 2.786,2.781c1.392,0 2.611,-1.304 2.611,-2.781m-26.461,10.773c5.919,-0.087 11.751,-0.348 17.67,-0.434m-43.956,68.199c0.435,-3.563 1.305,-9.47 6.093,-6.43c2.35,-5.125 6.789,-3.908 7.224,0.522c3.482,-1.738 6.006,1.303 6.093,6.777l-19.41,0m21.847,0l27.679,0m22.805,0l-19.41,0c0.087,-5.474 2.611,-8.515 6.093,-6.777c0.435,-4.43 4.787,-5.647 7.224,-0.522c4.701,-3.04 6.006,3.649 6.093,6.43m-0.174,-6.43c2.35,-2.866 5.484,-9.034 7.312,-14.769m-85.214,-49.78c-7.66,-0.087 -16.625,-0.348 -14.188,4.952c2.176,4.692 9.662,-3.302 14.188,-4.952Zm-10.619,10.251c-7.399,1.738 -16.19,3.563 -12.534,8.167c3.22,3.996 8.53,-5.561 12.534,-8.167Zm64.759,-55.254c-29.159,0 -38.647,-21.806 -38.037,-39.963c0.87,-24.933 21.673,-45.436 43.433,-45.436c25.678,0 38.125,31.188 38.473,48.999c0.174,9.295 -0.871,22.847 -13.84,30.492c-6.18,3.649 -15.058,5.908 -27.853,5.908m29.333,-74.888c3.133,-18.331 36.035,-23.89 44.13,1.564c10.619,33.274 -20.629,40.398 -31.074,33.361m-0.609,-8.513c16.103,6.081 23.24,-6.865 21.673,-18.941c-1.567,-11.989 -23.588,-20.85 -29.855,-0.868m-60.581,-4.865c-2.785,-7.646 -17.321,-14.77 -27.505,-0.522c-9.227,12.859 0.174,29.105 13.404,29.017m17.844,-32.231c-3.656,-5.213 -7.573,-14.509 -20.542,-14.509c-15.319,0 -27.418,14.509 -25.851,27.541c1.392,11.815 10.706,28.496 27.331,23.457m47.873,23.631c14.797,1.389 13.926,-35.708 -5.223,-30.408c-14.797,4.083 -10.358,29.017 4.352,30.408m2.873,-3.563c0.435,0.435 1.653,-0.521 2.698,-1.911c0.957,-1.217 1.393,-2.693 1.044,-3.041c-0.261,-0.261 -1.479,0.608 -2.524,1.911c-1.044,1.304 -1.567,2.693 -1.218,3.041Zm-7.66,-0.781c0.348,-0.262 -0.087,-1.565 -1.132,-2.954c-1.044,-1.304 -2.176,-2.085 -2.524,-1.825c-0.435,0.347 0.087,1.65 0.958,2.955c0.957,1.475 2.263,2.17 2.698,1.824Zm18.714,10.251c-4.7,-4.866 -14.623,-4.431 -21.238,3.301m35.426,-30.06c-6.441,-0.867 -5.658,-4.952 -12.97,-1.823c-1.218,-5.822 7.573,-10.252 9.053,-0.522m-54.924,10.338c-0.609,-9.816 8.879,-7.558 9.053,-1.824c-7.834,-1.217 -6.093,2.606 -10.184,3.648m11.751,1.912c-3.83,6.516 -8.356,14.162 -2.612,14.682c5.136,0.435 1.828,-9.991 2.612,-14.682Zm38.124,-9.382c2.002,3.128 3.046,11.727 6.615,9.816c4.265,-2.259 -1.741,-6.342 -6.615,-9.816Zm10.532,28.408c4.526,3.996 8.965,13.205 12.795,21.198m-17.147,-17.636c2.959,7.558 5.657,14.335 7.833,23.978m-93.395,0.348c9.313,-17.289 31.248,-19.722 33.424,-14.683c1.218,2.867 -0.522,4.692 -3.743,6.69c-3.395,2.085 -9.488,3.214 -15.145,6.515m67.196,97.042c2.002,0.087 5.658,0.522 20.977,1.391c7.921,0.434 9.662,0.087 10.271,-2.433c1.044,-4.17 -8.878,-4.518 -16.277,-5.647c-7.573,-1.129 -11.228,-2.433 -12.621,-2.693m-54.314,-113.115c-7.834,3.649 -16.886,6.864 -27.244,17.028c-9.575,9.383 -15.145,28.063 -8.182,29.017c8.008,1.131 14.449,-9.034 18.366,-15.811c-2.872,4.866 -7.486,20.59 -7.921,21.372c-22.892,17.809 -29.333,41.961 -18.366,46.567c13.927,5.82 38.386,-27.802 38.038,-34.144c-0.349,-6.342 -9.662,-3.996 -27.68,13.64m83.647,-113.113c0.871,0 1.654,-0.783 1.654,-1.652c0,-0.956 -0.783,-1.738 -1.654,-1.738c-0.957,0 -1.741,0.782 -1.741,1.738c0,0.869 0.784,1.652 1.741,1.652Zm-46.045,9.468c0.871,0 1.741,-0.782 1.741,-1.737c0,-0.956 -0.87,-1.737 -1.741,-1.737c-0.957,0 -1.741,0.781 -1.741,1.737c0,0.955 0.784,1.737 1.741,1.737Zm129.083,42.571c2.524,4.083 3.395,14.942 8.008,12.683c5.222,-2.693 -1.915,-8.079 -8.008,-12.683Z" style="fill:none;fill-rule:nonzero;stroke:#000;stroke-width:0.82px;"/></g><path d="M69.797,289.215l-0,-13.314l2.532,0l6.77,9.282l-0,-9.282l2.382,0l-0,13.314l-2.382,0l-6.92,-9.451l-0,9.451l-2.382,0Z" style="fill-rule:nonzero;"/><path d="M84.628,289.215l-0,-13.314l7.876,0l-0,2.194l-5.532,0l-0,3.338l5.214,0l-0,2.193l-5.214,0l-0,3.395l5.626,0l-0,2.194l-7.97,0Z" style="fill-rule:nonzero;"/><path d="M97.604,283.627l-0.001,3.395l2.701,-0c1.126,-0 1.988,-0.525 1.988,-1.707c-0,-1.181 -0.862,-1.688 -1.988,-1.688l-2.7,-0Zm-0,-5.531l-0,3.338l2.025,-0c0.975,-0 1.763,-0.507 1.763,-1.707c-0.001,-1.125 -0.788,-1.631 -1.763,-1.631l-2.025,-0Zm-2.419,11.12l-0,-13.315l4.726,-0c2.531,-0 3.938,1.5 3.938,3.451c-0,1.181 -0.507,2.157 -1.463,2.775c1.555,0.582 2.382,1.819 2.382,3.395c-0.001,2.1 -1.483,3.694 -4.127,3.694l-5.457,-0Z" style="fill-rule:nonzero;"/><path d="M106.94,283.871l0,-7.97l2.419,-0l0,8.139c0,2.382 1.481,3.281 3,3.281c1.576,-0 3.039,-0.899 3.039,-3.281l0,-8.139l2.418,-0l0,7.97c0,4.313 -2.925,5.683 -5.457,5.683c-2.494,-0 -5.419,-1.37 -5.419,-5.683" style="fill-rule:nonzero;"/><path d="M123.253,278.095l0,8.926l2.194,0c2.625,0 4.557,-1.763 4.557,-4.463c0,-2.7 -1.932,-4.463 -4.557,-4.463l-2.194,0Zm1.8,-2.944l-2.194,-1.876l1.688,0l1.331,0.675l1.332,-0.675l1.688,0l-2.194,1.876l-1.651,0Zm-4.219,14.064l0,-13.314l4.613,0c4.051,0 7.033,2.7 7.033,6.657c0,3.957 -2.982,6.657 -7.033,6.657l-4.613,0Z" style="fill-rule:nonzero;"/><path d="M140.878,289.215l-0,-11.12l-3.619,0l-0,-2.194l9.658,0l-0,2.194l-3.62,0l-0,11.12l-2.419,0Z" style="fill-rule:nonzero;"/><path d="M150.609,284.415l3.995,-0l-1.988,-5.42l-2.007,5.42Zm-4.482,4.801l5.251,-13.315l2.475,-0l5.251,13.315l-2.663,-0l-1.013,-2.57l-5.625,-0l-0.994,2.57l-2.682,-0Z" style="fill-rule:nonzero;"/><path d="M160.752,289.215l0,-13.314l2.419,0l0,5.701l4.464,-5.701l3.15,0l-5.138,6.15l5.476,7.164l-3.076,0l-4.144,-5.589l-0.732,0l0,5.589l-2.419,0Z" style="fill-rule:nonzero;"/><path d="M182.71,282.558c-0,-2.832 -2.025,-4.801 -4.669,-4.801c-2.682,0 -4.689,1.969 -4.689,4.801c-0,2.832 2.007,4.801 4.689,4.801c2.644,0 4.669,-1.969 4.669,-4.801m-11.777,0c0,-4.163 3.132,-6.995 7.108,-6.995c3.957,0 7.088,2.832 7.088,6.995c0,4.163 -3.131,6.995 -7.088,6.995c-3.976,0 -7.108,-2.832 -7.108,-6.995" style="fill-rule:nonzero;"/><path d="M190.884,289.215l-5.326,-13.314l2.663,0l3.826,10.07l3.807,-10.07l2.681,0l-5.326,13.314l-2.325,0Z" style="fill-rule:nonzero;"/><path d="M202.49,274.964l-0,-0.563l4.726,-1.033l-0,1.596l-4.726,-0Zm1.144,14.252l-0,-5.101l-4.951,-8.215l2.776,0l3.394,5.963l3.394,-5.963l2.776,0l-4.97,8.251l-0,5.065l-2.419,-0Z" style="fill-rule:nonzero;"/><path d="M218.708,278.095l0,8.926l2.194,0c2.625,0 4.558,-1.763 4.558,-4.463c-0,-2.7 -1.933,-4.463 -4.558,-4.463l-2.194,0Zm-2.419,11.12l0,-13.314l4.613,0c4.052,0 7.034,2.7 7.034,6.657c-0,3.957 -2.982,6.657 -7.034,6.657l-4.613,0Z" style="fill-rule:nonzero;"/><path d="M230.313,289.215l0,-13.314l7.876,0l0,2.194l-5.532,0l0,3.338l5.214,0l0,2.193l-5.214,0l0,3.395l5.626,0l0,2.194l-7.97,0Z" style="fill-rule:nonzero;"/><path d="M244.17,289.44c-1.369,0 -2.588,-0.431 -3.919,-0.881l0,-2.532l3.844,1.313c1.257,0 2.044,-0.582 2.044,-1.707c0,-2.794 -5.851,-1.856 -5.851,-6.413c0,-2.1 1.632,-3.545 3.995,-3.545c1.275,0 2.419,0.301 3.45,0.695l0,2.512l-3.394,-1.125c-1.05,0 -1.688,0.6 -1.688,1.425c0,2.476 5.889,1.876 5.889,6.433c0,2.363 -1.819,3.825 -4.37,3.825" style="fill-rule:nonzero;"/><path d="M253.245,278.095l0,3.319l2.419,0c1.125,0 1.932,-0.563 1.932,-1.67c0,-1.125 -0.807,-1.649 -1.932,-1.649l-2.419,0Zm-2.419,11.12l0,-13.314l5.025,0c2.682,0 4.201,1.65 4.201,3.843c0,2.158 -1.519,3.864 -4.201,3.864l-2.606,0l0,5.607l-2.419,0Z" style="fill-rule:nonzero;"/><path d="M273.103,282.558c-0,-2.832 -2.025,-4.801 -4.669,-4.801c-2.683,0 -4.69,1.969 -4.69,4.801c0,2.832 2.007,4.801 4.69,4.801c2.644,0 4.668,-1.969 4.668,-4.801m-11.776,0c-0,-4.163 3.132,-6.995 7.108,-6.995c3.957,0 7.087,2.832 7.087,6.995c0,4.163 -3.13,6.995 -7.087,6.995c-3.976,0 -7.108,-2.832 -7.108,-6.995" style="fill-rule:nonzero;"/><path d="M279.757,289.215l-0,-11.12l-3.619,0l-0,-2.194l9.658,0l-0,2.194l-3.62,0l-0,11.12l-2.419,0Z" style="fill-rule:nonzero;"/><path d="M289.488,284.415l3.995,-0l-1.988,-5.42l-2.007,5.42Zm-4.482,4.801l5.251,-13.315l2.475,-0l5.251,13.315l-2.663,-0l-1.013,-2.57l-5.625,-0l-0.994,2.57l-2.682,-0Z" style="fill-rule:nonzero;"/><path d="M56.429,307.421l3.995,-0l-1.988,-5.42l-2.007,5.42Zm-4.482,4.801l5.251,-13.315l2.475,-0l5.251,13.315l-2.663,-0l-1.013,-2.57l-5.625,-0l-0.994,2.57l-2.682,-0Z" style="fill-rule:nonzero;"/><path d="M70.266,312.221l-0,-13.314l2.532,0l6.77,9.282l-0,-9.282l2.382,0l-0,13.314l-2.382,0l-6.92,-9.451l-0,9.451l-2.382,0Z" style="fill-rule:nonzero;"/><path d="M85.098,312.221l-0,-13.314l7.876,0l-0,2.194l-5.532,0l-0,3.338l5.213,0l-0,2.193l-5.213,0l-0,3.395l5.626,0l-0,2.194l-7.97,0Z" style="fill-rule:nonzero;"/><path d="M98.073,301.101l-0,3.319l2.063,0c1.125,0 1.931,-0.563 1.931,-1.67c-0,-1.125 -0.806,-1.649 -1.931,-1.649l-2.063,0Zm-2.419,11.12l-0,-13.314l4.669,0c2.682,0 4.201,1.65 4.201,3.843c-0,2.158 -1.519,3.864 -4.201,3.864l-0.468,0l1.687,0.562l3.77,5.045l-3.076,0l-4.163,-5.738l-0,5.738l-2.419,0Z" style="fill-rule:nonzero;"/><path d="M107.035,306.877l-0,-7.97l2.419,-0l-0,8.139c-0,2.382 1.481,3.281 3,3.281c1.576,-0 3.039,-0.899 3.039,-3.281l-0,-8.139l2.418,-0l-0,7.97c-0,4.313 -2.925,5.683 -5.457,5.683c-2.494,-0 -5.419,-1.37 -5.419,-5.683" style="fill-rule:nonzero;"/><path d="M123.535,298.157l-2.194,-1.876l1.688,-0l1.331,0.676l1.332,-0.676l1.687,-0l-2.194,1.876l-1.65,-0Zm0.712,14.289c-1.368,-0 -2.587,-0.431 -3.919,-0.881l0,-2.532l3.845,1.313c1.256,-0 2.044,-0.582 2.044,-1.707c0,-2.794 -5.851,-1.856 -5.851,-6.413c0,-2.1 1.631,-3.545 3.994,-3.545c1.275,-0 2.419,0.301 3.451,0.695l0,2.512l-3.395,-1.125c-1.05,-0 -1.688,0.6 -1.688,1.425c0,2.476 5.889,1.876 5.889,6.433c0,2.363 -1.819,3.825 -4.37,3.825" style="fill-rule:nonzero;"/><path d="M135.103,312.221l0,-13.314l2.531,0l6.77,9.282l0,-9.282l2.382,0l0,13.314l-2.382,0l-6.92,-9.451l0,9.451l-2.381,0Z" style="fill-rule:nonzero;"/><path d="M152.916,307.421l3.995,-0l-1.988,-5.42l-2.007,5.42Zm-0.356,-9.451l0,-0.563l4.726,-1.032l0,1.595l-4.726,-0Zm-4.126,14.252l5.251,-13.315l2.475,-0l5.251,13.315l-2.663,-0l-1.012,-2.57l-5.626,-0l-0.994,2.57l-2.681,-0Z" style="fill-rule:nonzero;"/><path d="M165.666,298.157l-2.194,-1.876l1.688,-0l1.331,0.676l1.332,-0.676l1.687,-0l-2.194,1.876l-1.65,-0Zm0.712,14.289c-1.368,-0 -2.587,-0.431 -3.919,-0.881l0,-2.532l3.845,1.313c1.256,-0 2.044,-0.582 2.044,-1.707c0,-2.794 -5.851,-1.856 -5.851,-6.413c0,-2.1 1.631,-3.545 3.994,-3.545c1.275,-0 2.419,0.301 3.451,0.695l0,2.512l-3.395,-1.125c-1.05,-0 -1.688,0.6 -1.688,1.425c0,2.476 5.889,1.876 5.889,6.433c0,2.363 -1.819,3.825 -4.37,3.825" style="fill-rule:nonzero;"/><path d="M177.234,312.221l0,-13.314l2.532,0l6.77,9.282l0,-9.282l2.382,0l0,13.314l-2.382,0l-6.92,-9.451l0,9.451l-2.382,0Z" style="fill-rule:nonzero;"/><path d="M311.539,313.347c-1.875,-2.119 -2.7,-4.914 -2.7,-7.783c0,-2.869 0.825,-5.663 2.7,-7.782l2.231,0l-1.743,2.25c-0.901,1.744 -1.032,3.6 -1.032,5.532c0,1.931 0.131,3.788 1.032,5.532l1.743,2.251l-2.231,0Zm-9.657,-8.89l5.026,0l0,1.913l-5.026,0l0,-1.913Zm-4.724,5.327l2.532,0l0,2.438l-2.532,0l0,-2.438Zm0,-6.714l2.532,0l0,2.438l-2.532,0l0,-2.438Zm-12.917,-1.969l0,3.319l2.063,0c1.125,0 1.931,-0.562 1.931,-1.669c0,-1.125 -0.806,-1.65 -1.931,-1.65l-2.063,0Zm-2.419,11.12l0,-13.314l4.669,0c2.682,0 4.201,1.65 4.201,3.844c0,2.157 -1.519,3.864 -4.201,3.864l-0.469,0l1.688,0.562l3.769,5.044l-3.075,0l-4.163,-5.738l0,5.738l-2.419,0Zm-10.556,0l0,-13.314l7.876,0l0,2.194l-5.532,0l0,3.338l5.213,0l0,2.194l-5.213,0l0,3.395l5.626,0l0,2.193l-7.97,0Zm-7.969,0l0,-11.12l-3.619,0l0,-2.194l9.658,0l0,2.194l-3.619,0l0,11.12l-2.42,0Zm-10.368,0l0,-11.12l-3.619,0l0,-2.194l9.657,0l0,2.194l-3.619,0l0,11.12l-2.419,0Zm-12.957,0l0,-13.314l7.877,0l0,2.194l-5.533,0l0,3.338l5.214,0l0,2.194l-5.214,0l0,3.395l5.626,0l0,2.193l-7.97,0Zm-9.994,0l0,-13.314l2.42,0l0,11.121l5.701,0l0,2.193l-8.121,0Zm-6.655,0.226c-1.369,0 -2.588,-0.432 -3.92,-0.882l0,-2.531l3.845,1.312c1.256,0 2.044,-0.581 2.044,-1.706c0,-2.795 -5.851,-1.857 -5.851,-6.414c0,-2.101 1.631,-3.544 3.994,-3.544c1.275,0 2.419,0.3 3.451,0.693l0,2.513l-3.394,-1.125c-1.051,0 -1.688,0.601 -1.688,1.426c0,2.475 5.888,1.875 5.888,6.431c0,2.364 -1.819,3.827 -4.369,3.827m-18.319,-0.226l-3.638,-13.314l2.475,0l2.307,9.564l2.513,-9.564l2.306,0l2.494,9.564l2.326,-9.564l2.475,0l-3.638,13.314l-2.325,0l-2.494,-9.433l-2.476,9.433l-2.325,0Zm-12.938,0l0,-13.314l7.876,0l0,2.194l-5.532,0l0,3.338l5.213,0l0,2.194l-5.213,0l0,3.395l5.626,0l0,2.193l-7.97,0Z" style="fill-rule:nonzero;"/></g></g></svg>